G04 #@! TF.GenerationSoftware,KiCad,Pcbnew,8.0.4*
G04 #@! TF.CreationDate,2025-03-20T14:50:27-05:00*
G04 #@! TF.ProjectId,Turret,54757272-6574-42e6-9b69-6361645f7063,rev?*
G04 #@! TF.SameCoordinates,Original*
G04 #@! TF.FileFunction,Soldermask,Bot*
G04 #@! TF.FilePolarity,Negative*
%FSLAX46Y46*%
G04 Gerber Fmt 4.6, Leading zero omitted, Abs format (unit mm)*
G04 Created by KiCad (PCBNEW 8.0.4) date 2025-03-20 14:50:27*
%MOMM*%
%LPD*%
G01*
G04 APERTURE LIST*
%ADD10C,1.600000*%
%ADD11R,1.520000X1.520000*%
%ADD12C,1.520000*%
%ADD13R,3.800000X3.800000*%
%ADD14C,4.000000*%
%ADD15C,3.000000*%
%ADD16C,1.400000*%
%ADD17C,1.381000*%
G04 APERTURE END LIST*
D10*
X124370000Y-57950001D03*
D11*
X131200000Y-56200001D03*
D12*
X131200000Y-59700001D03*
X131200000Y-63200001D03*
X131200000Y-66700001D03*
X126600000Y-56200001D03*
X126600000Y-59700001D03*
X126600000Y-63200001D03*
X126600000Y-66700001D03*
D13*
X71167000Y-42926000D03*
D14*
X66167000Y-42926000D03*
D15*
X44450000Y-38100000D03*
D13*
X128500000Y-42500000D03*
D14*
X123500000Y-42500000D03*
D13*
X99441000Y-42926000D03*
D14*
X94441000Y-42926000D03*
D15*
X140450000Y-38100000D03*
X140450000Y-84100000D03*
D13*
X128500000Y-79000000D03*
D14*
X123500000Y-79000000D03*
D13*
X65750000Y-78994000D03*
D14*
X70750000Y-78994000D03*
D13*
X94500000Y-78994000D03*
D14*
X99500000Y-78994000D03*
D16*
X85200000Y-65550000D03*
D17*
X86400000Y-60500000D03*
X86400000Y-62500000D03*
X88400000Y-60500000D03*
X88400000Y-62500000D03*
X90400000Y-60500000D03*
X90400000Y-62500000D03*
X92400000Y-60500000D03*
X92400000Y-62500000D03*
X94400000Y-60500000D03*
X94400000Y-62500000D03*
X96400000Y-60500000D03*
X96400000Y-62500000D03*
X98400000Y-60500000D03*
X98400000Y-62500000D03*
X100400000Y-60500000D03*
X100400000Y-62500000D03*
D15*
X44450000Y-84100000D03*
M02*
