G04 #@! TF.GenerationSoftware,KiCad,Pcbnew,9.0.0*
G04 #@! TF.CreationDate,2025-03-25T13:32:25-05:00*
G04 #@! TF.ProjectId,Turret,54757272-6574-42e6-9b69-6361645f7063,rev?*
G04 #@! TF.SameCoordinates,Original*
G04 #@! TF.FileFunction,Copper,L1,Top*
G04 #@! TF.FilePolarity,Positive*
%FSLAX46Y46*%
G04 Gerber Fmt 4.6, Leading zero omitted, Abs format (unit mm)*
G04 Created by KiCad (PCBNEW 9.0.0) date 2025-03-25 13:32:25*
%MOMM*%
%LPD*%
G01*
G04 APERTURE LIST*
G04 Aperture macros list*
%AMRoundRect*
0 Rectangle with rounded corners*
0 $1 Rounding radius*
0 $2 $3 $4 $5 $6 $7 $8 $9 X,Y pos of 4 corners*
0 Add a 4 corners polygon primitive as box body*
4,1,4,$2,$3,$4,$5,$6,$7,$8,$9,$2,$3,0*
0 Add four circle primitives for the rounded corners*
1,1,$1+$1,$2,$3*
1,1,$1+$1,$4,$5*
1,1,$1+$1,$6,$7*
1,1,$1+$1,$8,$9*
0 Add four rect primitives between the rounded corners*
20,1,$1+$1,$2,$3,$4,$5,0*
20,1,$1+$1,$4,$5,$6,$7,0*
20,1,$1+$1,$6,$7,$8,$9,0*
20,1,$1+$1,$8,$9,$2,$3,0*%
G04 Aperture macros list end*
G04 #@! TA.AperFunction,ComponentPad*
%ADD10C,1.381000*%
G04 #@! TD*
G04 #@! TA.AperFunction,ComponentPad*
%ADD11R,1.520000X1.520000*%
G04 #@! TD*
G04 #@! TA.AperFunction,ComponentPad*
%ADD12C,1.520000*%
G04 #@! TD*
G04 #@! TA.AperFunction,SMDPad,CuDef*
%ADD13RoundRect,0.150000X-0.150000X-0.700000X0.150000X-0.700000X0.150000X0.700000X-0.150000X0.700000X0*%
G04 #@! TD*
G04 #@! TA.AperFunction,SMDPad,CuDef*
%ADD14RoundRect,0.250000X-0.250000X-1.150000X0.250000X-1.150000X0.250000X1.150000X-0.250000X1.150000X0*%
G04 #@! TD*
G04 #@! TA.AperFunction,SMDPad,CuDef*
%ADD15RoundRect,0.237500X-0.287500X-0.237500X0.287500X-0.237500X0.287500X0.237500X-0.287500X0.237500X0*%
G04 #@! TD*
G04 #@! TA.AperFunction,ComponentPad*
%ADD16R,3.800000X3.800000*%
G04 #@! TD*
G04 #@! TA.AperFunction,ComponentPad*
%ADD17C,4.000000*%
G04 #@! TD*
G04 #@! TA.AperFunction,SMDPad,CuDef*
%ADD18RoundRect,0.150000X-0.700000X0.150000X-0.700000X-0.150000X0.700000X-0.150000X0.700000X0.150000X0*%
G04 #@! TD*
G04 #@! TA.AperFunction,SMDPad,CuDef*
%ADD19RoundRect,0.250000X-1.150000X0.250000X-1.150000X-0.250000X1.150000X-0.250000X1.150000X0.250000X0*%
G04 #@! TD*
G04 #@! TA.AperFunction,SMDPad,CuDef*
%ADD20RoundRect,0.150000X0.700000X-0.150000X0.700000X0.150000X-0.700000X0.150000X-0.700000X-0.150000X0*%
G04 #@! TD*
G04 #@! TA.AperFunction,SMDPad,CuDef*
%ADD21RoundRect,0.250000X1.150000X-0.250000X1.150000X0.250000X-1.150000X0.250000X-1.150000X-0.250000X0*%
G04 #@! TD*
G04 #@! TA.AperFunction,SMDPad,CuDef*
%ADD22RoundRect,0.237500X0.250000X0.237500X-0.250000X0.237500X-0.250000X-0.237500X0.250000X-0.237500X0*%
G04 #@! TD*
G04 #@! TA.AperFunction,SMDPad,CuDef*
%ADD23RoundRect,0.237500X-0.250000X-0.237500X0.250000X-0.237500X0.250000X0.237500X-0.250000X0.237500X0*%
G04 #@! TD*
G04 #@! TA.AperFunction,ViaPad*
%ADD24C,0.800000*%
G04 #@! TD*
G04 #@! TA.AperFunction,Conductor*
%ADD25C,0.250000*%
G04 #@! TD*
G04 #@! TA.AperFunction,Conductor*
%ADD26C,0.200000*%
G04 #@! TD*
G04 APERTURE END LIST*
D10*
X86400000Y-60500000D03*
X86400000Y-62500000D03*
X88400000Y-60500000D03*
X88400000Y-62500000D03*
X90400000Y-60500000D03*
X90400000Y-62500000D03*
X92400000Y-60500000D03*
X92400000Y-62500000D03*
X94400000Y-60500000D03*
X94400000Y-62500000D03*
X96400000Y-60500000D03*
X96400000Y-62500000D03*
X98400000Y-60500000D03*
X98400000Y-62500000D03*
X100400000Y-60500000D03*
X100400000Y-62500000D03*
D11*
X131200000Y-56200001D03*
D12*
X131200000Y-59700001D03*
X131200000Y-63200001D03*
X131200000Y-66700001D03*
X126600000Y-56200001D03*
X126600000Y-59700001D03*
X126600000Y-63200001D03*
X126600000Y-66700001D03*
D13*
X82189000Y-81328000D03*
X83439000Y-81328000D03*
D14*
X80339000Y-77978000D03*
X85289000Y-77978000D03*
D15*
X109125001Y-80100000D03*
X110874999Y-80100000D03*
D13*
X111073000Y-44752000D03*
X112323000Y-44752000D03*
D14*
X109223000Y-41402000D03*
X114173000Y-41402000D03*
D15*
X109125001Y-72100000D03*
X110874999Y-72100000D03*
D16*
X71167000Y-42926000D03*
D17*
X66167000Y-42926000D03*
D18*
X111633000Y-57561000D03*
X111633000Y-58811000D03*
X111633000Y-60061000D03*
X111633000Y-61311000D03*
D19*
X114983000Y-55711000D03*
X114983000Y-63161000D03*
D13*
X53487000Y-44577000D03*
X54737000Y-44577000D03*
D14*
X51637000Y-41227000D03*
X56587000Y-41227000D03*
D15*
X109125001Y-76100000D03*
X110874999Y-76100000D03*
D13*
X53360000Y-81534000D03*
X54610000Y-81534000D03*
D14*
X51510000Y-78184000D03*
X56460000Y-78184000D03*
D16*
X128500000Y-42500000D03*
D17*
X123500000Y-42500000D03*
D20*
X55350000Y-59575000D03*
X55350000Y-58325000D03*
X55350000Y-57075000D03*
X55350000Y-55825000D03*
D21*
X52000000Y-61425000D03*
X52000000Y-53975000D03*
D22*
X116912500Y-76100000D03*
X115087500Y-76100000D03*
D16*
X99441000Y-42926000D03*
D17*
X94441000Y-42926000D03*
D23*
X109087500Y-83100000D03*
X110912500Y-83100000D03*
D16*
X128500000Y-79000000D03*
D17*
X123500000Y-79000000D03*
D16*
X65750000Y-78994000D03*
D17*
X70750000Y-78994000D03*
D16*
X94500000Y-78994000D03*
D17*
X99500000Y-78994000D03*
D22*
X117000000Y-72080000D03*
X115175000Y-72080000D03*
D13*
X82189000Y-44577000D03*
X83439000Y-44577000D03*
D14*
X80339000Y-41227000D03*
X85289000Y-41227000D03*
D20*
X70550000Y-68575000D03*
X70550000Y-67325000D03*
X70550000Y-66075000D03*
X70550000Y-64825000D03*
D21*
X67200000Y-70425000D03*
X67200000Y-62975000D03*
D24*
X71500000Y-52324000D03*
X75946000Y-52324000D03*
X73426000Y-53340000D03*
X81300000Y-82700000D03*
X79400000Y-84600004D03*
D25*
X83439000Y-44852908D02*
X83439000Y-44577000D01*
X54610000Y-81534000D02*
X56876000Y-83800000D01*
X56876000Y-83800000D02*
X81935000Y-83800000D01*
X81935000Y-83800000D02*
X83439000Y-82296000D01*
X83439000Y-75461000D02*
X96400000Y-62500000D01*
X83439000Y-81328000D02*
X83439000Y-75461000D01*
X75967908Y-52324000D02*
X83439000Y-44852908D01*
X62230000Y-52324000D02*
X71500000Y-52324000D01*
X83491000Y-44779000D02*
X83491000Y-44498000D01*
X83439000Y-44548200D02*
X83447200Y-44540000D01*
X83439000Y-82296000D02*
X83439000Y-81328000D01*
X54590000Y-44540000D02*
X54590000Y-44684000D01*
X54590000Y-44684000D02*
X62230000Y-52324000D01*
X75946000Y-52324000D02*
X75967908Y-52324000D01*
X53487000Y-45426999D02*
X61400001Y-53340000D01*
X82189000Y-81328000D02*
X82189000Y-81811000D01*
X61400001Y-53340000D02*
X73426000Y-53340000D01*
X53487000Y-44577000D02*
X53487000Y-45426999D01*
X82189000Y-81811000D02*
X81300000Y-82700000D01*
X53360000Y-81534000D02*
X53360000Y-82383999D01*
X53360000Y-82383999D02*
X55576005Y-84600004D01*
X53340000Y-81327000D02*
X53340000Y-81840000D01*
X55576005Y-84600004D02*
X79400000Y-84600004D01*
X82189000Y-44577000D02*
X73426000Y-53340000D01*
X82189000Y-74711000D02*
X82189000Y-81328000D01*
X94400000Y-62500000D02*
X82189000Y-74711000D01*
X70550000Y-67325000D02*
X85575000Y-67325000D01*
X85575000Y-67325000D02*
X90400000Y-62500000D01*
X73003999Y-64471000D02*
X71399999Y-66075000D01*
X88400000Y-62500000D02*
X86429000Y-64471000D01*
X86429000Y-64471000D02*
X73003999Y-64471000D01*
X71399999Y-66075000D02*
X70550000Y-66075000D01*
X109125001Y-76100000D02*
X109125001Y-76125001D01*
X115700000Y-82700000D02*
X124800000Y-82700000D01*
X124800000Y-82700000D02*
X128500000Y-79000000D01*
X109125001Y-76125001D02*
X115700000Y-82700000D01*
X99500000Y-78994000D02*
X104981500Y-78994000D01*
X104981500Y-78994000D02*
X109087500Y-83100000D01*
X117000000Y-69300001D02*
X126600000Y-59700001D01*
X117000000Y-72080000D02*
X117000000Y-69300001D01*
X116912500Y-76100000D02*
X120600000Y-76100000D01*
X120600000Y-76100000D02*
X123500000Y-79000000D01*
X55350000Y-55825000D02*
X87725000Y-55825000D01*
X87725000Y-55825000D02*
X92400000Y-60500000D01*
X109125001Y-72100000D02*
X110925001Y-73900000D01*
X128900000Y-67600000D02*
X128900000Y-62000001D01*
X110925001Y-73900000D02*
X122600000Y-73900000D01*
X128900000Y-62000001D02*
X131200000Y-59700001D01*
X122600000Y-73900000D02*
X128900000Y-67600000D01*
X86325000Y-68575000D02*
X92400000Y-62500000D01*
X70550000Y-68575000D02*
X86325000Y-68575000D01*
X72875000Y-62500000D02*
X70550000Y-64825000D01*
X86400000Y-62500000D02*
X72875000Y-62500000D01*
X101339000Y-57561000D02*
X98400000Y-60500000D01*
X111633000Y-57561000D02*
X101339000Y-57561000D01*
X111633000Y-61311000D02*
X103689000Y-61311000D01*
X99900000Y-64000000D02*
X98400000Y-62500000D01*
X101000000Y-64000000D02*
X99900000Y-64000000D01*
X103689000Y-61311000D02*
X101000000Y-64000000D01*
X110148000Y-44752000D02*
X111073000Y-44752000D01*
X94400000Y-60500000D02*
X110148000Y-44752000D01*
X110998000Y-44596400D02*
X111054400Y-44540000D01*
X96850908Y-60500000D02*
X96400000Y-60500000D01*
X112323000Y-45027908D02*
X96850908Y-60500000D01*
X112323000Y-44752000D02*
X112323000Y-45027908D01*
X85475000Y-59575000D02*
X86400000Y-60500000D01*
X55350000Y-59575000D02*
X85475000Y-59575000D01*
X102089000Y-58811000D02*
X100400000Y-60500000D01*
X111633000Y-58967000D02*
X111600000Y-59000000D01*
X111633000Y-58811000D02*
X111633000Y-58967000D01*
X111633000Y-58811000D02*
X102089000Y-58811000D01*
X111633000Y-60061000D02*
X102839000Y-60061000D01*
X102839000Y-60061000D02*
X100400000Y-62500000D01*
X110912500Y-80137501D02*
X110874999Y-80100000D01*
X110912500Y-83100000D02*
X110912500Y-80137501D01*
X110894999Y-72080000D02*
X110874999Y-72100000D01*
X115175000Y-72080000D02*
X110894999Y-72080000D01*
X110874999Y-76100000D02*
X115087500Y-76100000D01*
D26*
X55350000Y-58325000D02*
X86225000Y-58325000D01*
X86225000Y-58325000D02*
X88400000Y-60500000D01*
X86975000Y-57075000D02*
X90400000Y-60500000D01*
X55350000Y-57075000D02*
X86975000Y-57075000D01*
G04 #@! TA.AperFunction,Conductor*
G36*
X140453032Y-34400648D02*
G01*
X140806532Y-34418015D01*
X140818640Y-34419208D01*
X140927576Y-34435367D01*
X141165717Y-34470692D01*
X141177635Y-34473062D01*
X141518008Y-34558321D01*
X141529646Y-34561852D01*
X141859996Y-34680054D01*
X141871237Y-34684710D01*
X142096857Y-34791419D01*
X142188433Y-34834731D01*
X142199150Y-34840459D01*
X142500102Y-35020843D01*
X142510220Y-35027603D01*
X142792049Y-35236622D01*
X142801455Y-35244342D01*
X143061436Y-35479974D01*
X143070025Y-35488563D01*
X143231782Y-35667035D01*
X143305657Y-35748544D01*
X143313377Y-35757950D01*
X143522396Y-36039779D01*
X143529156Y-36049897D01*
X143706334Y-36345501D01*
X143709533Y-36350837D01*
X143715270Y-36361570D01*
X143865289Y-36678762D01*
X143869945Y-36690003D01*
X143988147Y-37020353D01*
X143991680Y-37031998D01*
X144076934Y-37372351D01*
X144079308Y-37384287D01*
X144130791Y-37731359D01*
X144131984Y-37743468D01*
X144149351Y-38096966D01*
X144149500Y-38103051D01*
X144149500Y-84096948D01*
X144149351Y-84103033D01*
X144131984Y-84456531D01*
X144130791Y-84468640D01*
X144079308Y-84815712D01*
X144076934Y-84827648D01*
X143991680Y-85168001D01*
X143988147Y-85179646D01*
X143869945Y-85509996D01*
X143865289Y-85521237D01*
X143715270Y-85838429D01*
X143709533Y-85849162D01*
X143529156Y-86150102D01*
X143522396Y-86160220D01*
X143313377Y-86442049D01*
X143305657Y-86451455D01*
X143070033Y-86711428D01*
X143061428Y-86720033D01*
X142801455Y-86955657D01*
X142792049Y-86963377D01*
X142510220Y-87172396D01*
X142500102Y-87179156D01*
X142199162Y-87359533D01*
X142188429Y-87365270D01*
X141871237Y-87515289D01*
X141859996Y-87519945D01*
X141529646Y-87638147D01*
X141518001Y-87641680D01*
X141177648Y-87726934D01*
X141165712Y-87729308D01*
X140818640Y-87780791D01*
X140806531Y-87781984D01*
X140473016Y-87798369D01*
X140453031Y-87799351D01*
X140446949Y-87799500D01*
X44453051Y-87799500D01*
X44446968Y-87799351D01*
X44425811Y-87798311D01*
X44093468Y-87781984D01*
X44081359Y-87780791D01*
X43734287Y-87729308D01*
X43722351Y-87726934D01*
X43381998Y-87641680D01*
X43370353Y-87638147D01*
X43040003Y-87519945D01*
X43028762Y-87515289D01*
X42711570Y-87365270D01*
X42700842Y-87359535D01*
X42399897Y-87179156D01*
X42389779Y-87172396D01*
X42107950Y-86963377D01*
X42098544Y-86955657D01*
X41982295Y-86850296D01*
X41838563Y-86720025D01*
X41829974Y-86711436D01*
X41594342Y-86451455D01*
X41586622Y-86442049D01*
X41377603Y-86160220D01*
X41370843Y-86150102D01*
X41190459Y-85849150D01*
X41184729Y-85838429D01*
X41034710Y-85521237D01*
X41030054Y-85509996D01*
X40911852Y-85179646D01*
X40908319Y-85168001D01*
X40904890Y-85154311D01*
X40823062Y-84827635D01*
X40820691Y-84815712D01*
X40801850Y-84688699D01*
X40769208Y-84468640D01*
X40768015Y-84456530D01*
X40767351Y-84443022D01*
X40750649Y-84103032D01*
X40750500Y-84096948D01*
X40750500Y-83985010D01*
X42695500Y-83985010D01*
X42695500Y-84214989D01*
X42695501Y-84215005D01*
X42725518Y-84443009D01*
X42725519Y-84443014D01*
X42725520Y-84443020D01*
X42743819Y-84511313D01*
X42785046Y-84665175D01*
X42785049Y-84665185D01*
X42873057Y-84877654D01*
X42873061Y-84877664D01*
X42988055Y-85076839D01*
X43128064Y-85259303D01*
X43128070Y-85259310D01*
X43290689Y-85421929D01*
X43290696Y-85421935D01*
X43473160Y-85561944D01*
X43672335Y-85676938D01*
X43672336Y-85676938D01*
X43672339Y-85676940D01*
X43884824Y-85764954D01*
X44106980Y-85824480D01*
X44335004Y-85854500D01*
X44335011Y-85854500D01*
X44564989Y-85854500D01*
X44564996Y-85854500D01*
X44793020Y-85824480D01*
X45015176Y-85764954D01*
X45227661Y-85676940D01*
X45426840Y-85561944D01*
X45609305Y-85421934D01*
X45771934Y-85259305D01*
X45911944Y-85076840D01*
X46026940Y-84877661D01*
X46114954Y-84665176D01*
X46174480Y-84443020D01*
X46204500Y-84214996D01*
X46204500Y-83985004D01*
X46174480Y-83756980D01*
X46114954Y-83534824D01*
X46026940Y-83322339D01*
X46022367Y-83314419D01*
X45911944Y-83123160D01*
X45771935Y-82940696D01*
X45771929Y-82940689D01*
X45609310Y-82778070D01*
X45609303Y-82778064D01*
X45426839Y-82638055D01*
X45227664Y-82523061D01*
X45227654Y-82523057D01*
X45015185Y-82435049D01*
X45015178Y-82435047D01*
X45015176Y-82435046D01*
X44793020Y-82375520D01*
X44793014Y-82375519D01*
X44793009Y-82375518D01*
X44565005Y-82345501D01*
X44565002Y-82345500D01*
X44564996Y-82345500D01*
X44335004Y-82345500D01*
X44334998Y-82345500D01*
X44334994Y-82345501D01*
X44106990Y-82375518D01*
X44106983Y-82375519D01*
X44106980Y-82375520D01*
X44009461Y-82401650D01*
X43884824Y-82435046D01*
X43884814Y-82435049D01*
X43672345Y-82523057D01*
X43672335Y-82523061D01*
X43473160Y-82638055D01*
X43290696Y-82778064D01*
X43290689Y-82778070D01*
X43128070Y-82940689D01*
X43128064Y-82940696D01*
X42988055Y-83123160D01*
X42873061Y-83322335D01*
X42873057Y-83322345D01*
X42785049Y-83534814D01*
X42785046Y-83534824D01*
X42725521Y-83756977D01*
X42725518Y-83756990D01*
X42695501Y-83984994D01*
X42695500Y-83985010D01*
X40750500Y-83985010D01*
X40750500Y-80768298D01*
X52559500Y-80768298D01*
X52559500Y-82299701D01*
X52562401Y-82336567D01*
X52562402Y-82336573D01*
X52608254Y-82494393D01*
X52608255Y-82494396D01*
X52691917Y-82635862D01*
X52691923Y-82635870D01*
X52808129Y-82752076D01*
X52808135Y-82752081D01*
X52881182Y-82795280D01*
X52905735Y-82814325D01*
X52961267Y-82869857D01*
X52961269Y-82869858D01*
X55090146Y-84998736D01*
X55090147Y-84998737D01*
X55168249Y-85076839D01*
X55177273Y-85085863D01*
X55279712Y-85154311D01*
X55279718Y-85154314D01*
X55279719Y-85154315D01*
X55393553Y-85201467D01*
X55453976Y-85213485D01*
X55514398Y-85225504D01*
X55514399Y-85225504D01*
X78700639Y-85225504D01*
X78767678Y-85245189D01*
X78788321Y-85261824D01*
X78825961Y-85299465D01*
X78825965Y-85299468D01*
X78973446Y-85398013D01*
X78973459Y-85398020D01*
X79096363Y-85448927D01*
X79137334Y-85465898D01*
X79137336Y-85465898D01*
X79137341Y-85465900D01*
X79311304Y-85500503D01*
X79311307Y-85500504D01*
X79311309Y-85500504D01*
X79488693Y-85500504D01*
X79488694Y-85500503D01*
X79546682Y-85488968D01*
X79662658Y-85465900D01*
X79662661Y-85465898D01*
X79662666Y-85465898D01*
X79826547Y-85398017D01*
X79974035Y-85299468D01*
X80099464Y-85174039D01*
X80198013Y-85026551D01*
X80265894Y-84862670D01*
X80272861Y-84827648D01*
X80300499Y-84688699D01*
X80300500Y-84688697D01*
X80300500Y-84549500D01*
X80320185Y-84482461D01*
X80372989Y-84436706D01*
X80424500Y-84425500D01*
X81996607Y-84425500D01*
X82057029Y-84413481D01*
X82117452Y-84401463D01*
X82150792Y-84387652D01*
X82231286Y-84354312D01*
X82282509Y-84320084D01*
X82333733Y-84285858D01*
X82420858Y-84198733D01*
X82420859Y-84198731D01*
X82427925Y-84191665D01*
X82427928Y-84191661D01*
X83837729Y-82781860D01*
X83837733Y-82781858D01*
X83924858Y-82694733D01*
X83993311Y-82592286D01*
X84018274Y-82532018D01*
X84045149Y-82491795D01*
X84107081Y-82429865D01*
X84190744Y-82288398D01*
X84236598Y-82130569D01*
X84239500Y-82093694D01*
X84239500Y-80562306D01*
X84236598Y-80525431D01*
X84225651Y-80487753D01*
X84196286Y-80386677D01*
X84190744Y-80367602D01*
X84107081Y-80226135D01*
X84107079Y-80226133D01*
X84107076Y-80226129D01*
X84100819Y-80219872D01*
X84067334Y-80158549D01*
X84064500Y-80132191D01*
X84064500Y-79341544D01*
X84084185Y-79274505D01*
X84136989Y-79228750D01*
X84206147Y-79218806D01*
X84269703Y-79247831D01*
X84306205Y-79302539D01*
X84354186Y-79447334D01*
X84446288Y-79596656D01*
X84570344Y-79720712D01*
X84719666Y-79812814D01*
X84886203Y-79867999D01*
X84988991Y-79878500D01*
X85589008Y-79878499D01*
X85589016Y-79878498D01*
X85589019Y-79878498D01*
X85655194Y-79871738D01*
X85691797Y-79867999D01*
X85858334Y-79812814D01*
X86007656Y-79720712D01*
X86131712Y-79596656D01*
X86223814Y-79447334D01*
X86278999Y-79280797D01*
X86287123Y-79201268D01*
X86289293Y-79180036D01*
X86289293Y-79180032D01*
X86289500Y-79178009D01*
X86289499Y-77046155D01*
X92100000Y-77046155D01*
X92100000Y-78744000D01*
X93172769Y-78744000D01*
X93150000Y-78887753D01*
X93150000Y-79100247D01*
X93172769Y-79244000D01*
X92100000Y-79244000D01*
X92100000Y-80941844D01*
X92106401Y-81001372D01*
X92106403Y-81001379D01*
X92156645Y-81136086D01*
X92156649Y-81136093D01*
X92242809Y-81251187D01*
X92242812Y-81251190D01*
X92357906Y-81337350D01*
X92357913Y-81337354D01*
X92492620Y-81387596D01*
X92492627Y-81387598D01*
X92552155Y-81393999D01*
X92552172Y-81394000D01*
X94250000Y-81394000D01*
X94250000Y-80321231D01*
X94393753Y-80344000D01*
X94606247Y-80344000D01*
X94750000Y-80321231D01*
X94750000Y-81394000D01*
X96447828Y-81394000D01*
X96447844Y-81393999D01*
X96507372Y-81387598D01*
X96507379Y-81387596D01*
X96642086Y-81337354D01*
X96642093Y-81337350D01*
X96757187Y-81251190D01*
X96757190Y-81251187D01*
X96843350Y-81136093D01*
X96843354Y-81136086D01*
X96893596Y-81001379D01*
X96893598Y-81001372D01*
X96899999Y-80941844D01*
X96900000Y-80941827D01*
X96900000Y-79864309D01*
X96919685Y-79797270D01*
X96972489Y-79751515D01*
X97041647Y-79741571D01*
X97105203Y-79770596D01*
X97141041Y-79823354D01*
X97186200Y-79952411D01*
X97308053Y-80205442D01*
X97332968Y-80245094D01*
X97457477Y-80443248D01*
X97632584Y-80662825D01*
X97831175Y-80861416D01*
X98050752Y-81036523D01*
X98288555Y-81185945D01*
X98541592Y-81307801D01*
X98644463Y-81343797D01*
X98806670Y-81400556D01*
X98806682Y-81400560D01*
X99080491Y-81463055D01*
X99080497Y-81463055D01*
X99080505Y-81463057D01*
X99266547Y-81484018D01*
X99359569Y-81494499D01*
X99359572Y-81494500D01*
X99359575Y-81494500D01*
X99640428Y-81494500D01*
X99640429Y-81494499D01*
X99783055Y-81478429D01*
X99919494Y-81463057D01*
X99919499Y-81463056D01*
X99919509Y-81463055D01*
X100193318Y-81400560D01*
X100458408Y-81307801D01*
X100711445Y-81185945D01*
X100949248Y-81036523D01*
X101168825Y-80861416D01*
X101367416Y-80662825D01*
X101542523Y-80443248D01*
X101691945Y-80205445D01*
X101813801Y-79952408D01*
X101853216Y-79839766D01*
X101901233Y-79702545D01*
X101941955Y-79645769D01*
X102006907Y-79620022D01*
X102018274Y-79619500D01*
X104671048Y-79619500D01*
X104738087Y-79639185D01*
X104758729Y-79655819D01*
X108063181Y-82960271D01*
X108096666Y-83021594D01*
X108099500Y-83047952D01*
X108099500Y-83386668D01*
X108099501Y-83386687D01*
X108109825Y-83487752D01*
X108164092Y-83651515D01*
X108164093Y-83651518D01*
X108198395Y-83707129D01*
X108254660Y-83798350D01*
X108376650Y-83920340D01*
X108523484Y-84010908D01*
X108687247Y-84065174D01*
X108788323Y-84075500D01*
X109386676Y-84075499D01*
X109386684Y-84075498D01*
X109386687Y-84075498D01*
X109442030Y-84069844D01*
X109487753Y-84065174D01*
X109651516Y-84010908D01*
X109798350Y-83920340D01*
X109912319Y-83806371D01*
X109973642Y-83772886D01*
X110043334Y-83777870D01*
X110087681Y-83806371D01*
X110201650Y-83920340D01*
X110348484Y-84010908D01*
X110512247Y-84065174D01*
X110613323Y-84075500D01*
X111211676Y-84075499D01*
X111211684Y-84075498D01*
X111211687Y-84075498D01*
X111267030Y-84069844D01*
X111312753Y-84065174D01*
X111476516Y-84010908D01*
X111518503Y-83985010D01*
X138695500Y-83985010D01*
X138695500Y-84214989D01*
X138695501Y-84215005D01*
X138725518Y-84443009D01*
X138725519Y-84443014D01*
X138725520Y-84443020D01*
X138743819Y-84511313D01*
X138785046Y-84665175D01*
X138785049Y-84665185D01*
X138873057Y-84877654D01*
X138873061Y-84877664D01*
X138988055Y-85076839D01*
X139128064Y-85259303D01*
X139128070Y-85259310D01*
X139290689Y-85421929D01*
X139290696Y-85421935D01*
X139473160Y-85561944D01*
X139672335Y-85676938D01*
X139672336Y-85676938D01*
X139672339Y-85676940D01*
X139884824Y-85764954D01*
X140106980Y-85824480D01*
X140335004Y-85854500D01*
X140335011Y-85854500D01*
X140564989Y-85854500D01*
X140564996Y-85854500D01*
X140793020Y-85824480D01*
X141015176Y-85764954D01*
X141227661Y-85676940D01*
X141426840Y-85561944D01*
X141609305Y-85421934D01*
X141771934Y-85259305D01*
X141911944Y-85076840D01*
X142026940Y-84877661D01*
X142114954Y-84665176D01*
X142174480Y-84443020D01*
X142204500Y-84214996D01*
X142204500Y-83985004D01*
X142174480Y-83756980D01*
X142114954Y-83534824D01*
X142026940Y-83322339D01*
X142022367Y-83314419D01*
X141911944Y-83123160D01*
X141771935Y-82940696D01*
X141771929Y-82940689D01*
X141609310Y-82778070D01*
X141609303Y-82778064D01*
X141426839Y-82638055D01*
X141227664Y-82523061D01*
X141227654Y-82523057D01*
X141015185Y-82435049D01*
X141015178Y-82435047D01*
X141015176Y-82435046D01*
X140793020Y-82375520D01*
X140793014Y-82375519D01*
X140793009Y-82375518D01*
X140565005Y-82345501D01*
X140565002Y-82345500D01*
X140564996Y-82345500D01*
X140335004Y-82345500D01*
X140334998Y-82345500D01*
X140334994Y-82345501D01*
X140106990Y-82375518D01*
X140106983Y-82375519D01*
X140106980Y-82375520D01*
X140009461Y-82401650D01*
X139884824Y-82435046D01*
X139884814Y-82435049D01*
X139672345Y-82523057D01*
X139672335Y-82523061D01*
X139473160Y-82638055D01*
X139290696Y-82778064D01*
X139290689Y-82778070D01*
X139128070Y-82940689D01*
X139128064Y-82940696D01*
X138988055Y-83123160D01*
X138873061Y-83322335D01*
X138873057Y-83322345D01*
X138785049Y-83534814D01*
X138785046Y-83534824D01*
X138725521Y-83756977D01*
X138725518Y-83756990D01*
X138695501Y-83984994D01*
X138695500Y-83985010D01*
X111518503Y-83985010D01*
X111623350Y-83920340D01*
X111745340Y-83798350D01*
X111835908Y-83651516D01*
X111890174Y-83487753D01*
X111900500Y-83386677D01*
X111900499Y-82813324D01*
X111898006Y-82788923D01*
X111890174Y-82712247D01*
X111856726Y-82611309D01*
X111835908Y-82548484D01*
X111745340Y-82401650D01*
X111623350Y-82279660D01*
X111623347Y-82279657D01*
X111596901Y-82263345D01*
X111550178Y-82211397D01*
X111538000Y-82157808D01*
X111538000Y-81042189D01*
X111557685Y-80975150D01*
X111596900Y-80936653D01*
X111623349Y-80920340D01*
X111745339Y-80798350D01*
X111835907Y-80651516D01*
X111890173Y-80487753D01*
X111900499Y-80386677D01*
X111900498Y-80084448D01*
X111920182Y-80017411D01*
X111972986Y-79971656D01*
X112042145Y-79961712D01*
X112105700Y-79990737D01*
X112112179Y-79996769D01*
X115214139Y-83098729D01*
X115214142Y-83098733D01*
X115301267Y-83185858D01*
X115378190Y-83237256D01*
X115383990Y-83241132D01*
X115383993Y-83241134D01*
X115403710Y-83254309D01*
X115403712Y-83254310D01*
X115403715Y-83254312D01*
X115470396Y-83281931D01*
X115470398Y-83281933D01*
X115510640Y-83298601D01*
X115517548Y-83301463D01*
X115577971Y-83313481D01*
X115638393Y-83325500D01*
X124861607Y-83325500D01*
X124922029Y-83313481D01*
X124982452Y-83301463D01*
X125015792Y-83287652D01*
X125096286Y-83254312D01*
X125147509Y-83220084D01*
X125198733Y-83185858D01*
X125285858Y-83098733D01*
X125285859Y-83098731D01*
X125292925Y-83091665D01*
X125292928Y-83091661D01*
X126947771Y-81436818D01*
X127009094Y-81403333D01*
X127035452Y-81400499D01*
X130447871Y-81400499D01*
X130447872Y-81400499D01*
X130507483Y-81394091D01*
X130642331Y-81343796D01*
X130757546Y-81257546D01*
X130843796Y-81142331D01*
X130894091Y-81007483D01*
X130900500Y-80947873D01*
X130900499Y-77052128D01*
X130894091Y-76992517D01*
X130891894Y-76986627D01*
X130843797Y-76857671D01*
X130843793Y-76857664D01*
X130757547Y-76742455D01*
X130757544Y-76742452D01*
X130642335Y-76656206D01*
X130642328Y-76656202D01*
X130507482Y-76605908D01*
X130507483Y-76605908D01*
X130447883Y-76599501D01*
X130447881Y-76599500D01*
X130447873Y-76599500D01*
X130447864Y-76599500D01*
X126552129Y-76599500D01*
X126552123Y-76599501D01*
X126492516Y-76605908D01*
X126357671Y-76656202D01*
X126357664Y-76656206D01*
X126242455Y-76742452D01*
X126242452Y-76742455D01*
X126156206Y-76857664D01*
X126156202Y-76857671D01*
X126105908Y-76992517D01*
X126100497Y-77042851D01*
X126099501Y-77052123D01*
X126099500Y-77052135D01*
X126099500Y-78128261D01*
X126079815Y-78195300D01*
X126027011Y-78241055D01*
X125957853Y-78250999D01*
X125894297Y-78221974D01*
X125858459Y-78169216D01*
X125839762Y-78115784D01*
X125813801Y-78041592D01*
X125691945Y-77788555D01*
X125542523Y-77550752D01*
X125367416Y-77331175D01*
X125168825Y-77132584D01*
X124949248Y-76957477D01*
X124711445Y-76808055D01*
X124711442Y-76808053D01*
X124458411Y-76686200D01*
X124193329Y-76593443D01*
X124193317Y-76593439D01*
X123919512Y-76530945D01*
X123919494Y-76530942D01*
X123640431Y-76499500D01*
X123640425Y-76499500D01*
X123359575Y-76499500D01*
X123359568Y-76499500D01*
X123080505Y-76530942D01*
X123080487Y-76530945D01*
X122806682Y-76593439D01*
X122806670Y-76593443D01*
X122541588Y-76686200D01*
X122541580Y-76686203D01*
X122303088Y-76801055D01*
X122234147Y-76812407D01*
X122170013Y-76784685D01*
X122161606Y-76777016D01*
X121096224Y-75711634D01*
X121085859Y-75701269D01*
X121085858Y-75701267D01*
X120998733Y-75614142D01*
X120933701Y-75570689D01*
X120927450Y-75566512D01*
X120896285Y-75545687D01*
X120856822Y-75529342D01*
X120815792Y-75512347D01*
X120782452Y-75498537D01*
X120722029Y-75486518D01*
X120717306Y-75485578D01*
X120717304Y-75485578D01*
X120661610Y-75474500D01*
X120661607Y-75474500D01*
X120661606Y-75474500D01*
X117859481Y-75474500D01*
X117792442Y-75454815D01*
X117753942Y-75415596D01*
X117752908Y-75413920D01*
X117745340Y-75401650D01*
X117623350Y-75279660D01*
X117476516Y-75189092D01*
X117312753Y-75134826D01*
X117312751Y-75134825D01*
X117211678Y-75124500D01*
X116613330Y-75124500D01*
X116613312Y-75124501D01*
X116512247Y-75134825D01*
X116348484Y-75189092D01*
X116348481Y-75189093D01*
X116201648Y-75279661D01*
X116087681Y-75393629D01*
X116026358Y-75427114D01*
X115956666Y-75422130D01*
X115912319Y-75393629D01*
X115798351Y-75279661D01*
X115798350Y-75279660D01*
X115651516Y-75189092D01*
X115487753Y-75134826D01*
X115487751Y-75134825D01*
X115386678Y-75124500D01*
X114788330Y-75124500D01*
X114788312Y-75124501D01*
X114687247Y-75134825D01*
X114523484Y-75189092D01*
X114523481Y-75189093D01*
X114376648Y-75279661D01*
X114254660Y-75401649D01*
X114254659Y-75401651D01*
X114246058Y-75415596D01*
X114194110Y-75462321D01*
X114140519Y-75474500D01*
X111859480Y-75474500D01*
X111792441Y-75454815D01*
X111753941Y-75415596D01*
X111752907Y-75413920D01*
X111745339Y-75401650D01*
X111623349Y-75279660D01*
X111476515Y-75189092D01*
X111312752Y-75134826D01*
X111312750Y-75134825D01*
X111211677Y-75124500D01*
X110538329Y-75124500D01*
X110538311Y-75124501D01*
X110437246Y-75134825D01*
X110273483Y-75189092D01*
X110273480Y-75189093D01*
X110126647Y-75279661D01*
X110087680Y-75318628D01*
X110026357Y-75352113D01*
X109956665Y-75347127D01*
X109912320Y-75318628D01*
X109873352Y-75279661D01*
X109873351Y-75279660D01*
X109726517Y-75189092D01*
X109562754Y-75134826D01*
X109562752Y-75134825D01*
X109461679Y-75124500D01*
X108788331Y-75124500D01*
X108788313Y-75124501D01*
X108687248Y-75134825D01*
X108523485Y-75189092D01*
X108523482Y-75189093D01*
X108376649Y-75279661D01*
X108254662Y-75401648D01*
X108164094Y-75548481D01*
X108164093Y-75548484D01*
X108109827Y-75712247D01*
X108109827Y-75712248D01*
X108109826Y-75712248D01*
X108099501Y-75813315D01*
X108099501Y-76386669D01*
X108099502Y-76386687D01*
X108109826Y-76487752D01*
X108135538Y-76565344D01*
X108163804Y-76650645D01*
X108164093Y-76651515D01*
X108164094Y-76651518D01*
X108185486Y-76686199D01*
X108254661Y-76798350D01*
X108376651Y-76920340D01*
X108523485Y-77010908D01*
X108687248Y-77065174D01*
X108788324Y-77075500D01*
X109139547Y-77075499D01*
X109206586Y-77095183D01*
X109227228Y-77111818D01*
X111028229Y-78912819D01*
X111061714Y-78974142D01*
X111056730Y-79043834D01*
X111014858Y-79099767D01*
X110949394Y-79124184D01*
X110940548Y-79124500D01*
X110538329Y-79124500D01*
X110538311Y-79124501D01*
X110437246Y-79134825D01*
X110273483Y-79189092D01*
X110273480Y-79189093D01*
X110126647Y-79279661D01*
X110087326Y-79318982D01*
X110026003Y-79352467D01*
X109956311Y-79347481D01*
X109911965Y-79318981D01*
X109873039Y-79280055D01*
X109873035Y-79280052D01*
X109726312Y-79189551D01*
X109726301Y-79189546D01*
X109562653Y-79135319D01*
X109461655Y-79125000D01*
X109375001Y-79125000D01*
X109375001Y-81074999D01*
X109461641Y-81074999D01*
X109461655Y-81074998D01*
X109562653Y-81064680D01*
X109726301Y-81010453D01*
X109726312Y-81010448D01*
X109873035Y-80919947D01*
X109873038Y-80919945D01*
X109911964Y-80881019D01*
X109973287Y-80847533D01*
X110042978Y-80852517D01*
X110072959Y-80868693D01*
X110080613Y-80874304D01*
X110126649Y-80920340D01*
X110232317Y-80985516D01*
X110236313Y-80988446D01*
X110254637Y-81012420D01*
X110274821Y-81034861D01*
X110276104Y-81040506D01*
X110278742Y-81043958D01*
X110279780Y-81056683D01*
X110287000Y-81088452D01*
X110287000Y-82157808D01*
X110267315Y-82224847D01*
X110228099Y-82263345D01*
X110201652Y-82279657D01*
X110201649Y-82279660D01*
X110087681Y-82393629D01*
X110026358Y-82427114D01*
X109956666Y-82422130D01*
X109912319Y-82393629D01*
X109798351Y-82279661D01*
X109798350Y-82279660D01*
X109651516Y-82189092D01*
X109487753Y-82134826D01*
X109487751Y-82134825D01*
X109386684Y-82124500D01*
X109386677Y-82124500D01*
X109047952Y-82124500D01*
X108980913Y-82104815D01*
X108960271Y-82088181D01*
X107258744Y-80386654D01*
X108100002Y-80386654D01*
X108110320Y-80487652D01*
X108164547Y-80651300D01*
X108164552Y-80651311D01*
X108255053Y-80798034D01*
X108255056Y-80798038D01*
X108376962Y-80919944D01*
X108376966Y-80919947D01*
X108523689Y-81010448D01*
X108523700Y-81010453D01*
X108687348Y-81064680D01*
X108788352Y-81074999D01*
X108875001Y-81074998D01*
X108875001Y-80350000D01*
X108100002Y-80350000D01*
X108100002Y-80386654D01*
X107258744Y-80386654D01*
X106685435Y-79813345D01*
X108100001Y-79813345D01*
X108100001Y-79850000D01*
X108875001Y-79850000D01*
X108875001Y-79125000D01*
X108875000Y-79124999D01*
X108788361Y-79125000D01*
X108788344Y-79125001D01*
X108687348Y-79135319D01*
X108523700Y-79189546D01*
X108523689Y-79189551D01*
X108376966Y-79280052D01*
X108376962Y-79280055D01*
X108255056Y-79401961D01*
X108255053Y-79401965D01*
X108164552Y-79548688D01*
X108164547Y-79548699D01*
X108110320Y-79712347D01*
X108100001Y-79813345D01*
X106685435Y-79813345D01*
X105474650Y-78602560D01*
X105467360Y-78595270D01*
X105467358Y-78595267D01*
X105380233Y-78508142D01*
X105329009Y-78473915D01*
X105277786Y-78439688D01*
X105277783Y-78439686D01*
X105277782Y-78439686D01*
X105277781Y-78439685D01*
X105185918Y-78401635D01*
X105185913Y-78401634D01*
X105176899Y-78397900D01*
X105163952Y-78392537D01*
X105073271Y-78374500D01*
X105070906Y-78374029D01*
X105070887Y-78374025D01*
X105043109Y-78368500D01*
X105043107Y-78368500D01*
X105043106Y-78368500D01*
X102018274Y-78368500D01*
X101951235Y-78348815D01*
X101905480Y-78296011D01*
X101901233Y-78285455D01*
X101815896Y-78041580D01*
X101813801Y-78035592D01*
X101691945Y-77782555D01*
X101542523Y-77544752D01*
X101367416Y-77325175D01*
X101168825Y-77126584D01*
X101129449Y-77095183D01*
X101104768Y-77075500D01*
X100949248Y-76951477D01*
X100711445Y-76802055D01*
X100711442Y-76802053D01*
X100458411Y-76680200D01*
X100193329Y-76587443D01*
X100193317Y-76587439D01*
X99919512Y-76524945D01*
X99919494Y-76524942D01*
X99640431Y-76493500D01*
X99640425Y-76493500D01*
X99359575Y-76493500D01*
X99359568Y-76493500D01*
X99080505Y-76524942D01*
X99080487Y-76524945D01*
X98806682Y-76587439D01*
X98806670Y-76587443D01*
X98541588Y-76680200D01*
X98288557Y-76802053D01*
X98050753Y-76951476D01*
X97831175Y-77126583D01*
X97632583Y-77325175D01*
X97457476Y-77544753D01*
X97308053Y-77782557D01*
X97186200Y-78035588D01*
X97141041Y-78164645D01*
X97100319Y-78221421D01*
X97035367Y-78247168D01*
X96966805Y-78233712D01*
X96916402Y-78185324D01*
X96900000Y-78123690D01*
X96900000Y-77046172D01*
X96899999Y-77046155D01*
X96893598Y-76986627D01*
X96893596Y-76986620D01*
X96843354Y-76851913D01*
X96843350Y-76851906D01*
X96757190Y-76736812D01*
X96757187Y-76736809D01*
X96642093Y-76650649D01*
X96642086Y-76650645D01*
X96507379Y-76600403D01*
X96507372Y-76600401D01*
X96447844Y-76594000D01*
X94750000Y-76594000D01*
X94750000Y-77666768D01*
X94606247Y-77644000D01*
X94393753Y-77644000D01*
X94250000Y-77666768D01*
X94250000Y-76594000D01*
X92552155Y-76594000D01*
X92492627Y-76600401D01*
X92492620Y-76600403D01*
X92357913Y-76650645D01*
X92357906Y-76650649D01*
X92242812Y-76736809D01*
X92242809Y-76736812D01*
X92156649Y-76851906D01*
X92156645Y-76851913D01*
X92106403Y-76986620D01*
X92106401Y-76986627D01*
X92100000Y-77046155D01*
X86289499Y-77046155D01*
X86289499Y-76777992D01*
X86288977Y-76772886D01*
X86278999Y-76675203D01*
X86278998Y-76675200D01*
X86271794Y-76653459D01*
X86223814Y-76508666D01*
X86131712Y-76359344D01*
X86007656Y-76235288D01*
X85858334Y-76143186D01*
X85691797Y-76088001D01*
X85691795Y-76088000D01*
X85589010Y-76077500D01*
X84988998Y-76077500D01*
X84988980Y-76077501D01*
X84886203Y-76088000D01*
X84886200Y-76088001D01*
X84719668Y-76143185D01*
X84719663Y-76143187D01*
X84570342Y-76235289D01*
X84446289Y-76359342D01*
X84354187Y-76508663D01*
X84354185Y-76508668D01*
X84324086Y-76599501D01*
X84306850Y-76651518D01*
X84306206Y-76653460D01*
X84266433Y-76710905D01*
X84201917Y-76737728D01*
X84133141Y-76725413D01*
X84081942Y-76677870D01*
X84064500Y-76614456D01*
X84064500Y-75771451D01*
X84084185Y-75704412D01*
X84100814Y-75683775D01*
X87971274Y-71813315D01*
X108099501Y-71813315D01*
X108099501Y-72386669D01*
X108099502Y-72386687D01*
X108109826Y-72487752D01*
X108146110Y-72597249D01*
X108164093Y-72651516D01*
X108254661Y-72798350D01*
X108376651Y-72920340D01*
X108523485Y-73010908D01*
X108687248Y-73065174D01*
X108788324Y-73075500D01*
X109164548Y-73075499D01*
X109231587Y-73095183D01*
X109252229Y-73111818D01*
X110526263Y-74385854D01*
X110526266Y-74385857D01*
X110594412Y-74431390D01*
X110628715Y-74454311D01*
X110628716Y-74454311D01*
X110628717Y-74454312D01*
X110654503Y-74464993D01*
X110742549Y-74501463D01*
X110863389Y-74525499D01*
X110863393Y-74525500D01*
X110863394Y-74525500D01*
X122661607Y-74525500D01*
X122722029Y-74513481D01*
X122782452Y-74501463D01*
X122815792Y-74487652D01*
X122896286Y-74454312D01*
X122955547Y-74414714D01*
X122998733Y-74385858D01*
X123085858Y-74298733D01*
X123085858Y-74298731D01*
X123096066Y-74288524D01*
X123096067Y-74288521D01*
X129385857Y-67998734D01*
X129389635Y-67993081D01*
X129454311Y-67896286D01*
X129501463Y-67782452D01*
X129513143Y-67723733D01*
X129525500Y-67661607D01*
X129525500Y-67538394D01*
X129525500Y-66600791D01*
X129939500Y-66600791D01*
X129939500Y-66799210D01*
X129957777Y-66914603D01*
X129970537Y-66995169D01*
X130007623Y-67109306D01*
X130031850Y-67183869D01*
X130085696Y-67289547D01*
X130121923Y-67360647D01*
X130238544Y-67521162D01*
X130378839Y-67661457D01*
X130539354Y-67778078D01*
X130652800Y-67835881D01*
X130716131Y-67868150D01*
X130716133Y-67868150D01*
X130716136Y-67868152D01*
X130904832Y-67929464D01*
X131002814Y-67944982D01*
X131100791Y-67960501D01*
X131100796Y-67960501D01*
X131299209Y-67960501D01*
X131388278Y-67946393D01*
X131495168Y-67929464D01*
X131683864Y-67868152D01*
X131860646Y-67778078D01*
X132021161Y-67661457D01*
X132161456Y-67521162D01*
X132278077Y-67360647D01*
X132368151Y-67183865D01*
X132429463Y-66995169D01*
X132446392Y-66888279D01*
X132460500Y-66799210D01*
X132460500Y-66600791D01*
X132443570Y-66493907D01*
X132429463Y-66404833D01*
X132368151Y-66216137D01*
X132368149Y-66216134D01*
X132368149Y-66216132D01*
X132335880Y-66152801D01*
X132278077Y-66039355D01*
X132161456Y-65878840D01*
X132021161Y-65738545D01*
X131860646Y-65621924D01*
X131759508Y-65570392D01*
X131683868Y-65531851D01*
X131609148Y-65507573D01*
X131495168Y-65470538D01*
X131495162Y-65470537D01*
X131299209Y-65439501D01*
X131299204Y-65439501D01*
X131100796Y-65439501D01*
X131100791Y-65439501D01*
X130904837Y-65470537D01*
X130904835Y-65470537D01*
X130904832Y-65470538D01*
X130810484Y-65501194D01*
X130716131Y-65531851D01*
X130539352Y-65621925D01*
X130539349Y-65621927D01*
X130453255Y-65684478D01*
X130378839Y-65738545D01*
X130378837Y-65738547D01*
X130378836Y-65738547D01*
X130238546Y-65878837D01*
X130238546Y-65878838D01*
X130238544Y-65878840D01*
X130189384Y-65946503D01*
X130121926Y-66039350D01*
X130121924Y-66039353D01*
X130031850Y-66216132D01*
X130001193Y-66310485D01*
X129970537Y-66404833D01*
X129970536Y-66404836D01*
X129970536Y-66404838D01*
X129939500Y-66600791D01*
X129525500Y-66600791D01*
X129525500Y-63100791D01*
X129939500Y-63100791D01*
X129939500Y-63299210D01*
X129965127Y-63461009D01*
X129970537Y-63495169D01*
X130006420Y-63605604D01*
X130031850Y-63683869D01*
X130078903Y-63776215D01*
X130121923Y-63860647D01*
X130238544Y-64021162D01*
X130378839Y-64161457D01*
X130539354Y-64278078D01*
X130652800Y-64335881D01*
X130716131Y-64368150D01*
X130716133Y-64368150D01*
X130716136Y-64368152D01*
X130904832Y-64429464D01*
X131002814Y-64444982D01*
X131100791Y-64460501D01*
X131100796Y-64460501D01*
X131299209Y-64460501D01*
X131388278Y-64446393D01*
X131495168Y-64429464D01*
X131683864Y-64368152D01*
X131860646Y-64278078D01*
X132021161Y-64161457D01*
X132161456Y-64021162D01*
X132278077Y-63860647D01*
X132368151Y-63683865D01*
X132429463Y-63495169D01*
X132448053Y-63377795D01*
X132460500Y-63299210D01*
X132460500Y-63100791D01*
X132443570Y-62993907D01*
X132429463Y-62904833D01*
X132368151Y-62716137D01*
X132368149Y-62716134D01*
X132368149Y-62716132D01*
X132335880Y-62652801D01*
X132278077Y-62539355D01*
X132161456Y-62378840D01*
X132021161Y-62238545D01*
X131860646Y-62121924D01*
X131803922Y-62093022D01*
X131683868Y-62031851D01*
X131629362Y-62014141D01*
X131495168Y-61970538D01*
X131495162Y-61970537D01*
X131299209Y-61939501D01*
X131299204Y-61939501D01*
X131100796Y-61939501D01*
X131100791Y-61939501D01*
X130904837Y-61970537D01*
X130904835Y-61970537D01*
X130904832Y-61970538D01*
X130810484Y-62001194D01*
X130716131Y-62031851D01*
X130539352Y-62121925D01*
X130539349Y-62121927D01*
X130486257Y-62160501D01*
X130378839Y-62238545D01*
X130378837Y-62238547D01*
X130378836Y-62238547D01*
X130238546Y-62378837D01*
X130238546Y-62378838D01*
X130238544Y-62378840D01*
X130218618Y-62406266D01*
X130121926Y-62539350D01*
X130121924Y-62539353D01*
X130031850Y-62716132D01*
X130018180Y-62758204D01*
X129970537Y-62904833D01*
X129970536Y-62904836D01*
X129970536Y-62904838D01*
X129939500Y-63100791D01*
X129525500Y-63100791D01*
X129525500Y-62310452D01*
X129545185Y-62243413D01*
X129561814Y-62222776D01*
X130817248Y-60967341D01*
X130878569Y-60933858D01*
X130924323Y-60932551D01*
X130975493Y-60940655D01*
X131100791Y-60960501D01*
X131100796Y-60960501D01*
X131299209Y-60960501D01*
X131388278Y-60946393D01*
X131495168Y-60929464D01*
X131683864Y-60868152D01*
X131860646Y-60778078D01*
X132021161Y-60661457D01*
X132161456Y-60521162D01*
X132278077Y-60360647D01*
X132368151Y-60183865D01*
X132429463Y-59995169D01*
X132446392Y-59888279D01*
X132460500Y-59799210D01*
X132460500Y-59600791D01*
X132436223Y-59447518D01*
X132429463Y-59404833D01*
X132368151Y-59216137D01*
X132368149Y-59216134D01*
X132368149Y-59216132D01*
X132303444Y-59089142D01*
X132278077Y-59039355D01*
X132161456Y-58878840D01*
X132021161Y-58738545D01*
X131860646Y-58621924D01*
X131803922Y-58593022D01*
X131683868Y-58531851D01*
X131638596Y-58517141D01*
X131495168Y-58470538D01*
X131495162Y-58470537D01*
X131299209Y-58439501D01*
X131299204Y-58439501D01*
X131100796Y-58439501D01*
X131100791Y-58439501D01*
X130904837Y-58470537D01*
X130904835Y-58470537D01*
X130904832Y-58470538D01*
X130810484Y-58501194D01*
X130716131Y-58531851D01*
X130539352Y-58621925D01*
X130539349Y-58621927D01*
X130453255Y-58684478D01*
X130378839Y-58738545D01*
X130378837Y-58738547D01*
X130378836Y-58738547D01*
X130238546Y-58878837D01*
X130238546Y-58878838D01*
X130238544Y-58878840D01*
X130186843Y-58950000D01*
X130121926Y-59039350D01*
X130121924Y-59039353D01*
X130031850Y-59216132D01*
X130024092Y-59240010D01*
X129970537Y-59404833D01*
X129970536Y-59404836D01*
X129970536Y-59404838D01*
X129939500Y-59600791D01*
X129939500Y-59799210D01*
X129967449Y-59975673D01*
X129958494Y-60044967D01*
X129932657Y-60082752D01*
X128501270Y-61514140D01*
X128414144Y-61601265D01*
X128414138Y-61601273D01*
X128345690Y-61703709D01*
X128345688Y-61703714D01*
X128313628Y-61781115D01*
X128298538Y-61817544D01*
X128298538Y-61817546D01*
X128298537Y-61817549D01*
X128274877Y-61936500D01*
X128274500Y-61938397D01*
X128274500Y-67289547D01*
X128254815Y-67356586D01*
X128238181Y-67377228D01*
X122377229Y-73238181D01*
X122315906Y-73271666D01*
X122289548Y-73274500D01*
X117476617Y-73274500D01*
X117409578Y-73254815D01*
X117363823Y-73202011D01*
X117353879Y-73132853D01*
X117382904Y-73069297D01*
X117437613Y-73032794D01*
X117564016Y-72990908D01*
X117710850Y-72900340D01*
X117832840Y-72778350D01*
X117923408Y-72631516D01*
X117977674Y-72467753D01*
X117988000Y-72366677D01*
X117987999Y-71793324D01*
X117977674Y-71692247D01*
X117923408Y-71528484D01*
X117832840Y-71381650D01*
X117710850Y-71259660D01*
X117710847Y-71259657D01*
X117684401Y-71243345D01*
X117637678Y-71191397D01*
X117625500Y-71137808D01*
X117625500Y-69610452D01*
X117645185Y-69543413D01*
X117661814Y-69522776D01*
X120583799Y-66600791D01*
X125339500Y-66600791D01*
X125339500Y-66799210D01*
X125357777Y-66914603D01*
X125370537Y-66995169D01*
X125407623Y-67109306D01*
X125431850Y-67183869D01*
X125485696Y-67289547D01*
X125521923Y-67360647D01*
X125638544Y-67521162D01*
X125778839Y-67661457D01*
X125939354Y-67778078D01*
X126052800Y-67835881D01*
X126116131Y-67868150D01*
X126116133Y-67868150D01*
X126116136Y-67868152D01*
X126304832Y-67929464D01*
X126402814Y-67944982D01*
X126500791Y-67960501D01*
X126500796Y-67960501D01*
X126699209Y-67960501D01*
X126788278Y-67946393D01*
X126895168Y-67929464D01*
X127083864Y-67868152D01*
X127260646Y-67778078D01*
X127421161Y-67661457D01*
X127561456Y-67521162D01*
X127678077Y-67360647D01*
X127768151Y-67183865D01*
X127829463Y-66995169D01*
X127846392Y-66888279D01*
X127860500Y-66799210D01*
X127860500Y-66600791D01*
X127843570Y-66493907D01*
X127829463Y-66404833D01*
X127768151Y-66216137D01*
X127768149Y-66216134D01*
X127768149Y-66216132D01*
X127735880Y-66152801D01*
X127678077Y-66039355D01*
X127561456Y-65878840D01*
X127421161Y-65738545D01*
X127260646Y-65621924D01*
X127159508Y-65570392D01*
X127083868Y-65531851D01*
X127009148Y-65507573D01*
X126895168Y-65470538D01*
X126895162Y-65470537D01*
X126699209Y-65439501D01*
X126699204Y-65439501D01*
X126500796Y-65439501D01*
X126500791Y-65439501D01*
X126304837Y-65470537D01*
X126304835Y-65470537D01*
X126304832Y-65470538D01*
X126210484Y-65501194D01*
X126116131Y-65531851D01*
X125939352Y-65621925D01*
X125939349Y-65621927D01*
X125853255Y-65684478D01*
X125778839Y-65738545D01*
X125778837Y-65738547D01*
X125778836Y-65738547D01*
X125638546Y-65878837D01*
X125638546Y-65878838D01*
X125638544Y-65878840D01*
X125589384Y-65946503D01*
X125521926Y-66039350D01*
X125521924Y-66039353D01*
X125431850Y-66216132D01*
X125401193Y-66310485D01*
X125370537Y-66404833D01*
X125370536Y-66404836D01*
X125370536Y-66404838D01*
X125339500Y-66600791D01*
X120583799Y-66600791D01*
X124083798Y-63100791D01*
X125339500Y-63100791D01*
X125339500Y-63299210D01*
X125365127Y-63461009D01*
X125370537Y-63495169D01*
X125406420Y-63605604D01*
X125431850Y-63683869D01*
X125478903Y-63776215D01*
X125521923Y-63860647D01*
X125638544Y-64021162D01*
X125778839Y-64161457D01*
X125939354Y-64278078D01*
X126052800Y-64335881D01*
X126116131Y-64368150D01*
X126116133Y-64368150D01*
X126116136Y-64368152D01*
X126304832Y-64429464D01*
X126402814Y-64444982D01*
X126500791Y-64460501D01*
X126500796Y-64460501D01*
X126699209Y-64460501D01*
X126788278Y-64446393D01*
X126895168Y-64429464D01*
X127083864Y-64368152D01*
X127260646Y-64278078D01*
X127421161Y-64161457D01*
X127561456Y-64021162D01*
X127678077Y-63860647D01*
X127768151Y-63683865D01*
X127829463Y-63495169D01*
X127848053Y-63377795D01*
X127860500Y-63299210D01*
X127860500Y-63100791D01*
X127843570Y-62993907D01*
X127829463Y-62904833D01*
X127768151Y-62716137D01*
X127768149Y-62716134D01*
X127768149Y-62716132D01*
X127735880Y-62652801D01*
X127678077Y-62539355D01*
X127561456Y-62378840D01*
X127421161Y-62238545D01*
X127260646Y-62121924D01*
X127203922Y-62093022D01*
X127083868Y-62031851D01*
X127029362Y-62014141D01*
X126895168Y-61970538D01*
X126895162Y-61970537D01*
X126699209Y-61939501D01*
X126699204Y-61939501D01*
X126500796Y-61939501D01*
X126500791Y-61939501D01*
X126304837Y-61970537D01*
X126304835Y-61970537D01*
X126304832Y-61970538D01*
X126210484Y-62001194D01*
X126116131Y-62031851D01*
X125939352Y-62121925D01*
X125939349Y-62121927D01*
X125886257Y-62160501D01*
X125778839Y-62238545D01*
X125778837Y-62238547D01*
X125778836Y-62238547D01*
X125638546Y-62378837D01*
X125638546Y-62378838D01*
X125638544Y-62378840D01*
X125618618Y-62406266D01*
X125521926Y-62539350D01*
X125521924Y-62539353D01*
X125431850Y-62716132D01*
X125418180Y-62758204D01*
X125370537Y-62904833D01*
X125370536Y-62904836D01*
X125370536Y-62904838D01*
X125339500Y-63100791D01*
X124083798Y-63100791D01*
X126217248Y-60967341D01*
X126278569Y-60933858D01*
X126324323Y-60932551D01*
X126375493Y-60940655D01*
X126500791Y-60960501D01*
X126500796Y-60960501D01*
X126699209Y-60960501D01*
X126788278Y-60946393D01*
X126895168Y-60929464D01*
X127083864Y-60868152D01*
X127260646Y-60778078D01*
X127421161Y-60661457D01*
X127561456Y-60521162D01*
X127678077Y-60360647D01*
X127768151Y-60183865D01*
X127829463Y-59995169D01*
X127846392Y-59888279D01*
X127860500Y-59799210D01*
X127860500Y-59600791D01*
X127836223Y-59447518D01*
X127829463Y-59404833D01*
X127768151Y-59216137D01*
X127768149Y-59216134D01*
X127768149Y-59216132D01*
X127703444Y-59089142D01*
X127678077Y-59039355D01*
X127561456Y-58878840D01*
X127421161Y-58738545D01*
X127260646Y-58621924D01*
X127203922Y-58593022D01*
X127083868Y-58531851D01*
X127038596Y-58517141D01*
X126895168Y-58470538D01*
X126895162Y-58470537D01*
X126699209Y-58439501D01*
X126699204Y-58439501D01*
X126500796Y-58439501D01*
X126500791Y-58439501D01*
X126304837Y-58470537D01*
X126304835Y-58470537D01*
X126304832Y-58470538D01*
X126210484Y-58501194D01*
X126116131Y-58531851D01*
X125939352Y-58621925D01*
X125939349Y-58621927D01*
X125853255Y-58684478D01*
X125778839Y-58738545D01*
X125778837Y-58738547D01*
X125778836Y-58738547D01*
X125638546Y-58878837D01*
X125638546Y-58878838D01*
X125638544Y-58878840D01*
X125586843Y-58950000D01*
X125521926Y-59039350D01*
X125521924Y-59039353D01*
X125431850Y-59216132D01*
X125424092Y-59240010D01*
X125370537Y-59404833D01*
X125370536Y-59404836D01*
X125370536Y-59404838D01*
X125339500Y-59600791D01*
X125339500Y-59799210D01*
X125367449Y-59975673D01*
X125358494Y-60044967D01*
X125332657Y-60082752D01*
X116601270Y-68814140D01*
X116514144Y-68901265D01*
X116514138Y-68901273D01*
X116479914Y-68952490D01*
X116479915Y-68952491D01*
X116445691Y-69003709D01*
X116445689Y-69003713D01*
X116445688Y-69003715D01*
X116422020Y-69060857D01*
X116398537Y-69117549D01*
X116396197Y-69129312D01*
X116382038Y-69200500D01*
X116382038Y-69200501D01*
X116374500Y-69238393D01*
X116374500Y-71137808D01*
X116354815Y-71204847D01*
X116333899Y-71229572D01*
X116325385Y-71237309D01*
X116289150Y-71259660D01*
X116173081Y-71375728D01*
X116170899Y-71377712D01*
X116142019Y-71391736D01*
X116113858Y-71407114D01*
X116110804Y-71406895D01*
X116108048Y-71408234D01*
X116076179Y-71404419D01*
X116044166Y-71402130D01*
X116041216Y-71400234D01*
X116038673Y-71399930D01*
X116031411Y-71393933D01*
X115999819Y-71373629D01*
X115885851Y-71259661D01*
X115885850Y-71259660D01*
X115739016Y-71169092D01*
X115575253Y-71114826D01*
X115575251Y-71114825D01*
X115474178Y-71104500D01*
X114875830Y-71104500D01*
X114875812Y-71104501D01*
X114774747Y-71114825D01*
X114610984Y-71169092D01*
X114610981Y-71169093D01*
X114464148Y-71259661D01*
X114342160Y-71381649D01*
X114342159Y-71381651D01*
X114333558Y-71395596D01*
X114281610Y-71442321D01*
X114228019Y-71454500D01*
X111847144Y-71454500D01*
X111780105Y-71434815D01*
X111751670Y-71405853D01*
X111749820Y-71407317D01*
X111745338Y-71401649D01*
X111623350Y-71279661D01*
X111623349Y-71279660D01*
X111476515Y-71189092D01*
X111312752Y-71134826D01*
X111312750Y-71134825D01*
X111211677Y-71124500D01*
X110538329Y-71124500D01*
X110538311Y-71124501D01*
X110437246Y-71134825D01*
X110273483Y-71189092D01*
X110273480Y-71189093D01*
X110126647Y-71279661D01*
X110087680Y-71318628D01*
X110026357Y-71352113D01*
X109956665Y-71347127D01*
X109912320Y-71318628D01*
X109873352Y-71279661D01*
X109873351Y-71279660D01*
X109726517Y-71189092D01*
X109562754Y-71134826D01*
X109562752Y-71134825D01*
X109461679Y-71124500D01*
X108788331Y-71124500D01*
X108788313Y-71124501D01*
X108687248Y-71134825D01*
X108523485Y-71189092D01*
X108523482Y-71189093D01*
X108376649Y-71279661D01*
X108254662Y-71401648D01*
X108164094Y-71548481D01*
X108164093Y-71548484D01*
X108109827Y-71712247D01*
X108109827Y-71712248D01*
X108109826Y-71712248D01*
X108099501Y-71813315D01*
X87971274Y-71813315D01*
X96077994Y-63706594D01*
X96139315Y-63673111D01*
X96185067Y-63671804D01*
X96252704Y-63682516D01*
X96306262Y-63691000D01*
X96306266Y-63691000D01*
X96493739Y-63691000D01*
X96596600Y-63674707D01*
X96678893Y-63661674D01*
X96857185Y-63603743D01*
X97024220Y-63518635D01*
X97175885Y-63408444D01*
X97308444Y-63275885D01*
X97308444Y-63275884D01*
X97311889Y-63272440D01*
X97313478Y-63274029D01*
X97364154Y-63240911D01*
X97434022Y-63240376D01*
X97486816Y-63273734D01*
X97488111Y-63272440D01*
X97491556Y-63275885D01*
X97624115Y-63408444D01*
X97775780Y-63518635D01*
X97942815Y-63603743D01*
X98121107Y-63661674D01*
X98185066Y-63671804D01*
X98306261Y-63691000D01*
X98306266Y-63691000D01*
X98493732Y-63691000D01*
X98493734Y-63691000D01*
X98614928Y-63671804D01*
X98684219Y-63680758D01*
X98722005Y-63706596D01*
X99414141Y-64398732D01*
X99414142Y-64398733D01*
X99475910Y-64460501D01*
X99501268Y-64485859D01*
X99603707Y-64554307D01*
X99603711Y-64554309D01*
X99603714Y-64554311D01*
X99717548Y-64601463D01*
X99756979Y-64609306D01*
X99838391Y-64625499D01*
X99838392Y-64625500D01*
X99838393Y-64625500D01*
X101061608Y-64625500D01*
X101061608Y-64625499D01*
X101143021Y-64609306D01*
X101182452Y-64601463D01*
X101215792Y-64587652D01*
X101296286Y-64554312D01*
X101347509Y-64520084D01*
X101398733Y-64485858D01*
X101485858Y-64398733D01*
X101485859Y-64398731D01*
X101492925Y-64391665D01*
X101492927Y-64391661D01*
X103023606Y-62860983D01*
X113082500Y-62860983D01*
X113082500Y-63461001D01*
X113082501Y-63461019D01*
X113093000Y-63563796D01*
X113093001Y-63563799D01*
X113132789Y-63683869D01*
X113148186Y-63730334D01*
X113240288Y-63879656D01*
X113364344Y-64003712D01*
X113513666Y-64095814D01*
X113680203Y-64150999D01*
X113782991Y-64161500D01*
X116183008Y-64161499D01*
X116285797Y-64150999D01*
X116452334Y-64095814D01*
X116601656Y-64003712D01*
X116725712Y-63879656D01*
X116817814Y-63730334D01*
X116872999Y-63563797D01*
X116883500Y-63461009D01*
X116883499Y-62860992D01*
X116872999Y-62758203D01*
X116817814Y-62591666D01*
X116725712Y-62442344D01*
X116601656Y-62318288D01*
X116480264Y-62243413D01*
X116452336Y-62226187D01*
X116452331Y-62226185D01*
X116441717Y-62222668D01*
X116285797Y-62171001D01*
X116285795Y-62171000D01*
X116183010Y-62160500D01*
X113782998Y-62160500D01*
X113782981Y-62160501D01*
X113680203Y-62171000D01*
X113680200Y-62171001D01*
X113513668Y-62226185D01*
X113513663Y-62226187D01*
X113364342Y-62318289D01*
X113240289Y-62442342D01*
X113148187Y-62591663D01*
X113148186Y-62591666D01*
X113093001Y-62758203D01*
X113093001Y-62758204D01*
X113093000Y-62758204D01*
X113082500Y-62860983D01*
X103023606Y-62860983D01*
X103911771Y-61972819D01*
X103973094Y-61939334D01*
X103999452Y-61936500D01*
X110437191Y-61936500D01*
X110504230Y-61956185D01*
X110524872Y-61972819D01*
X110531129Y-61979076D01*
X110531133Y-61979079D01*
X110531135Y-61979081D01*
X110672602Y-62062744D01*
X110714224Y-62074836D01*
X110830426Y-62108597D01*
X110830429Y-62108597D01*
X110830431Y-62108598D01*
X110867306Y-62111500D01*
X110867314Y-62111500D01*
X112398686Y-62111500D01*
X112398694Y-62111500D01*
X112435569Y-62108598D01*
X112435571Y-62108597D01*
X112435573Y-62108597D01*
X112477191Y-62096505D01*
X112593398Y-62062744D01*
X112734865Y-61979081D01*
X112851081Y-61862865D01*
X112934744Y-61721398D01*
X112980598Y-61563569D01*
X112983500Y-61526694D01*
X112983500Y-61095306D01*
X112980598Y-61058431D01*
X112952146Y-60960501D01*
X112934745Y-60900606D01*
X112934744Y-60900603D01*
X112934744Y-60900602D01*
X112862766Y-60778893D01*
X112847110Y-60752420D01*
X112849083Y-60751252D01*
X112827769Y-60696965D01*
X112841448Y-60628447D01*
X112847136Y-60619595D01*
X112847110Y-60619580D01*
X112862395Y-60593734D01*
X112934744Y-60471398D01*
X112980598Y-60313569D01*
X112983500Y-60276694D01*
X112983500Y-59845306D01*
X112980598Y-59808431D01*
X112966408Y-59759590D01*
X112934745Y-59650606D01*
X112934744Y-59650603D01*
X112934744Y-59650602D01*
X112851081Y-59509135D01*
X112847110Y-59502420D01*
X112849083Y-59501252D01*
X112827769Y-59446965D01*
X112841448Y-59378447D01*
X112847136Y-59369595D01*
X112847110Y-59369580D01*
X112874993Y-59322432D01*
X112934744Y-59221398D01*
X112980598Y-59063569D01*
X112983500Y-59026694D01*
X112983500Y-58595306D01*
X112980598Y-58558431D01*
X112972875Y-58531850D01*
X112934745Y-58400606D01*
X112934744Y-58400603D01*
X112934744Y-58400602D01*
X112851081Y-58259135D01*
X112847110Y-58252420D01*
X112849083Y-58251252D01*
X112827769Y-58196965D01*
X112841448Y-58128447D01*
X112847136Y-58119595D01*
X112847110Y-58119580D01*
X112874993Y-58072432D01*
X112934744Y-57971398D01*
X112971135Y-57846142D01*
X112971136Y-57846137D01*
X123315500Y-57846137D01*
X123315500Y-58053864D01*
X123356022Y-58257579D01*
X123356025Y-58257591D01*
X123435511Y-58449489D01*
X123435512Y-58449491D01*
X123550916Y-58622204D01*
X123550919Y-58622208D01*
X123697792Y-58769081D01*
X123697796Y-58769084D01*
X123870507Y-58884487D01*
X123870508Y-58884487D01*
X123870509Y-58884488D01*
X123870511Y-58884489D01*
X124027463Y-58949500D01*
X124062414Y-58963977D01*
X124266136Y-59004500D01*
X124266139Y-59004501D01*
X124266141Y-59004501D01*
X124473861Y-59004501D01*
X124473862Y-59004500D01*
X124677586Y-58963977D01*
X124869493Y-58884487D01*
X125042204Y-58769084D01*
X125189083Y-58622205D01*
X125304486Y-58449494D01*
X125383976Y-58257587D01*
X125424500Y-58053860D01*
X125424500Y-57846142D01*
X125424500Y-57846139D01*
X125424499Y-57846137D01*
X125400304Y-57724500D01*
X125383976Y-57642415D01*
X125380799Y-57634745D01*
X125304488Y-57450512D01*
X125304487Y-57450510D01*
X125290424Y-57429464D01*
X125189083Y-57277797D01*
X125189080Y-57277793D01*
X125042207Y-57130920D01*
X125042203Y-57130917D01*
X124869490Y-57015513D01*
X124869488Y-57015512D01*
X124677590Y-56936026D01*
X124677578Y-56936023D01*
X124473862Y-56895501D01*
X124473859Y-56895501D01*
X124266141Y-56895501D01*
X124266138Y-56895501D01*
X124062421Y-56936023D01*
X124062409Y-56936026D01*
X123870511Y-57015512D01*
X123870509Y-57015513D01*
X123697796Y-57130917D01*
X123697792Y-57130920D01*
X123550919Y-57277793D01*
X123550916Y-57277797D01*
X123435512Y-57450510D01*
X123435511Y-57450512D01*
X123356025Y-57642410D01*
X123356022Y-57642422D01*
X123315500Y-57846137D01*
X112971136Y-57846137D01*
X112980598Y-57813570D01*
X112983499Y-57776701D01*
X112983500Y-57776694D01*
X112983500Y-57345306D01*
X112980598Y-57308431D01*
X112971778Y-57278074D01*
X112934745Y-57150606D01*
X112934744Y-57150603D01*
X112934744Y-57150602D01*
X112851081Y-57009135D01*
X112851079Y-57009133D01*
X112851076Y-57009129D01*
X112734870Y-56892923D01*
X112734862Y-56892917D01*
X112593396Y-56809255D01*
X112593393Y-56809254D01*
X112435573Y-56763402D01*
X112435567Y-56763401D01*
X112398701Y-56760500D01*
X112398694Y-56760500D01*
X110867306Y-56760500D01*
X110867298Y-56760500D01*
X110830432Y-56763401D01*
X110830426Y-56763402D01*
X110672606Y-56809254D01*
X110672603Y-56809255D01*
X110531137Y-56892917D01*
X110531129Y-56892923D01*
X110524872Y-56899181D01*
X110463549Y-56932666D01*
X110437191Y-56935500D01*
X101599360Y-56935500D01*
X101532321Y-56915815D01*
X101486566Y-56863011D01*
X101476622Y-56793853D01*
X101505647Y-56730297D01*
X101511679Y-56723819D01*
X102824515Y-55410983D01*
X113082500Y-55410983D01*
X113082500Y-56011001D01*
X113082501Y-56011019D01*
X113093000Y-56113796D01*
X113093001Y-56113799D01*
X113143815Y-56267144D01*
X113148186Y-56280334D01*
X113240288Y-56429656D01*
X113364344Y-56553712D01*
X113513666Y-56645814D01*
X113680203Y-56700999D01*
X113782991Y-56711500D01*
X116183008Y-56711499D01*
X116285797Y-56700999D01*
X116452334Y-56645814D01*
X116601656Y-56553712D01*
X116725712Y-56429656D01*
X116817814Y-56280334D01*
X116872999Y-56113797D01*
X116874328Y-56100791D01*
X125339500Y-56100791D01*
X125339500Y-56299210D01*
X125360161Y-56429656D01*
X125370537Y-56495169D01*
X125402806Y-56594480D01*
X125431850Y-56683869D01*
X125487890Y-56793853D01*
X125521923Y-56860647D01*
X125638544Y-57021162D01*
X125778839Y-57161457D01*
X125939354Y-57278078D01*
X126052800Y-57335881D01*
X126116131Y-57368150D01*
X126116133Y-57368150D01*
X126116136Y-57368152D01*
X126304832Y-57429464D01*
X126402814Y-57444982D01*
X126500791Y-57460501D01*
X126500796Y-57460501D01*
X126699209Y-57460501D01*
X126788278Y-57446393D01*
X126895168Y-57429464D01*
X127083864Y-57368152D01*
X127260646Y-57278078D01*
X127421161Y-57161457D01*
X127561456Y-57021162D01*
X127678077Y-56860647D01*
X127768151Y-56683865D01*
X127829463Y-56495169D01*
X127848200Y-56376865D01*
X127860500Y-56299210D01*
X127860500Y-56100791D01*
X127843570Y-55993907D01*
X127829463Y-55904833D01*
X127768151Y-55716137D01*
X127768149Y-55716134D01*
X127768149Y-55716132D01*
X127694930Y-55572432D01*
X127678077Y-55539355D01*
X127677337Y-55538337D01*
X127621687Y-55461740D01*
X127621685Y-55461738D01*
X127595914Y-55426267D01*
X127571131Y-55392156D01*
X129940000Y-55392156D01*
X129940000Y-55950001D01*
X130755440Y-55950001D01*
X130724755Y-56003148D01*
X130690000Y-56132858D01*
X130690000Y-56267144D01*
X130724755Y-56396854D01*
X130755440Y-56450001D01*
X129940000Y-56450001D01*
X129940000Y-57007845D01*
X129946401Y-57067373D01*
X129946403Y-57067380D01*
X129996645Y-57202087D01*
X129996649Y-57202094D01*
X130082809Y-57317188D01*
X130082812Y-57317191D01*
X130197906Y-57403351D01*
X130197913Y-57403355D01*
X130332620Y-57453597D01*
X130332627Y-57453599D01*
X130392155Y-57460000D01*
X130392172Y-57460001D01*
X130950000Y-57460001D01*
X130950000Y-56644561D01*
X131003147Y-56675246D01*
X131132857Y-56710001D01*
X131267143Y-56710001D01*
X131396853Y-56675246D01*
X131450000Y-56644561D01*
X131450000Y-57460001D01*
X132007828Y-57460001D01*
X132007844Y-57460000D01*
X132067372Y-57453599D01*
X132067379Y-57453597D01*
X132202086Y-57403355D01*
X132202093Y-57403351D01*
X132317187Y-57317191D01*
X132317190Y-57317188D01*
X132403350Y-57202094D01*
X132403354Y-57202087D01*
X132453596Y-57067380D01*
X132453598Y-57067373D01*
X132459999Y-57007845D01*
X132460000Y-57007828D01*
X132460000Y-56450001D01*
X131644560Y-56450001D01*
X131675245Y-56396854D01*
X131710000Y-56267144D01*
X131710000Y-56132858D01*
X131675245Y-56003148D01*
X131644560Y-55950001D01*
X132460000Y-55950001D01*
X132460000Y-55392173D01*
X132459999Y-55392156D01*
X132453598Y-55332628D01*
X132453596Y-55332621D01*
X132403354Y-55197914D01*
X132403350Y-55197907D01*
X132317190Y-55082813D01*
X132317187Y-55082810D01*
X132202093Y-54996650D01*
X132202086Y-54996646D01*
X132067379Y-54946404D01*
X132067372Y-54946402D01*
X132007844Y-54940001D01*
X131450000Y-54940001D01*
X131450000Y-55755440D01*
X131396853Y-55724756D01*
X131267143Y-55690001D01*
X131132857Y-55690001D01*
X131003147Y-55724756D01*
X130950000Y-55755440D01*
X130950000Y-54940001D01*
X130392155Y-54940001D01*
X130332627Y-54946402D01*
X130332620Y-54946404D01*
X130197913Y-54996646D01*
X130197906Y-54996650D01*
X130082812Y-55082810D01*
X130082809Y-55082813D01*
X129996649Y-55197907D01*
X129996645Y-55197914D01*
X129946403Y-55332621D01*
X129946401Y-55332628D01*
X129940000Y-55392156D01*
X127571131Y-55392156D01*
X127561456Y-55378840D01*
X127421161Y-55238545D01*
X127260646Y-55121924D01*
X127165125Y-55073254D01*
X127083868Y-55031851D01*
X127038596Y-55017141D01*
X126895168Y-54970538D01*
X126895162Y-54970537D01*
X126699209Y-54939501D01*
X126699204Y-54939501D01*
X126500796Y-54939501D01*
X126500791Y-54939501D01*
X126304837Y-54970537D01*
X126304835Y-54970537D01*
X126304832Y-54970538D01*
X126224481Y-54996646D01*
X126116131Y-55031851D01*
X125939352Y-55121925D01*
X125939349Y-55121927D01*
X125859674Y-55179815D01*
X125778839Y-55238545D01*
X125778837Y-55238547D01*
X125778836Y-55238547D01*
X125638546Y-55378837D01*
X125638546Y-55378838D01*
X125638544Y-55378840D01*
X125604086Y-55426267D01*
X125521926Y-55539350D01*
X125521924Y-55539353D01*
X125431850Y-55716132D01*
X125429048Y-55724756D01*
X125370537Y-55904833D01*
X125370536Y-55904836D01*
X125370536Y-55904838D01*
X125339500Y-56100791D01*
X116874328Y-56100791D01*
X116883500Y-56011009D01*
X116883499Y-55410992D01*
X116880214Y-55378838D01*
X116872999Y-55308203D01*
X116872998Y-55308200D01*
X116861379Y-55273137D01*
X116817814Y-55141666D01*
X116725712Y-54992344D01*
X116601656Y-54868288D01*
X116452334Y-54776186D01*
X116285797Y-54721001D01*
X116285795Y-54721000D01*
X116183010Y-54710500D01*
X113782998Y-54710500D01*
X113782981Y-54710501D01*
X113680203Y-54721000D01*
X113680200Y-54721001D01*
X113513668Y-54776185D01*
X113513663Y-54776187D01*
X113364342Y-54868289D01*
X113240289Y-54992342D01*
X113148187Y-55141663D01*
X113148185Y-55141668D01*
X113129547Y-55197914D01*
X113093001Y-55308203D01*
X113093001Y-55308204D01*
X113093000Y-55308204D01*
X113082500Y-55410983D01*
X102824515Y-55410983D01*
X102915345Y-55320153D01*
X106777393Y-51458106D01*
X112096680Y-46138819D01*
X112158003Y-46105334D01*
X112184361Y-46102500D01*
X112538686Y-46102500D01*
X112538694Y-46102500D01*
X112575569Y-46099598D01*
X112575571Y-46099597D01*
X112575573Y-46099597D01*
X112617191Y-46087505D01*
X112733398Y-46053744D01*
X112874865Y-45970081D01*
X112991081Y-45853865D01*
X113074744Y-45712398D01*
X113120598Y-45554569D01*
X113123500Y-45517694D01*
X113123500Y-43986306D01*
X113120598Y-43949431D01*
X113120544Y-43949246D01*
X113078772Y-43805466D01*
X113074744Y-43791602D01*
X112991081Y-43650135D01*
X112991079Y-43650133D01*
X112991076Y-43650129D01*
X112874870Y-43533923D01*
X112874862Y-43533917D01*
X112733396Y-43450255D01*
X112733393Y-43450254D01*
X112575573Y-43404402D01*
X112575567Y-43404401D01*
X112538701Y-43401500D01*
X112538694Y-43401500D01*
X112107306Y-43401500D01*
X112107298Y-43401500D01*
X112070432Y-43404401D01*
X112070426Y-43404402D01*
X111912606Y-43450254D01*
X111912603Y-43450255D01*
X111764420Y-43537890D01*
X111763254Y-43535919D01*
X111708942Y-43557232D01*
X111640427Y-43543540D01*
X111631595Y-43537864D01*
X111631580Y-43537890D01*
X111483396Y-43450255D01*
X111483393Y-43450254D01*
X111325573Y-43404402D01*
X111325567Y-43404401D01*
X111288701Y-43401500D01*
X111288694Y-43401500D01*
X110857306Y-43401500D01*
X110857298Y-43401500D01*
X110820432Y-43404401D01*
X110820426Y-43404402D01*
X110662606Y-43450254D01*
X110662603Y-43450255D01*
X110521137Y-43533917D01*
X110521129Y-43533923D01*
X110404923Y-43650129D01*
X110404917Y-43650137D01*
X110321255Y-43791603D01*
X110321254Y-43791606D01*
X110275402Y-43949426D01*
X110275401Y-43949432D01*
X110272500Y-43986298D01*
X110272500Y-44002500D01*
X110252815Y-44069539D01*
X110200011Y-44115294D01*
X110148500Y-44126500D01*
X110086393Y-44126500D01*
X110070365Y-44129688D01*
X110070364Y-44129687D01*
X109965555Y-44150535D01*
X109965545Y-44150538D01*
X109851716Y-44197687D01*
X109851707Y-44197692D01*
X109749268Y-44266140D01*
X109705705Y-44309703D01*
X109662142Y-44353267D01*
X109662139Y-44353270D01*
X94722006Y-59293402D01*
X94660683Y-59326887D01*
X94614927Y-59328194D01*
X94493738Y-59309000D01*
X94493734Y-59309000D01*
X94306266Y-59309000D01*
X94306261Y-59309000D01*
X94121110Y-59338325D01*
X93942812Y-59396258D01*
X93775779Y-59481365D01*
X93689249Y-59544233D01*
X93624115Y-59591556D01*
X93624113Y-59591558D01*
X93624112Y-59591558D01*
X93488111Y-59727560D01*
X93486539Y-59725988D01*
X93435729Y-59759123D01*
X93365861Y-59759590D01*
X93313204Y-59726244D01*
X93311889Y-59727560D01*
X93175887Y-59591558D01*
X93175885Y-59591556D01*
X93024220Y-59481365D01*
X92857185Y-59396257D01*
X92678893Y-59338326D01*
X92678891Y-59338325D01*
X92678889Y-59338325D01*
X92493739Y-59309000D01*
X92493734Y-59309000D01*
X92306266Y-59309000D01*
X92306260Y-59309000D01*
X92185071Y-59328194D01*
X92115778Y-59319239D01*
X92077993Y-59293402D01*
X88220849Y-55436259D01*
X88210859Y-55426269D01*
X88210858Y-55426267D01*
X88123733Y-55339142D01*
X88071900Y-55304508D01*
X88021286Y-55270688D01*
X88021283Y-55270686D01*
X88021280Y-55270685D01*
X87947603Y-55240168D01*
X87947601Y-55240167D01*
X87940792Y-55237347D01*
X87907452Y-55223537D01*
X87847029Y-55211518D01*
X87842306Y-55210578D01*
X87842304Y-55210578D01*
X87786610Y-55199500D01*
X87786607Y-55199500D01*
X87786606Y-55199500D01*
X56545809Y-55199500D01*
X56478770Y-55179815D01*
X56458128Y-55163181D01*
X56451870Y-55156923D01*
X56451862Y-55156917D01*
X56310396Y-55073255D01*
X56310393Y-55073254D01*
X56152573Y-55027402D01*
X56152567Y-55027401D01*
X56115701Y-55024500D01*
X56115694Y-55024500D01*
X54584306Y-55024500D01*
X54584298Y-55024500D01*
X54547432Y-55027401D01*
X54547426Y-55027402D01*
X54389606Y-55073254D01*
X54389603Y-55073255D01*
X54248137Y-55156917D01*
X54248129Y-55156923D01*
X54131923Y-55273129D01*
X54131917Y-55273137D01*
X54048255Y-55414603D01*
X54048254Y-55414606D01*
X54002402Y-55572426D01*
X54002401Y-55572432D01*
X53999500Y-55609298D01*
X53999500Y-56040701D01*
X54002401Y-56077567D01*
X54002402Y-56077573D01*
X54048254Y-56235393D01*
X54048255Y-56235396D01*
X54048256Y-56235398D01*
X54074829Y-56280331D01*
X54135890Y-56383580D01*
X54133919Y-56384745D01*
X54155232Y-56439058D01*
X54141540Y-56507573D01*
X54135864Y-56516404D01*
X54135890Y-56516420D01*
X54048255Y-56664603D01*
X54048254Y-56664606D01*
X54002402Y-56822426D01*
X54002401Y-56822432D01*
X53999500Y-56859298D01*
X53999500Y-57290701D01*
X54002401Y-57327567D01*
X54002402Y-57327573D01*
X54048254Y-57485393D01*
X54048255Y-57485396D01*
X54135890Y-57633580D01*
X54133919Y-57634745D01*
X54155232Y-57689058D01*
X54141540Y-57757573D01*
X54135864Y-57766404D01*
X54135890Y-57766420D01*
X54048255Y-57914603D01*
X54048254Y-57914606D01*
X54002402Y-58072426D01*
X54002401Y-58072432D01*
X53999500Y-58109298D01*
X53999500Y-58540701D01*
X54002401Y-58577567D01*
X54002402Y-58577573D01*
X54048254Y-58735393D01*
X54048255Y-58735396D01*
X54135890Y-58883580D01*
X54133919Y-58884745D01*
X54155232Y-58939058D01*
X54141540Y-59007573D01*
X54135864Y-59016404D01*
X54135890Y-59016420D01*
X54048255Y-59164603D01*
X54048254Y-59164606D01*
X54002402Y-59322426D01*
X54002401Y-59322432D01*
X53999500Y-59359298D01*
X53999500Y-59790701D01*
X54002401Y-59827567D01*
X54002402Y-59827573D01*
X54048254Y-59985393D01*
X54048255Y-59985396D01*
X54131917Y-60126862D01*
X54131923Y-60126870D01*
X54248129Y-60243076D01*
X54248133Y-60243079D01*
X54248135Y-60243081D01*
X54389602Y-60326744D01*
X54431224Y-60338836D01*
X54547426Y-60372597D01*
X54547429Y-60372597D01*
X54547431Y-60372598D01*
X54584306Y-60375500D01*
X54584314Y-60375500D01*
X56115686Y-60375500D01*
X56115694Y-60375500D01*
X56152569Y-60372598D01*
X56152571Y-60372597D01*
X56152573Y-60372597D01*
X56194191Y-60360505D01*
X56310398Y-60326744D01*
X56451865Y-60243081D01*
X56451870Y-60243076D01*
X56458128Y-60236819D01*
X56519451Y-60203334D01*
X56545809Y-60200500D01*
X85096404Y-60200500D01*
X85163443Y-60220185D01*
X85209198Y-60272989D01*
X85219142Y-60342147D01*
X85218877Y-60343897D01*
X85209000Y-60406260D01*
X85209000Y-60593739D01*
X85238197Y-60778078D01*
X85238326Y-60778893D01*
X85296257Y-60957185D01*
X85381365Y-61124220D01*
X85491556Y-61275885D01*
X85491558Y-61275887D01*
X85627560Y-61411889D01*
X85625988Y-61413460D01*
X85659123Y-61464271D01*
X85659590Y-61534139D01*
X85626244Y-61586795D01*
X85627560Y-61588111D01*
X85491558Y-61724112D01*
X85491553Y-61724118D01*
X85419432Y-61823385D01*
X85364102Y-61866051D01*
X85319114Y-61874500D01*
X72942741Y-61874500D01*
X72942721Y-61874499D01*
X72936607Y-61874499D01*
X72813394Y-61874499D01*
X72712597Y-61894548D01*
X72712592Y-61894548D01*
X72692553Y-61898535D01*
X72664804Y-61910029D01*
X72578711Y-61945689D01*
X72476267Y-62014141D01*
X72476263Y-62014144D01*
X70502229Y-63988181D01*
X70440906Y-64021666D01*
X70414548Y-64024500D01*
X69784298Y-64024500D01*
X69747432Y-64027401D01*
X69747426Y-64027402D01*
X69589606Y-64073254D01*
X69589603Y-64073255D01*
X69448137Y-64156917D01*
X69448129Y-64156923D01*
X69331923Y-64273129D01*
X69331917Y-64273137D01*
X69248255Y-64414603D01*
X69248254Y-64414606D01*
X69202402Y-64572426D01*
X69202401Y-64572432D01*
X69199500Y-64609298D01*
X69199500Y-65040701D01*
X69202401Y-65077567D01*
X69202402Y-65077573D01*
X69248254Y-65235393D01*
X69248255Y-65235396D01*
X69248256Y-65235398D01*
X69287702Y-65302099D01*
X69335890Y-65383580D01*
X69333919Y-65384745D01*
X69355232Y-65439058D01*
X69341540Y-65507573D01*
X69335864Y-65516404D01*
X69335890Y-65516420D01*
X69248255Y-65664603D01*
X69248254Y-65664606D01*
X69202402Y-65822426D01*
X69202401Y-65822432D01*
X69199500Y-65859298D01*
X69199500Y-66290701D01*
X69202401Y-66327567D01*
X69202402Y-66327573D01*
X69248254Y-66485393D01*
X69248255Y-66485396D01*
X69248256Y-66485398D01*
X69261767Y-66508244D01*
X69335890Y-66633580D01*
X69333919Y-66634745D01*
X69355232Y-66689058D01*
X69341540Y-66757573D01*
X69335864Y-66766404D01*
X69335890Y-66766420D01*
X69248255Y-66914603D01*
X69248254Y-66914606D01*
X69202402Y-67072426D01*
X69202401Y-67072432D01*
X69199500Y-67109298D01*
X69199500Y-67540701D01*
X69202401Y-67577567D01*
X69202402Y-67577573D01*
X69248254Y-67735393D01*
X69248255Y-67735396D01*
X69335890Y-67883580D01*
X69333919Y-67884745D01*
X69355232Y-67939058D01*
X69341540Y-68007573D01*
X69335864Y-68016404D01*
X69335890Y-68016420D01*
X69248255Y-68164603D01*
X69248254Y-68164606D01*
X69202402Y-68322426D01*
X69202401Y-68322432D01*
X69199500Y-68359298D01*
X69199500Y-68790701D01*
X69202401Y-68827567D01*
X69202402Y-68827573D01*
X69248254Y-68985393D01*
X69248255Y-68985396D01*
X69248256Y-68985398D01*
X69259089Y-69003715D01*
X69331917Y-69126862D01*
X69331923Y-69126870D01*
X69448129Y-69243076D01*
X69448133Y-69243079D01*
X69448135Y-69243081D01*
X69589602Y-69326744D01*
X69631224Y-69338836D01*
X69747426Y-69372597D01*
X69747429Y-69372597D01*
X69747431Y-69372598D01*
X69784306Y-69375500D01*
X69784314Y-69375500D01*
X71315686Y-69375500D01*
X71315694Y-69375500D01*
X71352569Y-69372598D01*
X71352571Y-69372597D01*
X71352573Y-69372597D01*
X71414232Y-69354683D01*
X71510398Y-69326744D01*
X71651865Y-69243081D01*
X71651870Y-69243076D01*
X71658128Y-69236819D01*
X71719451Y-69203334D01*
X71745809Y-69200500D01*
X86386607Y-69200500D01*
X86447029Y-69188481D01*
X86507452Y-69176463D01*
X86510794Y-69175078D01*
X86520075Y-69173129D01*
X86549700Y-69175460D01*
X86579428Y-69175193D01*
X86584157Y-69178172D01*
X86589729Y-69178611D01*
X86613397Y-69196594D01*
X86638544Y-69212437D01*
X86640911Y-69217499D01*
X86645362Y-69220881D01*
X86655549Y-69248803D01*
X86668140Y-69275728D01*
X86667394Y-69281267D01*
X86669310Y-69286518D01*
X86662785Y-69315514D01*
X86658820Y-69344974D01*
X86654859Y-69350732D01*
X86653971Y-69354683D01*
X86648296Y-69360277D01*
X86633247Y-69382161D01*
X81790270Y-74225139D01*
X81703144Y-74312264D01*
X81703138Y-74312272D01*
X81634692Y-74414705D01*
X81634684Y-74414719D01*
X81605646Y-74484828D01*
X81601347Y-74495207D01*
X81595823Y-74508543D01*
X81587537Y-74528545D01*
X81587535Y-74528553D01*
X81563500Y-74649389D01*
X81563500Y-76614455D01*
X81543815Y-76681494D01*
X81491011Y-76727249D01*
X81421853Y-76737193D01*
X81358297Y-76708168D01*
X81321794Y-76653459D01*
X81292595Y-76565344D01*
X81273814Y-76508666D01*
X81181712Y-76359344D01*
X81057656Y-76235288D01*
X80908334Y-76143186D01*
X80741797Y-76088001D01*
X80741795Y-76088000D01*
X80639010Y-76077500D01*
X80038998Y-76077500D01*
X80038980Y-76077501D01*
X79936203Y-76088000D01*
X79936200Y-76088001D01*
X79769668Y-76143185D01*
X79769663Y-76143187D01*
X79620342Y-76235289D01*
X79496289Y-76359342D01*
X79404187Y-76508663D01*
X79404185Y-76508668D01*
X79396804Y-76530942D01*
X79349001Y-76675203D01*
X79349001Y-76675204D01*
X79349000Y-76675204D01*
X79338500Y-76777983D01*
X79338500Y-79178001D01*
X79338501Y-79178018D01*
X79349000Y-79280796D01*
X79349001Y-79280799D01*
X79392977Y-79413509D01*
X79404186Y-79447334D01*
X79496288Y-79596656D01*
X79620344Y-79720712D01*
X79769666Y-79812814D01*
X79936203Y-79867999D01*
X80038991Y-79878500D01*
X80639008Y-79878499D01*
X80639016Y-79878498D01*
X80639019Y-79878498D01*
X80705194Y-79871738D01*
X80741797Y-79867999D01*
X80908334Y-79812814D01*
X81057656Y-79720712D01*
X81181712Y-79596656D01*
X81273814Y-79447334D01*
X81321794Y-79302537D01*
X81361567Y-79245094D01*
X81426082Y-79218271D01*
X81494858Y-79230586D01*
X81546058Y-79278129D01*
X81563500Y-79341543D01*
X81563500Y-80132191D01*
X81543815Y-80199230D01*
X81527181Y-80219872D01*
X81520923Y-80226129D01*
X81520917Y-80226137D01*
X81437255Y-80367603D01*
X81437254Y-80367606D01*
X81391402Y-80525426D01*
X81391401Y-80525432D01*
X81388500Y-80562298D01*
X81388500Y-81675500D01*
X81368815Y-81742539D01*
X81316011Y-81788294D01*
X81264500Y-81799500D01*
X81211306Y-81799500D01*
X81037341Y-81834103D01*
X81037332Y-81834106D01*
X80873459Y-81901983D01*
X80873446Y-81901990D01*
X80725965Y-82000535D01*
X80725961Y-82000538D01*
X80600538Y-82125961D01*
X80600535Y-82125965D01*
X80501990Y-82273446D01*
X80501983Y-82273459D01*
X80434106Y-82437332D01*
X80434103Y-82437341D01*
X80399500Y-82611304D01*
X80399500Y-82788695D01*
X80434103Y-82962658D01*
X80434105Y-82962663D01*
X80434106Y-82962666D01*
X80450833Y-83003049D01*
X80458302Y-83072517D01*
X80427027Y-83134996D01*
X80366938Y-83170648D01*
X80336272Y-83174500D01*
X57186452Y-83174500D01*
X57119413Y-83154815D01*
X57098771Y-83138181D01*
X55446819Y-81486229D01*
X55413334Y-81424906D01*
X55410500Y-81398548D01*
X55410500Y-80768313D01*
X55410499Y-80768298D01*
X55407598Y-80731432D01*
X55407597Y-80731426D01*
X55361745Y-80573606D01*
X55361744Y-80573603D01*
X55361744Y-80573602D01*
X55278081Y-80432135D01*
X55278079Y-80432133D01*
X55278076Y-80432129D01*
X55161870Y-80315923D01*
X55161862Y-80315917D01*
X55020396Y-80232255D01*
X55020393Y-80232254D01*
X54862573Y-80186402D01*
X54862567Y-80186401D01*
X54825701Y-80183500D01*
X54825694Y-80183500D01*
X54394306Y-80183500D01*
X54394298Y-80183500D01*
X54357432Y-80186401D01*
X54357426Y-80186402D01*
X54199606Y-80232254D01*
X54199603Y-80232255D01*
X54051420Y-80319890D01*
X54050254Y-80317919D01*
X53995942Y-80339232D01*
X53927427Y-80325540D01*
X53918595Y-80319864D01*
X53918580Y-80319890D01*
X53770396Y-80232255D01*
X53770393Y-80232254D01*
X53612573Y-80186402D01*
X53612567Y-80186401D01*
X53575701Y-80183500D01*
X53575694Y-80183500D01*
X53144306Y-80183500D01*
X53144298Y-80183500D01*
X53107432Y-80186401D01*
X53107426Y-80186402D01*
X52949606Y-80232254D01*
X52949603Y-80232255D01*
X52808137Y-80315917D01*
X52808129Y-80315923D01*
X52691923Y-80432129D01*
X52691917Y-80432137D01*
X52608255Y-80573603D01*
X52608254Y-80573606D01*
X52562402Y-80731426D01*
X52562401Y-80731432D01*
X52559500Y-80768298D01*
X40750500Y-80768298D01*
X40750500Y-76983983D01*
X50509500Y-76983983D01*
X50509500Y-79384001D01*
X50509501Y-79384018D01*
X50520000Y-79486796D01*
X50520001Y-79486799D01*
X50575185Y-79653331D01*
X50575187Y-79653336D01*
X50599848Y-79693318D01*
X50667288Y-79802656D01*
X50791344Y-79926712D01*
X50940666Y-80018814D01*
X51107203Y-80073999D01*
X51209991Y-80084500D01*
X51810008Y-80084499D01*
X51810016Y-80084498D01*
X51810019Y-80084498D01*
X51866302Y-80078748D01*
X51912797Y-80073999D01*
X52079334Y-80018814D01*
X52228656Y-79926712D01*
X52352712Y-79802656D01*
X52444814Y-79653334D01*
X52499999Y-79486797D01*
X52510500Y-79384009D01*
X52510499Y-76983992D01*
X52510498Y-76983983D01*
X55459500Y-76983983D01*
X55459500Y-79384001D01*
X55459501Y-79384018D01*
X55470000Y-79486796D01*
X55470001Y-79486799D01*
X55525185Y-79653331D01*
X55525187Y-79653336D01*
X55549848Y-79693318D01*
X55617288Y-79802656D01*
X55741344Y-79926712D01*
X55890666Y-80018814D01*
X56057203Y-80073999D01*
X56159991Y-80084500D01*
X56760008Y-80084499D01*
X56760016Y-80084498D01*
X56760019Y-80084498D01*
X56816302Y-80078748D01*
X56862797Y-80073999D01*
X57029334Y-80018814D01*
X57178656Y-79926712D01*
X57302712Y-79802656D01*
X57394814Y-79653334D01*
X57449999Y-79486797D01*
X57460500Y-79384009D01*
X57460499Y-78169216D01*
X57460499Y-77046155D01*
X63350000Y-77046155D01*
X63350000Y-78744000D01*
X64422769Y-78744000D01*
X64400000Y-78887753D01*
X64400000Y-79100247D01*
X64422769Y-79244000D01*
X63350000Y-79244000D01*
X63350000Y-80941844D01*
X63356401Y-81001372D01*
X63356403Y-81001379D01*
X63406645Y-81136086D01*
X63406649Y-81136093D01*
X63492809Y-81251187D01*
X63492812Y-81251190D01*
X63607906Y-81337350D01*
X63607913Y-81337354D01*
X63742620Y-81387596D01*
X63742627Y-81387598D01*
X63802155Y-81393999D01*
X63802172Y-81394000D01*
X65500000Y-81394000D01*
X65500000Y-80321231D01*
X65643753Y-80344000D01*
X65856247Y-80344000D01*
X66000000Y-80321231D01*
X66000000Y-81394000D01*
X67697828Y-81394000D01*
X67697844Y-81393999D01*
X67757372Y-81387598D01*
X67757379Y-81387596D01*
X67892086Y-81337354D01*
X67892093Y-81337350D01*
X68007187Y-81251190D01*
X68007190Y-81251187D01*
X68093350Y-81136093D01*
X68093354Y-81136086D01*
X68143596Y-81001379D01*
X68143598Y-81001372D01*
X68149999Y-80941844D01*
X68150000Y-80941827D01*
X68150000Y-79864309D01*
X68169685Y-79797270D01*
X68222489Y-79751515D01*
X68291647Y-79741571D01*
X68355203Y-79770596D01*
X68391041Y-79823354D01*
X68436200Y-79952411D01*
X68558053Y-80205442D01*
X68582968Y-80245094D01*
X68707477Y-80443248D01*
X68882584Y-80662825D01*
X69081175Y-80861416D01*
X69300752Y-81036523D01*
X69538555Y-81185945D01*
X69791592Y-81307801D01*
X69894463Y-81343797D01*
X70056670Y-81400556D01*
X70056682Y-81400560D01*
X70330491Y-81463055D01*
X70330497Y-81463055D01*
X70330505Y-81463057D01*
X70516547Y-81484018D01*
X70609569Y-81494499D01*
X70609572Y-81494500D01*
X70609575Y-81494500D01*
X70890428Y-81494500D01*
X70890429Y-81494499D01*
X71033055Y-81478429D01*
X71169494Y-81463057D01*
X71169499Y-81463056D01*
X71169509Y-81463055D01*
X71443318Y-81400560D01*
X71708408Y-81307801D01*
X71961445Y-81185945D01*
X72199248Y-81036523D01*
X72418825Y-80861416D01*
X72617416Y-80662825D01*
X72792523Y-80443248D01*
X72941945Y-80205445D01*
X73063801Y-79952408D01*
X73156560Y-79687318D01*
X73219055Y-79413509D01*
X73227164Y-79341544D01*
X73239872Y-79228750D01*
X73250500Y-79134425D01*
X73250500Y-78853575D01*
X73238154Y-78744000D01*
X73219057Y-78574505D01*
X73219054Y-78574487D01*
X73156560Y-78300682D01*
X73156556Y-78300670D01*
X73110558Y-78169216D01*
X73063801Y-78035592D01*
X72941945Y-77782555D01*
X72792523Y-77544752D01*
X72617416Y-77325175D01*
X72418825Y-77126584D01*
X72379449Y-77095183D01*
X72354768Y-77075500D01*
X72199248Y-76951477D01*
X71961445Y-76802055D01*
X71961442Y-76802053D01*
X71708411Y-76680200D01*
X71443329Y-76587443D01*
X71443317Y-76587439D01*
X71169512Y-76524945D01*
X71169494Y-76524942D01*
X70890431Y-76493500D01*
X70890425Y-76493500D01*
X70609575Y-76493500D01*
X70609568Y-76493500D01*
X70330505Y-76524942D01*
X70330487Y-76524945D01*
X70056682Y-76587439D01*
X70056670Y-76587443D01*
X69791588Y-76680200D01*
X69538557Y-76802053D01*
X69300753Y-76951476D01*
X69081175Y-77126583D01*
X68882583Y-77325175D01*
X68707476Y-77544753D01*
X68558053Y-77782557D01*
X68436200Y-78035588D01*
X68391041Y-78164645D01*
X68350319Y-78221421D01*
X68285367Y-78247168D01*
X68216805Y-78233712D01*
X68166402Y-78185324D01*
X68150000Y-78123690D01*
X68150000Y-77046172D01*
X68149999Y-77046155D01*
X68143598Y-76986627D01*
X68143596Y-76986620D01*
X68093354Y-76851913D01*
X68093350Y-76851906D01*
X68007190Y-76736812D01*
X68007187Y-76736809D01*
X67892093Y-76650649D01*
X67892086Y-76650645D01*
X67757379Y-76600403D01*
X67757372Y-76600401D01*
X67697844Y-76594000D01*
X66000000Y-76594000D01*
X66000000Y-77666768D01*
X65856247Y-77644000D01*
X65643753Y-77644000D01*
X65500000Y-77666768D01*
X65500000Y-76594000D01*
X63802155Y-76594000D01*
X63742627Y-76600401D01*
X63742620Y-76600403D01*
X63607913Y-76650645D01*
X63607906Y-76650649D01*
X63492812Y-76736809D01*
X63492809Y-76736812D01*
X63406649Y-76851906D01*
X63406645Y-76851913D01*
X63356403Y-76986620D01*
X63356401Y-76986627D01*
X63350000Y-77046155D01*
X57460499Y-77046155D01*
X57460499Y-77042851D01*
X57460499Y-76983998D01*
X57460498Y-76983981D01*
X57449999Y-76881203D01*
X57449998Y-76881200D01*
X57442201Y-76857671D01*
X57394814Y-76714666D01*
X57302712Y-76565344D01*
X57178656Y-76441288D01*
X57029334Y-76349186D01*
X56862797Y-76294001D01*
X56862795Y-76294000D01*
X56760010Y-76283500D01*
X56159998Y-76283500D01*
X56159980Y-76283501D01*
X56057203Y-76294000D01*
X56057200Y-76294001D01*
X55890668Y-76349185D01*
X55890663Y-76349187D01*
X55741342Y-76441289D01*
X55617289Y-76565342D01*
X55525187Y-76714663D01*
X55525185Y-76714668D01*
X55515073Y-76745185D01*
X55470001Y-76881203D01*
X55470001Y-76881204D01*
X55470000Y-76881204D01*
X55459500Y-76983983D01*
X52510498Y-76983983D01*
X52507790Y-76957477D01*
X52499999Y-76881203D01*
X52499998Y-76881200D01*
X52492201Y-76857671D01*
X52444814Y-76714666D01*
X52352712Y-76565344D01*
X52228656Y-76441288D01*
X52079334Y-76349186D01*
X51912797Y-76294001D01*
X51912795Y-76294000D01*
X51810010Y-76283500D01*
X51209998Y-76283500D01*
X51209980Y-76283501D01*
X51107203Y-76294000D01*
X51107200Y-76294001D01*
X50940668Y-76349185D01*
X50940663Y-76349187D01*
X50791342Y-76441289D01*
X50667289Y-76565342D01*
X50575187Y-76714663D01*
X50575185Y-76714668D01*
X50565073Y-76745185D01*
X50520001Y-76881203D01*
X50520001Y-76881204D01*
X50520000Y-76881204D01*
X50509500Y-76983983D01*
X40750500Y-76983983D01*
X40750500Y-70124983D01*
X65299500Y-70124983D01*
X65299500Y-70725001D01*
X65299501Y-70725019D01*
X65310000Y-70827796D01*
X65310001Y-70827799D01*
X65365185Y-70994331D01*
X65365186Y-70994334D01*
X65457288Y-71143656D01*
X65581344Y-71267712D01*
X65730666Y-71359814D01*
X65897203Y-71414999D01*
X65999991Y-71425500D01*
X68400008Y-71425499D01*
X68502797Y-71414999D01*
X68669334Y-71359814D01*
X68818656Y-71267712D01*
X68942712Y-71143656D01*
X69034814Y-70994334D01*
X69089999Y-70827797D01*
X69100500Y-70725009D01*
X69100499Y-70124992D01*
X69089999Y-70022203D01*
X69034814Y-69855666D01*
X68942712Y-69706344D01*
X68818656Y-69582288D01*
X68669334Y-69490186D01*
X68502797Y-69435001D01*
X68502795Y-69435000D01*
X68400010Y-69424500D01*
X65999998Y-69424500D01*
X65999981Y-69424501D01*
X65897203Y-69435000D01*
X65897200Y-69435001D01*
X65730668Y-69490185D01*
X65730663Y-69490187D01*
X65581342Y-69582289D01*
X65457289Y-69706342D01*
X65365187Y-69855663D01*
X65365186Y-69855666D01*
X65310001Y-70022203D01*
X65310001Y-70022204D01*
X65310000Y-70022204D01*
X65299500Y-70124983D01*
X40750500Y-70124983D01*
X40750500Y-62674983D01*
X65299500Y-62674983D01*
X65299500Y-63275001D01*
X65299501Y-63275019D01*
X65310000Y-63377796D01*
X65310001Y-63377799D01*
X65365185Y-63544331D01*
X65365187Y-63544336D01*
X65377190Y-63563796D01*
X65457288Y-63693656D01*
X65581344Y-63817712D01*
X65730666Y-63909814D01*
X65897203Y-63964999D01*
X65999991Y-63975500D01*
X68400008Y-63975499D01*
X68502797Y-63964999D01*
X68669334Y-63909814D01*
X68818656Y-63817712D01*
X68942712Y-63693656D01*
X69034814Y-63544334D01*
X69089999Y-63377797D01*
X69100500Y-63275009D01*
X69100499Y-62674992D01*
X69089999Y-62572203D01*
X69034814Y-62405666D01*
X68942712Y-62256344D01*
X68818656Y-62132288D01*
X68669334Y-62040186D01*
X68502797Y-61985001D01*
X68502795Y-61985000D01*
X68400010Y-61974500D01*
X65999998Y-61974500D01*
X65999981Y-61974501D01*
X65897203Y-61985000D01*
X65897200Y-61985001D01*
X65730668Y-62040185D01*
X65730663Y-62040187D01*
X65581342Y-62132289D01*
X65457289Y-62256342D01*
X65365187Y-62405663D01*
X65365185Y-62405668D01*
X65353033Y-62442342D01*
X65310001Y-62572203D01*
X65310001Y-62572204D01*
X65310000Y-62572204D01*
X65299500Y-62674983D01*
X40750500Y-62674983D01*
X40750500Y-61124983D01*
X50099500Y-61124983D01*
X50099500Y-61725001D01*
X50099501Y-61725019D01*
X50110000Y-61827796D01*
X50110001Y-61827799D01*
X50165185Y-61994331D01*
X50165187Y-61994336D01*
X50193467Y-62040185D01*
X50257288Y-62143656D01*
X50381344Y-62267712D01*
X50530666Y-62359814D01*
X50697203Y-62414999D01*
X50799991Y-62425500D01*
X53200008Y-62425499D01*
X53302797Y-62414999D01*
X53469334Y-62359814D01*
X53618656Y-62267712D01*
X53742712Y-62143656D01*
X53834814Y-61994334D01*
X53889999Y-61827797D01*
X53900500Y-61725009D01*
X53900499Y-61124992D01*
X53889999Y-61022203D01*
X53834814Y-60855666D01*
X53742712Y-60706344D01*
X53618656Y-60582288D01*
X53469334Y-60490186D01*
X53302797Y-60435001D01*
X53302795Y-60435000D01*
X53200010Y-60424500D01*
X50799998Y-60424500D01*
X50799981Y-60424501D01*
X50697203Y-60435000D01*
X50697200Y-60435001D01*
X50530668Y-60490185D01*
X50530663Y-60490187D01*
X50381342Y-60582289D01*
X50257289Y-60706342D01*
X50165187Y-60855663D01*
X50165185Y-60855668D01*
X50150295Y-60900603D01*
X50110001Y-61022203D01*
X50110001Y-61022204D01*
X50110000Y-61022204D01*
X50099500Y-61124983D01*
X40750500Y-61124983D01*
X40750500Y-53674983D01*
X50099500Y-53674983D01*
X50099500Y-54275001D01*
X50099501Y-54275019D01*
X50110000Y-54377796D01*
X50110001Y-54377799D01*
X50165185Y-54544331D01*
X50165186Y-54544334D01*
X50257288Y-54693656D01*
X50381344Y-54817712D01*
X50530666Y-54909814D01*
X50697203Y-54964999D01*
X50799991Y-54975500D01*
X53200008Y-54975499D01*
X53302797Y-54964999D01*
X53469334Y-54909814D01*
X53618656Y-54817712D01*
X53742712Y-54693656D01*
X53834814Y-54544334D01*
X53889999Y-54377797D01*
X53900500Y-54275009D01*
X53900499Y-53674992D01*
X53889999Y-53572203D01*
X53834814Y-53405666D01*
X53742712Y-53256344D01*
X53618656Y-53132288D01*
X53469334Y-53040186D01*
X53302797Y-52985001D01*
X53302795Y-52985000D01*
X53200010Y-52974500D01*
X50799998Y-52974500D01*
X50799981Y-52974501D01*
X50697203Y-52985000D01*
X50697200Y-52985001D01*
X50530668Y-53040185D01*
X50530663Y-53040187D01*
X50381342Y-53132289D01*
X50257289Y-53256342D01*
X50165187Y-53405663D01*
X50165185Y-53405668D01*
X50157555Y-53428695D01*
X50110001Y-53572203D01*
X50110001Y-53572204D01*
X50110000Y-53572204D01*
X50099500Y-53674983D01*
X40750500Y-53674983D01*
X40750500Y-43811298D01*
X52686500Y-43811298D01*
X52686500Y-45342701D01*
X52689401Y-45379567D01*
X52689402Y-45379573D01*
X52735254Y-45537393D01*
X52735255Y-45537396D01*
X52818917Y-45678862D01*
X52818923Y-45678870D01*
X52935129Y-45795076D01*
X52935135Y-45795081D01*
X53008182Y-45838280D01*
X53032735Y-45857325D01*
X53088267Y-45912857D01*
X53088269Y-45912858D01*
X60914142Y-53738732D01*
X60914143Y-53738733D01*
X61001268Y-53825858D01*
X61001269Y-53825859D01*
X61103708Y-53894307D01*
X61103714Y-53894310D01*
X61103715Y-53894311D01*
X61217549Y-53941463D01*
X61277972Y-53953481D01*
X61338394Y-53965500D01*
X61338395Y-53965500D01*
X72726639Y-53965500D01*
X72793678Y-53985185D01*
X72814321Y-54001820D01*
X72851961Y-54039461D01*
X72851965Y-54039464D01*
X72999446Y-54138009D01*
X72999459Y-54138016D01*
X73122363Y-54188923D01*
X73163334Y-54205894D01*
X73163336Y-54205894D01*
X73163341Y-54205896D01*
X73337304Y-54240499D01*
X73337307Y-54240500D01*
X73337309Y-54240500D01*
X73514693Y-54240500D01*
X73514694Y-54240499D01*
X73572682Y-54228964D01*
X73688658Y-54205896D01*
X73688661Y-54205894D01*
X73688666Y-54205894D01*
X73852547Y-54138013D01*
X74000035Y-54039464D01*
X74125464Y-53914035D01*
X74224013Y-53766547D01*
X74291894Y-53602666D01*
X74297954Y-53572204D01*
X74326499Y-53428695D01*
X74326500Y-53428693D01*
X74326500Y-53375451D01*
X74346185Y-53308412D01*
X74362815Y-53287774D01*
X74944143Y-52706445D01*
X75005464Y-52672962D01*
X75075155Y-52677946D01*
X75131089Y-52719817D01*
X75146383Y-52746676D01*
X75147983Y-52750540D01*
X75147990Y-52750553D01*
X75246535Y-52898034D01*
X75246538Y-52898038D01*
X75371961Y-53023461D01*
X75371965Y-53023464D01*
X75519446Y-53122009D01*
X75519459Y-53122016D01*
X75642363Y-53172923D01*
X75683334Y-53189894D01*
X75683336Y-53189894D01*
X75683341Y-53189896D01*
X75857304Y-53224499D01*
X75857307Y-53224500D01*
X75857309Y-53224500D01*
X76034693Y-53224500D01*
X76034694Y-53224499D01*
X76092682Y-53212964D01*
X76208658Y-53189896D01*
X76208661Y-53189894D01*
X76208666Y-53189894D01*
X76372547Y-53122013D01*
X76520035Y-53023464D01*
X76645464Y-52898035D01*
X76744013Y-52750547D01*
X76811894Y-52586666D01*
X76815944Y-52566309D01*
X76846499Y-52412695D01*
X76846500Y-52412693D01*
X76846500Y-52381360D01*
X76866185Y-52314321D01*
X76882819Y-52293679D01*
X83212680Y-45963819D01*
X83274003Y-45930334D01*
X83300361Y-45927500D01*
X83654686Y-45927500D01*
X83654694Y-45927500D01*
X83691569Y-45924598D01*
X83691571Y-45924597D01*
X83691573Y-45924597D01*
X83733191Y-45912505D01*
X83849398Y-45878744D01*
X83990865Y-45795081D01*
X84107081Y-45678865D01*
X84190744Y-45537398D01*
X84236598Y-45379569D01*
X84239500Y-45342694D01*
X84239500Y-43811306D01*
X84236598Y-43774431D01*
X84214560Y-43698578D01*
X84190745Y-43616606D01*
X84190744Y-43616603D01*
X84190744Y-43616602D01*
X84107081Y-43475135D01*
X84107079Y-43475133D01*
X84107076Y-43475129D01*
X83990870Y-43358923D01*
X83990862Y-43358917D01*
X83849396Y-43275255D01*
X83849393Y-43275254D01*
X83691573Y-43229402D01*
X83691567Y-43229401D01*
X83654701Y-43226500D01*
X83654694Y-43226500D01*
X83223306Y-43226500D01*
X83223298Y-43226500D01*
X83186432Y-43229401D01*
X83186426Y-43229402D01*
X83028606Y-43275254D01*
X83028603Y-43275255D01*
X82880420Y-43362890D01*
X82879254Y-43360919D01*
X82824942Y-43382232D01*
X82756427Y-43368540D01*
X82747595Y-43362864D01*
X82747580Y-43362890D01*
X82645465Y-43302500D01*
X82599398Y-43275256D01*
X82599397Y-43275255D01*
X82599396Y-43275255D01*
X82599393Y-43275254D01*
X82441573Y-43229402D01*
X82441567Y-43229401D01*
X82404701Y-43226500D01*
X82404694Y-43226500D01*
X81973306Y-43226500D01*
X81973298Y-43226500D01*
X81936432Y-43229401D01*
X81936426Y-43229402D01*
X81778606Y-43275254D01*
X81778603Y-43275255D01*
X81637137Y-43358917D01*
X81637129Y-43358923D01*
X81520923Y-43475129D01*
X81520917Y-43475137D01*
X81437255Y-43616603D01*
X81437254Y-43616606D01*
X81391402Y-43774426D01*
X81391401Y-43774432D01*
X81388500Y-43811298D01*
X81388500Y-44441547D01*
X81368815Y-44508586D01*
X81352181Y-44529228D01*
X73478229Y-52403181D01*
X73416906Y-52436666D01*
X73390548Y-52439500D01*
X73337306Y-52439500D01*
X73163341Y-52474103D01*
X73163332Y-52474106D01*
X72999459Y-52541983D01*
X72999446Y-52541990D01*
X72851965Y-52640535D01*
X72851961Y-52640538D01*
X72814321Y-52678180D01*
X72787390Y-52692885D01*
X72761574Y-52709477D01*
X72755375Y-52710368D01*
X72752999Y-52711666D01*
X72726639Y-52714500D01*
X72491561Y-52714500D01*
X72424522Y-52694815D01*
X72378767Y-52642011D01*
X72368823Y-52572853D01*
X72369944Y-52566309D01*
X72400499Y-52412695D01*
X72400500Y-52412693D01*
X72400500Y-52235306D01*
X72400499Y-52235304D01*
X72365896Y-52061341D01*
X72365893Y-52061332D01*
X72298016Y-51897459D01*
X72298009Y-51897446D01*
X72199464Y-51749965D01*
X72199461Y-51749961D01*
X72074038Y-51624538D01*
X72074034Y-51624535D01*
X71926553Y-51525990D01*
X71926540Y-51525983D01*
X71762667Y-51458106D01*
X71762658Y-51458103D01*
X71588694Y-51423500D01*
X71588691Y-51423500D01*
X71411309Y-51423500D01*
X71411306Y-51423500D01*
X71237341Y-51458103D01*
X71237332Y-51458106D01*
X71073459Y-51525983D01*
X71073446Y-51525990D01*
X70925965Y-51624535D01*
X70925961Y-51624538D01*
X70888321Y-51662180D01*
X70826999Y-51695666D01*
X70800639Y-51698500D01*
X62540453Y-51698500D01*
X62473414Y-51678815D01*
X62452772Y-51662181D01*
X55573819Y-44783228D01*
X55540334Y-44721905D01*
X55537500Y-44695547D01*
X55537500Y-43811313D01*
X55537499Y-43811298D01*
X55535949Y-43791606D01*
X55534598Y-43774431D01*
X55512560Y-43698578D01*
X55488745Y-43616606D01*
X55488744Y-43616603D01*
X55488744Y-43616602D01*
X55405081Y-43475135D01*
X55405079Y-43475133D01*
X55405076Y-43475129D01*
X55288870Y-43358923D01*
X55288862Y-43358917D01*
X55147396Y-43275255D01*
X55147393Y-43275254D01*
X54989573Y-43229402D01*
X54989567Y-43229401D01*
X54952701Y-43226500D01*
X54952694Y-43226500D01*
X54521306Y-43226500D01*
X54521298Y-43226500D01*
X54484432Y-43229401D01*
X54484426Y-43229402D01*
X54326606Y-43275254D01*
X54326603Y-43275255D01*
X54178420Y-43362890D01*
X54177254Y-43360919D01*
X54122942Y-43382232D01*
X54054427Y-43368540D01*
X54045595Y-43362864D01*
X54045580Y-43362890D01*
X53943465Y-43302500D01*
X53897398Y-43275256D01*
X53897397Y-43275255D01*
X53897396Y-43275255D01*
X53897393Y-43275254D01*
X53739573Y-43229402D01*
X53739567Y-43229401D01*
X53702701Y-43226500D01*
X53702694Y-43226500D01*
X53271306Y-43226500D01*
X53271298Y-43226500D01*
X53234432Y-43229401D01*
X53234426Y-43229402D01*
X53076606Y-43275254D01*
X53076603Y-43275255D01*
X52935137Y-43358917D01*
X52935129Y-43358923D01*
X52818923Y-43475129D01*
X52818917Y-43475137D01*
X52735255Y-43616603D01*
X52735254Y-43616606D01*
X52689402Y-43774426D01*
X52689401Y-43774432D01*
X52686500Y-43811298D01*
X40750500Y-43811298D01*
X40750500Y-40026983D01*
X50636500Y-40026983D01*
X50636500Y-42427001D01*
X50636501Y-42427018D01*
X50647000Y-42529796D01*
X50647001Y-42529799D01*
X50695448Y-42676000D01*
X50702186Y-42696334D01*
X50794288Y-42845656D01*
X50918344Y-42969712D01*
X51067666Y-43061814D01*
X51234203Y-43116999D01*
X51336991Y-43127500D01*
X51937008Y-43127499D01*
X51937016Y-43127498D01*
X51937019Y-43127498D01*
X51993302Y-43121748D01*
X52039797Y-43116999D01*
X52206334Y-43061814D01*
X52355656Y-42969712D01*
X52479712Y-42845656D01*
X52571814Y-42696334D01*
X52626999Y-42529797D01*
X52637500Y-42427009D01*
X52637499Y-40026992D01*
X52637498Y-40026983D01*
X55586500Y-40026983D01*
X55586500Y-42427001D01*
X55586501Y-42427018D01*
X55597000Y-42529796D01*
X55597001Y-42529799D01*
X55645448Y-42676000D01*
X55652186Y-42696334D01*
X55744288Y-42845656D01*
X55868344Y-42969712D01*
X56017666Y-43061814D01*
X56184203Y-43116999D01*
X56286991Y-43127500D01*
X56887008Y-43127499D01*
X56887016Y-43127498D01*
X56887019Y-43127498D01*
X56943302Y-43121748D01*
X56989797Y-43116999D01*
X57156334Y-43061814D01*
X57305656Y-42969712D01*
X57429712Y-42845656D01*
X57466774Y-42785568D01*
X63666500Y-42785568D01*
X63666500Y-43066431D01*
X63697942Y-43345494D01*
X63697945Y-43345512D01*
X63760439Y-43619317D01*
X63760443Y-43619329D01*
X63853200Y-43884411D01*
X63975053Y-44137442D01*
X63975055Y-44137445D01*
X64124477Y-44375248D01*
X64182393Y-44447872D01*
X64257874Y-44542523D01*
X64299584Y-44594825D01*
X64498175Y-44793416D01*
X64717752Y-44968523D01*
X64955555Y-45117945D01*
X65208592Y-45239801D01*
X65407680Y-45309465D01*
X65473670Y-45332556D01*
X65473682Y-45332560D01*
X65747491Y-45395055D01*
X65747497Y-45395055D01*
X65747505Y-45395057D01*
X65933547Y-45416018D01*
X66026569Y-45426499D01*
X66026572Y-45426500D01*
X66026575Y-45426500D01*
X66307428Y-45426500D01*
X66307429Y-45426499D01*
X66450055Y-45410429D01*
X66586494Y-45395057D01*
X66586499Y-45395056D01*
X66586509Y-45395055D01*
X66860318Y-45332560D01*
X67125408Y-45239801D01*
X67378445Y-45117945D01*
X67616248Y-44968523D01*
X67835825Y-44793416D01*
X68034416Y-44594825D01*
X68209523Y-44375248D01*
X68358945Y-44137445D01*
X68480801Y-43884408D01*
X68525959Y-43755354D01*
X68566680Y-43698578D01*
X68631633Y-43672831D01*
X68700195Y-43686287D01*
X68750597Y-43734675D01*
X68767000Y-43796309D01*
X68767000Y-44873844D01*
X68773401Y-44933372D01*
X68773403Y-44933379D01*
X68823645Y-45068086D01*
X68823649Y-45068093D01*
X68909809Y-45183187D01*
X68909812Y-45183190D01*
X69024906Y-45269350D01*
X69024913Y-45269354D01*
X69159620Y-45319596D01*
X69159627Y-45319598D01*
X69219155Y-45325999D01*
X69219172Y-45326000D01*
X70917000Y-45326000D01*
X70917000Y-44253231D01*
X71060753Y-44276000D01*
X71273247Y-44276000D01*
X71417000Y-44253231D01*
X71417000Y-45326000D01*
X73114828Y-45326000D01*
X73114844Y-45325999D01*
X73174372Y-45319598D01*
X73174379Y-45319596D01*
X73309086Y-45269354D01*
X73309093Y-45269350D01*
X73424187Y-45183190D01*
X73424190Y-45183187D01*
X73510350Y-45068093D01*
X73510354Y-45068086D01*
X73560596Y-44933379D01*
X73560598Y-44933372D01*
X73566999Y-44873844D01*
X73567000Y-44873827D01*
X73567000Y-43176000D01*
X72494231Y-43176000D01*
X72517000Y-43032247D01*
X72517000Y-42819753D01*
X72494231Y-42676000D01*
X73567000Y-42676000D01*
X73567000Y-40978172D01*
X73566999Y-40978155D01*
X73560598Y-40918627D01*
X73560596Y-40918620D01*
X73510354Y-40783913D01*
X73510350Y-40783906D01*
X73424190Y-40668812D01*
X73424187Y-40668809D01*
X73309093Y-40582649D01*
X73309086Y-40582645D01*
X73174379Y-40532403D01*
X73174372Y-40532401D01*
X73114844Y-40526000D01*
X71417000Y-40526000D01*
X71417000Y-41598768D01*
X71273247Y-41576000D01*
X71060753Y-41576000D01*
X70917000Y-41598768D01*
X70917000Y-40526000D01*
X69219155Y-40526000D01*
X69159627Y-40532401D01*
X69159620Y-40532403D01*
X69024913Y-40582645D01*
X69024906Y-40582649D01*
X68909812Y-40668809D01*
X68909809Y-40668812D01*
X68823649Y-40783906D01*
X68823645Y-40783913D01*
X68773403Y-40918620D01*
X68773401Y-40918627D01*
X68767000Y-40978155D01*
X68767000Y-42055690D01*
X68747315Y-42122729D01*
X68694511Y-42168484D01*
X68625353Y-42178428D01*
X68561797Y-42149403D01*
X68525959Y-42096645D01*
X68507803Y-42044761D01*
X68480801Y-41967592D01*
X68358945Y-41714555D01*
X68209523Y-41476752D01*
X68034416Y-41257175D01*
X67835825Y-41058584D01*
X67616248Y-40883477D01*
X67378445Y-40734055D01*
X67378442Y-40734053D01*
X67125411Y-40612200D01*
X66860329Y-40519443D01*
X66860317Y-40519439D01*
X66586512Y-40456945D01*
X66586494Y-40456942D01*
X66307431Y-40425500D01*
X66307425Y-40425500D01*
X66026575Y-40425500D01*
X66026568Y-40425500D01*
X65747505Y-40456942D01*
X65747487Y-40456945D01*
X65473682Y-40519439D01*
X65473670Y-40519443D01*
X65208588Y-40612200D01*
X64955557Y-40734053D01*
X64717753Y-40883476D01*
X64498175Y-41058583D01*
X64299583Y-41257175D01*
X64124476Y-41476753D01*
X63975053Y-41714557D01*
X63853200Y-41967588D01*
X63760443Y-42232670D01*
X63760439Y-42232682D01*
X63697945Y-42506487D01*
X63697942Y-42506505D01*
X63666500Y-42785568D01*
X57466774Y-42785568D01*
X57521814Y-42696334D01*
X57576999Y-42529797D01*
X57587500Y-42427009D01*
X57587499Y-40026992D01*
X57587498Y-40026983D01*
X79338500Y-40026983D01*
X79338500Y-42427001D01*
X79338501Y-42427018D01*
X79349000Y-42529796D01*
X79349001Y-42529799D01*
X79397448Y-42676000D01*
X79404186Y-42696334D01*
X79496288Y-42845656D01*
X79620344Y-42969712D01*
X79769666Y-43061814D01*
X79936203Y-43116999D01*
X80038991Y-43127500D01*
X80639008Y-43127499D01*
X80639016Y-43127498D01*
X80639019Y-43127498D01*
X80695302Y-43121748D01*
X80741797Y-43116999D01*
X80908334Y-43061814D01*
X81057656Y-42969712D01*
X81181712Y-42845656D01*
X81273814Y-42696334D01*
X81328999Y-42529797D01*
X81339500Y-42427009D01*
X81339499Y-40026992D01*
X81339498Y-40026983D01*
X84288500Y-40026983D01*
X84288500Y-42427001D01*
X84288501Y-42427018D01*
X84299000Y-42529796D01*
X84299001Y-42529799D01*
X84347448Y-42676000D01*
X84354186Y-42696334D01*
X84446288Y-42845656D01*
X84570344Y-42969712D01*
X84719666Y-43061814D01*
X84886203Y-43116999D01*
X84988991Y-43127500D01*
X85589008Y-43127499D01*
X85589016Y-43127498D01*
X85589019Y-43127498D01*
X85645302Y-43121748D01*
X85691797Y-43116999D01*
X85858334Y-43061814D01*
X86007656Y-42969712D01*
X86131712Y-42845656D01*
X86168774Y-42785568D01*
X91940500Y-42785568D01*
X91940500Y-43066431D01*
X91971942Y-43345494D01*
X91971945Y-43345512D01*
X92034439Y-43619317D01*
X92034443Y-43619329D01*
X92127200Y-43884411D01*
X92249053Y-44137442D01*
X92249055Y-44137445D01*
X92398477Y-44375248D01*
X92456393Y-44447872D01*
X92531874Y-44542523D01*
X92573584Y-44594825D01*
X92772175Y-44793416D01*
X92991752Y-44968523D01*
X93229555Y-45117945D01*
X93482592Y-45239801D01*
X93681680Y-45309465D01*
X93747670Y-45332556D01*
X93747682Y-45332560D01*
X94021491Y-45395055D01*
X94021497Y-45395055D01*
X94021505Y-45395057D01*
X94207547Y-45416018D01*
X94300569Y-45426499D01*
X94300572Y-45426500D01*
X94300575Y-45426500D01*
X94581428Y-45426500D01*
X94581429Y-45426499D01*
X94724055Y-45410429D01*
X94860494Y-45395057D01*
X94860499Y-45395056D01*
X94860509Y-45395055D01*
X95134318Y-45332560D01*
X95399408Y-45239801D01*
X95652445Y-45117945D01*
X95890248Y-44968523D01*
X96109825Y-44793416D01*
X96308416Y-44594825D01*
X96483523Y-44375248D01*
X96632945Y-44137445D01*
X96754801Y-43884408D01*
X96799959Y-43755354D01*
X96840680Y-43698578D01*
X96905633Y-43672831D01*
X96974195Y-43686287D01*
X97024597Y-43734675D01*
X97041000Y-43796309D01*
X97041000Y-44873844D01*
X97047401Y-44933372D01*
X97047403Y-44933379D01*
X97097645Y-45068086D01*
X97097649Y-45068093D01*
X97183809Y-45183187D01*
X97183812Y-45183190D01*
X97298906Y-45269350D01*
X97298913Y-45269354D01*
X97433620Y-45319596D01*
X97433627Y-45319598D01*
X97493155Y-45325999D01*
X97493172Y-45326000D01*
X99191000Y-45326000D01*
X99191000Y-44253231D01*
X99334753Y-44276000D01*
X99547247Y-44276000D01*
X99691000Y-44253231D01*
X99691000Y-45326000D01*
X101388828Y-45326000D01*
X101388844Y-45325999D01*
X101448372Y-45319598D01*
X101448379Y-45319596D01*
X101583086Y-45269354D01*
X101583093Y-45269350D01*
X101698187Y-45183190D01*
X101698190Y-45183187D01*
X101784350Y-45068093D01*
X101784354Y-45068086D01*
X101834596Y-44933379D01*
X101834598Y-44933372D01*
X101840999Y-44873844D01*
X101841000Y-44873827D01*
X101841000Y-43176000D01*
X100768231Y-43176000D01*
X100791000Y-43032247D01*
X100791000Y-42819753D01*
X100768231Y-42676000D01*
X101841000Y-42676000D01*
X101841000Y-40978172D01*
X101840999Y-40978155D01*
X101834598Y-40918627D01*
X101834596Y-40918620D01*
X101784354Y-40783913D01*
X101784350Y-40783906D01*
X101698190Y-40668812D01*
X101698187Y-40668809D01*
X101583093Y-40582649D01*
X101583086Y-40582645D01*
X101448379Y-40532403D01*
X101448372Y-40532401D01*
X101388844Y-40526000D01*
X99691000Y-40526000D01*
X99691000Y-41598768D01*
X99547247Y-41576000D01*
X99334753Y-41576000D01*
X99191000Y-41598768D01*
X99191000Y-40526000D01*
X97493155Y-40526000D01*
X97433627Y-40532401D01*
X97433620Y-40532403D01*
X97298913Y-40582645D01*
X97298906Y-40582649D01*
X97183812Y-40668809D01*
X97183809Y-40668812D01*
X97097649Y-40783906D01*
X97097645Y-40783913D01*
X97047403Y-40918620D01*
X97047401Y-40918627D01*
X97041000Y-40978155D01*
X97041000Y-42055690D01*
X97021315Y-42122729D01*
X96968511Y-42168484D01*
X96899353Y-42178428D01*
X96835797Y-42149403D01*
X96799959Y-42096645D01*
X96781803Y-42044761D01*
X96754801Y-41967592D01*
X96632945Y-41714555D01*
X96483523Y-41476752D01*
X96308416Y-41257175D01*
X96109825Y-41058584D01*
X95890248Y-40883477D01*
X95652445Y-40734055D01*
X95652442Y-40734053D01*
X95399411Y-40612200D01*
X95134329Y-40519443D01*
X95134317Y-40519439D01*
X94860512Y-40456945D01*
X94860494Y-40456942D01*
X94581431Y-40425500D01*
X94581425Y-40425500D01*
X94300575Y-40425500D01*
X94300568Y-40425500D01*
X94021505Y-40456942D01*
X94021487Y-40456945D01*
X93747682Y-40519439D01*
X93747670Y-40519443D01*
X93482588Y-40612200D01*
X93229557Y-40734053D01*
X92991753Y-40883476D01*
X92772175Y-41058583D01*
X92573583Y-41257175D01*
X92398476Y-41476753D01*
X92249053Y-41714557D01*
X92127200Y-41967588D01*
X92034443Y-42232670D01*
X92034439Y-42232682D01*
X91971945Y-42506487D01*
X91971942Y-42506505D01*
X91940500Y-42785568D01*
X86168774Y-42785568D01*
X86223814Y-42696334D01*
X86278999Y-42529797D01*
X86289500Y-42427009D01*
X86289499Y-40201983D01*
X108222500Y-40201983D01*
X108222500Y-42602001D01*
X108222501Y-42602018D01*
X108233000Y-42704796D01*
X108233001Y-42704799D01*
X108259766Y-42785568D01*
X108288186Y-42871334D01*
X108380288Y-43020656D01*
X108504344Y-43144712D01*
X108653666Y-43236814D01*
X108820203Y-43291999D01*
X108922991Y-43302500D01*
X109523008Y-43302499D01*
X109523016Y-43302498D01*
X109523019Y-43302498D01*
X109579302Y-43296748D01*
X109625797Y-43291999D01*
X109792334Y-43236814D01*
X109941656Y-43144712D01*
X110065712Y-43020656D01*
X110157814Y-42871334D01*
X110212999Y-42704797D01*
X110223500Y-42602009D01*
X110223499Y-40201992D01*
X110223498Y-40201983D01*
X113172500Y-40201983D01*
X113172500Y-42602001D01*
X113172501Y-42602018D01*
X113183000Y-42704796D01*
X113183001Y-42704799D01*
X113209766Y-42785568D01*
X113238186Y-42871334D01*
X113330288Y-43020656D01*
X113454344Y-43144712D01*
X113603666Y-43236814D01*
X113770203Y-43291999D01*
X113872991Y-43302500D01*
X114473008Y-43302499D01*
X114473016Y-43302498D01*
X114473019Y-43302498D01*
X114529302Y-43296748D01*
X114575797Y-43291999D01*
X114742334Y-43236814D01*
X114891656Y-43144712D01*
X115015712Y-43020656D01*
X115107814Y-42871334D01*
X115162999Y-42704797D01*
X115173500Y-42602009D01*
X115173500Y-42359568D01*
X120999500Y-42359568D01*
X120999500Y-42640431D01*
X121030942Y-42919494D01*
X121030945Y-42919512D01*
X121093439Y-43193317D01*
X121093443Y-43193329D01*
X121186200Y-43458411D01*
X121308053Y-43711442D01*
X121308055Y-43711445D01*
X121457477Y-43949248D01*
X121499944Y-44002500D01*
X121618000Y-44150538D01*
X121632584Y-44168825D01*
X121831175Y-44367416D01*
X122050752Y-44542523D01*
X122288555Y-44691945D01*
X122541592Y-44813801D01*
X122713185Y-44873844D01*
X122806670Y-44906556D01*
X122806682Y-44906560D01*
X123080491Y-44969055D01*
X123080497Y-44969055D01*
X123080505Y-44969057D01*
X123266547Y-44990018D01*
X123359569Y-45000499D01*
X123359572Y-45000500D01*
X123359575Y-45000500D01*
X123640428Y-45000500D01*
X123640429Y-45000499D01*
X123783055Y-44984429D01*
X123919494Y-44969057D01*
X123919499Y-44969056D01*
X123919509Y-44969055D01*
X124193318Y-44906560D01*
X124458408Y-44813801D01*
X124711445Y-44691945D01*
X124949248Y-44542523D01*
X125168825Y-44367416D01*
X125367416Y-44168825D01*
X125542523Y-43949248D01*
X125691945Y-43711445D01*
X125813801Y-43458408D01*
X125858460Y-43330778D01*
X125899180Y-43274006D01*
X125964132Y-43248258D01*
X126032694Y-43261714D01*
X126083097Y-43310101D01*
X126099500Y-43371736D01*
X126099500Y-44447870D01*
X126099501Y-44447876D01*
X126105908Y-44507483D01*
X126156202Y-44642328D01*
X126156206Y-44642335D01*
X126242452Y-44757544D01*
X126242455Y-44757547D01*
X126357664Y-44843793D01*
X126357671Y-44843797D01*
X126492517Y-44894091D01*
X126492516Y-44894091D01*
X126499444Y-44894835D01*
X126552127Y-44900500D01*
X130447872Y-44900499D01*
X130507483Y-44894091D01*
X130642331Y-44843796D01*
X130757546Y-44757546D01*
X130843796Y-44642331D01*
X130894091Y-44507483D01*
X130900500Y-44447873D01*
X130900499Y-40552128D01*
X130894091Y-40492517D01*
X130880822Y-40456942D01*
X130843797Y-40357671D01*
X130843793Y-40357664D01*
X130757547Y-40242455D01*
X130757544Y-40242452D01*
X130642335Y-40156206D01*
X130642328Y-40156202D01*
X130507482Y-40105908D01*
X130507483Y-40105908D01*
X130447883Y-40099501D01*
X130447881Y-40099500D01*
X130447873Y-40099500D01*
X130447864Y-40099500D01*
X126552129Y-40099500D01*
X126552123Y-40099501D01*
X126492516Y-40105908D01*
X126357671Y-40156202D01*
X126357664Y-40156206D01*
X126242455Y-40242452D01*
X126242452Y-40242455D01*
X126156206Y-40357664D01*
X126156202Y-40357671D01*
X126105908Y-40492517D01*
X126099501Y-40552116D01*
X126099501Y-40552123D01*
X126099500Y-40552135D01*
X126099500Y-41628262D01*
X126079815Y-41695301D01*
X126027011Y-41741056D01*
X125957853Y-41751000D01*
X125894297Y-41721975D01*
X125858459Y-41669217D01*
X125837473Y-41609242D01*
X125813801Y-41541592D01*
X125691945Y-41288555D01*
X125542523Y-41050752D01*
X125367416Y-40831175D01*
X125168825Y-40632584D01*
X124949248Y-40457477D01*
X124711445Y-40308055D01*
X124711442Y-40308053D01*
X124458411Y-40186200D01*
X124193329Y-40093443D01*
X124193317Y-40093439D01*
X123919512Y-40030945D01*
X123919494Y-40030942D01*
X123640431Y-39999500D01*
X123640425Y-39999500D01*
X123359575Y-39999500D01*
X123359568Y-39999500D01*
X123080505Y-40030942D01*
X123080487Y-40030945D01*
X122806682Y-40093439D01*
X122806670Y-40093443D01*
X122541588Y-40186200D01*
X122288557Y-40308053D01*
X122050753Y-40457476D01*
X121831175Y-40632583D01*
X121632583Y-40831175D01*
X121457476Y-41050753D01*
X121308053Y-41288557D01*
X121186200Y-41541588D01*
X121093443Y-41806670D01*
X121093439Y-41806682D01*
X121030945Y-42080487D01*
X121030942Y-42080505D01*
X120999500Y-42359568D01*
X115173500Y-42359568D01*
X115173499Y-41288557D01*
X115173499Y-40201998D01*
X115173498Y-40201981D01*
X115162999Y-40099203D01*
X115162998Y-40099200D01*
X115140380Y-40030945D01*
X115107814Y-39932666D01*
X115015712Y-39783344D01*
X114891656Y-39659288D01*
X114742334Y-39567186D01*
X114575797Y-39512001D01*
X114575795Y-39512000D01*
X114473010Y-39501500D01*
X113872998Y-39501500D01*
X113872980Y-39501501D01*
X113770203Y-39512000D01*
X113770200Y-39512001D01*
X113603668Y-39567185D01*
X113603663Y-39567187D01*
X113454342Y-39659289D01*
X113330289Y-39783342D01*
X113238187Y-39932663D01*
X113238186Y-39932666D01*
X113183001Y-40099203D01*
X113183001Y-40099204D01*
X113183000Y-40099204D01*
X113172500Y-40201983D01*
X110223498Y-40201983D01*
X110212999Y-40099203D01*
X110157814Y-39932666D01*
X110065712Y-39783344D01*
X109941656Y-39659288D01*
X109792334Y-39567186D01*
X109625797Y-39512001D01*
X109625795Y-39512000D01*
X109523010Y-39501500D01*
X108922998Y-39501500D01*
X108922980Y-39501501D01*
X108820203Y-39512000D01*
X108820200Y-39512001D01*
X108653668Y-39567185D01*
X108653663Y-39567187D01*
X108504342Y-39659289D01*
X108380289Y-39783342D01*
X108288187Y-39932663D01*
X108288186Y-39932666D01*
X108233001Y-40099203D01*
X108233001Y-40099204D01*
X108233000Y-40099204D01*
X108222500Y-40201983D01*
X86289499Y-40201983D01*
X86289499Y-40026992D01*
X86278999Y-39924203D01*
X86223814Y-39757666D01*
X86131712Y-39608344D01*
X86007656Y-39484288D01*
X85906565Y-39421935D01*
X85858336Y-39392187D01*
X85858331Y-39392185D01*
X85856862Y-39391698D01*
X85691797Y-39337001D01*
X85691795Y-39337000D01*
X85589010Y-39326500D01*
X84988998Y-39326500D01*
X84988980Y-39326501D01*
X84886203Y-39337000D01*
X84886200Y-39337001D01*
X84719668Y-39392185D01*
X84719663Y-39392187D01*
X84570342Y-39484289D01*
X84446289Y-39608342D01*
X84354187Y-39757663D01*
X84354186Y-39757666D01*
X84299001Y-39924203D01*
X84299001Y-39924204D01*
X84299000Y-39924204D01*
X84288500Y-40026983D01*
X81339498Y-40026983D01*
X81328999Y-39924203D01*
X81273814Y-39757666D01*
X81181712Y-39608344D01*
X81057656Y-39484288D01*
X80956565Y-39421935D01*
X80908336Y-39392187D01*
X80908331Y-39392185D01*
X80906862Y-39391698D01*
X80741797Y-39337001D01*
X80741795Y-39337000D01*
X80639010Y-39326500D01*
X80038998Y-39326500D01*
X80038980Y-39326501D01*
X79936203Y-39337000D01*
X79936200Y-39337001D01*
X79769668Y-39392185D01*
X79769663Y-39392187D01*
X79620342Y-39484289D01*
X79496289Y-39608342D01*
X79404187Y-39757663D01*
X79404186Y-39757666D01*
X79349001Y-39924203D01*
X79349001Y-39924204D01*
X79349000Y-39924204D01*
X79338500Y-40026983D01*
X57587498Y-40026983D01*
X57576999Y-39924203D01*
X57521814Y-39757666D01*
X57429712Y-39608344D01*
X57305656Y-39484288D01*
X57204565Y-39421935D01*
X57156336Y-39392187D01*
X57156331Y-39392185D01*
X57154862Y-39391698D01*
X56989797Y-39337001D01*
X56989795Y-39337000D01*
X56887010Y-39326500D01*
X56286998Y-39326500D01*
X56286980Y-39326501D01*
X56184203Y-39337000D01*
X56184200Y-39337001D01*
X56017668Y-39392185D01*
X56017663Y-39392187D01*
X55868342Y-39484289D01*
X55744289Y-39608342D01*
X55652187Y-39757663D01*
X55652186Y-39757666D01*
X55597001Y-39924203D01*
X55597001Y-39924204D01*
X55597000Y-39924204D01*
X55586500Y-40026983D01*
X52637498Y-40026983D01*
X52626999Y-39924203D01*
X52571814Y-39757666D01*
X52479712Y-39608344D01*
X52355656Y-39484288D01*
X52254565Y-39421935D01*
X52206336Y-39392187D01*
X52206331Y-39392185D01*
X52204862Y-39391698D01*
X52039797Y-39337001D01*
X52039795Y-39337000D01*
X51937010Y-39326500D01*
X51336998Y-39326500D01*
X51336980Y-39326501D01*
X51234203Y-39337000D01*
X51234200Y-39337001D01*
X51067668Y-39392185D01*
X51067663Y-39392187D01*
X50918342Y-39484289D01*
X50794289Y-39608342D01*
X50702187Y-39757663D01*
X50702186Y-39757666D01*
X50647001Y-39924203D01*
X50647001Y-39924204D01*
X50647000Y-39924204D01*
X50636500Y-40026983D01*
X40750500Y-40026983D01*
X40750500Y-38103051D01*
X40750649Y-38096966D01*
X40756149Y-37985010D01*
X42695500Y-37985010D01*
X42695500Y-38214989D01*
X42695501Y-38215005D01*
X42725518Y-38443009D01*
X42725519Y-38443014D01*
X42725520Y-38443020D01*
X42725521Y-38443022D01*
X42785046Y-38665175D01*
X42785049Y-38665185D01*
X42873057Y-38877654D01*
X42873061Y-38877664D01*
X42988055Y-39076839D01*
X43128064Y-39259303D01*
X43128070Y-39259310D01*
X43290689Y-39421929D01*
X43290696Y-39421935D01*
X43473160Y-39561944D01*
X43672335Y-39676938D01*
X43672336Y-39676938D01*
X43672339Y-39676940D01*
X43884824Y-39764954D01*
X44106980Y-39824480D01*
X44335004Y-39854500D01*
X44335011Y-39854500D01*
X44564989Y-39854500D01*
X44564996Y-39854500D01*
X44793020Y-39824480D01*
X45015176Y-39764954D01*
X45227661Y-39676940D01*
X45426840Y-39561944D01*
X45609305Y-39421934D01*
X45771934Y-39259305D01*
X45911944Y-39076840D01*
X46026940Y-38877661D01*
X46114954Y-38665176D01*
X46174480Y-38443020D01*
X46204500Y-38214996D01*
X46204500Y-37985010D01*
X138695500Y-37985010D01*
X138695500Y-38214989D01*
X138695501Y-38215005D01*
X138725518Y-38443009D01*
X138725519Y-38443014D01*
X138725520Y-38443020D01*
X138725521Y-38443022D01*
X138785046Y-38665175D01*
X138785049Y-38665185D01*
X138873057Y-38877654D01*
X138873061Y-38877664D01*
X138988055Y-39076839D01*
X139128064Y-39259303D01*
X139128070Y-39259310D01*
X139290689Y-39421929D01*
X139290696Y-39421935D01*
X139473160Y-39561944D01*
X139672335Y-39676938D01*
X139672336Y-39676938D01*
X139672339Y-39676940D01*
X139884824Y-39764954D01*
X140106980Y-39824480D01*
X140335004Y-39854500D01*
X140335011Y-39854500D01*
X140564989Y-39854500D01*
X140564996Y-39854500D01*
X140793020Y-39824480D01*
X141015176Y-39764954D01*
X141227661Y-39676940D01*
X141426840Y-39561944D01*
X141609305Y-39421934D01*
X141771934Y-39259305D01*
X141911944Y-39076840D01*
X142026940Y-38877661D01*
X142114954Y-38665176D01*
X142174480Y-38443020D01*
X142204500Y-38214996D01*
X142204500Y-37985004D01*
X142174480Y-37756980D01*
X142114954Y-37534824D01*
X142026940Y-37322339D01*
X141911944Y-37123160D01*
X141771934Y-36940695D01*
X141771929Y-36940689D01*
X141609310Y-36778070D01*
X141609303Y-36778064D01*
X141426839Y-36638055D01*
X141227664Y-36523061D01*
X141227654Y-36523057D01*
X141015185Y-36435049D01*
X141015178Y-36435047D01*
X141015176Y-36435046D01*
X140793020Y-36375520D01*
X140793014Y-36375519D01*
X140793009Y-36375518D01*
X140565005Y-36345501D01*
X140565002Y-36345500D01*
X140564996Y-36345500D01*
X140335004Y-36345500D01*
X140334998Y-36345500D01*
X140334994Y-36345501D01*
X140106990Y-36375518D01*
X140106983Y-36375519D01*
X140106980Y-36375520D01*
X139884824Y-36435046D01*
X139884814Y-36435049D01*
X139672345Y-36523057D01*
X139672335Y-36523061D01*
X139473160Y-36638055D01*
X139290696Y-36778064D01*
X139290689Y-36778070D01*
X139128070Y-36940689D01*
X139128064Y-36940696D01*
X138988055Y-37123160D01*
X138873061Y-37322335D01*
X138873057Y-37322345D01*
X138785049Y-37534814D01*
X138785046Y-37534824D01*
X138729141Y-37743468D01*
X138725521Y-37756977D01*
X138725518Y-37756990D01*
X138695501Y-37984994D01*
X138695500Y-37985010D01*
X46204500Y-37985010D01*
X46204500Y-37985004D01*
X46174480Y-37756980D01*
X46114954Y-37534824D01*
X46026940Y-37322339D01*
X45911944Y-37123160D01*
X45771934Y-36940695D01*
X45771929Y-36940689D01*
X45609310Y-36778070D01*
X45609303Y-36778064D01*
X45426839Y-36638055D01*
X45227664Y-36523061D01*
X45227654Y-36523057D01*
X45015185Y-36435049D01*
X45015178Y-36435047D01*
X45015176Y-36435046D01*
X44793020Y-36375520D01*
X44793014Y-36375519D01*
X44793009Y-36375518D01*
X44565005Y-36345501D01*
X44565002Y-36345500D01*
X44564996Y-36345500D01*
X44335004Y-36345500D01*
X44334998Y-36345500D01*
X44334994Y-36345501D01*
X44106990Y-36375518D01*
X44106983Y-36375519D01*
X44106980Y-36375520D01*
X43884824Y-36435046D01*
X43884814Y-36435049D01*
X43672345Y-36523057D01*
X43672335Y-36523061D01*
X43473160Y-36638055D01*
X43290696Y-36778064D01*
X43290689Y-36778070D01*
X43128070Y-36940689D01*
X43128064Y-36940696D01*
X42988055Y-37123160D01*
X42873061Y-37322335D01*
X42873057Y-37322345D01*
X42785049Y-37534814D01*
X42785046Y-37534824D01*
X42729141Y-37743468D01*
X42725521Y-37756977D01*
X42725518Y-37756990D01*
X42695501Y-37984994D01*
X42695500Y-37985010D01*
X40756149Y-37985010D01*
X40756648Y-37974860D01*
X40756648Y-37974859D01*
X40767351Y-37756980D01*
X40768015Y-37743465D01*
X40769208Y-37731359D01*
X40820691Y-37384287D01*
X40823061Y-37372367D01*
X40908322Y-37031986D01*
X40911852Y-37020353D01*
X40940355Y-36940695D01*
X41030055Y-36689999D01*
X41034710Y-36678762D01*
X41069835Y-36604495D01*
X41184735Y-36361557D01*
X41190454Y-36350857D01*
X41370851Y-36049884D01*
X41377594Y-36039791D01*
X41586630Y-35757939D01*
X41594333Y-35748554D01*
X41829983Y-35488553D01*
X41838553Y-35479983D01*
X42098554Y-35244333D01*
X42107939Y-35236630D01*
X42389791Y-35027594D01*
X42399884Y-35020851D01*
X42700857Y-34840454D01*
X42711557Y-34834735D01*
X43028762Y-34684710D01*
X43039999Y-34680055D01*
X43370361Y-34561849D01*
X43381986Y-34558322D01*
X43722367Y-34473061D01*
X43734278Y-34470692D01*
X44081359Y-34419207D01*
X44093465Y-34418015D01*
X44446967Y-34400648D01*
X44453051Y-34400500D01*
X44497595Y-34400500D01*
X140402405Y-34400500D01*
X140446949Y-34400500D01*
X140453032Y-34400648D01*
G37*
G04 #@! TD.AperFunction*
M02*
