%TF.GenerationSoftware,KiCad,Pcbnew,9.0.0*%
%TF.CreationDate,2025-03-25T13:32:20-05:00*%
%TF.ProjectId,Turret,54757272-6574-42e6-9b69-6361645f7063,rev?*%
%TF.SameCoordinates,Original*%
%TF.FileFunction,Drillmap*%
%TF.FilePolarity,Positive*%
%FSLAX45Y45*%
G04 Gerber Fmt 4.5, Leading zero omitted, Abs format (unit mm)*
G04 Created by KiCad (PCBNEW 9.0.0) date 2025-03-25 13:32:20*
%MOMM*%
%LPD*%
G01*
G04 APERTURE LIST*
%ADD10C,0.100000*%
%ADD11C,0.200000*%
%ADD12C,0.102000*%
%ADD13C,0.270000*%
G04 APERTURE END LIST*
D10*
X4045000Y-8410000D02*
X4045000Y-3810000D01*
X14445000Y-3810000D02*
X14445000Y-8410000D01*
X4045000Y-3810000D02*
G75*
G02*
X4445000Y-3410000I400000J0D01*
G01*
X14045000Y-8810000D02*
X4445000Y-8810000D01*
X4445000Y-3410000D02*
X14045000Y-3410000D01*
X14445000Y-8410000D02*
G75*
G02*
X14045000Y-8810000I-400000J0D01*
G01*
X4445000Y-8810000D02*
G75*
G02*
X4045000Y-8410000I0J400000D01*
G01*
X14045000Y-3410000D02*
G75*
G02*
X14445000Y-3810000I0J-400000D01*
G01*
D11*
D10*
X7130000Y-5212400D02*
X7170000Y-5252400D01*
X7170000Y-5212400D02*
X7130000Y-5252400D01*
X7322600Y-5314000D02*
X7362600Y-5354000D01*
X7362600Y-5314000D02*
X7322600Y-5354000D01*
X7574600Y-5212400D02*
X7614600Y-5252400D01*
X7614600Y-5212400D02*
X7574600Y-5252400D01*
X7920000Y-8440000D02*
X7960000Y-8480000D01*
X7960000Y-8440000D02*
X7920000Y-8480000D01*
X8110000Y-8250000D02*
X8150000Y-8290000D01*
X8150000Y-8250000D02*
X8110000Y-8290000D01*
X8682500Y-6050000D02*
G75*
G02*
X8597500Y-6050000I-42500J0D01*
G01*
X8597500Y-6050000D02*
G75*
G02*
X8682500Y-6050000I42500J0D01*
G01*
X8682500Y-6250000D02*
G75*
G02*
X8597500Y-6250000I-42500J0D01*
G01*
X8597500Y-6250000D02*
G75*
G02*
X8682500Y-6250000I42500J0D01*
G01*
X8882500Y-6050000D02*
G75*
G02*
X8797500Y-6050000I-42500J0D01*
G01*
X8797500Y-6050000D02*
G75*
G02*
X8882500Y-6050000I42500J0D01*
G01*
X8882500Y-6250000D02*
G75*
G02*
X8797500Y-6250000I-42500J0D01*
G01*
X8797500Y-6250000D02*
G75*
G02*
X8882500Y-6250000I42500J0D01*
G01*
X9082500Y-6050000D02*
G75*
G02*
X8997500Y-6050000I-42500J0D01*
G01*
X8997500Y-6050000D02*
G75*
G02*
X9082500Y-6050000I42500J0D01*
G01*
X9082500Y-6250000D02*
G75*
G02*
X8997500Y-6250000I-42500J0D01*
G01*
X8997500Y-6250000D02*
G75*
G02*
X9082500Y-6250000I42500J0D01*
G01*
X9282500Y-6050000D02*
G75*
G02*
X9197500Y-6050000I-42500J0D01*
G01*
X9197500Y-6050000D02*
G75*
G02*
X9282500Y-6050000I42500J0D01*
G01*
X9282500Y-6250000D02*
G75*
G02*
X9197500Y-6250000I-42500J0D01*
G01*
X9197500Y-6250000D02*
G75*
G02*
X9282500Y-6250000I42500J0D01*
G01*
X9482500Y-6050000D02*
G75*
G02*
X9397500Y-6050000I-42500J0D01*
G01*
X9397500Y-6050000D02*
G75*
G02*
X9482500Y-6050000I42500J0D01*
G01*
X9482500Y-6250000D02*
G75*
G02*
X9397500Y-6250000I-42500J0D01*
G01*
X9397500Y-6250000D02*
G75*
G02*
X9482500Y-6250000I42500J0D01*
G01*
X9682500Y-6050000D02*
G75*
G02*
X9597500Y-6050000I-42500J0D01*
G01*
X9597500Y-6050000D02*
G75*
G02*
X9682500Y-6050000I42500J0D01*
G01*
X9682500Y-6250000D02*
G75*
G02*
X9597500Y-6250000I-42500J0D01*
G01*
X9597500Y-6250000D02*
G75*
G02*
X9682500Y-6250000I42500J0D01*
G01*
X9882500Y-6050000D02*
G75*
G02*
X9797500Y-6050000I-42500J0D01*
G01*
X9797500Y-6050000D02*
G75*
G02*
X9882500Y-6050000I42500J0D01*
G01*
X9882500Y-6250000D02*
G75*
G02*
X9797500Y-6250000I-42500J0D01*
G01*
X9797500Y-6250000D02*
G75*
G02*
X9882500Y-6250000I42500J0D01*
G01*
X10082500Y-6050000D02*
G75*
G02*
X9997500Y-6050000I-42500J0D01*
G01*
X9997500Y-6050000D02*
G75*
G02*
X10082500Y-6050000I42500J0D01*
G01*
X10082500Y-6250000D02*
G75*
G02*
X9997500Y-6250000I-42500J0D01*
G01*
X9997500Y-6250000D02*
G75*
G02*
X10082500Y-6250000I42500J0D01*
G01*
D12*
X12660000Y-5569000D02*
X12660000Y-5671000D01*
X12609000Y-5620000D02*
X12711000Y-5620000D01*
X12660000Y-5919000D02*
X12660000Y-6021000D01*
X12609000Y-5970000D02*
X12711000Y-5970000D01*
X12660000Y-6269000D02*
X12660000Y-6371000D01*
X12609000Y-6320000D02*
X12711000Y-6320000D01*
X12660000Y-6619000D02*
X12660000Y-6721000D01*
X12609000Y-6670000D02*
X12711000Y-6670000D01*
X13120000Y-5569000D02*
X13120000Y-5671000D01*
X13069000Y-5620000D02*
X13171000Y-5620000D01*
X13120000Y-5919000D02*
X13120000Y-6021000D01*
X13069000Y-5970000D02*
X13171000Y-5970000D01*
X13120000Y-6269000D02*
X13120000Y-6371000D01*
X13069000Y-6320000D02*
X13171000Y-6320000D01*
X13120000Y-6619000D02*
X13120000Y-6721000D01*
X13069000Y-6670000D02*
X13171000Y-6670000D01*
D13*
X6670460Y-7994860D02*
X6670460Y-7803940D01*
X6479540Y-7803940D01*
X6479540Y-7994860D01*
X6670460Y-7994860D01*
X6712160Y-4388060D02*
X6712160Y-4197140D01*
X6521240Y-4197140D01*
X6521240Y-4388060D01*
X6712160Y-4388060D01*
X7170460Y-7994860D02*
X7170460Y-7803940D01*
X6979540Y-7803940D01*
X6979540Y-7994860D01*
X7170460Y-7994860D01*
X7212160Y-4388060D02*
X7212160Y-4197140D01*
X7021240Y-4197140D01*
X7021240Y-4388060D01*
X7212160Y-4388060D01*
X9539560Y-4388060D02*
X9539560Y-4197140D01*
X9348640Y-4197140D01*
X9348640Y-4388060D01*
X9539560Y-4388060D01*
X9545460Y-7994860D02*
X9545460Y-7803940D01*
X9354540Y-7803940D01*
X9354540Y-7994860D01*
X9545460Y-7994860D01*
X10039560Y-4388060D02*
X10039560Y-4197140D01*
X9848640Y-4197140D01*
X9848640Y-4388060D01*
X10039560Y-4388060D01*
X10045460Y-7994860D02*
X10045460Y-7803940D01*
X9854540Y-7803940D01*
X9854540Y-7994860D01*
X10045460Y-7994860D01*
X12445460Y-4345460D02*
X12445460Y-4154540D01*
X12254540Y-4154540D01*
X12254540Y-4345460D01*
X12445460Y-4345460D01*
X12445460Y-7995460D02*
X12445460Y-7804540D01*
X12254540Y-7804540D01*
X12254540Y-7995460D01*
X12445460Y-7995460D01*
X12945460Y-4345460D02*
X12945460Y-4154540D01*
X12754540Y-4154540D01*
X12754540Y-4345460D01*
X12945460Y-4345460D01*
X12945460Y-7995460D02*
X12945460Y-7804540D01*
X12754540Y-7804540D01*
X12754540Y-7995460D01*
X12945460Y-7995460D01*
D11*
X4300777Y-9126484D02*
X4300777Y-8926484D01*
X4300777Y-8926484D02*
X4348396Y-8926484D01*
X4348396Y-8926484D02*
X4376967Y-8936008D01*
X4376967Y-8936008D02*
X4396015Y-8955055D01*
X4396015Y-8955055D02*
X4405539Y-8974103D01*
X4405539Y-8974103D02*
X4415063Y-9012198D01*
X4415063Y-9012198D02*
X4415063Y-9040770D01*
X4415063Y-9040770D02*
X4405539Y-9078865D01*
X4405539Y-9078865D02*
X4396015Y-9097912D01*
X4396015Y-9097912D02*
X4376967Y-9116960D01*
X4376967Y-9116960D02*
X4348396Y-9126484D01*
X4348396Y-9126484D02*
X4300777Y-9126484D01*
X4500777Y-9126484D02*
X4500777Y-8993150D01*
X4500777Y-9031246D02*
X4510301Y-9012198D01*
X4510301Y-9012198D02*
X4519824Y-9002674D01*
X4519824Y-9002674D02*
X4538872Y-8993150D01*
X4538872Y-8993150D02*
X4557920Y-8993150D01*
X4624586Y-9126484D02*
X4624586Y-8993150D01*
X4624586Y-8926484D02*
X4615063Y-8936008D01*
X4615063Y-8936008D02*
X4624586Y-8945531D01*
X4624586Y-8945531D02*
X4634110Y-8936008D01*
X4634110Y-8936008D02*
X4624586Y-8926484D01*
X4624586Y-8926484D02*
X4624586Y-8945531D01*
X4748396Y-9126484D02*
X4729348Y-9116960D01*
X4729348Y-9116960D02*
X4719824Y-9097912D01*
X4719824Y-9097912D02*
X4719824Y-8926484D01*
X4853158Y-9126484D02*
X4834110Y-9116960D01*
X4834110Y-9116960D02*
X4824586Y-9097912D01*
X4824586Y-9097912D02*
X4824586Y-8926484D01*
X5081729Y-9126484D02*
X5081729Y-8926484D01*
X5081729Y-8926484D02*
X5148396Y-9069341D01*
X5148396Y-9069341D02*
X5215063Y-8926484D01*
X5215063Y-8926484D02*
X5215063Y-9126484D01*
X5396015Y-9126484D02*
X5396015Y-9021722D01*
X5396015Y-9021722D02*
X5386491Y-9002674D01*
X5386491Y-9002674D02*
X5367444Y-8993150D01*
X5367444Y-8993150D02*
X5329348Y-8993150D01*
X5329348Y-8993150D02*
X5310301Y-9002674D01*
X5396015Y-9116960D02*
X5376967Y-9126484D01*
X5376967Y-9126484D02*
X5329348Y-9126484D01*
X5329348Y-9126484D02*
X5310301Y-9116960D01*
X5310301Y-9116960D02*
X5300777Y-9097912D01*
X5300777Y-9097912D02*
X5300777Y-9078865D01*
X5300777Y-9078865D02*
X5310301Y-9059817D01*
X5310301Y-9059817D02*
X5329348Y-9050293D01*
X5329348Y-9050293D02*
X5376967Y-9050293D01*
X5376967Y-9050293D02*
X5396015Y-9040770D01*
X5491253Y-8993150D02*
X5491253Y-9193150D01*
X5491253Y-9002674D02*
X5510301Y-8993150D01*
X5510301Y-8993150D02*
X5548396Y-8993150D01*
X5548396Y-8993150D02*
X5567444Y-9002674D01*
X5567444Y-9002674D02*
X5576967Y-9012198D01*
X5576967Y-9012198D02*
X5586491Y-9031246D01*
X5586491Y-9031246D02*
X5586491Y-9088389D01*
X5586491Y-9088389D02*
X5576967Y-9107436D01*
X5576967Y-9107436D02*
X5567444Y-9116960D01*
X5567444Y-9116960D02*
X5548396Y-9126484D01*
X5548396Y-9126484D02*
X5510301Y-9126484D01*
X5510301Y-9126484D02*
X5491253Y-9116960D01*
X5672205Y-9107436D02*
X5681729Y-9116960D01*
X5681729Y-9116960D02*
X5672205Y-9126484D01*
X5672205Y-9126484D02*
X5662682Y-9116960D01*
X5662682Y-9116960D02*
X5672205Y-9107436D01*
X5672205Y-9107436D02*
X5672205Y-9126484D01*
X5672205Y-9002674D02*
X5681729Y-9012198D01*
X5681729Y-9012198D02*
X5672205Y-9021722D01*
X5672205Y-9021722D02*
X5662682Y-9012198D01*
X5662682Y-9012198D02*
X5672205Y-9002674D01*
X5672205Y-9002674D02*
X5672205Y-9021722D01*
D10*
X4000000Y-9435000D02*
X4040000Y-9475000D01*
X4040000Y-9435000D02*
X4000000Y-9475000D01*
D11*
X4338872Y-9346484D02*
X4357920Y-9346484D01*
X4357920Y-9346484D02*
X4376967Y-9356008D01*
X4376967Y-9356008D02*
X4386491Y-9365531D01*
X4386491Y-9365531D02*
X4396015Y-9384579D01*
X4396015Y-9384579D02*
X4405539Y-9422674D01*
X4405539Y-9422674D02*
X4405539Y-9470293D01*
X4405539Y-9470293D02*
X4396015Y-9508389D01*
X4396015Y-9508389D02*
X4386491Y-9527436D01*
X4386491Y-9527436D02*
X4376967Y-9536960D01*
X4376967Y-9536960D02*
X4357920Y-9546484D01*
X4357920Y-9546484D02*
X4338872Y-9546484D01*
X4338872Y-9546484D02*
X4319824Y-9536960D01*
X4319824Y-9536960D02*
X4310301Y-9527436D01*
X4310301Y-9527436D02*
X4300777Y-9508389D01*
X4300777Y-9508389D02*
X4291253Y-9470293D01*
X4291253Y-9470293D02*
X4291253Y-9422674D01*
X4291253Y-9422674D02*
X4300777Y-9384579D01*
X4300777Y-9384579D02*
X4310301Y-9365531D01*
X4310301Y-9365531D02*
X4319824Y-9356008D01*
X4319824Y-9356008D02*
X4338872Y-9346484D01*
X4491253Y-9527436D02*
X4500777Y-9536960D01*
X4500777Y-9536960D02*
X4491253Y-9546484D01*
X4491253Y-9546484D02*
X4481729Y-9536960D01*
X4481729Y-9536960D02*
X4491253Y-9527436D01*
X4491253Y-9527436D02*
X4491253Y-9546484D01*
X4672205Y-9413150D02*
X4672205Y-9546484D01*
X4624586Y-9336960D02*
X4576967Y-9479817D01*
X4576967Y-9479817D02*
X4700777Y-9479817D01*
X4815063Y-9346484D02*
X4834110Y-9346484D01*
X4834110Y-9346484D02*
X4853158Y-9356008D01*
X4853158Y-9356008D02*
X4862682Y-9365531D01*
X4862682Y-9365531D02*
X4872205Y-9384579D01*
X4872205Y-9384579D02*
X4881729Y-9422674D01*
X4881729Y-9422674D02*
X4881729Y-9470293D01*
X4881729Y-9470293D02*
X4872205Y-9508389D01*
X4872205Y-9508389D02*
X4862682Y-9527436D01*
X4862682Y-9527436D02*
X4853158Y-9536960D01*
X4853158Y-9536960D02*
X4834110Y-9546484D01*
X4834110Y-9546484D02*
X4815063Y-9546484D01*
X4815063Y-9546484D02*
X4796015Y-9536960D01*
X4796015Y-9536960D02*
X4786491Y-9527436D01*
X4786491Y-9527436D02*
X4776967Y-9508389D01*
X4776967Y-9508389D02*
X4767444Y-9470293D01*
X4767444Y-9470293D02*
X4767444Y-9422674D01*
X4767444Y-9422674D02*
X4776967Y-9384579D01*
X4776967Y-9384579D02*
X4786491Y-9365531D01*
X4786491Y-9365531D02*
X4796015Y-9356008D01*
X4796015Y-9356008D02*
X4815063Y-9346484D01*
X5005539Y-9346484D02*
X5024586Y-9346484D01*
X5024586Y-9346484D02*
X5043634Y-9356008D01*
X5043634Y-9356008D02*
X5053158Y-9365531D01*
X5053158Y-9365531D02*
X5062682Y-9384579D01*
X5062682Y-9384579D02*
X5072205Y-9422674D01*
X5072205Y-9422674D02*
X5072205Y-9470293D01*
X5072205Y-9470293D02*
X5062682Y-9508389D01*
X5062682Y-9508389D02*
X5053158Y-9527436D01*
X5053158Y-9527436D02*
X5043634Y-9536960D01*
X5043634Y-9536960D02*
X5024586Y-9546484D01*
X5024586Y-9546484D02*
X5005539Y-9546484D01*
X5005539Y-9546484D02*
X4986491Y-9536960D01*
X4986491Y-9536960D02*
X4976967Y-9527436D01*
X4976967Y-9527436D02*
X4967444Y-9508389D01*
X4967444Y-9508389D02*
X4957920Y-9470293D01*
X4957920Y-9470293D02*
X4957920Y-9422674D01*
X4957920Y-9422674D02*
X4967444Y-9384579D01*
X4967444Y-9384579D02*
X4976967Y-9365531D01*
X4976967Y-9365531D02*
X4986491Y-9356008D01*
X4986491Y-9356008D02*
X5005539Y-9346484D01*
X5157920Y-9546484D02*
X5157920Y-9413150D01*
X5157920Y-9432198D02*
X5167444Y-9422674D01*
X5167444Y-9422674D02*
X5186491Y-9413150D01*
X5186491Y-9413150D02*
X5215063Y-9413150D01*
X5215063Y-9413150D02*
X5234110Y-9422674D01*
X5234110Y-9422674D02*
X5243634Y-9441722D01*
X5243634Y-9441722D02*
X5243634Y-9546484D01*
X5243634Y-9441722D02*
X5253158Y-9422674D01*
X5253158Y-9422674D02*
X5272205Y-9413150D01*
X5272205Y-9413150D02*
X5300777Y-9413150D01*
X5300777Y-9413150D02*
X5319825Y-9422674D01*
X5319825Y-9422674D02*
X5329348Y-9441722D01*
X5329348Y-9441722D02*
X5329348Y-9546484D01*
X5424586Y-9546484D02*
X5424586Y-9413150D01*
X5424586Y-9432198D02*
X5434110Y-9422674D01*
X5434110Y-9422674D02*
X5453158Y-9413150D01*
X5453158Y-9413150D02*
X5481729Y-9413150D01*
X5481729Y-9413150D02*
X5500777Y-9422674D01*
X5500777Y-9422674D02*
X5510301Y-9441722D01*
X5510301Y-9441722D02*
X5510301Y-9546484D01*
X5510301Y-9441722D02*
X5519825Y-9422674D01*
X5519825Y-9422674D02*
X5538872Y-9413150D01*
X5538872Y-9413150D02*
X5567444Y-9413150D01*
X5567444Y-9413150D02*
X5586491Y-9422674D01*
X5586491Y-9422674D02*
X5596015Y-9441722D01*
X5596015Y-9441722D02*
X5596015Y-9546484D01*
X5986491Y-9336960D02*
X5815063Y-9594103D01*
X6243634Y-9346484D02*
X6262682Y-9346484D01*
X6262682Y-9346484D02*
X6281729Y-9356008D01*
X6281729Y-9356008D02*
X6291253Y-9365531D01*
X6291253Y-9365531D02*
X6300777Y-9384579D01*
X6300777Y-9384579D02*
X6310301Y-9422674D01*
X6310301Y-9422674D02*
X6310301Y-9470293D01*
X6310301Y-9470293D02*
X6300777Y-9508389D01*
X6300777Y-9508389D02*
X6291253Y-9527436D01*
X6291253Y-9527436D02*
X6281729Y-9536960D01*
X6281729Y-9536960D02*
X6262682Y-9546484D01*
X6262682Y-9546484D02*
X6243634Y-9546484D01*
X6243634Y-9546484D02*
X6224586Y-9536960D01*
X6224586Y-9536960D02*
X6215063Y-9527436D01*
X6215063Y-9527436D02*
X6205539Y-9508389D01*
X6205539Y-9508389D02*
X6196015Y-9470293D01*
X6196015Y-9470293D02*
X6196015Y-9422674D01*
X6196015Y-9422674D02*
X6205539Y-9384579D01*
X6205539Y-9384579D02*
X6215063Y-9365531D01*
X6215063Y-9365531D02*
X6224586Y-9356008D01*
X6224586Y-9356008D02*
X6243634Y-9346484D01*
X6396015Y-9527436D02*
X6405539Y-9536960D01*
X6405539Y-9536960D02*
X6396015Y-9546484D01*
X6396015Y-9546484D02*
X6386491Y-9536960D01*
X6386491Y-9536960D02*
X6396015Y-9527436D01*
X6396015Y-9527436D02*
X6396015Y-9546484D01*
X6529348Y-9346484D02*
X6548396Y-9346484D01*
X6548396Y-9346484D02*
X6567444Y-9356008D01*
X6567444Y-9356008D02*
X6576967Y-9365531D01*
X6576967Y-9365531D02*
X6586491Y-9384579D01*
X6586491Y-9384579D02*
X6596015Y-9422674D01*
X6596015Y-9422674D02*
X6596015Y-9470293D01*
X6596015Y-9470293D02*
X6586491Y-9508389D01*
X6586491Y-9508389D02*
X6576967Y-9527436D01*
X6576967Y-9527436D02*
X6567444Y-9536960D01*
X6567444Y-9536960D02*
X6548396Y-9546484D01*
X6548396Y-9546484D02*
X6529348Y-9546484D01*
X6529348Y-9546484D02*
X6510301Y-9536960D01*
X6510301Y-9536960D02*
X6500777Y-9527436D01*
X6500777Y-9527436D02*
X6491253Y-9508389D01*
X6491253Y-9508389D02*
X6481729Y-9470293D01*
X6481729Y-9470293D02*
X6481729Y-9422674D01*
X6481729Y-9422674D02*
X6491253Y-9384579D01*
X6491253Y-9384579D02*
X6500777Y-9365531D01*
X6500777Y-9365531D02*
X6510301Y-9356008D01*
X6510301Y-9356008D02*
X6529348Y-9346484D01*
X6786491Y-9546484D02*
X6672206Y-9546484D01*
X6729348Y-9546484D02*
X6729348Y-9346484D01*
X6729348Y-9346484D02*
X6710301Y-9375055D01*
X6710301Y-9375055D02*
X6691253Y-9394103D01*
X6691253Y-9394103D02*
X6672206Y-9403627D01*
X6967444Y-9346484D02*
X6872206Y-9346484D01*
X6872206Y-9346484D02*
X6862682Y-9441722D01*
X6862682Y-9441722D02*
X6872206Y-9432198D01*
X6872206Y-9432198D02*
X6891253Y-9422674D01*
X6891253Y-9422674D02*
X6938872Y-9422674D01*
X6938872Y-9422674D02*
X6957920Y-9432198D01*
X6957920Y-9432198D02*
X6967444Y-9441722D01*
X6967444Y-9441722D02*
X6976967Y-9460770D01*
X6976967Y-9460770D02*
X6976967Y-9508389D01*
X6976967Y-9508389D02*
X6967444Y-9527436D01*
X6967444Y-9527436D02*
X6957920Y-9536960D01*
X6957920Y-9536960D02*
X6938872Y-9546484D01*
X6938872Y-9546484D02*
X6891253Y-9546484D01*
X6891253Y-9546484D02*
X6872206Y-9536960D01*
X6872206Y-9536960D02*
X6862682Y-9527436D01*
X7043634Y-9346484D02*
X7176967Y-9346484D01*
X7176967Y-9346484D02*
X7091253Y-9546484D01*
X7243634Y-9346484D02*
X7243634Y-9384579D01*
X7319825Y-9346484D02*
X7319825Y-9384579D01*
X7615063Y-9622674D02*
X7605539Y-9613150D01*
X7605539Y-9613150D02*
X7586491Y-9584579D01*
X7586491Y-9584579D02*
X7576968Y-9565531D01*
X7576968Y-9565531D02*
X7567444Y-9536960D01*
X7567444Y-9536960D02*
X7557920Y-9489341D01*
X7557920Y-9489341D02*
X7557920Y-9451246D01*
X7557920Y-9451246D02*
X7567444Y-9403627D01*
X7567444Y-9403627D02*
X7576968Y-9375055D01*
X7576968Y-9375055D02*
X7586491Y-9356008D01*
X7586491Y-9356008D02*
X7605539Y-9327436D01*
X7605539Y-9327436D02*
X7615063Y-9317912D01*
X7786491Y-9346484D02*
X7691253Y-9346484D01*
X7691253Y-9346484D02*
X7681729Y-9441722D01*
X7681729Y-9441722D02*
X7691253Y-9432198D01*
X7691253Y-9432198D02*
X7710301Y-9422674D01*
X7710301Y-9422674D02*
X7757920Y-9422674D01*
X7757920Y-9422674D02*
X7776968Y-9432198D01*
X7776968Y-9432198D02*
X7786491Y-9441722D01*
X7786491Y-9441722D02*
X7796015Y-9460770D01*
X7796015Y-9460770D02*
X7796015Y-9508389D01*
X7796015Y-9508389D02*
X7786491Y-9527436D01*
X7786491Y-9527436D02*
X7776968Y-9536960D01*
X7776968Y-9536960D02*
X7757920Y-9546484D01*
X7757920Y-9546484D02*
X7710301Y-9546484D01*
X7710301Y-9546484D02*
X7691253Y-9536960D01*
X7691253Y-9536960D02*
X7681729Y-9527436D01*
X8034110Y-9546484D02*
X8034110Y-9346484D01*
X8119825Y-9546484D02*
X8119825Y-9441722D01*
X8119825Y-9441722D02*
X8110301Y-9422674D01*
X8110301Y-9422674D02*
X8091253Y-9413150D01*
X8091253Y-9413150D02*
X8062682Y-9413150D01*
X8062682Y-9413150D02*
X8043634Y-9422674D01*
X8043634Y-9422674D02*
X8034110Y-9432198D01*
X8243634Y-9546484D02*
X8224587Y-9536960D01*
X8224587Y-9536960D02*
X8215063Y-9527436D01*
X8215063Y-9527436D02*
X8205539Y-9508389D01*
X8205539Y-9508389D02*
X8205539Y-9451246D01*
X8205539Y-9451246D02*
X8215063Y-9432198D01*
X8215063Y-9432198D02*
X8224587Y-9422674D01*
X8224587Y-9422674D02*
X8243634Y-9413150D01*
X8243634Y-9413150D02*
X8272206Y-9413150D01*
X8272206Y-9413150D02*
X8291253Y-9422674D01*
X8291253Y-9422674D02*
X8300777Y-9432198D01*
X8300777Y-9432198D02*
X8310301Y-9451246D01*
X8310301Y-9451246D02*
X8310301Y-9508389D01*
X8310301Y-9508389D02*
X8300777Y-9527436D01*
X8300777Y-9527436D02*
X8291253Y-9536960D01*
X8291253Y-9536960D02*
X8272206Y-9546484D01*
X8272206Y-9546484D02*
X8243634Y-9546484D01*
X8424587Y-9546484D02*
X8405539Y-9536960D01*
X8405539Y-9536960D02*
X8396015Y-9517912D01*
X8396015Y-9517912D02*
X8396015Y-9346484D01*
X8576968Y-9536960D02*
X8557920Y-9546484D01*
X8557920Y-9546484D02*
X8519825Y-9546484D01*
X8519825Y-9546484D02*
X8500777Y-9536960D01*
X8500777Y-9536960D02*
X8491253Y-9517912D01*
X8491253Y-9517912D02*
X8491253Y-9441722D01*
X8491253Y-9441722D02*
X8500777Y-9422674D01*
X8500777Y-9422674D02*
X8519825Y-9413150D01*
X8519825Y-9413150D02*
X8557920Y-9413150D01*
X8557920Y-9413150D02*
X8576968Y-9422674D01*
X8576968Y-9422674D02*
X8586492Y-9441722D01*
X8586492Y-9441722D02*
X8586492Y-9460770D01*
X8586492Y-9460770D02*
X8491253Y-9479817D01*
X8662682Y-9536960D02*
X8681730Y-9546484D01*
X8681730Y-9546484D02*
X8719825Y-9546484D01*
X8719825Y-9546484D02*
X8738873Y-9536960D01*
X8738873Y-9536960D02*
X8748396Y-9517912D01*
X8748396Y-9517912D02*
X8748396Y-9508389D01*
X8748396Y-9508389D02*
X8738873Y-9489341D01*
X8738873Y-9489341D02*
X8719825Y-9479817D01*
X8719825Y-9479817D02*
X8691253Y-9479817D01*
X8691253Y-9479817D02*
X8672206Y-9470293D01*
X8672206Y-9470293D02*
X8662682Y-9451246D01*
X8662682Y-9451246D02*
X8662682Y-9441722D01*
X8662682Y-9441722D02*
X8672206Y-9422674D01*
X8672206Y-9422674D02*
X8691253Y-9413150D01*
X8691253Y-9413150D02*
X8719825Y-9413150D01*
X8719825Y-9413150D02*
X8738873Y-9422674D01*
X8815063Y-9622674D02*
X8824587Y-9613150D01*
X8824587Y-9613150D02*
X8843634Y-9584579D01*
X8843634Y-9584579D02*
X8853158Y-9565531D01*
X8853158Y-9565531D02*
X8862682Y-9536960D01*
X8862682Y-9536960D02*
X8872206Y-9489341D01*
X8872206Y-9489341D02*
X8872206Y-9451246D01*
X8872206Y-9451246D02*
X8862682Y-9403627D01*
X8862682Y-9403627D02*
X8853158Y-9375055D01*
X8853158Y-9375055D02*
X8843634Y-9356008D01*
X8843634Y-9356008D02*
X8824587Y-9327436D01*
X8824587Y-9327436D02*
X8815063Y-9317912D01*
D10*
X4040000Y-9719000D02*
G75*
G02*
X3955000Y-9719000I-42500J0D01*
G01*
X3955000Y-9719000D02*
G75*
G02*
X4040000Y-9719000I42500J0D01*
G01*
D11*
X4338872Y-9610484D02*
X4357920Y-9610484D01*
X4357920Y-9610484D02*
X4376967Y-9620008D01*
X4376967Y-9620008D02*
X4386491Y-9629531D01*
X4386491Y-9629531D02*
X4396015Y-9648579D01*
X4396015Y-9648579D02*
X4405539Y-9686674D01*
X4405539Y-9686674D02*
X4405539Y-9734293D01*
X4405539Y-9734293D02*
X4396015Y-9772389D01*
X4396015Y-9772389D02*
X4386491Y-9791436D01*
X4386491Y-9791436D02*
X4376967Y-9800960D01*
X4376967Y-9800960D02*
X4357920Y-9810484D01*
X4357920Y-9810484D02*
X4338872Y-9810484D01*
X4338872Y-9810484D02*
X4319824Y-9800960D01*
X4319824Y-9800960D02*
X4310301Y-9791436D01*
X4310301Y-9791436D02*
X4300777Y-9772389D01*
X4300777Y-9772389D02*
X4291253Y-9734293D01*
X4291253Y-9734293D02*
X4291253Y-9686674D01*
X4291253Y-9686674D02*
X4300777Y-9648579D01*
X4300777Y-9648579D02*
X4310301Y-9629531D01*
X4310301Y-9629531D02*
X4319824Y-9620008D01*
X4319824Y-9620008D02*
X4338872Y-9610484D01*
X4491253Y-9791436D02*
X4500777Y-9800960D01*
X4500777Y-9800960D02*
X4491253Y-9810484D01*
X4491253Y-9810484D02*
X4481729Y-9800960D01*
X4481729Y-9800960D02*
X4491253Y-9791436D01*
X4491253Y-9791436D02*
X4491253Y-9810484D01*
X4615063Y-9696198D02*
X4596015Y-9686674D01*
X4596015Y-9686674D02*
X4586491Y-9677150D01*
X4586491Y-9677150D02*
X4576967Y-9658103D01*
X4576967Y-9658103D02*
X4576967Y-9648579D01*
X4576967Y-9648579D02*
X4586491Y-9629531D01*
X4586491Y-9629531D02*
X4596015Y-9620008D01*
X4596015Y-9620008D02*
X4615063Y-9610484D01*
X4615063Y-9610484D02*
X4653158Y-9610484D01*
X4653158Y-9610484D02*
X4672205Y-9620008D01*
X4672205Y-9620008D02*
X4681729Y-9629531D01*
X4681729Y-9629531D02*
X4691253Y-9648579D01*
X4691253Y-9648579D02*
X4691253Y-9658103D01*
X4691253Y-9658103D02*
X4681729Y-9677150D01*
X4681729Y-9677150D02*
X4672205Y-9686674D01*
X4672205Y-9686674D02*
X4653158Y-9696198D01*
X4653158Y-9696198D02*
X4615063Y-9696198D01*
X4615063Y-9696198D02*
X4596015Y-9705722D01*
X4596015Y-9705722D02*
X4586491Y-9715246D01*
X4586491Y-9715246D02*
X4576967Y-9734293D01*
X4576967Y-9734293D02*
X4576967Y-9772389D01*
X4576967Y-9772389D02*
X4586491Y-9791436D01*
X4586491Y-9791436D02*
X4596015Y-9800960D01*
X4596015Y-9800960D02*
X4615063Y-9810484D01*
X4615063Y-9810484D02*
X4653158Y-9810484D01*
X4653158Y-9810484D02*
X4672205Y-9800960D01*
X4672205Y-9800960D02*
X4681729Y-9791436D01*
X4681729Y-9791436D02*
X4691253Y-9772389D01*
X4691253Y-9772389D02*
X4691253Y-9734293D01*
X4691253Y-9734293D02*
X4681729Y-9715246D01*
X4681729Y-9715246D02*
X4672205Y-9705722D01*
X4672205Y-9705722D02*
X4653158Y-9696198D01*
X4872205Y-9610484D02*
X4776967Y-9610484D01*
X4776967Y-9610484D02*
X4767444Y-9705722D01*
X4767444Y-9705722D02*
X4776967Y-9696198D01*
X4776967Y-9696198D02*
X4796015Y-9686674D01*
X4796015Y-9686674D02*
X4843634Y-9686674D01*
X4843634Y-9686674D02*
X4862682Y-9696198D01*
X4862682Y-9696198D02*
X4872205Y-9705722D01*
X4872205Y-9705722D02*
X4881729Y-9724770D01*
X4881729Y-9724770D02*
X4881729Y-9772389D01*
X4881729Y-9772389D02*
X4872205Y-9791436D01*
X4872205Y-9791436D02*
X4862682Y-9800960D01*
X4862682Y-9800960D02*
X4843634Y-9810484D01*
X4843634Y-9810484D02*
X4796015Y-9810484D01*
X4796015Y-9810484D02*
X4776967Y-9800960D01*
X4776967Y-9800960D02*
X4767444Y-9791436D01*
X5005539Y-9610484D02*
X5024586Y-9610484D01*
X5024586Y-9610484D02*
X5043634Y-9620008D01*
X5043634Y-9620008D02*
X5053158Y-9629531D01*
X5053158Y-9629531D02*
X5062682Y-9648579D01*
X5062682Y-9648579D02*
X5072205Y-9686674D01*
X5072205Y-9686674D02*
X5072205Y-9734293D01*
X5072205Y-9734293D02*
X5062682Y-9772389D01*
X5062682Y-9772389D02*
X5053158Y-9791436D01*
X5053158Y-9791436D02*
X5043634Y-9800960D01*
X5043634Y-9800960D02*
X5024586Y-9810484D01*
X5024586Y-9810484D02*
X5005539Y-9810484D01*
X5005539Y-9810484D02*
X4986491Y-9800960D01*
X4986491Y-9800960D02*
X4976967Y-9791436D01*
X4976967Y-9791436D02*
X4967444Y-9772389D01*
X4967444Y-9772389D02*
X4957920Y-9734293D01*
X4957920Y-9734293D02*
X4957920Y-9686674D01*
X4957920Y-9686674D02*
X4967444Y-9648579D01*
X4967444Y-9648579D02*
X4976967Y-9629531D01*
X4976967Y-9629531D02*
X4986491Y-9620008D01*
X4986491Y-9620008D02*
X5005539Y-9610484D01*
X5157920Y-9810484D02*
X5157920Y-9677150D01*
X5157920Y-9696198D02*
X5167444Y-9686674D01*
X5167444Y-9686674D02*
X5186491Y-9677150D01*
X5186491Y-9677150D02*
X5215063Y-9677150D01*
X5215063Y-9677150D02*
X5234110Y-9686674D01*
X5234110Y-9686674D02*
X5243634Y-9705722D01*
X5243634Y-9705722D02*
X5243634Y-9810484D01*
X5243634Y-9705722D02*
X5253158Y-9686674D01*
X5253158Y-9686674D02*
X5272205Y-9677150D01*
X5272205Y-9677150D02*
X5300777Y-9677150D01*
X5300777Y-9677150D02*
X5319825Y-9686674D01*
X5319825Y-9686674D02*
X5329348Y-9705722D01*
X5329348Y-9705722D02*
X5329348Y-9810484D01*
X5424586Y-9810484D02*
X5424586Y-9677150D01*
X5424586Y-9696198D02*
X5434110Y-9686674D01*
X5434110Y-9686674D02*
X5453158Y-9677150D01*
X5453158Y-9677150D02*
X5481729Y-9677150D01*
X5481729Y-9677150D02*
X5500777Y-9686674D01*
X5500777Y-9686674D02*
X5510301Y-9705722D01*
X5510301Y-9705722D02*
X5510301Y-9810484D01*
X5510301Y-9705722D02*
X5519825Y-9686674D01*
X5519825Y-9686674D02*
X5538872Y-9677150D01*
X5538872Y-9677150D02*
X5567444Y-9677150D01*
X5567444Y-9677150D02*
X5586491Y-9686674D01*
X5586491Y-9686674D02*
X5596015Y-9705722D01*
X5596015Y-9705722D02*
X5596015Y-9810484D01*
X5986491Y-9600960D02*
X5815063Y-9858103D01*
X6243634Y-9610484D02*
X6262682Y-9610484D01*
X6262682Y-9610484D02*
X6281729Y-9620008D01*
X6281729Y-9620008D02*
X6291253Y-9629531D01*
X6291253Y-9629531D02*
X6300777Y-9648579D01*
X6300777Y-9648579D02*
X6310301Y-9686674D01*
X6310301Y-9686674D02*
X6310301Y-9734293D01*
X6310301Y-9734293D02*
X6300777Y-9772389D01*
X6300777Y-9772389D02*
X6291253Y-9791436D01*
X6291253Y-9791436D02*
X6281729Y-9800960D01*
X6281729Y-9800960D02*
X6262682Y-9810484D01*
X6262682Y-9810484D02*
X6243634Y-9810484D01*
X6243634Y-9810484D02*
X6224586Y-9800960D01*
X6224586Y-9800960D02*
X6215063Y-9791436D01*
X6215063Y-9791436D02*
X6205539Y-9772389D01*
X6205539Y-9772389D02*
X6196015Y-9734293D01*
X6196015Y-9734293D02*
X6196015Y-9686674D01*
X6196015Y-9686674D02*
X6205539Y-9648579D01*
X6205539Y-9648579D02*
X6215063Y-9629531D01*
X6215063Y-9629531D02*
X6224586Y-9620008D01*
X6224586Y-9620008D02*
X6243634Y-9610484D01*
X6396015Y-9791436D02*
X6405539Y-9800960D01*
X6405539Y-9800960D02*
X6396015Y-9810484D01*
X6396015Y-9810484D02*
X6386491Y-9800960D01*
X6386491Y-9800960D02*
X6396015Y-9791436D01*
X6396015Y-9791436D02*
X6396015Y-9810484D01*
X6529348Y-9610484D02*
X6548396Y-9610484D01*
X6548396Y-9610484D02*
X6567444Y-9620008D01*
X6567444Y-9620008D02*
X6576967Y-9629531D01*
X6576967Y-9629531D02*
X6586491Y-9648579D01*
X6586491Y-9648579D02*
X6596015Y-9686674D01*
X6596015Y-9686674D02*
X6596015Y-9734293D01*
X6596015Y-9734293D02*
X6586491Y-9772389D01*
X6586491Y-9772389D02*
X6576967Y-9791436D01*
X6576967Y-9791436D02*
X6567444Y-9800960D01*
X6567444Y-9800960D02*
X6548396Y-9810484D01*
X6548396Y-9810484D02*
X6529348Y-9810484D01*
X6529348Y-9810484D02*
X6510301Y-9800960D01*
X6510301Y-9800960D02*
X6500777Y-9791436D01*
X6500777Y-9791436D02*
X6491253Y-9772389D01*
X6491253Y-9772389D02*
X6481729Y-9734293D01*
X6481729Y-9734293D02*
X6481729Y-9686674D01*
X6481729Y-9686674D02*
X6491253Y-9648579D01*
X6491253Y-9648579D02*
X6500777Y-9629531D01*
X6500777Y-9629531D02*
X6510301Y-9620008D01*
X6510301Y-9620008D02*
X6529348Y-9610484D01*
X6662682Y-9610484D02*
X6786491Y-9610484D01*
X6786491Y-9610484D02*
X6719825Y-9686674D01*
X6719825Y-9686674D02*
X6748396Y-9686674D01*
X6748396Y-9686674D02*
X6767444Y-9696198D01*
X6767444Y-9696198D02*
X6776967Y-9705722D01*
X6776967Y-9705722D02*
X6786491Y-9724770D01*
X6786491Y-9724770D02*
X6786491Y-9772389D01*
X6786491Y-9772389D02*
X6776967Y-9791436D01*
X6776967Y-9791436D02*
X6767444Y-9800960D01*
X6767444Y-9800960D02*
X6748396Y-9810484D01*
X6748396Y-9810484D02*
X6691253Y-9810484D01*
X6691253Y-9810484D02*
X6672206Y-9800960D01*
X6672206Y-9800960D02*
X6662682Y-9791436D01*
X6853158Y-9610484D02*
X6976967Y-9610484D01*
X6976967Y-9610484D02*
X6910301Y-9686674D01*
X6910301Y-9686674D02*
X6938872Y-9686674D01*
X6938872Y-9686674D02*
X6957920Y-9696198D01*
X6957920Y-9696198D02*
X6967444Y-9705722D01*
X6967444Y-9705722D02*
X6976967Y-9724770D01*
X6976967Y-9724770D02*
X6976967Y-9772389D01*
X6976967Y-9772389D02*
X6967444Y-9791436D01*
X6967444Y-9791436D02*
X6957920Y-9800960D01*
X6957920Y-9800960D02*
X6938872Y-9810484D01*
X6938872Y-9810484D02*
X6881729Y-9810484D01*
X6881729Y-9810484D02*
X6862682Y-9800960D01*
X6862682Y-9800960D02*
X6853158Y-9791436D01*
X7157920Y-9610484D02*
X7062682Y-9610484D01*
X7062682Y-9610484D02*
X7053158Y-9705722D01*
X7053158Y-9705722D02*
X7062682Y-9696198D01*
X7062682Y-9696198D02*
X7081729Y-9686674D01*
X7081729Y-9686674D02*
X7129348Y-9686674D01*
X7129348Y-9686674D02*
X7148396Y-9696198D01*
X7148396Y-9696198D02*
X7157920Y-9705722D01*
X7157920Y-9705722D02*
X7167444Y-9724770D01*
X7167444Y-9724770D02*
X7167444Y-9772389D01*
X7167444Y-9772389D02*
X7157920Y-9791436D01*
X7157920Y-9791436D02*
X7148396Y-9800960D01*
X7148396Y-9800960D02*
X7129348Y-9810484D01*
X7129348Y-9810484D02*
X7081729Y-9810484D01*
X7081729Y-9810484D02*
X7062682Y-9800960D01*
X7062682Y-9800960D02*
X7053158Y-9791436D01*
X7243634Y-9610484D02*
X7243634Y-9648579D01*
X7319825Y-9610484D02*
X7319825Y-9648579D01*
X7615063Y-9886674D02*
X7605539Y-9877150D01*
X7605539Y-9877150D02*
X7586491Y-9848579D01*
X7586491Y-9848579D02*
X7576968Y-9829531D01*
X7576968Y-9829531D02*
X7567444Y-9800960D01*
X7567444Y-9800960D02*
X7557920Y-9753341D01*
X7557920Y-9753341D02*
X7557920Y-9715246D01*
X7557920Y-9715246D02*
X7567444Y-9667627D01*
X7567444Y-9667627D02*
X7576968Y-9639055D01*
X7576968Y-9639055D02*
X7586491Y-9620008D01*
X7586491Y-9620008D02*
X7605539Y-9591436D01*
X7605539Y-9591436D02*
X7615063Y-9581912D01*
X7796015Y-9810484D02*
X7681729Y-9810484D01*
X7738872Y-9810484D02*
X7738872Y-9610484D01*
X7738872Y-9610484D02*
X7719825Y-9639055D01*
X7719825Y-9639055D02*
X7700777Y-9658103D01*
X7700777Y-9658103D02*
X7681729Y-9667627D01*
X7967444Y-9610484D02*
X7929348Y-9610484D01*
X7929348Y-9610484D02*
X7910301Y-9620008D01*
X7910301Y-9620008D02*
X7900777Y-9629531D01*
X7900777Y-9629531D02*
X7881729Y-9658103D01*
X7881729Y-9658103D02*
X7872206Y-9696198D01*
X7872206Y-9696198D02*
X7872206Y-9772389D01*
X7872206Y-9772389D02*
X7881729Y-9791436D01*
X7881729Y-9791436D02*
X7891253Y-9800960D01*
X7891253Y-9800960D02*
X7910301Y-9810484D01*
X7910301Y-9810484D02*
X7948396Y-9810484D01*
X7948396Y-9810484D02*
X7967444Y-9800960D01*
X7967444Y-9800960D02*
X7976968Y-9791436D01*
X7976968Y-9791436D02*
X7986491Y-9772389D01*
X7986491Y-9772389D02*
X7986491Y-9724770D01*
X7986491Y-9724770D02*
X7976968Y-9705722D01*
X7976968Y-9705722D02*
X7967444Y-9696198D01*
X7967444Y-9696198D02*
X7948396Y-9686674D01*
X7948396Y-9686674D02*
X7910301Y-9686674D01*
X7910301Y-9686674D02*
X7891253Y-9696198D01*
X7891253Y-9696198D02*
X7881729Y-9705722D01*
X7881729Y-9705722D02*
X7872206Y-9724770D01*
X8224587Y-9810484D02*
X8224587Y-9610484D01*
X8310301Y-9810484D02*
X8310301Y-9705722D01*
X8310301Y-9705722D02*
X8300777Y-9686674D01*
X8300777Y-9686674D02*
X8281730Y-9677150D01*
X8281730Y-9677150D02*
X8253158Y-9677150D01*
X8253158Y-9677150D02*
X8234110Y-9686674D01*
X8234110Y-9686674D02*
X8224587Y-9696198D01*
X8434111Y-9810484D02*
X8415063Y-9800960D01*
X8415063Y-9800960D02*
X8405539Y-9791436D01*
X8405539Y-9791436D02*
X8396015Y-9772389D01*
X8396015Y-9772389D02*
X8396015Y-9715246D01*
X8396015Y-9715246D02*
X8405539Y-9696198D01*
X8405539Y-9696198D02*
X8415063Y-9686674D01*
X8415063Y-9686674D02*
X8434111Y-9677150D01*
X8434111Y-9677150D02*
X8462682Y-9677150D01*
X8462682Y-9677150D02*
X8481730Y-9686674D01*
X8481730Y-9686674D02*
X8491253Y-9696198D01*
X8491253Y-9696198D02*
X8500777Y-9715246D01*
X8500777Y-9715246D02*
X8500777Y-9772389D01*
X8500777Y-9772389D02*
X8491253Y-9791436D01*
X8491253Y-9791436D02*
X8481730Y-9800960D01*
X8481730Y-9800960D02*
X8462682Y-9810484D01*
X8462682Y-9810484D02*
X8434111Y-9810484D01*
X8615063Y-9810484D02*
X8596015Y-9800960D01*
X8596015Y-9800960D02*
X8586492Y-9781912D01*
X8586492Y-9781912D02*
X8586492Y-9610484D01*
X8767444Y-9800960D02*
X8748396Y-9810484D01*
X8748396Y-9810484D02*
X8710301Y-9810484D01*
X8710301Y-9810484D02*
X8691253Y-9800960D01*
X8691253Y-9800960D02*
X8681730Y-9781912D01*
X8681730Y-9781912D02*
X8681730Y-9705722D01*
X8681730Y-9705722D02*
X8691253Y-9686674D01*
X8691253Y-9686674D02*
X8710301Y-9677150D01*
X8710301Y-9677150D02*
X8748396Y-9677150D01*
X8748396Y-9677150D02*
X8767444Y-9686674D01*
X8767444Y-9686674D02*
X8776968Y-9705722D01*
X8776968Y-9705722D02*
X8776968Y-9724770D01*
X8776968Y-9724770D02*
X8681730Y-9743817D01*
X8853158Y-9800960D02*
X8872206Y-9810484D01*
X8872206Y-9810484D02*
X8910301Y-9810484D01*
X8910301Y-9810484D02*
X8929349Y-9800960D01*
X8929349Y-9800960D02*
X8938873Y-9781912D01*
X8938873Y-9781912D02*
X8938873Y-9772389D01*
X8938873Y-9772389D02*
X8929349Y-9753341D01*
X8929349Y-9753341D02*
X8910301Y-9743817D01*
X8910301Y-9743817D02*
X8881730Y-9743817D01*
X8881730Y-9743817D02*
X8862682Y-9734293D01*
X8862682Y-9734293D02*
X8853158Y-9715246D01*
X8853158Y-9715246D02*
X8853158Y-9705722D01*
X8853158Y-9705722D02*
X8862682Y-9686674D01*
X8862682Y-9686674D02*
X8881730Y-9677150D01*
X8881730Y-9677150D02*
X8910301Y-9677150D01*
X8910301Y-9677150D02*
X8929349Y-9686674D01*
X9005539Y-9886674D02*
X9015063Y-9877150D01*
X9015063Y-9877150D02*
X9034111Y-9848579D01*
X9034111Y-9848579D02*
X9043634Y-9829531D01*
X9043634Y-9829531D02*
X9053158Y-9800960D01*
X9053158Y-9800960D02*
X9062682Y-9753341D01*
X9062682Y-9753341D02*
X9062682Y-9715246D01*
X9062682Y-9715246D02*
X9053158Y-9667627D01*
X9053158Y-9667627D02*
X9043634Y-9639055D01*
X9043634Y-9639055D02*
X9034111Y-9620008D01*
X9034111Y-9620008D02*
X9015063Y-9591436D01*
X9015063Y-9591436D02*
X9005539Y-9581912D01*
D12*
X3989000Y-9932000D02*
X3989000Y-10034000D01*
X3938000Y-9983000D02*
X4040000Y-9983000D01*
D11*
X4405539Y-10074484D02*
X4291253Y-10074484D01*
X4348396Y-10074484D02*
X4348396Y-9874484D01*
X4348396Y-9874484D02*
X4329348Y-9903055D01*
X4329348Y-9903055D02*
X4310301Y-9922103D01*
X4310301Y-9922103D02*
X4291253Y-9931627D01*
X4491253Y-10055436D02*
X4500777Y-10064960D01*
X4500777Y-10064960D02*
X4491253Y-10074484D01*
X4491253Y-10074484D02*
X4481729Y-10064960D01*
X4481729Y-10064960D02*
X4491253Y-10055436D01*
X4491253Y-10055436D02*
X4491253Y-10074484D01*
X4624586Y-9874484D02*
X4643634Y-9874484D01*
X4643634Y-9874484D02*
X4662682Y-9884008D01*
X4662682Y-9884008D02*
X4672205Y-9893531D01*
X4672205Y-9893531D02*
X4681729Y-9912579D01*
X4681729Y-9912579D02*
X4691253Y-9950674D01*
X4691253Y-9950674D02*
X4691253Y-9998293D01*
X4691253Y-9998293D02*
X4681729Y-10036389D01*
X4681729Y-10036389D02*
X4672205Y-10055436D01*
X4672205Y-10055436D02*
X4662682Y-10064960D01*
X4662682Y-10064960D02*
X4643634Y-10074484D01*
X4643634Y-10074484D02*
X4624586Y-10074484D01*
X4624586Y-10074484D02*
X4605539Y-10064960D01*
X4605539Y-10064960D02*
X4596015Y-10055436D01*
X4596015Y-10055436D02*
X4586491Y-10036389D01*
X4586491Y-10036389D02*
X4576967Y-9998293D01*
X4576967Y-9998293D02*
X4576967Y-9950674D01*
X4576967Y-9950674D02*
X4586491Y-9912579D01*
X4586491Y-9912579D02*
X4596015Y-9893531D01*
X4596015Y-9893531D02*
X4605539Y-9884008D01*
X4605539Y-9884008D02*
X4624586Y-9874484D01*
X4767444Y-9893531D02*
X4776967Y-9884008D01*
X4776967Y-9884008D02*
X4796015Y-9874484D01*
X4796015Y-9874484D02*
X4843634Y-9874484D01*
X4843634Y-9874484D02*
X4862682Y-9884008D01*
X4862682Y-9884008D02*
X4872205Y-9893531D01*
X4872205Y-9893531D02*
X4881729Y-9912579D01*
X4881729Y-9912579D02*
X4881729Y-9931627D01*
X4881729Y-9931627D02*
X4872205Y-9960198D01*
X4872205Y-9960198D02*
X4757920Y-10074484D01*
X4757920Y-10074484D02*
X4881729Y-10074484D01*
X5005539Y-9874484D02*
X5024586Y-9874484D01*
X5024586Y-9874484D02*
X5043634Y-9884008D01*
X5043634Y-9884008D02*
X5053158Y-9893531D01*
X5053158Y-9893531D02*
X5062682Y-9912579D01*
X5062682Y-9912579D02*
X5072205Y-9950674D01*
X5072205Y-9950674D02*
X5072205Y-9998293D01*
X5072205Y-9998293D02*
X5062682Y-10036389D01*
X5062682Y-10036389D02*
X5053158Y-10055436D01*
X5053158Y-10055436D02*
X5043634Y-10064960D01*
X5043634Y-10064960D02*
X5024586Y-10074484D01*
X5024586Y-10074484D02*
X5005539Y-10074484D01*
X5005539Y-10074484D02*
X4986491Y-10064960D01*
X4986491Y-10064960D02*
X4976967Y-10055436D01*
X4976967Y-10055436D02*
X4967444Y-10036389D01*
X4967444Y-10036389D02*
X4957920Y-9998293D01*
X4957920Y-9998293D02*
X4957920Y-9950674D01*
X4957920Y-9950674D02*
X4967444Y-9912579D01*
X4967444Y-9912579D02*
X4976967Y-9893531D01*
X4976967Y-9893531D02*
X4986491Y-9884008D01*
X4986491Y-9884008D02*
X5005539Y-9874484D01*
X5157920Y-10074484D02*
X5157920Y-9941150D01*
X5157920Y-9960198D02*
X5167444Y-9950674D01*
X5167444Y-9950674D02*
X5186491Y-9941150D01*
X5186491Y-9941150D02*
X5215063Y-9941150D01*
X5215063Y-9941150D02*
X5234110Y-9950674D01*
X5234110Y-9950674D02*
X5243634Y-9969722D01*
X5243634Y-9969722D02*
X5243634Y-10074484D01*
X5243634Y-9969722D02*
X5253158Y-9950674D01*
X5253158Y-9950674D02*
X5272205Y-9941150D01*
X5272205Y-9941150D02*
X5300777Y-9941150D01*
X5300777Y-9941150D02*
X5319825Y-9950674D01*
X5319825Y-9950674D02*
X5329348Y-9969722D01*
X5329348Y-9969722D02*
X5329348Y-10074484D01*
X5424586Y-10074484D02*
X5424586Y-9941150D01*
X5424586Y-9960198D02*
X5434110Y-9950674D01*
X5434110Y-9950674D02*
X5453158Y-9941150D01*
X5453158Y-9941150D02*
X5481729Y-9941150D01*
X5481729Y-9941150D02*
X5500777Y-9950674D01*
X5500777Y-9950674D02*
X5510301Y-9969722D01*
X5510301Y-9969722D02*
X5510301Y-10074484D01*
X5510301Y-9969722D02*
X5519825Y-9950674D01*
X5519825Y-9950674D02*
X5538872Y-9941150D01*
X5538872Y-9941150D02*
X5567444Y-9941150D01*
X5567444Y-9941150D02*
X5586491Y-9950674D01*
X5586491Y-9950674D02*
X5596015Y-9969722D01*
X5596015Y-9969722D02*
X5596015Y-10074484D01*
X5986491Y-9864960D02*
X5815063Y-10122103D01*
X6243634Y-9874484D02*
X6262682Y-9874484D01*
X6262682Y-9874484D02*
X6281729Y-9884008D01*
X6281729Y-9884008D02*
X6291253Y-9893531D01*
X6291253Y-9893531D02*
X6300777Y-9912579D01*
X6300777Y-9912579D02*
X6310301Y-9950674D01*
X6310301Y-9950674D02*
X6310301Y-9998293D01*
X6310301Y-9998293D02*
X6300777Y-10036389D01*
X6300777Y-10036389D02*
X6291253Y-10055436D01*
X6291253Y-10055436D02*
X6281729Y-10064960D01*
X6281729Y-10064960D02*
X6262682Y-10074484D01*
X6262682Y-10074484D02*
X6243634Y-10074484D01*
X6243634Y-10074484D02*
X6224586Y-10064960D01*
X6224586Y-10064960D02*
X6215063Y-10055436D01*
X6215063Y-10055436D02*
X6205539Y-10036389D01*
X6205539Y-10036389D02*
X6196015Y-9998293D01*
X6196015Y-9998293D02*
X6196015Y-9950674D01*
X6196015Y-9950674D02*
X6205539Y-9912579D01*
X6205539Y-9912579D02*
X6215063Y-9893531D01*
X6215063Y-9893531D02*
X6224586Y-9884008D01*
X6224586Y-9884008D02*
X6243634Y-9874484D01*
X6396015Y-10055436D02*
X6405539Y-10064960D01*
X6405539Y-10064960D02*
X6396015Y-10074484D01*
X6396015Y-10074484D02*
X6386491Y-10064960D01*
X6386491Y-10064960D02*
X6396015Y-10055436D01*
X6396015Y-10055436D02*
X6396015Y-10074484D01*
X6529348Y-9874484D02*
X6548396Y-9874484D01*
X6548396Y-9874484D02*
X6567444Y-9884008D01*
X6567444Y-9884008D02*
X6576967Y-9893531D01*
X6576967Y-9893531D02*
X6586491Y-9912579D01*
X6586491Y-9912579D02*
X6596015Y-9950674D01*
X6596015Y-9950674D02*
X6596015Y-9998293D01*
X6596015Y-9998293D02*
X6586491Y-10036389D01*
X6586491Y-10036389D02*
X6576967Y-10055436D01*
X6576967Y-10055436D02*
X6567444Y-10064960D01*
X6567444Y-10064960D02*
X6548396Y-10074484D01*
X6548396Y-10074484D02*
X6529348Y-10074484D01*
X6529348Y-10074484D02*
X6510301Y-10064960D01*
X6510301Y-10064960D02*
X6500777Y-10055436D01*
X6500777Y-10055436D02*
X6491253Y-10036389D01*
X6491253Y-10036389D02*
X6481729Y-9998293D01*
X6481729Y-9998293D02*
X6481729Y-9950674D01*
X6481729Y-9950674D02*
X6491253Y-9912579D01*
X6491253Y-9912579D02*
X6500777Y-9893531D01*
X6500777Y-9893531D02*
X6510301Y-9884008D01*
X6510301Y-9884008D02*
X6529348Y-9874484D01*
X6767444Y-9941150D02*
X6767444Y-10074484D01*
X6719825Y-9864960D02*
X6672206Y-10007817D01*
X6672206Y-10007817D02*
X6796015Y-10007817D01*
X6910301Y-9874484D02*
X6929348Y-9874484D01*
X6929348Y-9874484D02*
X6948396Y-9884008D01*
X6948396Y-9884008D02*
X6957920Y-9893531D01*
X6957920Y-9893531D02*
X6967444Y-9912579D01*
X6967444Y-9912579D02*
X6976967Y-9950674D01*
X6976967Y-9950674D02*
X6976967Y-9998293D01*
X6976967Y-9998293D02*
X6967444Y-10036389D01*
X6967444Y-10036389D02*
X6957920Y-10055436D01*
X6957920Y-10055436D02*
X6948396Y-10064960D01*
X6948396Y-10064960D02*
X6929348Y-10074484D01*
X6929348Y-10074484D02*
X6910301Y-10074484D01*
X6910301Y-10074484D02*
X6891253Y-10064960D01*
X6891253Y-10064960D02*
X6881729Y-10055436D01*
X6881729Y-10055436D02*
X6872206Y-10036389D01*
X6872206Y-10036389D02*
X6862682Y-9998293D01*
X6862682Y-9998293D02*
X6862682Y-9950674D01*
X6862682Y-9950674D02*
X6872206Y-9912579D01*
X6872206Y-9912579D02*
X6881729Y-9893531D01*
X6881729Y-9893531D02*
X6891253Y-9884008D01*
X6891253Y-9884008D02*
X6910301Y-9874484D01*
X7053158Y-9893531D02*
X7062682Y-9884008D01*
X7062682Y-9884008D02*
X7081729Y-9874484D01*
X7081729Y-9874484D02*
X7129348Y-9874484D01*
X7129348Y-9874484D02*
X7148396Y-9884008D01*
X7148396Y-9884008D02*
X7157920Y-9893531D01*
X7157920Y-9893531D02*
X7167444Y-9912579D01*
X7167444Y-9912579D02*
X7167444Y-9931627D01*
X7167444Y-9931627D02*
X7157920Y-9960198D01*
X7157920Y-9960198D02*
X7043634Y-10074484D01*
X7043634Y-10074484D02*
X7167444Y-10074484D01*
X7243634Y-9874484D02*
X7243634Y-9912579D01*
X7319825Y-9874484D02*
X7319825Y-9912579D01*
X7615063Y-10150674D02*
X7605539Y-10141150D01*
X7605539Y-10141150D02*
X7586491Y-10112579D01*
X7586491Y-10112579D02*
X7576968Y-10093531D01*
X7576968Y-10093531D02*
X7567444Y-10064960D01*
X7567444Y-10064960D02*
X7557920Y-10017341D01*
X7557920Y-10017341D02*
X7557920Y-9979246D01*
X7557920Y-9979246D02*
X7567444Y-9931627D01*
X7567444Y-9931627D02*
X7576968Y-9903055D01*
X7576968Y-9903055D02*
X7586491Y-9884008D01*
X7586491Y-9884008D02*
X7605539Y-9855436D01*
X7605539Y-9855436D02*
X7615063Y-9845912D01*
X7719825Y-9960198D02*
X7700777Y-9950674D01*
X7700777Y-9950674D02*
X7691253Y-9941150D01*
X7691253Y-9941150D02*
X7681729Y-9922103D01*
X7681729Y-9922103D02*
X7681729Y-9912579D01*
X7681729Y-9912579D02*
X7691253Y-9893531D01*
X7691253Y-9893531D02*
X7700777Y-9884008D01*
X7700777Y-9884008D02*
X7719825Y-9874484D01*
X7719825Y-9874484D02*
X7757920Y-9874484D01*
X7757920Y-9874484D02*
X7776968Y-9884008D01*
X7776968Y-9884008D02*
X7786491Y-9893531D01*
X7786491Y-9893531D02*
X7796015Y-9912579D01*
X7796015Y-9912579D02*
X7796015Y-9922103D01*
X7796015Y-9922103D02*
X7786491Y-9941150D01*
X7786491Y-9941150D02*
X7776968Y-9950674D01*
X7776968Y-9950674D02*
X7757920Y-9960198D01*
X7757920Y-9960198D02*
X7719825Y-9960198D01*
X7719825Y-9960198D02*
X7700777Y-9969722D01*
X7700777Y-9969722D02*
X7691253Y-9979246D01*
X7691253Y-9979246D02*
X7681729Y-9998293D01*
X7681729Y-9998293D02*
X7681729Y-10036389D01*
X7681729Y-10036389D02*
X7691253Y-10055436D01*
X7691253Y-10055436D02*
X7700777Y-10064960D01*
X7700777Y-10064960D02*
X7719825Y-10074484D01*
X7719825Y-10074484D02*
X7757920Y-10074484D01*
X7757920Y-10074484D02*
X7776968Y-10064960D01*
X7776968Y-10064960D02*
X7786491Y-10055436D01*
X7786491Y-10055436D02*
X7796015Y-10036389D01*
X7796015Y-10036389D02*
X7796015Y-9998293D01*
X7796015Y-9998293D02*
X7786491Y-9979246D01*
X7786491Y-9979246D02*
X7776968Y-9969722D01*
X7776968Y-9969722D02*
X7757920Y-9960198D01*
X8034110Y-10074484D02*
X8034110Y-9874484D01*
X8119825Y-10074484D02*
X8119825Y-9969722D01*
X8119825Y-9969722D02*
X8110301Y-9950674D01*
X8110301Y-9950674D02*
X8091253Y-9941150D01*
X8091253Y-9941150D02*
X8062682Y-9941150D01*
X8062682Y-9941150D02*
X8043634Y-9950674D01*
X8043634Y-9950674D02*
X8034110Y-9960198D01*
X8243634Y-10074484D02*
X8224587Y-10064960D01*
X8224587Y-10064960D02*
X8215063Y-10055436D01*
X8215063Y-10055436D02*
X8205539Y-10036389D01*
X8205539Y-10036389D02*
X8205539Y-9979246D01*
X8205539Y-9979246D02*
X8215063Y-9960198D01*
X8215063Y-9960198D02*
X8224587Y-9950674D01*
X8224587Y-9950674D02*
X8243634Y-9941150D01*
X8243634Y-9941150D02*
X8272206Y-9941150D01*
X8272206Y-9941150D02*
X8291253Y-9950674D01*
X8291253Y-9950674D02*
X8300777Y-9960198D01*
X8300777Y-9960198D02*
X8310301Y-9979246D01*
X8310301Y-9979246D02*
X8310301Y-10036389D01*
X8310301Y-10036389D02*
X8300777Y-10055436D01*
X8300777Y-10055436D02*
X8291253Y-10064960D01*
X8291253Y-10064960D02*
X8272206Y-10074484D01*
X8272206Y-10074484D02*
X8243634Y-10074484D01*
X8424587Y-10074484D02*
X8405539Y-10064960D01*
X8405539Y-10064960D02*
X8396015Y-10045912D01*
X8396015Y-10045912D02*
X8396015Y-9874484D01*
X8576968Y-10064960D02*
X8557920Y-10074484D01*
X8557920Y-10074484D02*
X8519825Y-10074484D01*
X8519825Y-10074484D02*
X8500777Y-10064960D01*
X8500777Y-10064960D02*
X8491253Y-10045912D01*
X8491253Y-10045912D02*
X8491253Y-9969722D01*
X8491253Y-9969722D02*
X8500777Y-9950674D01*
X8500777Y-9950674D02*
X8519825Y-9941150D01*
X8519825Y-9941150D02*
X8557920Y-9941150D01*
X8557920Y-9941150D02*
X8576968Y-9950674D01*
X8576968Y-9950674D02*
X8586492Y-9969722D01*
X8586492Y-9969722D02*
X8586492Y-9988770D01*
X8586492Y-9988770D02*
X8491253Y-10007817D01*
X8662682Y-10064960D02*
X8681730Y-10074484D01*
X8681730Y-10074484D02*
X8719825Y-10074484D01*
X8719825Y-10074484D02*
X8738873Y-10064960D01*
X8738873Y-10064960D02*
X8748396Y-10045912D01*
X8748396Y-10045912D02*
X8748396Y-10036389D01*
X8748396Y-10036389D02*
X8738873Y-10017341D01*
X8738873Y-10017341D02*
X8719825Y-10007817D01*
X8719825Y-10007817D02*
X8691253Y-10007817D01*
X8691253Y-10007817D02*
X8672206Y-9998293D01*
X8672206Y-9998293D02*
X8662682Y-9979246D01*
X8662682Y-9979246D02*
X8662682Y-9969722D01*
X8662682Y-9969722D02*
X8672206Y-9950674D01*
X8672206Y-9950674D02*
X8691253Y-9941150D01*
X8691253Y-9941150D02*
X8719825Y-9941150D01*
X8719825Y-9941150D02*
X8738873Y-9950674D01*
X8815063Y-10150674D02*
X8824587Y-10141150D01*
X8824587Y-10141150D02*
X8843634Y-10112579D01*
X8843634Y-10112579D02*
X8853158Y-10093531D01*
X8853158Y-10093531D02*
X8862682Y-10064960D01*
X8862682Y-10064960D02*
X8872206Y-10017341D01*
X8872206Y-10017341D02*
X8872206Y-9979246D01*
X8872206Y-9979246D02*
X8862682Y-9931627D01*
X8862682Y-9931627D02*
X8853158Y-9903055D01*
X8853158Y-9903055D02*
X8843634Y-9884008D01*
X8843634Y-9884008D02*
X8824587Y-9855436D01*
X8824587Y-9855436D02*
X8815063Y-9845912D01*
X4010711Y-10317711D02*
X4010711Y-10176289D01*
X3869289Y-10176289D01*
X3869289Y-10317711D01*
X4010711Y-10317711D01*
X4291253Y-10157531D02*
X4300777Y-10148008D01*
X4300777Y-10148008D02*
X4319824Y-10138484D01*
X4319824Y-10138484D02*
X4367444Y-10138484D01*
X4367444Y-10138484D02*
X4386491Y-10148008D01*
X4386491Y-10148008D02*
X4396015Y-10157531D01*
X4396015Y-10157531D02*
X4405539Y-10176579D01*
X4405539Y-10176579D02*
X4405539Y-10195627D01*
X4405539Y-10195627D02*
X4396015Y-10224198D01*
X4396015Y-10224198D02*
X4281729Y-10338484D01*
X4281729Y-10338484D02*
X4405539Y-10338484D01*
X4491253Y-10319436D02*
X4500777Y-10328960D01*
X4500777Y-10328960D02*
X4491253Y-10338484D01*
X4491253Y-10338484D02*
X4481729Y-10328960D01*
X4481729Y-10328960D02*
X4491253Y-10319436D01*
X4491253Y-10319436D02*
X4491253Y-10338484D01*
X4567444Y-10138484D02*
X4700777Y-10138484D01*
X4700777Y-10138484D02*
X4615063Y-10338484D01*
X4815063Y-10138484D02*
X4834110Y-10138484D01*
X4834110Y-10138484D02*
X4853158Y-10148008D01*
X4853158Y-10148008D02*
X4862682Y-10157531D01*
X4862682Y-10157531D02*
X4872205Y-10176579D01*
X4872205Y-10176579D02*
X4881729Y-10214674D01*
X4881729Y-10214674D02*
X4881729Y-10262293D01*
X4881729Y-10262293D02*
X4872205Y-10300389D01*
X4872205Y-10300389D02*
X4862682Y-10319436D01*
X4862682Y-10319436D02*
X4853158Y-10328960D01*
X4853158Y-10328960D02*
X4834110Y-10338484D01*
X4834110Y-10338484D02*
X4815063Y-10338484D01*
X4815063Y-10338484D02*
X4796015Y-10328960D01*
X4796015Y-10328960D02*
X4786491Y-10319436D01*
X4786491Y-10319436D02*
X4776967Y-10300389D01*
X4776967Y-10300389D02*
X4767444Y-10262293D01*
X4767444Y-10262293D02*
X4767444Y-10214674D01*
X4767444Y-10214674D02*
X4776967Y-10176579D01*
X4776967Y-10176579D02*
X4786491Y-10157531D01*
X4786491Y-10157531D02*
X4796015Y-10148008D01*
X4796015Y-10148008D02*
X4815063Y-10138484D01*
X5005539Y-10138484D02*
X5024586Y-10138484D01*
X5024586Y-10138484D02*
X5043634Y-10148008D01*
X5043634Y-10148008D02*
X5053158Y-10157531D01*
X5053158Y-10157531D02*
X5062682Y-10176579D01*
X5062682Y-10176579D02*
X5072205Y-10214674D01*
X5072205Y-10214674D02*
X5072205Y-10262293D01*
X5072205Y-10262293D02*
X5062682Y-10300389D01*
X5062682Y-10300389D02*
X5053158Y-10319436D01*
X5053158Y-10319436D02*
X5043634Y-10328960D01*
X5043634Y-10328960D02*
X5024586Y-10338484D01*
X5024586Y-10338484D02*
X5005539Y-10338484D01*
X5005539Y-10338484D02*
X4986491Y-10328960D01*
X4986491Y-10328960D02*
X4976967Y-10319436D01*
X4976967Y-10319436D02*
X4967444Y-10300389D01*
X4967444Y-10300389D02*
X4957920Y-10262293D01*
X4957920Y-10262293D02*
X4957920Y-10214674D01*
X4957920Y-10214674D02*
X4967444Y-10176579D01*
X4967444Y-10176579D02*
X4976967Y-10157531D01*
X4976967Y-10157531D02*
X4986491Y-10148008D01*
X4986491Y-10148008D02*
X5005539Y-10138484D01*
X5157920Y-10338484D02*
X5157920Y-10205150D01*
X5157920Y-10224198D02*
X5167444Y-10214674D01*
X5167444Y-10214674D02*
X5186491Y-10205150D01*
X5186491Y-10205150D02*
X5215063Y-10205150D01*
X5215063Y-10205150D02*
X5234110Y-10214674D01*
X5234110Y-10214674D02*
X5243634Y-10233722D01*
X5243634Y-10233722D02*
X5243634Y-10338484D01*
X5243634Y-10233722D02*
X5253158Y-10214674D01*
X5253158Y-10214674D02*
X5272205Y-10205150D01*
X5272205Y-10205150D02*
X5300777Y-10205150D01*
X5300777Y-10205150D02*
X5319825Y-10214674D01*
X5319825Y-10214674D02*
X5329348Y-10233722D01*
X5329348Y-10233722D02*
X5329348Y-10338484D01*
X5424586Y-10338484D02*
X5424586Y-10205150D01*
X5424586Y-10224198D02*
X5434110Y-10214674D01*
X5434110Y-10214674D02*
X5453158Y-10205150D01*
X5453158Y-10205150D02*
X5481729Y-10205150D01*
X5481729Y-10205150D02*
X5500777Y-10214674D01*
X5500777Y-10214674D02*
X5510301Y-10233722D01*
X5510301Y-10233722D02*
X5510301Y-10338484D01*
X5510301Y-10233722D02*
X5519825Y-10214674D01*
X5519825Y-10214674D02*
X5538872Y-10205150D01*
X5538872Y-10205150D02*
X5567444Y-10205150D01*
X5567444Y-10205150D02*
X5586491Y-10214674D01*
X5586491Y-10214674D02*
X5596015Y-10233722D01*
X5596015Y-10233722D02*
X5596015Y-10338484D01*
X5986491Y-10128960D02*
X5815063Y-10386103D01*
X6243634Y-10138484D02*
X6262682Y-10138484D01*
X6262682Y-10138484D02*
X6281729Y-10148008D01*
X6281729Y-10148008D02*
X6291253Y-10157531D01*
X6291253Y-10157531D02*
X6300777Y-10176579D01*
X6300777Y-10176579D02*
X6310301Y-10214674D01*
X6310301Y-10214674D02*
X6310301Y-10262293D01*
X6310301Y-10262293D02*
X6300777Y-10300389D01*
X6300777Y-10300389D02*
X6291253Y-10319436D01*
X6291253Y-10319436D02*
X6281729Y-10328960D01*
X6281729Y-10328960D02*
X6262682Y-10338484D01*
X6262682Y-10338484D02*
X6243634Y-10338484D01*
X6243634Y-10338484D02*
X6224586Y-10328960D01*
X6224586Y-10328960D02*
X6215063Y-10319436D01*
X6215063Y-10319436D02*
X6205539Y-10300389D01*
X6205539Y-10300389D02*
X6196015Y-10262293D01*
X6196015Y-10262293D02*
X6196015Y-10214674D01*
X6196015Y-10214674D02*
X6205539Y-10176579D01*
X6205539Y-10176579D02*
X6215063Y-10157531D01*
X6215063Y-10157531D02*
X6224586Y-10148008D01*
X6224586Y-10148008D02*
X6243634Y-10138484D01*
X6396015Y-10319436D02*
X6405539Y-10328960D01*
X6405539Y-10328960D02*
X6396015Y-10338484D01*
X6396015Y-10338484D02*
X6386491Y-10328960D01*
X6386491Y-10328960D02*
X6396015Y-10319436D01*
X6396015Y-10319436D02*
X6396015Y-10338484D01*
X6596015Y-10338484D02*
X6481729Y-10338484D01*
X6538872Y-10338484D02*
X6538872Y-10138484D01*
X6538872Y-10138484D02*
X6519825Y-10167055D01*
X6519825Y-10167055D02*
X6500777Y-10186103D01*
X6500777Y-10186103D02*
X6481729Y-10195627D01*
X6719825Y-10138484D02*
X6738872Y-10138484D01*
X6738872Y-10138484D02*
X6757920Y-10148008D01*
X6757920Y-10148008D02*
X6767444Y-10157531D01*
X6767444Y-10157531D02*
X6776967Y-10176579D01*
X6776967Y-10176579D02*
X6786491Y-10214674D01*
X6786491Y-10214674D02*
X6786491Y-10262293D01*
X6786491Y-10262293D02*
X6776967Y-10300389D01*
X6776967Y-10300389D02*
X6767444Y-10319436D01*
X6767444Y-10319436D02*
X6757920Y-10328960D01*
X6757920Y-10328960D02*
X6738872Y-10338484D01*
X6738872Y-10338484D02*
X6719825Y-10338484D01*
X6719825Y-10338484D02*
X6700777Y-10328960D01*
X6700777Y-10328960D02*
X6691253Y-10319436D01*
X6691253Y-10319436D02*
X6681729Y-10300389D01*
X6681729Y-10300389D02*
X6672206Y-10262293D01*
X6672206Y-10262293D02*
X6672206Y-10214674D01*
X6672206Y-10214674D02*
X6681729Y-10176579D01*
X6681729Y-10176579D02*
X6691253Y-10157531D01*
X6691253Y-10157531D02*
X6700777Y-10148008D01*
X6700777Y-10148008D02*
X6719825Y-10138484D01*
X6957920Y-10138484D02*
X6919825Y-10138484D01*
X6919825Y-10138484D02*
X6900777Y-10148008D01*
X6900777Y-10148008D02*
X6891253Y-10157531D01*
X6891253Y-10157531D02*
X6872206Y-10186103D01*
X6872206Y-10186103D02*
X6862682Y-10224198D01*
X6862682Y-10224198D02*
X6862682Y-10300389D01*
X6862682Y-10300389D02*
X6872206Y-10319436D01*
X6872206Y-10319436D02*
X6881729Y-10328960D01*
X6881729Y-10328960D02*
X6900777Y-10338484D01*
X6900777Y-10338484D02*
X6938872Y-10338484D01*
X6938872Y-10338484D02*
X6957920Y-10328960D01*
X6957920Y-10328960D02*
X6967444Y-10319436D01*
X6967444Y-10319436D02*
X6976967Y-10300389D01*
X6976967Y-10300389D02*
X6976967Y-10252770D01*
X6976967Y-10252770D02*
X6967444Y-10233722D01*
X6967444Y-10233722D02*
X6957920Y-10224198D01*
X6957920Y-10224198D02*
X6938872Y-10214674D01*
X6938872Y-10214674D02*
X6900777Y-10214674D01*
X6900777Y-10214674D02*
X6881729Y-10224198D01*
X6881729Y-10224198D02*
X6872206Y-10233722D01*
X6872206Y-10233722D02*
X6862682Y-10252770D01*
X7043634Y-10138484D02*
X7167444Y-10138484D01*
X7167444Y-10138484D02*
X7100777Y-10214674D01*
X7100777Y-10214674D02*
X7129348Y-10214674D01*
X7129348Y-10214674D02*
X7148396Y-10224198D01*
X7148396Y-10224198D02*
X7157920Y-10233722D01*
X7157920Y-10233722D02*
X7167444Y-10252770D01*
X7167444Y-10252770D02*
X7167444Y-10300389D01*
X7167444Y-10300389D02*
X7157920Y-10319436D01*
X7157920Y-10319436D02*
X7148396Y-10328960D01*
X7148396Y-10328960D02*
X7129348Y-10338484D01*
X7129348Y-10338484D02*
X7072206Y-10338484D01*
X7072206Y-10338484D02*
X7053158Y-10328960D01*
X7053158Y-10328960D02*
X7043634Y-10319436D01*
X7243634Y-10138484D02*
X7243634Y-10176579D01*
X7319825Y-10138484D02*
X7319825Y-10176579D01*
X7615063Y-10414674D02*
X7605539Y-10405150D01*
X7605539Y-10405150D02*
X7586491Y-10376579D01*
X7586491Y-10376579D02*
X7576968Y-10357531D01*
X7576968Y-10357531D02*
X7567444Y-10328960D01*
X7567444Y-10328960D02*
X7557920Y-10281341D01*
X7557920Y-10281341D02*
X7557920Y-10243246D01*
X7557920Y-10243246D02*
X7567444Y-10195627D01*
X7567444Y-10195627D02*
X7576968Y-10167055D01*
X7576968Y-10167055D02*
X7586491Y-10148008D01*
X7586491Y-10148008D02*
X7605539Y-10119436D01*
X7605539Y-10119436D02*
X7615063Y-10109912D01*
X7796015Y-10338484D02*
X7681729Y-10338484D01*
X7738872Y-10338484D02*
X7738872Y-10138484D01*
X7738872Y-10138484D02*
X7719825Y-10167055D01*
X7719825Y-10167055D02*
X7700777Y-10186103D01*
X7700777Y-10186103D02*
X7681729Y-10195627D01*
X7872206Y-10157531D02*
X7881729Y-10148008D01*
X7881729Y-10148008D02*
X7900777Y-10138484D01*
X7900777Y-10138484D02*
X7948396Y-10138484D01*
X7948396Y-10138484D02*
X7967444Y-10148008D01*
X7967444Y-10148008D02*
X7976968Y-10157531D01*
X7976968Y-10157531D02*
X7986491Y-10176579D01*
X7986491Y-10176579D02*
X7986491Y-10195627D01*
X7986491Y-10195627D02*
X7976968Y-10224198D01*
X7976968Y-10224198D02*
X7862682Y-10338484D01*
X7862682Y-10338484D02*
X7986491Y-10338484D01*
X8224587Y-10338484D02*
X8224587Y-10138484D01*
X8310301Y-10338484D02*
X8310301Y-10233722D01*
X8310301Y-10233722D02*
X8300777Y-10214674D01*
X8300777Y-10214674D02*
X8281730Y-10205150D01*
X8281730Y-10205150D02*
X8253158Y-10205150D01*
X8253158Y-10205150D02*
X8234110Y-10214674D01*
X8234110Y-10214674D02*
X8224587Y-10224198D01*
X8434111Y-10338484D02*
X8415063Y-10328960D01*
X8415063Y-10328960D02*
X8405539Y-10319436D01*
X8405539Y-10319436D02*
X8396015Y-10300389D01*
X8396015Y-10300389D02*
X8396015Y-10243246D01*
X8396015Y-10243246D02*
X8405539Y-10224198D01*
X8405539Y-10224198D02*
X8415063Y-10214674D01*
X8415063Y-10214674D02*
X8434111Y-10205150D01*
X8434111Y-10205150D02*
X8462682Y-10205150D01*
X8462682Y-10205150D02*
X8481730Y-10214674D01*
X8481730Y-10214674D02*
X8491253Y-10224198D01*
X8491253Y-10224198D02*
X8500777Y-10243246D01*
X8500777Y-10243246D02*
X8500777Y-10300389D01*
X8500777Y-10300389D02*
X8491253Y-10319436D01*
X8491253Y-10319436D02*
X8481730Y-10328960D01*
X8481730Y-10328960D02*
X8462682Y-10338484D01*
X8462682Y-10338484D02*
X8434111Y-10338484D01*
X8615063Y-10338484D02*
X8596015Y-10328960D01*
X8596015Y-10328960D02*
X8586492Y-10309912D01*
X8586492Y-10309912D02*
X8586492Y-10138484D01*
X8767444Y-10328960D02*
X8748396Y-10338484D01*
X8748396Y-10338484D02*
X8710301Y-10338484D01*
X8710301Y-10338484D02*
X8691253Y-10328960D01*
X8691253Y-10328960D02*
X8681730Y-10309912D01*
X8681730Y-10309912D02*
X8681730Y-10233722D01*
X8681730Y-10233722D02*
X8691253Y-10214674D01*
X8691253Y-10214674D02*
X8710301Y-10205150D01*
X8710301Y-10205150D02*
X8748396Y-10205150D01*
X8748396Y-10205150D02*
X8767444Y-10214674D01*
X8767444Y-10214674D02*
X8776968Y-10233722D01*
X8776968Y-10233722D02*
X8776968Y-10252770D01*
X8776968Y-10252770D02*
X8681730Y-10271817D01*
X8853158Y-10328960D02*
X8872206Y-10338484D01*
X8872206Y-10338484D02*
X8910301Y-10338484D01*
X8910301Y-10338484D02*
X8929349Y-10328960D01*
X8929349Y-10328960D02*
X8938873Y-10309912D01*
X8938873Y-10309912D02*
X8938873Y-10300389D01*
X8938873Y-10300389D02*
X8929349Y-10281341D01*
X8929349Y-10281341D02*
X8910301Y-10271817D01*
X8910301Y-10271817D02*
X8881730Y-10271817D01*
X8881730Y-10271817D02*
X8862682Y-10262293D01*
X8862682Y-10262293D02*
X8853158Y-10243246D01*
X8853158Y-10243246D02*
X8853158Y-10233722D01*
X8853158Y-10233722D02*
X8862682Y-10214674D01*
X8862682Y-10214674D02*
X8881730Y-10205150D01*
X8881730Y-10205150D02*
X8910301Y-10205150D01*
X8910301Y-10205150D02*
X8929349Y-10214674D01*
X9005539Y-10414674D02*
X9015063Y-10405150D01*
X9015063Y-10405150D02*
X9034111Y-10376579D01*
X9034111Y-10376579D02*
X9043634Y-10357531D01*
X9043634Y-10357531D02*
X9053158Y-10328960D01*
X9053158Y-10328960D02*
X9062682Y-10281341D01*
X9062682Y-10281341D02*
X9062682Y-10243246D01*
X9062682Y-10243246D02*
X9053158Y-10195627D01*
X9053158Y-10195627D02*
X9043634Y-10167055D01*
X9043634Y-10167055D02*
X9034111Y-10148008D01*
X9034111Y-10148008D02*
X9015063Y-10119436D01*
X9015063Y-10119436D02*
X9005539Y-10109912D01*
M02*
