G04 #@! TF.GenerationSoftware,KiCad,Pcbnew,9.0.0*
G04 #@! TF.CreationDate,2025-03-25T13:32:25-05:00*
G04 #@! TF.ProjectId,Turret,54757272-6574-42e6-9b69-6361645f7063,rev?*
G04 #@! TF.SameCoordinates,Original*
G04 #@! TF.FileFunction,Soldermask,Top*
G04 #@! TF.FilePolarity,Negative*
%FSLAX46Y46*%
G04 Gerber Fmt 4.6, Leading zero omitted, Abs format (unit mm)*
G04 Created by KiCad (PCBNEW 9.0.0) date 2025-03-25 13:32:25*
%MOMM*%
%LPD*%
G01*
G04 APERTURE LIST*
G04 Aperture macros list*
%AMRoundRect*
0 Rectangle with rounded corners*
0 $1 Rounding radius*
0 $2 $3 $4 $5 $6 $7 $8 $9 X,Y pos of 4 corners*
0 Add a 4 corners polygon primitive as box body*
4,1,4,$2,$3,$4,$5,$6,$7,$8,$9,$2,$3,0*
0 Add four circle primitives for the rounded corners*
1,1,$1+$1,$2,$3*
1,1,$1+$1,$4,$5*
1,1,$1+$1,$6,$7*
1,1,$1+$1,$8,$9*
0 Add four rect primitives between the rounded corners*
20,1,$1+$1,$2,$3,$4,$5,0*
20,1,$1+$1,$4,$5,$6,$7,0*
20,1,$1+$1,$6,$7,$8,$9,0*
20,1,$1+$1,$8,$9,$2,$3,0*%
G04 Aperture macros list end*
%ADD10C,1.381000*%
%ADD11C,1.400000*%
%ADD12C,1.600000*%
%ADD13R,1.520000X1.520000*%
%ADD14C,1.520000*%
%ADD15RoundRect,0.150000X-0.150000X-0.700000X0.150000X-0.700000X0.150000X0.700000X-0.150000X0.700000X0*%
%ADD16RoundRect,0.250000X-0.250000X-1.150000X0.250000X-1.150000X0.250000X1.150000X-0.250000X1.150000X0*%
%ADD17RoundRect,0.237500X-0.287500X-0.237500X0.287500X-0.237500X0.287500X0.237500X-0.287500X0.237500X0*%
%ADD18R,3.800000X3.800000*%
%ADD19C,4.000000*%
%ADD20RoundRect,0.150000X-0.700000X0.150000X-0.700000X-0.150000X0.700000X-0.150000X0.700000X0.150000X0*%
%ADD21RoundRect,0.250000X-1.150000X0.250000X-1.150000X-0.250000X1.150000X-0.250000X1.150000X0.250000X0*%
%ADD22C,3.000000*%
%ADD23RoundRect,0.150000X0.700000X-0.150000X0.700000X0.150000X-0.700000X0.150000X-0.700000X-0.150000X0*%
%ADD24RoundRect,0.250000X1.150000X-0.250000X1.150000X0.250000X-1.150000X0.250000X-1.150000X-0.250000X0*%
%ADD25RoundRect,0.237500X0.250000X0.237500X-0.250000X0.237500X-0.250000X-0.237500X0.250000X-0.237500X0*%
%ADD26RoundRect,0.237500X-0.250000X-0.237500X0.250000X-0.237500X0.250000X0.237500X-0.250000X0.237500X0*%
G04 APERTURE END LIST*
D10*
X86400000Y-60500000D03*
X86400000Y-62500000D03*
X88400000Y-60500000D03*
X88400000Y-62500000D03*
X90400000Y-60500000D03*
X90400000Y-62500000D03*
X92400000Y-60500000D03*
X92400000Y-62500000D03*
X94400000Y-60500000D03*
X94400000Y-62500000D03*
X96400000Y-60500000D03*
X96400000Y-62500000D03*
X98400000Y-60500000D03*
X98400000Y-62500000D03*
X100400000Y-60500000D03*
X100400000Y-62500000D03*
D11*
X85200000Y-65550000D03*
D12*
X124370000Y-57950001D03*
D13*
X131200000Y-56200001D03*
D14*
X131200000Y-59700001D03*
X131200000Y-63200001D03*
X131200000Y-66700001D03*
X126600000Y-56200001D03*
X126600000Y-59700001D03*
X126600000Y-63200001D03*
X126600000Y-66700001D03*
D15*
X82189000Y-81328000D03*
X83439000Y-81328000D03*
D16*
X80339000Y-77978000D03*
X85289000Y-77978000D03*
D17*
X109125001Y-80100000D03*
X110874999Y-80100000D03*
D15*
X111073000Y-44752000D03*
X112323000Y-44752000D03*
D16*
X109223000Y-41402000D03*
X114173000Y-41402000D03*
D17*
X109125001Y-72100000D03*
X110874999Y-72100000D03*
D18*
X71167000Y-42926000D03*
D19*
X66167000Y-42926000D03*
D20*
X111633000Y-57561000D03*
X111633000Y-58811000D03*
X111633000Y-60061000D03*
X111633000Y-61311000D03*
D21*
X114983000Y-55711000D03*
X114983000Y-63161000D03*
D15*
X53487000Y-44577000D03*
X54737000Y-44577000D03*
D16*
X51637000Y-41227000D03*
X56587000Y-41227000D03*
D17*
X109125001Y-76100000D03*
X110874999Y-76100000D03*
D22*
X44450000Y-38100000D03*
D15*
X53360000Y-81534000D03*
X54610000Y-81534000D03*
D16*
X51510000Y-78184000D03*
X56460000Y-78184000D03*
D18*
X128500000Y-42500000D03*
D19*
X123500000Y-42500000D03*
D23*
X55350000Y-59575000D03*
X55350000Y-58325000D03*
X55350000Y-57075000D03*
X55350000Y-55825000D03*
D24*
X52000000Y-61425000D03*
X52000000Y-53975000D03*
D25*
X116912500Y-76100000D03*
X115087500Y-76100000D03*
D18*
X99441000Y-42926000D03*
D19*
X94441000Y-42926000D03*
D22*
X140450000Y-38100000D03*
D26*
X109087500Y-83100000D03*
X110912500Y-83100000D03*
D22*
X140450000Y-84100000D03*
D18*
X128500000Y-79000000D03*
D19*
X123500000Y-79000000D03*
D18*
X65750000Y-78994000D03*
D19*
X70750000Y-78994000D03*
D18*
X94500000Y-78994000D03*
D19*
X99500000Y-78994000D03*
D25*
X117000000Y-72080000D03*
X115175000Y-72080000D03*
D15*
X82189000Y-44577000D03*
X83439000Y-44577000D03*
D16*
X80339000Y-41227000D03*
X85289000Y-41227000D03*
D23*
X70550000Y-68575000D03*
X70550000Y-67325000D03*
X70550000Y-66075000D03*
X70550000Y-64825000D03*
D24*
X67200000Y-70425000D03*
X67200000Y-62975000D03*
D22*
X44450000Y-84100000D03*
M02*
