G04 #@! TF.GenerationSoftware,KiCad,Pcbnew,9.0.0*
G04 #@! TF.CreationDate,2025-03-25T13:32:25-05:00*
G04 #@! TF.ProjectId,Turret,54757272-6574-42e6-9b69-6361645f7063,rev?*
G04 #@! TF.SameCoordinates,Original*
G04 #@! TF.FileFunction,Copper,L2,Bot*
G04 #@! TF.FilePolarity,Positive*
%FSLAX46Y46*%
G04 Gerber Fmt 4.6, Leading zero omitted, Abs format (unit mm)*
G04 Created by KiCad (PCBNEW 9.0.0) date 2025-03-25 13:32:25*
%MOMM*%
%LPD*%
G01*
G04 APERTURE LIST*
G04 #@! TA.AperFunction,ComponentPad*
%ADD10C,1.381000*%
G04 #@! TD*
G04 #@! TA.AperFunction,ComponentPad*
%ADD11R,1.520000X1.520000*%
G04 #@! TD*
G04 #@! TA.AperFunction,ComponentPad*
%ADD12C,1.520000*%
G04 #@! TD*
G04 #@! TA.AperFunction,ComponentPad*
%ADD13R,3.800000X3.800000*%
G04 #@! TD*
G04 #@! TA.AperFunction,ComponentPad*
%ADD14C,4.000000*%
G04 #@! TD*
G04 #@! TA.AperFunction,ViaPad*
%ADD15C,0.800000*%
G04 #@! TD*
G04 #@! TA.AperFunction,Conductor*
%ADD16C,0.250000*%
G04 #@! TD*
G04 APERTURE END LIST*
D10*
X86400000Y-60500000D03*
X86400000Y-62500000D03*
X88400000Y-60500000D03*
X88400000Y-62500000D03*
X90400000Y-60500000D03*
X90400000Y-62500000D03*
X92400000Y-60500000D03*
X92400000Y-62500000D03*
X94400000Y-60500000D03*
X94400000Y-62500000D03*
X96400000Y-60500000D03*
X96400000Y-62500000D03*
X98400000Y-60500000D03*
X98400000Y-62500000D03*
X100400000Y-60500000D03*
X100400000Y-62500000D03*
D11*
X131200000Y-56200001D03*
D12*
X131200000Y-59700001D03*
X131200000Y-63200001D03*
X131200000Y-66700001D03*
X126600000Y-56200001D03*
X126600000Y-59700001D03*
X126600000Y-63200001D03*
X126600000Y-66700001D03*
D13*
X71167000Y-42926000D03*
D14*
X66167000Y-42926000D03*
D13*
X128500000Y-42500000D03*
D14*
X123500000Y-42500000D03*
D13*
X99441000Y-42926000D03*
D14*
X94441000Y-42926000D03*
D13*
X128500000Y-79000000D03*
D14*
X123500000Y-79000000D03*
D13*
X65750000Y-78994000D03*
D14*
X70750000Y-78994000D03*
D13*
X94500000Y-78994000D03*
D14*
X99500000Y-78994000D03*
D15*
X71500000Y-52324000D03*
X75946000Y-52324000D03*
X73426000Y-53340000D03*
X81300000Y-82700000D03*
X79400000Y-84600004D03*
D16*
X71500000Y-56500000D02*
X82700000Y-67700000D01*
X91200000Y-67700000D02*
X96400000Y-62500000D01*
X71500000Y-52324000D02*
X71500000Y-56500000D01*
X82700000Y-67700000D02*
X91200000Y-67700000D01*
X75946000Y-52324000D02*
X71500000Y-52324000D01*
X79400000Y-84600000D02*
X81300000Y-82700000D01*
X79400000Y-84600004D02*
X79400000Y-84600000D01*
X73426000Y-56526000D02*
X83700000Y-66800000D01*
X83700000Y-66800000D02*
X90100000Y-66800000D01*
X90100000Y-66800000D02*
X94400000Y-62500000D01*
X73426000Y-53340000D02*
X73426000Y-56526000D01*
G04 #@! TA.AperFunction,Conductor*
G36*
X140453032Y-34400648D02*
G01*
X140806532Y-34418015D01*
X140818640Y-34419208D01*
X140927576Y-34435367D01*
X141165717Y-34470692D01*
X141177635Y-34473062D01*
X141518008Y-34558321D01*
X141529646Y-34561852D01*
X141859996Y-34680054D01*
X141871237Y-34684710D01*
X142096857Y-34791419D01*
X142188433Y-34834731D01*
X142199150Y-34840459D01*
X142500102Y-35020843D01*
X142510220Y-35027603D01*
X142792049Y-35236622D01*
X142801455Y-35244342D01*
X143061436Y-35479974D01*
X143070025Y-35488563D01*
X143231782Y-35667035D01*
X143305657Y-35748544D01*
X143313377Y-35757950D01*
X143522396Y-36039779D01*
X143529156Y-36049897D01*
X143706334Y-36345501D01*
X143709533Y-36350837D01*
X143715270Y-36361570D01*
X143865289Y-36678762D01*
X143869945Y-36690003D01*
X143988147Y-37020353D01*
X143991680Y-37031998D01*
X144076934Y-37372351D01*
X144079308Y-37384287D01*
X144130791Y-37731359D01*
X144131984Y-37743468D01*
X144149351Y-38096966D01*
X144149500Y-38103051D01*
X144149500Y-84096948D01*
X144149351Y-84103033D01*
X144131984Y-84456531D01*
X144130791Y-84468640D01*
X144079308Y-84815712D01*
X144076934Y-84827648D01*
X143991680Y-85168001D01*
X143988147Y-85179646D01*
X143869945Y-85509996D01*
X143865289Y-85521237D01*
X143715270Y-85838429D01*
X143709533Y-85849162D01*
X143529156Y-86150102D01*
X143522396Y-86160220D01*
X143313377Y-86442049D01*
X143305657Y-86451455D01*
X143070033Y-86711428D01*
X143061428Y-86720033D01*
X142801455Y-86955657D01*
X142792049Y-86963377D01*
X142510220Y-87172396D01*
X142500102Y-87179156D01*
X142199162Y-87359533D01*
X142188429Y-87365270D01*
X141871237Y-87515289D01*
X141859996Y-87519945D01*
X141529646Y-87638147D01*
X141518001Y-87641680D01*
X141177648Y-87726934D01*
X141165712Y-87729308D01*
X140818640Y-87780791D01*
X140806531Y-87781984D01*
X140473016Y-87798369D01*
X140453031Y-87799351D01*
X140446949Y-87799500D01*
X44453051Y-87799500D01*
X44446968Y-87799351D01*
X44425811Y-87798311D01*
X44093468Y-87781984D01*
X44081359Y-87780791D01*
X43734287Y-87729308D01*
X43722351Y-87726934D01*
X43381998Y-87641680D01*
X43370353Y-87638147D01*
X43040003Y-87519945D01*
X43028762Y-87515289D01*
X42711570Y-87365270D01*
X42700842Y-87359535D01*
X42399897Y-87179156D01*
X42389779Y-87172396D01*
X42107950Y-86963377D01*
X42098544Y-86955657D01*
X41982295Y-86850296D01*
X41838563Y-86720025D01*
X41829974Y-86711436D01*
X41594342Y-86451455D01*
X41586622Y-86442049D01*
X41377603Y-86160220D01*
X41370843Y-86150102D01*
X41190459Y-85849150D01*
X41184729Y-85838429D01*
X41034710Y-85521237D01*
X41030054Y-85509996D01*
X40911852Y-85179646D01*
X40908319Y-85168001D01*
X40823062Y-84827635D01*
X40820691Y-84815712D01*
X40801850Y-84688699D01*
X40769208Y-84468640D01*
X40768015Y-84456530D01*
X40767351Y-84443022D01*
X40750649Y-84103032D01*
X40750500Y-84096948D01*
X40750500Y-83985010D01*
X42695500Y-83985010D01*
X42695500Y-84214989D01*
X42695501Y-84215005D01*
X42725518Y-84443009D01*
X42725519Y-84443014D01*
X42725520Y-84443020D01*
X42777082Y-84635452D01*
X42785046Y-84665175D01*
X42785049Y-84665185D01*
X42873057Y-84877654D01*
X42873061Y-84877664D01*
X42988055Y-85076839D01*
X43128064Y-85259303D01*
X43128070Y-85259310D01*
X43290689Y-85421929D01*
X43290696Y-85421935D01*
X43473160Y-85561944D01*
X43672335Y-85676938D01*
X43672336Y-85676938D01*
X43672339Y-85676940D01*
X43884824Y-85764954D01*
X44106980Y-85824480D01*
X44335004Y-85854500D01*
X44335011Y-85854500D01*
X44564989Y-85854500D01*
X44564996Y-85854500D01*
X44793020Y-85824480D01*
X45015176Y-85764954D01*
X45227661Y-85676940D01*
X45426840Y-85561944D01*
X45609305Y-85421934D01*
X45771934Y-85259305D01*
X45911944Y-85076840D01*
X46026940Y-84877661D01*
X46114954Y-84665176D01*
X46156182Y-84511308D01*
X78499500Y-84511308D01*
X78499500Y-84688699D01*
X78534103Y-84862662D01*
X78534106Y-84862671D01*
X78601983Y-85026544D01*
X78601990Y-85026557D01*
X78700535Y-85174038D01*
X78700538Y-85174042D01*
X78825961Y-85299465D01*
X78825965Y-85299468D01*
X78973446Y-85398013D01*
X78973459Y-85398020D01*
X79096363Y-85448927D01*
X79137334Y-85465898D01*
X79137336Y-85465898D01*
X79137341Y-85465900D01*
X79311304Y-85500503D01*
X79311307Y-85500504D01*
X79311309Y-85500504D01*
X79488693Y-85500504D01*
X79488694Y-85500503D01*
X79546682Y-85488968D01*
X79662658Y-85465900D01*
X79662661Y-85465898D01*
X79662666Y-85465898D01*
X79826547Y-85398017D01*
X79974035Y-85299468D01*
X80099464Y-85174039D01*
X80198013Y-85026551D01*
X80265894Y-84862670D01*
X80272861Y-84827648D01*
X80300499Y-84688699D01*
X80300500Y-84688697D01*
X80300500Y-84635452D01*
X80320185Y-84568413D01*
X80336819Y-84547771D01*
X80899580Y-83985010D01*
X138695500Y-83985010D01*
X138695500Y-84214989D01*
X138695501Y-84215005D01*
X138725518Y-84443009D01*
X138725519Y-84443014D01*
X138725520Y-84443020D01*
X138777082Y-84635452D01*
X138785046Y-84665175D01*
X138785049Y-84665185D01*
X138873057Y-84877654D01*
X138873061Y-84877664D01*
X138988055Y-85076839D01*
X139128064Y-85259303D01*
X139128070Y-85259310D01*
X139290689Y-85421929D01*
X139290696Y-85421935D01*
X139473160Y-85561944D01*
X139672335Y-85676938D01*
X139672336Y-85676938D01*
X139672339Y-85676940D01*
X139884824Y-85764954D01*
X140106980Y-85824480D01*
X140335004Y-85854500D01*
X140335011Y-85854500D01*
X140564989Y-85854500D01*
X140564996Y-85854500D01*
X140793020Y-85824480D01*
X141015176Y-85764954D01*
X141227661Y-85676940D01*
X141426840Y-85561944D01*
X141609305Y-85421934D01*
X141771934Y-85259305D01*
X141911944Y-85076840D01*
X142026940Y-84877661D01*
X142114954Y-84665176D01*
X142174480Y-84443020D01*
X142204500Y-84214996D01*
X142204500Y-83985004D01*
X142174480Y-83756980D01*
X142114954Y-83534824D01*
X142026940Y-83322339D01*
X141999053Y-83274038D01*
X141911944Y-83123160D01*
X141771935Y-82940696D01*
X141771929Y-82940689D01*
X141609310Y-82778070D01*
X141609303Y-82778064D01*
X141426839Y-82638055D01*
X141227664Y-82523061D01*
X141227654Y-82523057D01*
X141015185Y-82435049D01*
X141015178Y-82435047D01*
X141015176Y-82435046D01*
X140793020Y-82375520D01*
X140793014Y-82375519D01*
X140793009Y-82375518D01*
X140565005Y-82345501D01*
X140565002Y-82345500D01*
X140564996Y-82345500D01*
X140335004Y-82345500D01*
X140334998Y-82345500D01*
X140334994Y-82345501D01*
X140106990Y-82375518D01*
X140106983Y-82375519D01*
X140106980Y-82375520D01*
X139994846Y-82405566D01*
X139884824Y-82435046D01*
X139884814Y-82435049D01*
X139672345Y-82523057D01*
X139672335Y-82523061D01*
X139473160Y-82638055D01*
X139290696Y-82778064D01*
X139290689Y-82778070D01*
X139128070Y-82940689D01*
X139128064Y-82940696D01*
X138988055Y-83123160D01*
X138873061Y-83322335D01*
X138873057Y-83322345D01*
X138785049Y-83534814D01*
X138785046Y-83534824D01*
X138725521Y-83756977D01*
X138725518Y-83756990D01*
X138695501Y-83984994D01*
X138695500Y-83985010D01*
X80899580Y-83985010D01*
X81247771Y-83636819D01*
X81309094Y-83603334D01*
X81335452Y-83600500D01*
X81388693Y-83600500D01*
X81388694Y-83600499D01*
X81446682Y-83588964D01*
X81562658Y-83565896D01*
X81562661Y-83565894D01*
X81562666Y-83565894D01*
X81726547Y-83498013D01*
X81874035Y-83399464D01*
X81999464Y-83274035D01*
X82098013Y-83126547D01*
X82098014Y-83126542D01*
X82098018Y-83126537D01*
X82138352Y-83029158D01*
X82165894Y-82962666D01*
X82170265Y-82940695D01*
X82200499Y-82788695D01*
X82200500Y-82788693D01*
X82200500Y-82611306D01*
X82200499Y-82611304D01*
X82165896Y-82437341D01*
X82165893Y-82437332D01*
X82164947Y-82435049D01*
X82143280Y-82382739D01*
X82098016Y-82273459D01*
X82098009Y-82273446D01*
X81999464Y-82125965D01*
X81999461Y-82125961D01*
X81874038Y-82000538D01*
X81874034Y-82000535D01*
X81726553Y-81901990D01*
X81726540Y-81901983D01*
X81562667Y-81834106D01*
X81562658Y-81834103D01*
X81388694Y-81799500D01*
X81388691Y-81799500D01*
X81211309Y-81799500D01*
X81211306Y-81799500D01*
X81037341Y-81834103D01*
X81037332Y-81834106D01*
X80873459Y-81901983D01*
X80873446Y-81901990D01*
X80725965Y-82000535D01*
X80725961Y-82000538D01*
X80600538Y-82125961D01*
X80600535Y-82125965D01*
X80501990Y-82273446D01*
X80501983Y-82273459D01*
X80434106Y-82437332D01*
X80434103Y-82437341D01*
X80399500Y-82611304D01*
X80399500Y-82664548D01*
X80379815Y-82731587D01*
X80363181Y-82752229D01*
X79452225Y-83663185D01*
X79390902Y-83696670D01*
X79364544Y-83699504D01*
X79311306Y-83699504D01*
X79137341Y-83734107D01*
X79137332Y-83734110D01*
X78973459Y-83801987D01*
X78973446Y-83801994D01*
X78825965Y-83900539D01*
X78825961Y-83900542D01*
X78700538Y-84025965D01*
X78700535Y-84025969D01*
X78601990Y-84173450D01*
X78601983Y-84173463D01*
X78534106Y-84337336D01*
X78534103Y-84337345D01*
X78499500Y-84511308D01*
X46156182Y-84511308D01*
X46174480Y-84443020D01*
X46204500Y-84214996D01*
X46204500Y-83985004D01*
X46174480Y-83756980D01*
X46114954Y-83534824D01*
X46026940Y-83322339D01*
X45999053Y-83274038D01*
X45911944Y-83123160D01*
X45771935Y-82940696D01*
X45771929Y-82940689D01*
X45609310Y-82778070D01*
X45609303Y-82778064D01*
X45426839Y-82638055D01*
X45227664Y-82523061D01*
X45227654Y-82523057D01*
X45015185Y-82435049D01*
X45015178Y-82435047D01*
X45015176Y-82435046D01*
X44793020Y-82375520D01*
X44793014Y-82375519D01*
X44793009Y-82375518D01*
X44565005Y-82345501D01*
X44565002Y-82345500D01*
X44564996Y-82345500D01*
X44335004Y-82345500D01*
X44334998Y-82345500D01*
X44334994Y-82345501D01*
X44106990Y-82375518D01*
X44106983Y-82375519D01*
X44106980Y-82375520D01*
X43994846Y-82405566D01*
X43884824Y-82435046D01*
X43884814Y-82435049D01*
X43672345Y-82523057D01*
X43672335Y-82523061D01*
X43473160Y-82638055D01*
X43290696Y-82778064D01*
X43290689Y-82778070D01*
X43128070Y-82940689D01*
X43128064Y-82940696D01*
X42988055Y-83123160D01*
X42873061Y-83322335D01*
X42873057Y-83322345D01*
X42785049Y-83534814D01*
X42785046Y-83534824D01*
X42725521Y-83756977D01*
X42725518Y-83756990D01*
X42695501Y-83984994D01*
X42695500Y-83985010D01*
X40750500Y-83985010D01*
X40750500Y-52235304D01*
X70599500Y-52235304D01*
X70599500Y-52412695D01*
X70634103Y-52586658D01*
X70634106Y-52586667D01*
X70701983Y-52750540D01*
X70701990Y-52750553D01*
X70800535Y-52898034D01*
X70800538Y-52898038D01*
X70838180Y-52935679D01*
X70871666Y-52997001D01*
X70874500Y-53023361D01*
X70874500Y-56561608D01*
X70879031Y-56584388D01*
X70879034Y-56584399D01*
X70879672Y-56587607D01*
X70898537Y-56682452D01*
X70909306Y-56708451D01*
X70945688Y-56796286D01*
X70958910Y-56816074D01*
X70970324Y-56833155D01*
X70970325Y-56833157D01*
X71014141Y-56898732D01*
X71014144Y-56898736D01*
X71105586Y-56990178D01*
X71105608Y-56990198D01*
X82214139Y-68098729D01*
X82214142Y-68098733D01*
X82301267Y-68185858D01*
X82378190Y-68237256D01*
X82383990Y-68241132D01*
X82383993Y-68241134D01*
X82403710Y-68254309D01*
X82403712Y-68254310D01*
X82403715Y-68254312D01*
X82470396Y-68281931D01*
X82470398Y-68281933D01*
X82510640Y-68298601D01*
X82517548Y-68301463D01*
X82577971Y-68313481D01*
X82638393Y-68325500D01*
X91261607Y-68325500D01*
X91322029Y-68313481D01*
X91382452Y-68301463D01*
X91415792Y-68287652D01*
X91496286Y-68254312D01*
X91547509Y-68220084D01*
X91598733Y-68185858D01*
X91685858Y-68098733D01*
X91685858Y-68098731D01*
X91696066Y-68088524D01*
X91696067Y-68088521D01*
X96077995Y-63706594D01*
X96139316Y-63673111D01*
X96185068Y-63671804D01*
X96306266Y-63691000D01*
X96306267Y-63691000D01*
X96493739Y-63691000D01*
X96596600Y-63674707D01*
X96678893Y-63661674D01*
X96857185Y-63603743D01*
X97024220Y-63518635D01*
X97175885Y-63408444D01*
X97308444Y-63275885D01*
X97308444Y-63275884D01*
X97311889Y-63272440D01*
X97313478Y-63274029D01*
X97364154Y-63240911D01*
X97434022Y-63240376D01*
X97486816Y-63273734D01*
X97488111Y-63272440D01*
X97491556Y-63275885D01*
X97624115Y-63408444D01*
X97775780Y-63518635D01*
X97942815Y-63603743D01*
X98121107Y-63661674D01*
X98185066Y-63671804D01*
X98306261Y-63691000D01*
X98306266Y-63691000D01*
X98493739Y-63691000D01*
X98596600Y-63674707D01*
X98678893Y-63661674D01*
X98857185Y-63603743D01*
X99024220Y-63518635D01*
X99175885Y-63408444D01*
X99308444Y-63275885D01*
X99308444Y-63275884D01*
X99311889Y-63272440D01*
X99313478Y-63274029D01*
X99364154Y-63240911D01*
X99434022Y-63240376D01*
X99486816Y-63273734D01*
X99488111Y-63272440D01*
X99491556Y-63275885D01*
X99624115Y-63408444D01*
X99775780Y-63518635D01*
X99942815Y-63603743D01*
X100121107Y-63661674D01*
X100185066Y-63671804D01*
X100306261Y-63691000D01*
X100306266Y-63691000D01*
X100493739Y-63691000D01*
X100596600Y-63674707D01*
X100678893Y-63661674D01*
X100857185Y-63603743D01*
X101024220Y-63518635D01*
X101175885Y-63408444D01*
X101308444Y-63275885D01*
X101418635Y-63124220D01*
X101503743Y-62957185D01*
X101561674Y-62778893D01*
X101574707Y-62696600D01*
X101591000Y-62593739D01*
X101591000Y-62406260D01*
X101561674Y-62221110D01*
X101561674Y-62221107D01*
X101503743Y-62042815D01*
X101418635Y-61875780D01*
X101308444Y-61724115D01*
X101175885Y-61591556D01*
X101172440Y-61588111D01*
X101174029Y-61586521D01*
X101140911Y-61535846D01*
X101140376Y-61465978D01*
X101173734Y-61413183D01*
X101172440Y-61411889D01*
X101207425Y-61376904D01*
X101308444Y-61275885D01*
X101418635Y-61124220D01*
X101503743Y-60957185D01*
X101561674Y-60778893D01*
X101574707Y-60696600D01*
X101591000Y-60593739D01*
X101591000Y-60406260D01*
X101561674Y-60221110D01*
X101561674Y-60221107D01*
X101503743Y-60042815D01*
X101418635Y-59875780D01*
X101308444Y-59724115D01*
X101175885Y-59591556D01*
X101024220Y-59481365D01*
X100857185Y-59396257D01*
X100678893Y-59338326D01*
X100678891Y-59338325D01*
X100678889Y-59338325D01*
X100493739Y-59309000D01*
X100493734Y-59309000D01*
X100306266Y-59309000D01*
X100306261Y-59309000D01*
X100121110Y-59338325D01*
X99942812Y-59396258D01*
X99775779Y-59481365D01*
X99746786Y-59502430D01*
X99624115Y-59591556D01*
X99624113Y-59591558D01*
X99624112Y-59591558D01*
X99488111Y-59727560D01*
X99486539Y-59725988D01*
X99435729Y-59759123D01*
X99365861Y-59759590D01*
X99313204Y-59726244D01*
X99311889Y-59727560D01*
X99175887Y-59591558D01*
X99175885Y-59591556D01*
X99024220Y-59481365D01*
X98857185Y-59396257D01*
X98678893Y-59338326D01*
X98678891Y-59338325D01*
X98678889Y-59338325D01*
X98493739Y-59309000D01*
X98493734Y-59309000D01*
X98306266Y-59309000D01*
X98306261Y-59309000D01*
X98121110Y-59338325D01*
X97942812Y-59396258D01*
X97775779Y-59481365D01*
X97746786Y-59502430D01*
X97624115Y-59591556D01*
X97624113Y-59591558D01*
X97624112Y-59591558D01*
X97488111Y-59727560D01*
X97486539Y-59725988D01*
X97435729Y-59759123D01*
X97365861Y-59759590D01*
X97313204Y-59726244D01*
X97311889Y-59727560D01*
X97175887Y-59591558D01*
X97175885Y-59591556D01*
X97024220Y-59481365D01*
X96857185Y-59396257D01*
X96678893Y-59338326D01*
X96678891Y-59338325D01*
X96678889Y-59338325D01*
X96493739Y-59309000D01*
X96493734Y-59309000D01*
X96306266Y-59309000D01*
X96306261Y-59309000D01*
X96121110Y-59338325D01*
X95942812Y-59396258D01*
X95775779Y-59481365D01*
X95746786Y-59502430D01*
X95624115Y-59591556D01*
X95624113Y-59591558D01*
X95624112Y-59591558D01*
X95488111Y-59727560D01*
X95486539Y-59725988D01*
X95435729Y-59759123D01*
X95365861Y-59759590D01*
X95313204Y-59726244D01*
X95311889Y-59727560D01*
X95175887Y-59591558D01*
X95175885Y-59591556D01*
X95024220Y-59481365D01*
X94857185Y-59396257D01*
X94678893Y-59338326D01*
X94678891Y-59338325D01*
X94678889Y-59338325D01*
X94493739Y-59309000D01*
X94493734Y-59309000D01*
X94306266Y-59309000D01*
X94306261Y-59309000D01*
X94121110Y-59338325D01*
X93942812Y-59396258D01*
X93775779Y-59481365D01*
X93746786Y-59502430D01*
X93624115Y-59591556D01*
X93624113Y-59591558D01*
X93624112Y-59591558D01*
X93488111Y-59727560D01*
X93486539Y-59725988D01*
X93435729Y-59759123D01*
X93365861Y-59759590D01*
X93313204Y-59726244D01*
X93311889Y-59727560D01*
X93175887Y-59591558D01*
X93175885Y-59591556D01*
X93024220Y-59481365D01*
X92857185Y-59396257D01*
X92678893Y-59338326D01*
X92678891Y-59338325D01*
X92678889Y-59338325D01*
X92493739Y-59309000D01*
X92493734Y-59309000D01*
X92306266Y-59309000D01*
X92306261Y-59309000D01*
X92121110Y-59338325D01*
X91942812Y-59396258D01*
X91775779Y-59481365D01*
X91746786Y-59502430D01*
X91624115Y-59591556D01*
X91624113Y-59591558D01*
X91624112Y-59591558D01*
X91488111Y-59727560D01*
X91486539Y-59725988D01*
X91435729Y-59759123D01*
X91365861Y-59759590D01*
X91313204Y-59726244D01*
X91311889Y-59727560D01*
X91175887Y-59591558D01*
X91175885Y-59591556D01*
X91024220Y-59481365D01*
X90857185Y-59396257D01*
X90678893Y-59338326D01*
X90678891Y-59338325D01*
X90678889Y-59338325D01*
X90493739Y-59309000D01*
X90493734Y-59309000D01*
X90306266Y-59309000D01*
X90306261Y-59309000D01*
X90121110Y-59338325D01*
X89942812Y-59396258D01*
X89775779Y-59481365D01*
X89746786Y-59502430D01*
X89624115Y-59591556D01*
X89624113Y-59591558D01*
X89624112Y-59591558D01*
X89488111Y-59727560D01*
X89486539Y-59725988D01*
X89435729Y-59759123D01*
X89365861Y-59759590D01*
X89313204Y-59726244D01*
X89311889Y-59727560D01*
X89175887Y-59591558D01*
X89175885Y-59591556D01*
X89024220Y-59481365D01*
X88857185Y-59396257D01*
X88678893Y-59338326D01*
X88678891Y-59338325D01*
X88678889Y-59338325D01*
X88493739Y-59309000D01*
X88493734Y-59309000D01*
X88306266Y-59309000D01*
X88306261Y-59309000D01*
X88121110Y-59338325D01*
X87942812Y-59396258D01*
X87775779Y-59481365D01*
X87746786Y-59502430D01*
X87624115Y-59591556D01*
X87624113Y-59591558D01*
X87624112Y-59591558D01*
X87488111Y-59727560D01*
X87486539Y-59725988D01*
X87435729Y-59759123D01*
X87365861Y-59759590D01*
X87313204Y-59726244D01*
X87311889Y-59727560D01*
X87175887Y-59591558D01*
X87175885Y-59591556D01*
X87024220Y-59481365D01*
X86857185Y-59396257D01*
X86678893Y-59338326D01*
X86678891Y-59338325D01*
X86678889Y-59338325D01*
X86493739Y-59309000D01*
X86493734Y-59309000D01*
X86306266Y-59309000D01*
X86306261Y-59309000D01*
X86121110Y-59338325D01*
X85942812Y-59396258D01*
X85775779Y-59481365D01*
X85746786Y-59502430D01*
X85624115Y-59591556D01*
X85624113Y-59591558D01*
X85624112Y-59591558D01*
X85491558Y-59724112D01*
X85491558Y-59724113D01*
X85491556Y-59724115D01*
X85472059Y-59750951D01*
X85381365Y-59875779D01*
X85296258Y-60042812D01*
X85238325Y-60221110D01*
X85209000Y-60406260D01*
X85209000Y-60593739D01*
X85238325Y-60778889D01*
X85238326Y-60778893D01*
X85296257Y-60957185D01*
X85381365Y-61124220D01*
X85491556Y-61275885D01*
X85491558Y-61275887D01*
X85627560Y-61411889D01*
X85625988Y-61413460D01*
X85659123Y-61464271D01*
X85659590Y-61534139D01*
X85626244Y-61586795D01*
X85627560Y-61588111D01*
X85491558Y-61724112D01*
X85491558Y-61724113D01*
X85491556Y-61724115D01*
X85448963Y-61782739D01*
X85381365Y-61875779D01*
X85296258Y-62042812D01*
X85238325Y-62221110D01*
X85209000Y-62406260D01*
X85209000Y-62593739D01*
X85238325Y-62778889D01*
X85238326Y-62778893D01*
X85296257Y-62957185D01*
X85381365Y-63124220D01*
X85491556Y-63275885D01*
X85624115Y-63408444D01*
X85775780Y-63518635D01*
X85942815Y-63603743D01*
X86121107Y-63661674D01*
X86185066Y-63671804D01*
X86306261Y-63691000D01*
X86306266Y-63691000D01*
X86493739Y-63691000D01*
X86596600Y-63674707D01*
X86678893Y-63661674D01*
X86857185Y-63603743D01*
X87024220Y-63518635D01*
X87175885Y-63408444D01*
X87308444Y-63275885D01*
X87308444Y-63275884D01*
X87311889Y-63272440D01*
X87313478Y-63274029D01*
X87364154Y-63240911D01*
X87434022Y-63240376D01*
X87486816Y-63273734D01*
X87488111Y-63272440D01*
X87491556Y-63275885D01*
X87624115Y-63408444D01*
X87775780Y-63518635D01*
X87942815Y-63603743D01*
X88121107Y-63661674D01*
X88185066Y-63671804D01*
X88306261Y-63691000D01*
X88306266Y-63691000D01*
X88493739Y-63691000D01*
X88596600Y-63674707D01*
X88678893Y-63661674D01*
X88857185Y-63603743D01*
X89024220Y-63518635D01*
X89175885Y-63408444D01*
X89308444Y-63275885D01*
X89308444Y-63275884D01*
X89311889Y-63272440D01*
X89313478Y-63274029D01*
X89364154Y-63240911D01*
X89434022Y-63240376D01*
X89486816Y-63273734D01*
X89488111Y-63272440D01*
X89491556Y-63275885D01*
X89624115Y-63408444D01*
X89775780Y-63518635D01*
X89942815Y-63603743D01*
X90121107Y-63661674D01*
X90185066Y-63671804D01*
X90306261Y-63691000D01*
X90306266Y-63691000D01*
X90493739Y-63691000D01*
X90596600Y-63674707D01*
X90678893Y-63661674D01*
X90857185Y-63603743D01*
X91024220Y-63518635D01*
X91175885Y-63408444D01*
X91308444Y-63275885D01*
X91308444Y-63275884D01*
X91311889Y-63272440D01*
X91313478Y-63274029D01*
X91364154Y-63240911D01*
X91434022Y-63240376D01*
X91486816Y-63273734D01*
X91488111Y-63272440D01*
X91491556Y-63275885D01*
X91624115Y-63408444D01*
X91775780Y-63518635D01*
X91942815Y-63603743D01*
X92104243Y-63656194D01*
X92161916Y-63695630D01*
X92189115Y-63759989D01*
X92177200Y-63828835D01*
X92153604Y-63861805D01*
X89877229Y-66138181D01*
X89815906Y-66171666D01*
X89789548Y-66174500D01*
X86160046Y-66174500D01*
X86093007Y-66154815D01*
X86047252Y-66102011D01*
X86037308Y-66032853D01*
X86045485Y-66003047D01*
X86045867Y-66002125D01*
X86117819Y-65828417D01*
X86154500Y-65644010D01*
X86154500Y-65455990D01*
X86154500Y-65455987D01*
X86154499Y-65455985D01*
X86117820Y-65271590D01*
X86117819Y-65271583D01*
X86117817Y-65271578D01*
X86045870Y-65097881D01*
X86045863Y-65097868D01*
X85941408Y-64941542D01*
X85941405Y-64941538D01*
X85808461Y-64808594D01*
X85808457Y-64808591D01*
X85652131Y-64704136D01*
X85652118Y-64704129D01*
X85478421Y-64632182D01*
X85478409Y-64632179D01*
X85294013Y-64595500D01*
X85294010Y-64595500D01*
X85105990Y-64595500D01*
X85105987Y-64595500D01*
X84921590Y-64632179D01*
X84921578Y-64632182D01*
X84747881Y-64704129D01*
X84747868Y-64704136D01*
X84591542Y-64808591D01*
X84591538Y-64808594D01*
X84458594Y-64941538D01*
X84458591Y-64941542D01*
X84354136Y-65097868D01*
X84354129Y-65097881D01*
X84282182Y-65271578D01*
X84282179Y-65271590D01*
X84245500Y-65455985D01*
X84245500Y-65644014D01*
X84282179Y-65828409D01*
X84282181Y-65828417D01*
X84354515Y-66003047D01*
X84358022Y-66035675D01*
X84362692Y-66068147D01*
X84361738Y-66070234D01*
X84361984Y-66072517D01*
X84347295Y-66101860D01*
X84333667Y-66131703D01*
X84331736Y-66132943D01*
X84330709Y-66134996D01*
X84302493Y-66151736D01*
X84274889Y-66169477D01*
X84271859Y-66169912D01*
X84270620Y-66170648D01*
X84239954Y-66174500D01*
X84010452Y-66174500D01*
X83943413Y-66154815D01*
X83922771Y-66138181D01*
X74087819Y-56303229D01*
X74054334Y-56241906D01*
X74051500Y-56215548D01*
X74051500Y-54039361D01*
X74071185Y-53972322D01*
X74087820Y-53951679D01*
X74125461Y-53914038D01*
X74125464Y-53914035D01*
X74224013Y-53766547D01*
X74291894Y-53602666D01*
X74326500Y-53428691D01*
X74326500Y-53251309D01*
X74326500Y-53251306D01*
X74326499Y-53251304D01*
X74295944Y-53097691D01*
X74302171Y-53028100D01*
X74345034Y-52972922D01*
X74410924Y-52949678D01*
X74417561Y-52949500D01*
X75246639Y-52949500D01*
X75313678Y-52969185D01*
X75334321Y-52985820D01*
X75371961Y-53023461D01*
X75371965Y-53023464D01*
X75519446Y-53122009D01*
X75519459Y-53122016D01*
X75636512Y-53170500D01*
X75683334Y-53189894D01*
X75683336Y-53189894D01*
X75683341Y-53189896D01*
X75857304Y-53224499D01*
X75857307Y-53224500D01*
X75857309Y-53224500D01*
X76034693Y-53224500D01*
X76034694Y-53224499D01*
X76092682Y-53212964D01*
X76208658Y-53189896D01*
X76208661Y-53189894D01*
X76208666Y-53189894D01*
X76372547Y-53122013D01*
X76520035Y-53023464D01*
X76645464Y-52898035D01*
X76744013Y-52750547D01*
X76811894Y-52586666D01*
X76846500Y-52412691D01*
X76846500Y-52235309D01*
X76846500Y-52235306D01*
X76846499Y-52235304D01*
X76811896Y-52061341D01*
X76811893Y-52061332D01*
X76744016Y-51897459D01*
X76744009Y-51897446D01*
X76645464Y-51749965D01*
X76645461Y-51749961D01*
X76520038Y-51624538D01*
X76520034Y-51624535D01*
X76372553Y-51525990D01*
X76372540Y-51525983D01*
X76208667Y-51458106D01*
X76208658Y-51458103D01*
X76034694Y-51423500D01*
X76034691Y-51423500D01*
X75857309Y-51423500D01*
X75857306Y-51423500D01*
X75683341Y-51458103D01*
X75683332Y-51458106D01*
X75519459Y-51525983D01*
X75519446Y-51525990D01*
X75371965Y-51624535D01*
X75371961Y-51624538D01*
X75334321Y-51662180D01*
X75272999Y-51695666D01*
X75246639Y-51698500D01*
X72199361Y-51698500D01*
X72132322Y-51678815D01*
X72111679Y-51662180D01*
X72074038Y-51624538D01*
X72074034Y-51624535D01*
X71926553Y-51525990D01*
X71926540Y-51525983D01*
X71762667Y-51458106D01*
X71762658Y-51458103D01*
X71588694Y-51423500D01*
X71588691Y-51423500D01*
X71411309Y-51423500D01*
X71411306Y-51423500D01*
X71237341Y-51458103D01*
X71237332Y-51458106D01*
X71073459Y-51525983D01*
X71073446Y-51525990D01*
X70925965Y-51624535D01*
X70925961Y-51624538D01*
X70800538Y-51749961D01*
X70800535Y-51749965D01*
X70701990Y-51897446D01*
X70701983Y-51897459D01*
X70634106Y-52061332D01*
X70634103Y-52061341D01*
X70599500Y-52235304D01*
X40750500Y-52235304D01*
X40750500Y-40550000D01*
X62061500Y-40550000D01*
X62061500Y-49279000D01*
X62061501Y-49279009D01*
X62073052Y-49386450D01*
X62073054Y-49386462D01*
X62084260Y-49437972D01*
X62118383Y-49540497D01*
X62118386Y-49540503D01*
X62196171Y-49661537D01*
X62196179Y-49661548D01*
X62241923Y-49714340D01*
X62241926Y-49714343D01*
X62241930Y-49714347D01*
X62350664Y-49808567D01*
X62481541Y-49868338D01*
X62548580Y-49888023D01*
X62548584Y-49888024D01*
X62691000Y-49908500D01*
X115350288Y-49908500D01*
X115417327Y-49928185D01*
X115427447Y-49935430D01*
X121733353Y-54947862D01*
X121773584Y-55004986D01*
X121776545Y-55074793D01*
X121771161Y-55091390D01*
X114756516Y-72449660D01*
X114713148Y-72504441D01*
X114647047Y-72527079D01*
X114641462Y-72527201D01*
X68540908Y-72494876D01*
X68128440Y-72494587D01*
X68128439Y-72494587D01*
X68128436Y-72494587D01*
X68020813Y-72506101D01*
X68020788Y-72506105D01*
X67969202Y-72517309D01*
X67969199Y-72517310D01*
X67866499Y-72551472D01*
X67866492Y-72551476D01*
X67745462Y-72629257D01*
X67745451Y-72629266D01*
X67692659Y-72675010D01*
X67598433Y-72783751D01*
X67598430Y-72783755D01*
X67538664Y-72914621D01*
X67518976Y-72981669D01*
X67498500Y-73124088D01*
X67498500Y-76470000D01*
X67478815Y-76537039D01*
X67426011Y-76582794D01*
X67374500Y-76594000D01*
X66000000Y-76594000D01*
X66000000Y-77666768D01*
X65856247Y-77644000D01*
X65643753Y-77644000D01*
X65500000Y-77666768D01*
X65500000Y-76594000D01*
X63802155Y-76594000D01*
X63742627Y-76600401D01*
X63742620Y-76600403D01*
X63607913Y-76650645D01*
X63607906Y-76650649D01*
X63492812Y-76736809D01*
X63492809Y-76736812D01*
X63406649Y-76851906D01*
X63406645Y-76851913D01*
X63356403Y-76986620D01*
X63356401Y-76986627D01*
X63350000Y-77046155D01*
X63350000Y-78744000D01*
X64422769Y-78744000D01*
X64400000Y-78887753D01*
X64400000Y-79100247D01*
X64422769Y-79244000D01*
X63350000Y-79244000D01*
X63350000Y-80941844D01*
X63356401Y-81001372D01*
X63356403Y-81001379D01*
X63406645Y-81136086D01*
X63406649Y-81136093D01*
X63492809Y-81251187D01*
X63492812Y-81251190D01*
X63607906Y-81337350D01*
X63607913Y-81337354D01*
X63742620Y-81387596D01*
X63742627Y-81387598D01*
X63802155Y-81393999D01*
X63802172Y-81394000D01*
X65500000Y-81394000D01*
X65500000Y-80321231D01*
X65643753Y-80344000D01*
X65856247Y-80344000D01*
X66000000Y-80321231D01*
X66000000Y-81394000D01*
X67389408Y-81394000D01*
X67414882Y-81401480D01*
X67441159Y-81405315D01*
X67447889Y-81411172D01*
X67456447Y-81413685D01*
X67473832Y-81433748D01*
X67493865Y-81451182D01*
X67498351Y-81462045D01*
X67502202Y-81466489D01*
X67508459Y-81483318D01*
X67509663Y-81487450D01*
X67523997Y-81553341D01*
X67536447Y-81580604D01*
X67539283Y-81589124D01*
X67539287Y-81589138D01*
X67555383Y-81637496D01*
X67555385Y-81637500D01*
X67574926Y-81667907D01*
X67581526Y-81679505D01*
X67582504Y-81681462D01*
X67583764Y-81684221D01*
X67584297Y-81685051D01*
X67584307Y-81685070D01*
X67620524Y-81741423D01*
X67621307Y-81742684D01*
X67621542Y-81743009D01*
X67621550Y-81743018D01*
X67622109Y-81743663D01*
X67632719Y-81757836D01*
X67633167Y-81758534D01*
X67633172Y-81758541D01*
X67639382Y-81765707D01*
X67639384Y-81765710D01*
X67647322Y-81774872D01*
X67649685Y-81777599D01*
X67649690Y-81777604D01*
X67678930Y-81811349D01*
X67678933Y-81811351D01*
X67678936Y-81811355D01*
X67679578Y-81811911D01*
X67692091Y-81824423D01*
X67711636Y-81846977D01*
X67715775Y-81851753D01*
X67746182Y-81871293D01*
X67760339Y-81881890D01*
X67787663Y-81905566D01*
X67818922Y-81919841D01*
X67820557Y-81920588D01*
X67832392Y-81926784D01*
X67834251Y-81927888D01*
X67836816Y-81929537D01*
X67845052Y-81933298D01*
X67876322Y-81947578D01*
X67876322Y-81947579D01*
X67900191Y-81958479D01*
X67900381Y-81958567D01*
X67900394Y-81958572D01*
X67901198Y-81958808D01*
X67917806Y-81965002D01*
X67918536Y-81965335D01*
X67918540Y-81965337D01*
X67943891Y-81972781D01*
X67943891Y-81972780D01*
X67976869Y-81982463D01*
X67976869Y-81982464D01*
X67984713Y-81984767D01*
X67985539Y-81985017D01*
X67985580Y-81985023D01*
X67985584Y-81985024D01*
X67986448Y-81985148D01*
X68003735Y-81988907D01*
X68038446Y-81999097D01*
X68074577Y-81999094D01*
X68092216Y-82000355D01*
X68128000Y-82005500D01*
X68128003Y-82005500D01*
X69648571Y-82005500D01*
X69750975Y-81995019D01*
X69800175Y-81984841D01*
X69898345Y-81953827D01*
X70020946Y-81878523D01*
X70074672Y-81833854D01*
X70171087Y-81727065D01*
X70233515Y-81597433D01*
X70247106Y-81554413D01*
X70286071Y-81496418D01*
X70350205Y-81468695D01*
X70379229Y-81468547D01*
X70548352Y-81487601D01*
X70609569Y-81494499D01*
X70609572Y-81494500D01*
X70609575Y-81494500D01*
X70890428Y-81494500D01*
X70890428Y-81494499D01*
X71122219Y-81468383D01*
X71191041Y-81480437D01*
X71242421Y-81527786D01*
X71255080Y-81556667D01*
X71264614Y-81589138D01*
X71278816Y-81637503D01*
X71278818Y-81637507D01*
X71356600Y-81758537D01*
X71356608Y-81758548D01*
X71402352Y-81811340D01*
X71402355Y-81811343D01*
X71402359Y-81811347D01*
X71511093Y-81905567D01*
X71511096Y-81905568D01*
X71511097Y-81905569D01*
X71627671Y-81958808D01*
X71641970Y-81965338D01*
X71709009Y-81985023D01*
X71709013Y-81985024D01*
X71851429Y-82005500D01*
X71851432Y-82005500D01*
X73679990Y-82005500D01*
X73680000Y-82005500D01*
X73787456Y-81993947D01*
X73838967Y-81982741D01*
X73873197Y-81971347D01*
X73941497Y-81948616D01*
X73941501Y-81948613D01*
X73941504Y-81948613D01*
X74062543Y-81870825D01*
X74115347Y-81825070D01*
X74209567Y-81716336D01*
X74269338Y-81585459D01*
X74289023Y-81518420D01*
X74289024Y-81518416D01*
X74309500Y-81376000D01*
X74309500Y-75629500D01*
X74329185Y-75562461D01*
X74381989Y-75516706D01*
X74433500Y-75505500D01*
X96170500Y-75505500D01*
X96237539Y-75525185D01*
X96283294Y-75577989D01*
X96294500Y-75629500D01*
X96294500Y-76470000D01*
X96274815Y-76537039D01*
X96222011Y-76582794D01*
X96170500Y-76594000D01*
X94750000Y-76594000D01*
X94750000Y-77666768D01*
X94606247Y-77644000D01*
X94393753Y-77644000D01*
X94250000Y-77666768D01*
X94250000Y-76594000D01*
X92552155Y-76594000D01*
X92492627Y-76600401D01*
X92492620Y-76600403D01*
X92357913Y-76650645D01*
X92357906Y-76650649D01*
X92242812Y-76736809D01*
X92242809Y-76736812D01*
X92156649Y-76851906D01*
X92156645Y-76851913D01*
X92106403Y-76986620D01*
X92106401Y-76986627D01*
X92100000Y-77046155D01*
X92100000Y-78744000D01*
X93172769Y-78744000D01*
X93150000Y-78887753D01*
X93150000Y-79100247D01*
X93172769Y-79244000D01*
X92100000Y-79244000D01*
X92100000Y-80941844D01*
X92106401Y-81001372D01*
X92106403Y-81001379D01*
X92156645Y-81136086D01*
X92156649Y-81136093D01*
X92242809Y-81251187D01*
X92242812Y-81251190D01*
X92357906Y-81337350D01*
X92357913Y-81337354D01*
X92492620Y-81387596D01*
X92492627Y-81387598D01*
X92552155Y-81393999D01*
X92552172Y-81394000D01*
X94250000Y-81394000D01*
X94250000Y-80321231D01*
X94393753Y-80344000D01*
X94606247Y-80344000D01*
X94750000Y-80321231D01*
X94750000Y-81394000D01*
X96170500Y-81394000D01*
X96237539Y-81413685D01*
X96283294Y-81466489D01*
X96294500Y-81518000D01*
X96294500Y-81876000D01*
X96294501Y-81876009D01*
X96306052Y-81983450D01*
X96306054Y-81983462D01*
X96317260Y-82034972D01*
X96351383Y-82137497D01*
X96351386Y-82137503D01*
X96429171Y-82258537D01*
X96429179Y-82258548D01*
X96474923Y-82311340D01*
X96474926Y-82311343D01*
X96474930Y-82311347D01*
X96583664Y-82405567D01*
X96583667Y-82405568D01*
X96583668Y-82405569D01*
X96677925Y-82448616D01*
X96714541Y-82465338D01*
X96781580Y-82485023D01*
X96781584Y-82485024D01*
X96924000Y-82505500D01*
X96924003Y-82505500D01*
X102375990Y-82505500D01*
X102376000Y-82505500D01*
X102483456Y-82493947D01*
X102534967Y-82482741D01*
X102569197Y-82471347D01*
X102637497Y-82448616D01*
X102637501Y-82448613D01*
X102637504Y-82448613D01*
X102758543Y-82370825D01*
X102811347Y-82325070D01*
X102905567Y-82216336D01*
X102965338Y-82085459D01*
X102985023Y-82018420D01*
X102985024Y-82018416D01*
X103005500Y-81876000D01*
X103005500Y-75629500D01*
X103025185Y-75562461D01*
X103077989Y-75516706D01*
X103129500Y-75505500D01*
X116414861Y-75505500D01*
X116430283Y-75505264D01*
X116430313Y-75505263D01*
X116430318Y-75505263D01*
X116432984Y-75505181D01*
X116437955Y-75505029D01*
X116453404Y-75504317D01*
X116453407Y-75504316D01*
X116453414Y-75504316D01*
X116594307Y-75475149D01*
X116660014Y-75451392D01*
X116786981Y-75383712D01*
X116889739Y-75283003D01*
X116932171Y-75227494D01*
X117002392Y-75101916D01*
X117762860Y-73124088D01*
X122440988Y-60957185D01*
X123330378Y-58644053D01*
X123372810Y-58588545D01*
X123438517Y-58564788D01*
X123506637Y-58580327D01*
X123546957Y-58617575D01*
X123547053Y-58617497D01*
X123547619Y-58618187D01*
X123549220Y-58619666D01*
X123550915Y-58622203D01*
X123550919Y-58622208D01*
X123697792Y-58769081D01*
X123697796Y-58769084D01*
X123870507Y-58884487D01*
X123870508Y-58884487D01*
X123870509Y-58884488D01*
X123870511Y-58884489D01*
X124062409Y-58963975D01*
X124062414Y-58963977D01*
X124266136Y-59004500D01*
X124266139Y-59004501D01*
X124266141Y-59004501D01*
X124473861Y-59004501D01*
X124553372Y-58988685D01*
X124622964Y-58994912D01*
X124678141Y-59037775D01*
X124701386Y-59103664D01*
X124701561Y-59109432D01*
X124701816Y-59145856D01*
X124701816Y-59145857D01*
X124711511Y-59240898D01*
X124720609Y-59286653D01*
X124748013Y-59378179D01*
X124820539Y-59502430D01*
X124820544Y-59502438D01*
X124863995Y-59557153D01*
X124931388Y-59620803D01*
X124966610Y-59681145D01*
X124963618Y-59750951D01*
X124928106Y-59804091D01*
X124900752Y-59828131D01*
X124807297Y-59937523D01*
X124807296Y-59937524D01*
X124748447Y-60068811D01*
X124729231Y-60135991D01*
X124729229Y-60136002D01*
X124709753Y-60278542D01*
X124709753Y-60278548D01*
X124715649Y-61119808D01*
X124715649Y-61119814D01*
X124727568Y-61225445D01*
X124727569Y-61225450D01*
X124727570Y-61225456D01*
X124738773Y-61276098D01*
X124752941Y-61318417D01*
X124772521Y-61376904D01*
X124774312Y-61380638D01*
X124774824Y-61383783D01*
X124774967Y-61384209D01*
X124774897Y-61384232D01*
X124776274Y-61392680D01*
X124782539Y-61403151D01*
X124781789Y-61426521D01*
X124785550Y-61449598D01*
X124780634Y-61462512D01*
X124780299Y-61472985D01*
X124764616Y-61504603D01*
X124744310Y-61534078D01*
X124743755Y-61534869D01*
X124743690Y-61534977D01*
X124679755Y-61663881D01*
X124174799Y-63199791D01*
X119925990Y-76123252D01*
X119907065Y-76201184D01*
X119907063Y-76201196D01*
X119900863Y-76239900D01*
X119900860Y-76239923D01*
X119894500Y-76319842D01*
X119894500Y-76319860D01*
X119894500Y-81776000D01*
X119894501Y-81776009D01*
X119906052Y-81883450D01*
X119906054Y-81883462D01*
X119917260Y-81934972D01*
X119951383Y-82037497D01*
X119951386Y-82037503D01*
X120029171Y-82158537D01*
X120029179Y-82158548D01*
X120074923Y-82211340D01*
X120074926Y-82211343D01*
X120074930Y-82211347D01*
X120183664Y-82305567D01*
X120183667Y-82305568D01*
X120183668Y-82305569D01*
X120271102Y-82345500D01*
X120314541Y-82365338D01*
X120381580Y-82385023D01*
X120381584Y-82385024D01*
X120524000Y-82405500D01*
X120524003Y-82405500D01*
X125370490Y-82405500D01*
X125370500Y-82405500D01*
X125477956Y-82393947D01*
X125529467Y-82382741D01*
X125632004Y-82348613D01*
X125677198Y-82319567D01*
X125744236Y-82299882D01*
X125795751Y-82311088D01*
X125877921Y-82348614D01*
X125914541Y-82365338D01*
X125981580Y-82385023D01*
X125981584Y-82385024D01*
X126124000Y-82405500D01*
X126124003Y-82405500D01*
X131089268Y-82405500D01*
X131089275Y-82405500D01*
X131168666Y-82399227D01*
X131207131Y-82393110D01*
X131284546Y-82374447D01*
X131413585Y-82310804D01*
X131471211Y-82271295D01*
X131471213Y-82271293D01*
X131471220Y-82271286D01*
X131471774Y-82270826D01*
X131473062Y-82269590D01*
X131577094Y-82173873D01*
X131651239Y-82050569D01*
X131678357Y-81986176D01*
X131714761Y-81846977D01*
X131714762Y-81846967D01*
X131714764Y-81846958D01*
X133249113Y-68325500D01*
X133301486Y-67863966D01*
X133303902Y-67835524D01*
X133304693Y-67821543D01*
X133305500Y-67792989D01*
X133305500Y-61929500D01*
X133325185Y-61862461D01*
X133377989Y-61816706D01*
X133429500Y-61805500D01*
X133675990Y-61805500D01*
X133676000Y-61805500D01*
X133783456Y-61793947D01*
X133834967Y-61782741D01*
X133869197Y-61771347D01*
X133937497Y-61748616D01*
X133937501Y-61748613D01*
X133937504Y-61748613D01*
X134058543Y-61670825D01*
X134111347Y-61625070D01*
X134205567Y-61516336D01*
X134265338Y-61385459D01*
X134285023Y-61318420D01*
X134285024Y-61318416D01*
X134305500Y-61176000D01*
X134305500Y-39624000D01*
X134293947Y-39516544D01*
X134282741Y-39465033D01*
X134282637Y-39464722D01*
X134248616Y-39362502D01*
X134248613Y-39362496D01*
X134197950Y-39283664D01*
X134170825Y-39241457D01*
X134170820Y-39241451D01*
X134125076Y-39188659D01*
X134125072Y-39188656D01*
X134125070Y-39188653D01*
X134016336Y-39094433D01*
X134016333Y-39094431D01*
X134016331Y-39094430D01*
X133885465Y-39034664D01*
X133885460Y-39034662D01*
X133885459Y-39034662D01*
X133818420Y-39014977D01*
X133818422Y-39014977D01*
X133818417Y-39014976D01*
X133756347Y-39006052D01*
X133676000Y-38994500D01*
X126324000Y-38994500D01*
X126323991Y-38994500D01*
X126323990Y-38994501D01*
X126216549Y-39006052D01*
X126216537Y-39006054D01*
X126165027Y-39017260D01*
X126062502Y-39051383D01*
X126062496Y-39051386D01*
X125941462Y-39129171D01*
X125941451Y-39129179D01*
X125888659Y-39174923D01*
X125794433Y-39283664D01*
X125794430Y-39283668D01*
X125734664Y-39414534D01*
X125733211Y-39418431D01*
X125691336Y-39474362D01*
X125625871Y-39498776D01*
X125599385Y-39497829D01*
X125576231Y-39494500D01*
X124613889Y-39494500D01*
X124511485Y-39504980D01*
X124462278Y-39515160D01*
X124364118Y-39546172D01*
X124364115Y-39546173D01*
X124338439Y-39561944D01*
X124241515Y-39621476D01*
X124187788Y-39666145D01*
X124091372Y-39772935D01*
X124028944Y-39902567D01*
X124016754Y-39941151D01*
X123977787Y-39999145D01*
X123913652Y-40026867D01*
X123884632Y-40027014D01*
X123640431Y-39999500D01*
X123640425Y-39999500D01*
X123359575Y-39999500D01*
X123359568Y-39999500D01*
X123114013Y-40027167D01*
X123045191Y-40015112D01*
X122993812Y-39967763D01*
X122981153Y-39938882D01*
X122979148Y-39932053D01*
X122958724Y-39862496D01*
X122880936Y-39741457D01*
X122880931Y-39741451D01*
X122835187Y-39688659D01*
X122835183Y-39688656D01*
X122835181Y-39688653D01*
X122726447Y-39594433D01*
X122726444Y-39594431D01*
X122726442Y-39594430D01*
X122595576Y-39534664D01*
X122595571Y-39534662D01*
X122595570Y-39534662D01*
X122533844Y-39516537D01*
X122528528Y-39514976D01*
X122459002Y-39504980D01*
X122386111Y-39494500D01*
X120624000Y-39494500D01*
X120623991Y-39494500D01*
X120623990Y-39494501D01*
X120516549Y-39506052D01*
X120516537Y-39506054D01*
X120465027Y-39517260D01*
X120362502Y-39551383D01*
X120362496Y-39551386D01*
X120241462Y-39629171D01*
X120241451Y-39629179D01*
X120188659Y-39674923D01*
X120094433Y-39783664D01*
X120094430Y-39783668D01*
X120034664Y-39914534D01*
X120014976Y-39981582D01*
X120012250Y-40000545D01*
X119994500Y-40124000D01*
X119994500Y-47376000D01*
X119994501Y-47376009D01*
X120006052Y-47483450D01*
X120006054Y-47483462D01*
X120017260Y-47534972D01*
X120051383Y-47637497D01*
X120051386Y-47637503D01*
X120129171Y-47758537D01*
X120129179Y-47758548D01*
X120174923Y-47811340D01*
X120174926Y-47811343D01*
X120174930Y-47811347D01*
X120283664Y-47905567D01*
X120414541Y-47965338D01*
X120481580Y-47985023D01*
X120481584Y-47985024D01*
X120624000Y-48005500D01*
X127670500Y-48005500D01*
X127737539Y-48025185D01*
X127783294Y-48077989D01*
X127794500Y-48129500D01*
X127794500Y-53170500D01*
X127774815Y-53237539D01*
X127722011Y-53283294D01*
X127670500Y-53294500D01*
X124229308Y-53294500D01*
X124162269Y-53274815D01*
X124149552Y-53265447D01*
X124132721Y-53251309D01*
X116859720Y-47141988D01*
X116834392Y-47122055D01*
X116834377Y-47122043D01*
X116821688Y-47112695D01*
X116795170Y-47094435D01*
X116795169Y-47094434D01*
X116795167Y-47094433D01*
X116712729Y-47056783D01*
X116664293Y-47034663D01*
X116597248Y-47014976D01*
X116549775Y-47008150D01*
X116454831Y-46994500D01*
X116454829Y-46994500D01*
X97570500Y-46994500D01*
X97503461Y-46974815D01*
X97457706Y-46922011D01*
X97446500Y-46870500D01*
X97446500Y-45450000D01*
X97466185Y-45382961D01*
X97518989Y-45337206D01*
X97570500Y-45326000D01*
X99191000Y-45326000D01*
X99191000Y-44253231D01*
X99334753Y-44276000D01*
X99547247Y-44276000D01*
X99691000Y-44253231D01*
X99691000Y-45326000D01*
X101388828Y-45326000D01*
X101388844Y-45325999D01*
X101448372Y-45319598D01*
X101448379Y-45319596D01*
X101583086Y-45269354D01*
X101583093Y-45269350D01*
X101698187Y-45183190D01*
X101698190Y-45183187D01*
X101784350Y-45068093D01*
X101784354Y-45068086D01*
X101834596Y-44933379D01*
X101834598Y-44933372D01*
X101840999Y-44873844D01*
X101841000Y-44873827D01*
X101841000Y-43176000D01*
X100768231Y-43176000D01*
X100791000Y-43032247D01*
X100791000Y-42819753D01*
X100768231Y-42676000D01*
X101841000Y-42676000D01*
X101841000Y-40978172D01*
X101840999Y-40978155D01*
X101834598Y-40918627D01*
X101834596Y-40918620D01*
X101784354Y-40783913D01*
X101784350Y-40783906D01*
X101698190Y-40668812D01*
X101698187Y-40668809D01*
X101583093Y-40582649D01*
X101583086Y-40582645D01*
X101448379Y-40532403D01*
X101448372Y-40532401D01*
X101388844Y-40526000D01*
X99691000Y-40526000D01*
X99691000Y-41598768D01*
X99547247Y-41576000D01*
X99334753Y-41576000D01*
X99191000Y-41598768D01*
X99191000Y-40526000D01*
X97553027Y-40526000D01*
X97485988Y-40506315D01*
X97440233Y-40453511D01*
X97431861Y-40428359D01*
X97431162Y-40425145D01*
X97423741Y-40391033D01*
X97415037Y-40364882D01*
X97389616Y-40288502D01*
X97389613Y-40288496D01*
X97317783Y-40176728D01*
X97311825Y-40167457D01*
X97303892Y-40158302D01*
X97266076Y-40114659D01*
X97266072Y-40114656D01*
X97266070Y-40114653D01*
X97157336Y-40020433D01*
X97157333Y-40020431D01*
X97157331Y-40020430D01*
X97026465Y-39960664D01*
X97026460Y-39960662D01*
X97026459Y-39960662D01*
X96968135Y-39943536D01*
X96959417Y-39940976D01*
X96889891Y-39930980D01*
X96817000Y-39920500D01*
X95554889Y-39920500D01*
X95452485Y-39930980D01*
X95403278Y-39941160D01*
X95314554Y-39969191D01*
X95305115Y-39972173D01*
X95254148Y-40003478D01*
X95182515Y-40047476D01*
X95128788Y-40092145D01*
X95032372Y-40198935D01*
X94969944Y-40328567D01*
X94957754Y-40367151D01*
X94918787Y-40425145D01*
X94854652Y-40452867D01*
X94825632Y-40453014D01*
X94581431Y-40425500D01*
X94581425Y-40425500D01*
X94300575Y-40425500D01*
X94300568Y-40425500D01*
X94055013Y-40453167D01*
X93986191Y-40441112D01*
X93934812Y-40393763D01*
X93922153Y-40364882D01*
X93911490Y-40328567D01*
X93899724Y-40288496D01*
X93821936Y-40167457D01*
X93814003Y-40158302D01*
X93776187Y-40114659D01*
X93776183Y-40114656D01*
X93776181Y-40114653D01*
X93667447Y-40020433D01*
X93667444Y-40020431D01*
X93667442Y-40020430D01*
X93536576Y-39960664D01*
X93536571Y-39960662D01*
X93536570Y-39960662D01*
X93478246Y-39943536D01*
X93469528Y-39940976D01*
X93400002Y-39930980D01*
X93327111Y-39920500D01*
X90920000Y-39920500D01*
X90919991Y-39920500D01*
X90919990Y-39920501D01*
X90812549Y-39932052D01*
X90812537Y-39932054D01*
X90761027Y-39943260D01*
X90658502Y-39977383D01*
X90658496Y-39977386D01*
X90537462Y-40055171D01*
X90537451Y-40055179D01*
X90484659Y-40100923D01*
X90390433Y-40209664D01*
X90390430Y-40209668D01*
X90330664Y-40340534D01*
X90310976Y-40407582D01*
X90302076Y-40469484D01*
X90291626Y-40542172D01*
X90290500Y-40550001D01*
X90290500Y-46870500D01*
X90270815Y-46937539D01*
X90218011Y-46983294D01*
X90166500Y-46994500D01*
X69521717Y-46994500D01*
X69454678Y-46974815D01*
X69408923Y-46922011D01*
X69397727Y-46872043D01*
X69380055Y-45451543D01*
X69398904Y-45384263D01*
X69451134Y-45337855D01*
X69504045Y-45326000D01*
X70917000Y-45326000D01*
X70917000Y-44253231D01*
X71060753Y-44276000D01*
X71273247Y-44276000D01*
X71417000Y-44253231D01*
X71417000Y-45326000D01*
X73114828Y-45326000D01*
X73114844Y-45325999D01*
X73174372Y-45319598D01*
X73174379Y-45319596D01*
X73309086Y-45269354D01*
X73309093Y-45269350D01*
X73424187Y-45183190D01*
X73424190Y-45183187D01*
X73510350Y-45068093D01*
X73510354Y-45068086D01*
X73560596Y-44933379D01*
X73560598Y-44933372D01*
X73566999Y-44873844D01*
X73567000Y-44873827D01*
X73567000Y-43176000D01*
X72494231Y-43176000D01*
X72517000Y-43032247D01*
X72517000Y-42819753D01*
X72494231Y-42676000D01*
X73567000Y-42676000D01*
X73567000Y-40978172D01*
X73566999Y-40978155D01*
X73560598Y-40918627D01*
X73560596Y-40918620D01*
X73510354Y-40783913D01*
X73510350Y-40783906D01*
X73424190Y-40668812D01*
X73424187Y-40668809D01*
X73309093Y-40582649D01*
X73309086Y-40582645D01*
X73174379Y-40532403D01*
X73174372Y-40532401D01*
X73114844Y-40526000D01*
X71417000Y-40526000D01*
X71417000Y-41598768D01*
X71273247Y-41576000D01*
X71060753Y-41576000D01*
X70917000Y-41598768D01*
X70917000Y-40526000D01*
X69427032Y-40526000D01*
X69401921Y-40518626D01*
X69376002Y-40515013D01*
X69368932Y-40508939D01*
X69359993Y-40506315D01*
X69342859Y-40486541D01*
X69323003Y-40469484D01*
X69318139Y-40458013D01*
X69314238Y-40453511D01*
X69308205Y-40437442D01*
X69307084Y-40433684D01*
X69291282Y-40365153D01*
X69279591Y-40340374D01*
X69266355Y-40301016D01*
X69262146Y-40288497D01*
X69240082Y-40254166D01*
X69233408Y-40242420D01*
X69232811Y-40241223D01*
X69229889Y-40235028D01*
X69226323Y-40229628D01*
X69207664Y-40201372D01*
X69207661Y-40201369D01*
X69206358Y-40199396D01*
X69206359Y-40199396D01*
X69191387Y-40176724D01*
X69191379Y-40176715D01*
X69190344Y-40175368D01*
X69186090Y-40170152D01*
X69184359Y-40167458D01*
X69176436Y-40158315D01*
X69176426Y-40158302D01*
X69138604Y-40114653D01*
X69134430Y-40111036D01*
X69122938Y-40099686D01*
X69095826Y-40069172D01*
X69069134Y-40052481D01*
X69053678Y-40041059D01*
X69029884Y-40020442D01*
X68992742Y-40003478D01*
X68980801Y-39997218D01*
X68979635Y-39996523D01*
X68973830Y-39992894D01*
X68972714Y-39992401D01*
X68972699Y-39992392D01*
X68926923Y-39972172D01*
X68909901Y-39964653D01*
X68909893Y-39964651D01*
X68908224Y-39964051D01*
X68901898Y-39961988D01*
X68899006Y-39960667D01*
X68887376Y-39957251D01*
X68887233Y-39957205D01*
X68840669Y-39943536D01*
X68840657Y-39943532D01*
X68833102Y-39941313D01*
X68833087Y-39941310D01*
X68831910Y-39940965D01*
X68825198Y-39940000D01*
X68823802Y-39939768D01*
X68823252Y-39939502D01*
X68810676Y-39936848D01*
X68771415Y-39925848D01*
X68771413Y-39925848D01*
X68769229Y-39925874D01*
X68739900Y-39926236D01*
X68720733Y-39924984D01*
X68689536Y-39920500D01*
X68689533Y-39920500D01*
X67280889Y-39920500D01*
X67178485Y-39930980D01*
X67129278Y-39941160D01*
X67040554Y-39969191D01*
X67031115Y-39972173D01*
X66980148Y-40003478D01*
X66908515Y-40047476D01*
X66854788Y-40092145D01*
X66758372Y-40198935D01*
X66695944Y-40328567D01*
X66683754Y-40367151D01*
X66644787Y-40425145D01*
X66580652Y-40452867D01*
X66551632Y-40453014D01*
X66307431Y-40425500D01*
X66307425Y-40425500D01*
X66026575Y-40425500D01*
X66026568Y-40425500D01*
X65781013Y-40453167D01*
X65712191Y-40441112D01*
X65660812Y-40393763D01*
X65648153Y-40364882D01*
X65637490Y-40328567D01*
X65625724Y-40288496D01*
X65547936Y-40167457D01*
X65540003Y-40158302D01*
X65502187Y-40114659D01*
X65502183Y-40114656D01*
X65502181Y-40114653D01*
X65393447Y-40020433D01*
X65393444Y-40020431D01*
X65393442Y-40020430D01*
X65262576Y-39960664D01*
X65262571Y-39960662D01*
X65262570Y-39960662D01*
X65204246Y-39943536D01*
X65195528Y-39940976D01*
X65126002Y-39930980D01*
X65053111Y-39920500D01*
X62691000Y-39920500D01*
X62690991Y-39920500D01*
X62690990Y-39920501D01*
X62583549Y-39932052D01*
X62583537Y-39932054D01*
X62532027Y-39943260D01*
X62429502Y-39977383D01*
X62429496Y-39977386D01*
X62308462Y-40055171D01*
X62308451Y-40055179D01*
X62255659Y-40100923D01*
X62161433Y-40209664D01*
X62161430Y-40209668D01*
X62101664Y-40340534D01*
X62081976Y-40407582D01*
X62073076Y-40469484D01*
X62061500Y-40550000D01*
X40750500Y-40550000D01*
X40750500Y-38103051D01*
X40750649Y-38096966D01*
X40756149Y-37985010D01*
X42695500Y-37985010D01*
X42695500Y-38214989D01*
X42695501Y-38215005D01*
X42725518Y-38443009D01*
X42725519Y-38443014D01*
X42725520Y-38443020D01*
X42725521Y-38443022D01*
X42785046Y-38665175D01*
X42785049Y-38665185D01*
X42873057Y-38877654D01*
X42873061Y-38877664D01*
X42988055Y-39076839D01*
X43128064Y-39259303D01*
X43128070Y-39259310D01*
X43290689Y-39421929D01*
X43290696Y-39421935D01*
X43473160Y-39561944D01*
X43672335Y-39676938D01*
X43672336Y-39676938D01*
X43672339Y-39676940D01*
X43884824Y-39764954D01*
X44106980Y-39824480D01*
X44335004Y-39854500D01*
X44335011Y-39854500D01*
X44564989Y-39854500D01*
X44564996Y-39854500D01*
X44793020Y-39824480D01*
X45015176Y-39764954D01*
X45227661Y-39676940D01*
X45426840Y-39561944D01*
X45609305Y-39421934D01*
X45771934Y-39259305D01*
X45911944Y-39076840D01*
X46026940Y-38877661D01*
X46114954Y-38665176D01*
X46174480Y-38443020D01*
X46204500Y-38214996D01*
X46204500Y-37985010D01*
X138695500Y-37985010D01*
X138695500Y-38214989D01*
X138695501Y-38215005D01*
X138725518Y-38443009D01*
X138725519Y-38443014D01*
X138725520Y-38443020D01*
X138725521Y-38443022D01*
X138785046Y-38665175D01*
X138785049Y-38665185D01*
X138873057Y-38877654D01*
X138873061Y-38877664D01*
X138988055Y-39076839D01*
X139128064Y-39259303D01*
X139128070Y-39259310D01*
X139290689Y-39421929D01*
X139290696Y-39421935D01*
X139473160Y-39561944D01*
X139672335Y-39676938D01*
X139672336Y-39676938D01*
X139672339Y-39676940D01*
X139884824Y-39764954D01*
X140106980Y-39824480D01*
X140335004Y-39854500D01*
X140335011Y-39854500D01*
X140564989Y-39854500D01*
X140564996Y-39854500D01*
X140793020Y-39824480D01*
X141015176Y-39764954D01*
X141227661Y-39676940D01*
X141426840Y-39561944D01*
X141609305Y-39421934D01*
X141771934Y-39259305D01*
X141911944Y-39076840D01*
X142026940Y-38877661D01*
X142114954Y-38665176D01*
X142174480Y-38443020D01*
X142204500Y-38214996D01*
X142204500Y-37985004D01*
X142174480Y-37756980D01*
X142114954Y-37534824D01*
X142026940Y-37322339D01*
X141911944Y-37123160D01*
X141771934Y-36940695D01*
X141771929Y-36940689D01*
X141609310Y-36778070D01*
X141609303Y-36778064D01*
X141426839Y-36638055D01*
X141227664Y-36523061D01*
X141227654Y-36523057D01*
X141015185Y-36435049D01*
X141015178Y-36435047D01*
X141015176Y-36435046D01*
X140793020Y-36375520D01*
X140793014Y-36375519D01*
X140793009Y-36375518D01*
X140565005Y-36345501D01*
X140565002Y-36345500D01*
X140564996Y-36345500D01*
X140335004Y-36345500D01*
X140334998Y-36345500D01*
X140334994Y-36345501D01*
X140106990Y-36375518D01*
X140106983Y-36375519D01*
X140106980Y-36375520D01*
X139884824Y-36435046D01*
X139884814Y-36435049D01*
X139672345Y-36523057D01*
X139672335Y-36523061D01*
X139473160Y-36638055D01*
X139290696Y-36778064D01*
X139290689Y-36778070D01*
X139128070Y-36940689D01*
X139128064Y-36940696D01*
X138988055Y-37123160D01*
X138873061Y-37322335D01*
X138873057Y-37322345D01*
X138785049Y-37534814D01*
X138785046Y-37534824D01*
X138729141Y-37743468D01*
X138725521Y-37756977D01*
X138725518Y-37756990D01*
X138695501Y-37984994D01*
X138695500Y-37985010D01*
X46204500Y-37985010D01*
X46204500Y-37985004D01*
X46174480Y-37756980D01*
X46114954Y-37534824D01*
X46026940Y-37322339D01*
X45911944Y-37123160D01*
X45771934Y-36940695D01*
X45771929Y-36940689D01*
X45609310Y-36778070D01*
X45609303Y-36778064D01*
X45426839Y-36638055D01*
X45227664Y-36523061D01*
X45227654Y-36523057D01*
X45015185Y-36435049D01*
X45015178Y-36435047D01*
X45015176Y-36435046D01*
X44793020Y-36375520D01*
X44793014Y-36375519D01*
X44793009Y-36375518D01*
X44565005Y-36345501D01*
X44565002Y-36345500D01*
X44564996Y-36345500D01*
X44335004Y-36345500D01*
X44334998Y-36345500D01*
X44334994Y-36345501D01*
X44106990Y-36375518D01*
X44106983Y-36375519D01*
X44106980Y-36375520D01*
X43884824Y-36435046D01*
X43884814Y-36435049D01*
X43672345Y-36523057D01*
X43672335Y-36523061D01*
X43473160Y-36638055D01*
X43290696Y-36778064D01*
X43290689Y-36778070D01*
X43128070Y-36940689D01*
X43128064Y-36940696D01*
X42988055Y-37123160D01*
X42873061Y-37322335D01*
X42873057Y-37322345D01*
X42785049Y-37534814D01*
X42785046Y-37534824D01*
X42729141Y-37743468D01*
X42725521Y-37756977D01*
X42725518Y-37756990D01*
X42695501Y-37984994D01*
X42695500Y-37985010D01*
X40756149Y-37985010D01*
X40756648Y-37974860D01*
X40756648Y-37974859D01*
X40767351Y-37756980D01*
X40768015Y-37743465D01*
X40769208Y-37731359D01*
X40820691Y-37384287D01*
X40823061Y-37372367D01*
X40908322Y-37031986D01*
X40911852Y-37020353D01*
X40940355Y-36940695D01*
X41030055Y-36689999D01*
X41034710Y-36678762D01*
X41069835Y-36604495D01*
X41184735Y-36361557D01*
X41190454Y-36350857D01*
X41370851Y-36049884D01*
X41377594Y-36039791D01*
X41586630Y-35757939D01*
X41594333Y-35748554D01*
X41829983Y-35488553D01*
X41838553Y-35479983D01*
X42098554Y-35244333D01*
X42107939Y-35236630D01*
X42389791Y-35027594D01*
X42399884Y-35020851D01*
X42700857Y-34840454D01*
X42711557Y-34834735D01*
X43028762Y-34684710D01*
X43039999Y-34680055D01*
X43370361Y-34561849D01*
X43381986Y-34558322D01*
X43722367Y-34473061D01*
X43734278Y-34470692D01*
X44081359Y-34419207D01*
X44093465Y-34418015D01*
X44446967Y-34400648D01*
X44453051Y-34400500D01*
X44497595Y-34400500D01*
X140402405Y-34400500D01*
X140446949Y-34400500D01*
X140453032Y-34400648D01*
G37*
G04 #@! TD.AperFunction*
G04 #@! TA.AperFunction,Conductor*
G36*
X123702000Y-56269000D02*
G01*
X123036437Y-58000000D01*
X116530567Y-74920501D01*
X116488135Y-74976010D01*
X116422428Y-74999767D01*
X116414828Y-75000000D01*
X102500000Y-75000000D01*
X102500000Y-81876000D01*
X102480315Y-81943039D01*
X102427511Y-81988794D01*
X102376000Y-82000000D01*
X96924000Y-82000000D01*
X96856961Y-81980315D01*
X96811206Y-81927511D01*
X96800000Y-81876000D01*
X96800000Y-81236106D01*
X96819685Y-81169067D01*
X96824734Y-81161794D01*
X96843796Y-81136331D01*
X96894091Y-81001483D01*
X96900500Y-80941873D01*
X96900499Y-79864220D01*
X96920183Y-79797184D01*
X96972987Y-79751429D01*
X97042146Y-79741485D01*
X97105702Y-79770510D01*
X97141540Y-79823268D01*
X97186658Y-79952208D01*
X97186661Y-79952215D01*
X97308492Y-80205200D01*
X97457884Y-80442956D01*
X97564187Y-80576257D01*
X98384728Y-79755716D01*
X98470278Y-79873466D01*
X98620534Y-80023722D01*
X98738281Y-80109270D01*
X97917741Y-80929810D01*
X97917741Y-80929811D01*
X98051043Y-81036115D01*
X98288799Y-81185507D01*
X98541782Y-81307337D01*
X98806819Y-81400077D01*
X98806821Y-81400078D01*
X99080575Y-81462560D01*
X99080587Y-81462562D01*
X99359598Y-81493999D01*
X99359600Y-81494000D01*
X99640400Y-81494000D01*
X99640401Y-81493999D01*
X99919412Y-81462562D01*
X99919424Y-81462560D01*
X100193178Y-81400078D01*
X100193180Y-81400077D01*
X100458217Y-81307337D01*
X100711200Y-81185507D01*
X100948956Y-81036116D01*
X101082257Y-80929810D01*
X100261717Y-80109271D01*
X100379466Y-80023722D01*
X100529722Y-79873466D01*
X100615270Y-79755717D01*
X101435810Y-80576257D01*
X101542116Y-80442956D01*
X101691507Y-80205200D01*
X101813337Y-79952217D01*
X101906077Y-79687180D01*
X101906078Y-79687178D01*
X101968560Y-79413424D01*
X101968562Y-79413412D01*
X101999999Y-79134401D01*
X102000000Y-79134399D01*
X102000000Y-78853600D01*
X101999999Y-78853598D01*
X101968562Y-78574587D01*
X101968560Y-78574575D01*
X101906078Y-78300821D01*
X101906077Y-78300819D01*
X101813337Y-78035782D01*
X101691507Y-77782799D01*
X101542115Y-77545043D01*
X101435810Y-77411741D01*
X100615270Y-78232281D01*
X100529722Y-78114534D01*
X100379466Y-77964278D01*
X100261716Y-77878728D01*
X101082257Y-77058187D01*
X100948956Y-76951884D01*
X100711200Y-76802492D01*
X100458217Y-76680662D01*
X100193180Y-76587922D01*
X100193178Y-76587921D01*
X99919424Y-76525439D01*
X99919412Y-76525437D01*
X99640401Y-76494000D01*
X99359598Y-76494000D01*
X99080587Y-76525437D01*
X99080575Y-76525439D01*
X98806821Y-76587921D01*
X98806819Y-76587922D01*
X98541782Y-76680662D01*
X98288799Y-76802492D01*
X98051043Y-76951884D01*
X97917741Y-77058187D01*
X98738282Y-77878728D01*
X98620534Y-77964278D01*
X98470278Y-78114534D01*
X98384728Y-78232282D01*
X97564187Y-77411741D01*
X97457884Y-77545043D01*
X97308492Y-77782799D01*
X97186661Y-78035784D01*
X97186658Y-78035791D01*
X97141540Y-78164732D01*
X97100819Y-78221508D01*
X97035866Y-78247255D01*
X96967304Y-78233799D01*
X96916902Y-78185411D01*
X96900499Y-78123777D01*
X96900499Y-77046129D01*
X96900498Y-77046123D01*
X96894091Y-76986516D01*
X96843797Y-76851671D01*
X96843795Y-76851668D01*
X96824733Y-76826204D01*
X96800316Y-76760739D01*
X96800000Y-76751893D01*
X96800000Y-75000000D01*
X73804000Y-75000000D01*
X73804000Y-81376000D01*
X73784315Y-81443039D01*
X73731511Y-81488794D01*
X73680000Y-81500000D01*
X71851429Y-81500000D01*
X71784390Y-81480315D01*
X71738635Y-81427511D01*
X71728691Y-81358353D01*
X71757716Y-81294797D01*
X71797628Y-81264280D01*
X71961197Y-81185509D01*
X72198956Y-81036116D01*
X72332257Y-80929810D01*
X71511717Y-80109271D01*
X71629466Y-80023722D01*
X71779722Y-79873466D01*
X71865270Y-79755717D01*
X72685810Y-80576257D01*
X72792116Y-80442956D01*
X72941507Y-80205200D01*
X73063337Y-79952217D01*
X73156077Y-79687180D01*
X73156078Y-79687178D01*
X73218560Y-79413424D01*
X73218562Y-79413412D01*
X73249999Y-79134401D01*
X73250000Y-79134399D01*
X73250000Y-78853600D01*
X73249999Y-78853598D01*
X73218562Y-78574587D01*
X73218560Y-78574575D01*
X73156078Y-78300821D01*
X73156077Y-78300819D01*
X73063337Y-78035782D01*
X72941507Y-77782799D01*
X72792115Y-77545043D01*
X72685810Y-77411741D01*
X71865270Y-78232281D01*
X71779722Y-78114534D01*
X71629466Y-77964278D01*
X71511716Y-77878728D01*
X72332257Y-77058187D01*
X72198956Y-76951884D01*
X71961200Y-76802492D01*
X71708217Y-76680662D01*
X71443180Y-76587922D01*
X71443178Y-76587921D01*
X71169424Y-76525439D01*
X71169412Y-76525437D01*
X70890401Y-76494000D01*
X70609598Y-76494000D01*
X70330587Y-76525437D01*
X70330575Y-76525439D01*
X70056821Y-76587921D01*
X70056819Y-76587922D01*
X69791782Y-76680662D01*
X69538799Y-76802492D01*
X69301043Y-76951884D01*
X69167741Y-77058187D01*
X69988282Y-77878728D01*
X69870534Y-77964278D01*
X69720278Y-78114534D01*
X69634728Y-78232282D01*
X68814187Y-77411741D01*
X68707884Y-77545043D01*
X68558492Y-77782799D01*
X68436661Y-78035784D01*
X68436658Y-78035791D01*
X68391540Y-78164732D01*
X68350819Y-78221508D01*
X68285866Y-78247255D01*
X68217304Y-78233799D01*
X68166902Y-78185411D01*
X68150499Y-78123777D01*
X68150499Y-77046129D01*
X68150498Y-77046123D01*
X68144091Y-76986516D01*
X68093797Y-76851671D01*
X68093796Y-76851670D01*
X68093796Y-76851669D01*
X68028733Y-76764756D01*
X68004316Y-76699292D01*
X68004000Y-76690445D01*
X68004000Y-73124087D01*
X68023685Y-73057048D01*
X68076489Y-73011293D01*
X68128086Y-73000087D01*
X112028839Y-73030870D01*
X115065999Y-73033000D01*
X115065999Y-73032999D01*
X115066000Y-73033000D01*
X122559000Y-54491000D01*
X123702000Y-54491000D01*
X123702000Y-56269000D01*
G37*
G04 #@! TD.AperFunction*
G04 #@! TA.AperFunction,Conductor*
G36*
X68355702Y-79770510D02*
G01*
X68391540Y-79823268D01*
X68436658Y-79952208D01*
X68436661Y-79952215D01*
X68558492Y-80205200D01*
X68707884Y-80442956D01*
X68814187Y-80576257D01*
X69634728Y-79755716D01*
X69720278Y-79873466D01*
X69870534Y-80023722D01*
X69988281Y-80109270D01*
X69167741Y-80929810D01*
X69167741Y-80929811D01*
X69301043Y-81036115D01*
X69538802Y-81185509D01*
X69702372Y-81264280D01*
X69754232Y-81311102D01*
X69772545Y-81378529D01*
X69751497Y-81445153D01*
X69697771Y-81489822D01*
X69648571Y-81500000D01*
X68128000Y-81500000D01*
X68119314Y-81497449D01*
X68110353Y-81498738D01*
X68086312Y-81487759D01*
X68060961Y-81480315D01*
X68055033Y-81473474D01*
X68046797Y-81469713D01*
X68032507Y-81447478D01*
X68015206Y-81427511D01*
X68012918Y-81416996D01*
X68009023Y-81410935D01*
X68004000Y-81376000D01*
X68004000Y-81297554D01*
X68023685Y-81230515D01*
X68028734Y-81223243D01*
X68093793Y-81136335D01*
X68093792Y-81136335D01*
X68093796Y-81136331D01*
X68144091Y-81001483D01*
X68150500Y-80941873D01*
X68150499Y-79864220D01*
X68170183Y-79797184D01*
X68222987Y-79751429D01*
X68292146Y-79741485D01*
X68355702Y-79770510D01*
G37*
G04 #@! TD.AperFunction*
G04 #@! TA.AperFunction,Conductor*
G36*
X122453150Y-40019685D02*
G01*
X122498905Y-40072489D01*
X122508849Y-40141647D01*
X122479824Y-40205203D01*
X122439913Y-40235720D01*
X122288799Y-40308492D01*
X122051043Y-40457884D01*
X121917741Y-40564187D01*
X122738282Y-41384728D01*
X122620534Y-41470278D01*
X122470278Y-41620534D01*
X122384728Y-41738282D01*
X121564187Y-40917741D01*
X121457884Y-41051043D01*
X121308492Y-41288799D01*
X121186662Y-41541782D01*
X121093922Y-41806819D01*
X121093921Y-41806821D01*
X121031439Y-42080575D01*
X121031437Y-42080587D01*
X121000000Y-42359598D01*
X121000000Y-42640401D01*
X121031437Y-42919412D01*
X121031439Y-42919424D01*
X121093921Y-43193178D01*
X121093922Y-43193180D01*
X121186662Y-43458217D01*
X121308492Y-43711200D01*
X121457884Y-43948956D01*
X121564187Y-44082257D01*
X122384728Y-43261716D01*
X122470278Y-43379466D01*
X122620534Y-43529722D01*
X122738281Y-43615270D01*
X121917741Y-44435810D01*
X121917741Y-44435811D01*
X122051043Y-44542115D01*
X122288799Y-44691507D01*
X122541782Y-44813337D01*
X122806819Y-44906077D01*
X122806821Y-44906078D01*
X123080575Y-44968560D01*
X123080587Y-44968562D01*
X123359598Y-44999999D01*
X123359600Y-45000000D01*
X123640400Y-45000000D01*
X123640401Y-44999999D01*
X123919412Y-44968562D01*
X123919424Y-44968560D01*
X124193178Y-44906078D01*
X124193180Y-44906077D01*
X124458217Y-44813337D01*
X124711200Y-44691507D01*
X124948956Y-44542116D01*
X125082257Y-44435810D01*
X124261717Y-43615271D01*
X124379466Y-43529722D01*
X124529722Y-43379466D01*
X124615270Y-43261717D01*
X125435810Y-44082257D01*
X125542116Y-43948956D01*
X125691509Y-43711197D01*
X125764280Y-43560087D01*
X125811102Y-43508227D01*
X125878529Y-43489914D01*
X125945153Y-43510962D01*
X125989822Y-43564688D01*
X126000000Y-43613888D01*
X126000000Y-44362891D01*
X125980315Y-44429930D01*
X125944865Y-44465379D01*
X125945006Y-44465567D01*
X125943704Y-44466541D01*
X125943041Y-44467205D01*
X125941466Y-44468217D01*
X125941451Y-44468228D01*
X125888659Y-44513972D01*
X125794433Y-44622713D01*
X125794430Y-44622717D01*
X125734664Y-44753583D01*
X125734662Y-44753590D01*
X125714977Y-44820629D01*
X125714976Y-44820633D01*
X125694500Y-44963049D01*
X125694500Y-45176000D01*
X125694501Y-45176009D01*
X125706052Y-45283450D01*
X125706054Y-45283462D01*
X125717260Y-45334972D01*
X125751383Y-45437497D01*
X125751386Y-45437503D01*
X125829171Y-45558537D01*
X125829179Y-45558548D01*
X125874923Y-45611340D01*
X125874926Y-45611343D01*
X125874930Y-45611347D01*
X125983664Y-45705567D01*
X126114541Y-45765338D01*
X126181580Y-45785023D01*
X126181584Y-45785024D01*
X126324000Y-45805500D01*
X129370500Y-45805500D01*
X129437539Y-45825185D01*
X129483294Y-45877989D01*
X129494500Y-45929500D01*
X129494500Y-54896457D01*
X129499906Y-54939501D01*
X129510199Y-55021459D01*
X129510199Y-55021460D01*
X129525363Y-55080876D01*
X129525364Y-55080881D01*
X129571491Y-55198127D01*
X129657712Y-55313312D01*
X129657716Y-55313316D01*
X129657720Y-55313321D01*
X129707108Y-55362712D01*
X129707112Y-55362715D01*
X129707116Y-55362719D01*
X129822294Y-55448946D01*
X129858837Y-55462577D01*
X129914769Y-55504449D01*
X129939184Y-55569914D01*
X129939500Y-55578757D01*
X129939500Y-56816074D01*
X129919815Y-56883113D01*
X129867015Y-56928867D01*
X129862495Y-56930931D01*
X129741462Y-57008715D01*
X129741451Y-57008723D01*
X129688659Y-57054467D01*
X129594433Y-57163208D01*
X129594430Y-57163212D01*
X129534664Y-57294078D01*
X129514976Y-57361126D01*
X129494500Y-57503545D01*
X129494500Y-58880314D01*
X129499645Y-58952255D01*
X129504668Y-58987196D01*
X129519993Y-59057643D01*
X129519995Y-59057650D01*
X129519996Y-59057652D01*
X129539237Y-59099786D01*
X129573667Y-59185935D01*
X129605948Y-59228423D01*
X129606160Y-59228834D01*
X129605809Y-59229061D01*
X129617549Y-59247328D01*
X129639985Y-59273220D01*
X129660711Y-59300499D01*
X129676173Y-59315742D01*
X129676523Y-59315386D01*
X129711766Y-59356059D01*
X129770283Y-59393665D01*
X129826281Y-59434961D01*
X129872181Y-59451706D01*
X129881396Y-59456993D01*
X129898515Y-59474847D01*
X129918425Y-59489530D01*
X129922274Y-59499627D01*
X129929752Y-59507427D01*
X129934500Y-59531704D01*
X129943311Y-59554817D01*
X129942594Y-59573079D01*
X129943165Y-59575997D01*
X129942404Y-59577911D01*
X129942168Y-59583947D01*
X129939500Y-59600795D01*
X129939500Y-59799209D01*
X129941425Y-59811366D01*
X129932468Y-59880659D01*
X129887469Y-59934109D01*
X129869633Y-59942590D01*
X129870076Y-59943539D01*
X129862492Y-59947076D01*
X129741462Y-60024857D01*
X129741451Y-60024866D01*
X129688659Y-60070610D01*
X129594433Y-60179351D01*
X129594430Y-60179355D01*
X129534664Y-60310221D01*
X129514976Y-60377269D01*
X129494500Y-60519688D01*
X129494500Y-61070500D01*
X129474815Y-61137539D01*
X129422011Y-61183294D01*
X129370500Y-61194500D01*
X128724000Y-61194500D01*
X128723991Y-61194500D01*
X128723990Y-61194501D01*
X128616549Y-61206052D01*
X128616537Y-61206054D01*
X128565030Y-61217259D01*
X128517577Y-61233054D01*
X128478417Y-61239400D01*
X125345134Y-61239400D01*
X125278095Y-61219715D01*
X125232340Y-61166911D01*
X125221137Y-61116269D01*
X125220042Y-60960001D01*
X125215241Y-60275006D01*
X125234455Y-60207833D01*
X125286937Y-60161709D01*
X125356024Y-60151281D01*
X125419782Y-60179860D01*
X125449722Y-60217844D01*
X125522348Y-60360378D01*
X125549161Y-60397284D01*
X126108871Y-59837575D01*
X126124755Y-59896854D01*
X126191898Y-60013148D01*
X126286853Y-60108103D01*
X126403147Y-60175246D01*
X126462424Y-60191129D01*
X125902714Y-60750838D01*
X125902715Y-60750839D01*
X125939612Y-60777646D01*
X126116327Y-60867689D01*
X126116330Y-60867690D01*
X126304947Y-60928974D01*
X126500837Y-60960001D01*
X126699163Y-60960001D01*
X126895052Y-60928974D01*
X127083669Y-60867690D01*
X127083672Y-60867689D01*
X127260382Y-60777649D01*
X127297283Y-60750838D01*
X127297284Y-60750837D01*
X126737575Y-60191128D01*
X126796853Y-60175246D01*
X126913147Y-60108103D01*
X127008102Y-60013148D01*
X127075245Y-59896854D01*
X127091128Y-59837576D01*
X127650836Y-60397285D01*
X127650837Y-60397284D01*
X127677648Y-60360383D01*
X127767688Y-60183673D01*
X127767689Y-60183670D01*
X127828973Y-59995053D01*
X127860000Y-59799164D01*
X127860000Y-59600837D01*
X127828973Y-59404948D01*
X127767689Y-59216331D01*
X127767688Y-59216328D01*
X127677645Y-59039613D01*
X127650838Y-59002716D01*
X127650837Y-59002715D01*
X127091127Y-59562424D01*
X127075245Y-59503148D01*
X127008102Y-59386854D01*
X126913147Y-59291899D01*
X126796853Y-59224756D01*
X126737574Y-59208872D01*
X127297283Y-58649162D01*
X127260380Y-58622351D01*
X127083672Y-58532312D01*
X127083669Y-58532311D01*
X126895052Y-58471027D01*
X126699163Y-58440001D01*
X126500837Y-58440001D01*
X126304947Y-58471027D01*
X126116330Y-58532311D01*
X126116322Y-58532314D01*
X125939615Y-58622353D01*
X125902715Y-58649161D01*
X125902715Y-58649162D01*
X126462425Y-59208872D01*
X126403147Y-59224756D01*
X126286853Y-59291899D01*
X126191898Y-59386854D01*
X126124755Y-59503148D01*
X126108871Y-59562426D01*
X125549161Y-59002716D01*
X125549160Y-59002716D01*
X125522352Y-59039616D01*
X125441785Y-59197736D01*
X125393811Y-59248531D01*
X125325990Y-59265326D01*
X125259855Y-59242788D01*
X125216404Y-59188073D01*
X125207304Y-59142309D01*
X125206711Y-59057643D01*
X125203775Y-58638702D01*
X125222988Y-58571530D01*
X125224624Y-58569013D01*
X125304486Y-58449494D01*
X125383976Y-58257587D01*
X125395469Y-58199809D01*
X125427853Y-58137898D01*
X125488569Y-58103324D01*
X125517086Y-58100000D01*
X128300000Y-58100000D01*
X128300000Y-47500000D01*
X120624000Y-47500000D01*
X120556961Y-47480315D01*
X120511206Y-47427511D01*
X120500000Y-47376000D01*
X120500000Y-40124000D01*
X120519685Y-40056961D01*
X120572489Y-40011206D01*
X120624000Y-40000000D01*
X122386111Y-40000000D01*
X122453150Y-40019685D01*
G37*
G04 #@! TD.AperFunction*
G04 #@! TA.AperFunction,Conductor*
G36*
X125643270Y-40019685D02*
G01*
X125689025Y-40072489D01*
X125699520Y-40110739D01*
X125700231Y-40117355D01*
X125708883Y-40170746D01*
X125708884Y-40170752D01*
X125759161Y-40305555D01*
X125759162Y-40305558D01*
X125759163Y-40305559D01*
X125791585Y-40364939D01*
X125792356Y-40366413D01*
X125792649Y-40366887D01*
X125792651Y-40366891D01*
X125878875Y-40482073D01*
X125950310Y-40535549D01*
X125992182Y-40591481D01*
X126000000Y-40634815D01*
X126000000Y-41386111D01*
X125980315Y-41453150D01*
X125927511Y-41498905D01*
X125858353Y-41508849D01*
X125794797Y-41479824D01*
X125764280Y-41439913D01*
X125691507Y-41288799D01*
X125542115Y-41051043D01*
X125435810Y-40917741D01*
X124615270Y-41738281D01*
X124529722Y-41620534D01*
X124379466Y-41470278D01*
X124261716Y-41384728D01*
X125082257Y-40564187D01*
X124948956Y-40457884D01*
X124711200Y-40308492D01*
X124560087Y-40235720D01*
X124508228Y-40188898D01*
X124489915Y-40121471D01*
X124510963Y-40054847D01*
X124564689Y-40010178D01*
X124613889Y-40000000D01*
X125576231Y-40000000D01*
X125643270Y-40019685D01*
G37*
G04 #@! TD.AperFunction*
G04 #@! TA.AperFunction,Conductor*
G36*
X140453032Y-34400648D02*
G01*
X140806532Y-34418015D01*
X140818640Y-34419208D01*
X140927576Y-34435367D01*
X141165717Y-34470692D01*
X141177635Y-34473062D01*
X141518008Y-34558321D01*
X141529646Y-34561852D01*
X141859996Y-34680054D01*
X141871237Y-34684710D01*
X142096857Y-34791419D01*
X142188433Y-34834731D01*
X142199150Y-34840459D01*
X142500102Y-35020843D01*
X142510220Y-35027603D01*
X142792049Y-35236622D01*
X142801455Y-35244342D01*
X143061436Y-35479974D01*
X143070025Y-35488563D01*
X143231782Y-35667035D01*
X143305657Y-35748544D01*
X143313377Y-35757950D01*
X143522396Y-36039779D01*
X143529156Y-36049897D01*
X143706334Y-36345501D01*
X143709533Y-36350837D01*
X143715270Y-36361570D01*
X143865289Y-36678762D01*
X143869945Y-36690003D01*
X143988147Y-37020353D01*
X143991680Y-37031998D01*
X144076934Y-37372351D01*
X144079308Y-37384287D01*
X144130791Y-37731359D01*
X144131984Y-37743468D01*
X144149351Y-38096966D01*
X144149500Y-38103051D01*
X144149500Y-84096948D01*
X144149351Y-84103033D01*
X144131984Y-84456531D01*
X144130791Y-84468640D01*
X144079308Y-84815712D01*
X144076934Y-84827648D01*
X143991680Y-85168001D01*
X143988147Y-85179646D01*
X143869945Y-85509996D01*
X143865289Y-85521237D01*
X143715270Y-85838429D01*
X143709533Y-85849162D01*
X143529156Y-86150102D01*
X143522396Y-86160220D01*
X143313377Y-86442049D01*
X143305657Y-86451455D01*
X143070033Y-86711428D01*
X143061428Y-86720033D01*
X142801455Y-86955657D01*
X142792049Y-86963377D01*
X142510220Y-87172396D01*
X142500102Y-87179156D01*
X142199162Y-87359533D01*
X142188429Y-87365270D01*
X141871237Y-87515289D01*
X141859996Y-87519945D01*
X141529646Y-87638147D01*
X141518001Y-87641680D01*
X141177648Y-87726934D01*
X141165712Y-87729308D01*
X140818640Y-87780791D01*
X140806531Y-87781984D01*
X140473016Y-87798369D01*
X140453031Y-87799351D01*
X140446949Y-87799500D01*
X44453051Y-87799500D01*
X44446968Y-87799351D01*
X44425811Y-87798311D01*
X44093468Y-87781984D01*
X44081359Y-87780791D01*
X43734287Y-87729308D01*
X43722351Y-87726934D01*
X43381998Y-87641680D01*
X43370353Y-87638147D01*
X43040003Y-87519945D01*
X43028762Y-87515289D01*
X42711570Y-87365270D01*
X42700842Y-87359535D01*
X42399897Y-87179156D01*
X42389779Y-87172396D01*
X42107950Y-86963377D01*
X42098544Y-86955657D01*
X41982295Y-86850296D01*
X41838563Y-86720025D01*
X41829974Y-86711436D01*
X41594342Y-86451455D01*
X41586622Y-86442049D01*
X41377603Y-86160220D01*
X41370843Y-86150102D01*
X41190459Y-85849150D01*
X41184729Y-85838429D01*
X41034710Y-85521237D01*
X41030054Y-85509996D01*
X40911852Y-85179646D01*
X40908319Y-85168001D01*
X40823062Y-84827635D01*
X40820691Y-84815712D01*
X40801850Y-84688699D01*
X40769208Y-84468640D01*
X40768015Y-84456530D01*
X40767351Y-84443022D01*
X40750649Y-84103032D01*
X40750500Y-84096948D01*
X40750500Y-83985010D01*
X42695500Y-83985010D01*
X42695500Y-84214989D01*
X42695501Y-84215005D01*
X42725518Y-84443009D01*
X42725519Y-84443014D01*
X42725520Y-84443020D01*
X42777082Y-84635452D01*
X42785046Y-84665175D01*
X42785049Y-84665185D01*
X42873057Y-84877654D01*
X42873061Y-84877664D01*
X42988055Y-85076839D01*
X43128064Y-85259303D01*
X43128070Y-85259310D01*
X43290689Y-85421929D01*
X43290696Y-85421935D01*
X43473160Y-85561944D01*
X43672335Y-85676938D01*
X43672336Y-85676938D01*
X43672339Y-85676940D01*
X43884824Y-85764954D01*
X44106980Y-85824480D01*
X44335004Y-85854500D01*
X44335011Y-85854500D01*
X44564989Y-85854500D01*
X44564996Y-85854500D01*
X44793020Y-85824480D01*
X45015176Y-85764954D01*
X45227661Y-85676940D01*
X45426840Y-85561944D01*
X45609305Y-85421934D01*
X45771934Y-85259305D01*
X45911944Y-85076840D01*
X46026940Y-84877661D01*
X46114954Y-84665176D01*
X46156182Y-84511308D01*
X78499500Y-84511308D01*
X78499500Y-84688699D01*
X78534103Y-84862662D01*
X78534106Y-84862671D01*
X78601983Y-85026544D01*
X78601990Y-85026557D01*
X78700535Y-85174038D01*
X78700538Y-85174042D01*
X78825961Y-85299465D01*
X78825965Y-85299468D01*
X78973446Y-85398013D01*
X78973459Y-85398020D01*
X79096363Y-85448927D01*
X79137334Y-85465898D01*
X79137336Y-85465898D01*
X79137341Y-85465900D01*
X79311304Y-85500503D01*
X79311307Y-85500504D01*
X79311309Y-85500504D01*
X79488693Y-85500504D01*
X79488694Y-85500503D01*
X79546682Y-85488968D01*
X79662658Y-85465900D01*
X79662661Y-85465898D01*
X79662666Y-85465898D01*
X79826547Y-85398017D01*
X79974035Y-85299468D01*
X80099464Y-85174039D01*
X80198013Y-85026551D01*
X80265894Y-84862670D01*
X80272861Y-84827648D01*
X80300499Y-84688699D01*
X80300500Y-84688697D01*
X80300500Y-84635452D01*
X80320185Y-84568413D01*
X80336819Y-84547771D01*
X80899580Y-83985010D01*
X138695500Y-83985010D01*
X138695500Y-84214989D01*
X138695501Y-84215005D01*
X138725518Y-84443009D01*
X138725519Y-84443014D01*
X138725520Y-84443020D01*
X138777082Y-84635452D01*
X138785046Y-84665175D01*
X138785049Y-84665185D01*
X138873057Y-84877654D01*
X138873061Y-84877664D01*
X138988055Y-85076839D01*
X139128064Y-85259303D01*
X139128070Y-85259310D01*
X139290689Y-85421929D01*
X139290696Y-85421935D01*
X139473160Y-85561944D01*
X139672335Y-85676938D01*
X139672336Y-85676938D01*
X139672339Y-85676940D01*
X139884824Y-85764954D01*
X140106980Y-85824480D01*
X140335004Y-85854500D01*
X140335011Y-85854500D01*
X140564989Y-85854500D01*
X140564996Y-85854500D01*
X140793020Y-85824480D01*
X141015176Y-85764954D01*
X141227661Y-85676940D01*
X141426840Y-85561944D01*
X141609305Y-85421934D01*
X141771934Y-85259305D01*
X141911944Y-85076840D01*
X142026940Y-84877661D01*
X142114954Y-84665176D01*
X142174480Y-84443020D01*
X142204500Y-84214996D01*
X142204500Y-83985004D01*
X142174480Y-83756980D01*
X142114954Y-83534824D01*
X142026940Y-83322339D01*
X141999053Y-83274038D01*
X141911944Y-83123160D01*
X141771935Y-82940696D01*
X141771929Y-82940689D01*
X141609310Y-82778070D01*
X141609303Y-82778064D01*
X141426839Y-82638055D01*
X141227664Y-82523061D01*
X141227654Y-82523057D01*
X141015185Y-82435049D01*
X141015178Y-82435047D01*
X141015176Y-82435046D01*
X140793020Y-82375520D01*
X140793014Y-82375519D01*
X140793009Y-82375518D01*
X140565005Y-82345501D01*
X140565002Y-82345500D01*
X140564996Y-82345500D01*
X140335004Y-82345500D01*
X140334998Y-82345500D01*
X140334994Y-82345501D01*
X140106990Y-82375518D01*
X140106983Y-82375519D01*
X140106980Y-82375520D01*
X139994846Y-82405566D01*
X139884824Y-82435046D01*
X139884814Y-82435049D01*
X139672345Y-82523057D01*
X139672335Y-82523061D01*
X139473160Y-82638055D01*
X139290696Y-82778064D01*
X139290689Y-82778070D01*
X139128070Y-82940689D01*
X139128064Y-82940696D01*
X138988055Y-83123160D01*
X138873061Y-83322335D01*
X138873057Y-83322345D01*
X138785049Y-83534814D01*
X138785046Y-83534824D01*
X138725521Y-83756977D01*
X138725518Y-83756990D01*
X138695501Y-83984994D01*
X138695500Y-83985010D01*
X80899580Y-83985010D01*
X81247771Y-83636819D01*
X81309094Y-83603334D01*
X81335452Y-83600500D01*
X81388693Y-83600500D01*
X81388694Y-83600499D01*
X81446682Y-83588964D01*
X81562658Y-83565896D01*
X81562661Y-83565894D01*
X81562666Y-83565894D01*
X81726547Y-83498013D01*
X81874035Y-83399464D01*
X81999464Y-83274035D01*
X82098013Y-83126547D01*
X82098014Y-83126542D01*
X82098018Y-83126537D01*
X82138352Y-83029158D01*
X82165894Y-82962666D01*
X82170265Y-82940695D01*
X82200499Y-82788695D01*
X82200500Y-82788693D01*
X82200500Y-82611306D01*
X82200499Y-82611304D01*
X82165896Y-82437341D01*
X82165893Y-82437332D01*
X82164947Y-82435049D01*
X82143280Y-82382739D01*
X82098016Y-82273459D01*
X82098009Y-82273446D01*
X81999464Y-82125965D01*
X81999461Y-82125961D01*
X81874038Y-82000538D01*
X81874034Y-82000535D01*
X81726553Y-81901990D01*
X81726540Y-81901983D01*
X81562667Y-81834106D01*
X81562658Y-81834103D01*
X81388694Y-81799500D01*
X81388691Y-81799500D01*
X81211309Y-81799500D01*
X81211306Y-81799500D01*
X81037341Y-81834103D01*
X81037332Y-81834106D01*
X80873459Y-81901983D01*
X80873446Y-81901990D01*
X80725965Y-82000535D01*
X80725961Y-82000538D01*
X80600538Y-82125961D01*
X80600535Y-82125965D01*
X80501990Y-82273446D01*
X80501983Y-82273459D01*
X80434106Y-82437332D01*
X80434103Y-82437341D01*
X80399500Y-82611304D01*
X80399500Y-82664548D01*
X80379815Y-82731587D01*
X80363181Y-82752229D01*
X79452225Y-83663185D01*
X79390902Y-83696670D01*
X79364544Y-83699504D01*
X79311306Y-83699504D01*
X79137341Y-83734107D01*
X79137332Y-83734110D01*
X78973459Y-83801987D01*
X78973446Y-83801994D01*
X78825965Y-83900539D01*
X78825961Y-83900542D01*
X78700538Y-84025965D01*
X78700535Y-84025969D01*
X78601990Y-84173450D01*
X78601983Y-84173463D01*
X78534106Y-84337336D01*
X78534103Y-84337345D01*
X78499500Y-84511308D01*
X46156182Y-84511308D01*
X46174480Y-84443020D01*
X46204500Y-84214996D01*
X46204500Y-83985004D01*
X46174480Y-83756980D01*
X46114954Y-83534824D01*
X46026940Y-83322339D01*
X45999053Y-83274038D01*
X45911944Y-83123160D01*
X45771935Y-82940696D01*
X45771929Y-82940689D01*
X45609310Y-82778070D01*
X45609303Y-82778064D01*
X45426839Y-82638055D01*
X45227664Y-82523061D01*
X45227654Y-82523057D01*
X45015185Y-82435049D01*
X45015178Y-82435047D01*
X45015176Y-82435046D01*
X44793020Y-82375520D01*
X44793014Y-82375519D01*
X44793009Y-82375518D01*
X44565005Y-82345501D01*
X44565002Y-82345500D01*
X44564996Y-82345500D01*
X44335004Y-82345500D01*
X44334998Y-82345500D01*
X44334994Y-82345501D01*
X44106990Y-82375518D01*
X44106983Y-82375519D01*
X44106980Y-82375520D01*
X43994846Y-82405566D01*
X43884824Y-82435046D01*
X43884814Y-82435049D01*
X43672345Y-82523057D01*
X43672335Y-82523061D01*
X43473160Y-82638055D01*
X43290696Y-82778064D01*
X43290689Y-82778070D01*
X43128070Y-82940689D01*
X43128064Y-82940696D01*
X42988055Y-83123160D01*
X42873061Y-83322335D01*
X42873057Y-83322345D01*
X42785049Y-83534814D01*
X42785046Y-83534824D01*
X42725521Y-83756977D01*
X42725518Y-83756990D01*
X42695501Y-83984994D01*
X42695500Y-83985010D01*
X40750500Y-83985010D01*
X40750500Y-52235304D01*
X70599500Y-52235304D01*
X70599500Y-52412695D01*
X70634103Y-52586658D01*
X70634106Y-52586667D01*
X70701983Y-52750540D01*
X70701990Y-52750553D01*
X70800535Y-52898034D01*
X70800538Y-52898038D01*
X70838180Y-52935679D01*
X70871666Y-52997001D01*
X70874500Y-53023361D01*
X70874500Y-56561608D01*
X70879031Y-56584388D01*
X70879034Y-56584399D01*
X70879672Y-56587607D01*
X70898537Y-56682452D01*
X70909306Y-56708451D01*
X70945688Y-56796286D01*
X70958910Y-56816074D01*
X70970324Y-56833155D01*
X70970325Y-56833157D01*
X71014141Y-56898732D01*
X71014144Y-56898736D01*
X71105586Y-56990178D01*
X71105608Y-56990198D01*
X82214139Y-68098729D01*
X82214142Y-68098733D01*
X82301267Y-68185858D01*
X82378190Y-68237256D01*
X82383990Y-68241132D01*
X82383993Y-68241134D01*
X82403710Y-68254309D01*
X82403712Y-68254310D01*
X82403715Y-68254312D01*
X82470396Y-68281931D01*
X82470398Y-68281933D01*
X82510640Y-68298601D01*
X82517548Y-68301463D01*
X82577971Y-68313481D01*
X82638393Y-68325500D01*
X91261607Y-68325500D01*
X91322029Y-68313481D01*
X91382452Y-68301463D01*
X91415792Y-68287652D01*
X91496286Y-68254312D01*
X91547509Y-68220084D01*
X91598733Y-68185858D01*
X91685858Y-68098733D01*
X91685858Y-68098731D01*
X91696066Y-68088524D01*
X91696067Y-68088521D01*
X96077995Y-63706594D01*
X96139316Y-63673111D01*
X96185068Y-63671804D01*
X96306266Y-63691000D01*
X96306267Y-63691000D01*
X96493739Y-63691000D01*
X96596600Y-63674707D01*
X96678893Y-63661674D01*
X96857185Y-63603743D01*
X97024220Y-63518635D01*
X97175885Y-63408444D01*
X97308444Y-63275885D01*
X97308444Y-63275884D01*
X97311889Y-63272440D01*
X97313478Y-63274029D01*
X97364154Y-63240911D01*
X97434022Y-63240376D01*
X97486816Y-63273734D01*
X97488111Y-63272440D01*
X97491556Y-63275885D01*
X97624115Y-63408444D01*
X97775780Y-63518635D01*
X97942815Y-63603743D01*
X98121107Y-63661674D01*
X98185066Y-63671804D01*
X98306261Y-63691000D01*
X98306266Y-63691000D01*
X98493739Y-63691000D01*
X98596600Y-63674707D01*
X98678893Y-63661674D01*
X98857185Y-63603743D01*
X99024220Y-63518635D01*
X99175885Y-63408444D01*
X99308444Y-63275885D01*
X99308444Y-63275884D01*
X99311889Y-63272440D01*
X99313478Y-63274029D01*
X99364154Y-63240911D01*
X99434022Y-63240376D01*
X99486816Y-63273734D01*
X99488111Y-63272440D01*
X99491556Y-63275885D01*
X99624115Y-63408444D01*
X99775780Y-63518635D01*
X99942815Y-63603743D01*
X100121107Y-63661674D01*
X100185066Y-63671804D01*
X100306261Y-63691000D01*
X100306266Y-63691000D01*
X100493739Y-63691000D01*
X100596600Y-63674707D01*
X100678893Y-63661674D01*
X100857185Y-63603743D01*
X101024220Y-63518635D01*
X101175885Y-63408444D01*
X101308444Y-63275885D01*
X101418635Y-63124220D01*
X101503743Y-62957185D01*
X101561674Y-62778893D01*
X101574707Y-62696600D01*
X101591000Y-62593739D01*
X101591000Y-62406260D01*
X101561674Y-62221110D01*
X101561674Y-62221107D01*
X101503743Y-62042815D01*
X101418635Y-61875780D01*
X101308444Y-61724115D01*
X101175885Y-61591556D01*
X101172440Y-61588111D01*
X101174029Y-61586521D01*
X101140911Y-61535846D01*
X101140376Y-61465978D01*
X101173734Y-61413183D01*
X101172440Y-61411889D01*
X101207425Y-61376904D01*
X101308444Y-61275885D01*
X101418635Y-61124220D01*
X101503743Y-60957185D01*
X101561674Y-60778893D01*
X101574707Y-60696600D01*
X101591000Y-60593739D01*
X101591000Y-60406260D01*
X101561674Y-60221110D01*
X101561674Y-60221107D01*
X101503743Y-60042815D01*
X101418635Y-59875780D01*
X101308444Y-59724115D01*
X101175885Y-59591556D01*
X101024220Y-59481365D01*
X100857185Y-59396257D01*
X100678893Y-59338326D01*
X100678891Y-59338325D01*
X100678889Y-59338325D01*
X100493739Y-59309000D01*
X100493734Y-59309000D01*
X100306266Y-59309000D01*
X100306261Y-59309000D01*
X100121110Y-59338325D01*
X99942812Y-59396258D01*
X99775779Y-59481365D01*
X99746786Y-59502430D01*
X99624115Y-59591556D01*
X99624113Y-59591558D01*
X99624112Y-59591558D01*
X99488111Y-59727560D01*
X99486539Y-59725988D01*
X99435729Y-59759123D01*
X99365861Y-59759590D01*
X99313204Y-59726244D01*
X99311889Y-59727560D01*
X99175887Y-59591558D01*
X99175885Y-59591556D01*
X99024220Y-59481365D01*
X98857185Y-59396257D01*
X98678893Y-59338326D01*
X98678891Y-59338325D01*
X98678889Y-59338325D01*
X98493739Y-59309000D01*
X98493734Y-59309000D01*
X98306266Y-59309000D01*
X98306261Y-59309000D01*
X98121110Y-59338325D01*
X97942812Y-59396258D01*
X97775779Y-59481365D01*
X97746786Y-59502430D01*
X97624115Y-59591556D01*
X97624113Y-59591558D01*
X97624112Y-59591558D01*
X97488111Y-59727560D01*
X97486539Y-59725988D01*
X97435729Y-59759123D01*
X97365861Y-59759590D01*
X97313204Y-59726244D01*
X97311889Y-59727560D01*
X97175887Y-59591558D01*
X97175885Y-59591556D01*
X97024220Y-59481365D01*
X96857185Y-59396257D01*
X96678893Y-59338326D01*
X96678891Y-59338325D01*
X96678889Y-59338325D01*
X96493739Y-59309000D01*
X96493734Y-59309000D01*
X96306266Y-59309000D01*
X96306261Y-59309000D01*
X96121110Y-59338325D01*
X95942812Y-59396258D01*
X95775779Y-59481365D01*
X95746786Y-59502430D01*
X95624115Y-59591556D01*
X95624113Y-59591558D01*
X95624112Y-59591558D01*
X95488111Y-59727560D01*
X95486539Y-59725988D01*
X95435729Y-59759123D01*
X95365861Y-59759590D01*
X95313204Y-59726244D01*
X95311889Y-59727560D01*
X95175887Y-59591558D01*
X95175885Y-59591556D01*
X95024220Y-59481365D01*
X94857185Y-59396257D01*
X94678893Y-59338326D01*
X94678891Y-59338325D01*
X94678889Y-59338325D01*
X94493739Y-59309000D01*
X94493734Y-59309000D01*
X94306266Y-59309000D01*
X94306261Y-59309000D01*
X94121110Y-59338325D01*
X93942812Y-59396258D01*
X93775779Y-59481365D01*
X93746786Y-59502430D01*
X93624115Y-59591556D01*
X93624113Y-59591558D01*
X93624112Y-59591558D01*
X93488111Y-59727560D01*
X93486539Y-59725988D01*
X93435729Y-59759123D01*
X93365861Y-59759590D01*
X93313204Y-59726244D01*
X93311889Y-59727560D01*
X93175887Y-59591558D01*
X93175885Y-59591556D01*
X93024220Y-59481365D01*
X92857185Y-59396257D01*
X92678893Y-59338326D01*
X92678891Y-59338325D01*
X92678889Y-59338325D01*
X92493739Y-59309000D01*
X92493734Y-59309000D01*
X92306266Y-59309000D01*
X92306261Y-59309000D01*
X92121110Y-59338325D01*
X91942812Y-59396258D01*
X91775779Y-59481365D01*
X91746786Y-59502430D01*
X91624115Y-59591556D01*
X91624113Y-59591558D01*
X91624112Y-59591558D01*
X91488111Y-59727560D01*
X91486539Y-59725988D01*
X91435729Y-59759123D01*
X91365861Y-59759590D01*
X91313204Y-59726244D01*
X91311889Y-59727560D01*
X91175887Y-59591558D01*
X91175885Y-59591556D01*
X91024220Y-59481365D01*
X90857185Y-59396257D01*
X90678893Y-59338326D01*
X90678891Y-59338325D01*
X90678889Y-59338325D01*
X90493739Y-59309000D01*
X90493734Y-59309000D01*
X90306266Y-59309000D01*
X90306261Y-59309000D01*
X90121110Y-59338325D01*
X89942812Y-59396258D01*
X89775779Y-59481365D01*
X89746786Y-59502430D01*
X89624115Y-59591556D01*
X89624113Y-59591558D01*
X89624112Y-59591558D01*
X89488111Y-59727560D01*
X89486539Y-59725988D01*
X89435729Y-59759123D01*
X89365861Y-59759590D01*
X89313204Y-59726244D01*
X89311889Y-59727560D01*
X89175887Y-59591558D01*
X89175885Y-59591556D01*
X89024220Y-59481365D01*
X88857185Y-59396257D01*
X88678893Y-59338326D01*
X88678891Y-59338325D01*
X88678889Y-59338325D01*
X88493739Y-59309000D01*
X88493734Y-59309000D01*
X88306266Y-59309000D01*
X88306261Y-59309000D01*
X88121110Y-59338325D01*
X87942812Y-59396258D01*
X87775779Y-59481365D01*
X87746786Y-59502430D01*
X87624115Y-59591556D01*
X87624113Y-59591558D01*
X87624112Y-59591558D01*
X87488111Y-59727560D01*
X87486539Y-59725988D01*
X87435729Y-59759123D01*
X87365861Y-59759590D01*
X87313204Y-59726244D01*
X87311889Y-59727560D01*
X87175887Y-59591558D01*
X87175885Y-59591556D01*
X87024220Y-59481365D01*
X86857185Y-59396257D01*
X86678893Y-59338326D01*
X86678891Y-59338325D01*
X86678889Y-59338325D01*
X86493739Y-59309000D01*
X86493734Y-59309000D01*
X86306266Y-59309000D01*
X86306261Y-59309000D01*
X86121110Y-59338325D01*
X85942812Y-59396258D01*
X85775779Y-59481365D01*
X85746786Y-59502430D01*
X85624115Y-59591556D01*
X85624113Y-59591558D01*
X85624112Y-59591558D01*
X85491558Y-59724112D01*
X85491558Y-59724113D01*
X85491556Y-59724115D01*
X85472059Y-59750951D01*
X85381365Y-59875779D01*
X85296258Y-60042812D01*
X85238325Y-60221110D01*
X85209000Y-60406260D01*
X85209000Y-60593739D01*
X85238325Y-60778889D01*
X85238326Y-60778893D01*
X85296257Y-60957185D01*
X85381365Y-61124220D01*
X85491556Y-61275885D01*
X85491558Y-61275887D01*
X85627560Y-61411889D01*
X85625988Y-61413460D01*
X85659123Y-61464271D01*
X85659590Y-61534139D01*
X85626244Y-61586795D01*
X85627560Y-61588111D01*
X85491558Y-61724112D01*
X85491558Y-61724113D01*
X85491556Y-61724115D01*
X85448963Y-61782739D01*
X85381365Y-61875779D01*
X85296258Y-62042812D01*
X85238325Y-62221110D01*
X85209000Y-62406260D01*
X85209000Y-62593739D01*
X85238325Y-62778889D01*
X85238326Y-62778893D01*
X85296257Y-62957185D01*
X85381365Y-63124220D01*
X85491556Y-63275885D01*
X85624115Y-63408444D01*
X85775780Y-63518635D01*
X85942815Y-63603743D01*
X86121107Y-63661674D01*
X86185066Y-63671804D01*
X86306261Y-63691000D01*
X86306266Y-63691000D01*
X86493739Y-63691000D01*
X86596600Y-63674707D01*
X86678893Y-63661674D01*
X86857185Y-63603743D01*
X87024220Y-63518635D01*
X87175885Y-63408444D01*
X87308444Y-63275885D01*
X87308444Y-63275884D01*
X87311889Y-63272440D01*
X87313478Y-63274029D01*
X87364154Y-63240911D01*
X87434022Y-63240376D01*
X87486816Y-63273734D01*
X87488111Y-63272440D01*
X87491556Y-63275885D01*
X87624115Y-63408444D01*
X87775780Y-63518635D01*
X87942815Y-63603743D01*
X88121107Y-63661674D01*
X88185066Y-63671804D01*
X88306261Y-63691000D01*
X88306266Y-63691000D01*
X88493739Y-63691000D01*
X88596600Y-63674707D01*
X88678893Y-63661674D01*
X88857185Y-63603743D01*
X89024220Y-63518635D01*
X89175885Y-63408444D01*
X89308444Y-63275885D01*
X89308444Y-63275884D01*
X89311889Y-63272440D01*
X89313478Y-63274029D01*
X89364154Y-63240911D01*
X89434022Y-63240376D01*
X89486816Y-63273734D01*
X89488111Y-63272440D01*
X89491556Y-63275885D01*
X89624115Y-63408444D01*
X89775780Y-63518635D01*
X89942815Y-63603743D01*
X90121107Y-63661674D01*
X90185066Y-63671804D01*
X90306261Y-63691000D01*
X90306266Y-63691000D01*
X90493739Y-63691000D01*
X90596600Y-63674707D01*
X90678893Y-63661674D01*
X90857185Y-63603743D01*
X91024220Y-63518635D01*
X91175885Y-63408444D01*
X91308444Y-63275885D01*
X91308444Y-63275884D01*
X91311889Y-63272440D01*
X91313478Y-63274029D01*
X91364154Y-63240911D01*
X91434022Y-63240376D01*
X91486816Y-63273734D01*
X91488111Y-63272440D01*
X91491556Y-63275885D01*
X91624115Y-63408444D01*
X91775780Y-63518635D01*
X91942815Y-63603743D01*
X92104243Y-63656194D01*
X92161916Y-63695630D01*
X92189115Y-63759989D01*
X92177200Y-63828835D01*
X92153604Y-63861805D01*
X89877229Y-66138181D01*
X89815906Y-66171666D01*
X89789548Y-66174500D01*
X86160046Y-66174500D01*
X86093007Y-66154815D01*
X86047252Y-66102011D01*
X86037308Y-66032853D01*
X86045485Y-66003047D01*
X86045867Y-66002125D01*
X86117819Y-65828417D01*
X86154500Y-65644010D01*
X86154500Y-65455990D01*
X86154500Y-65455987D01*
X86154499Y-65455985D01*
X86117820Y-65271590D01*
X86117819Y-65271583D01*
X86117817Y-65271578D01*
X86045870Y-65097881D01*
X86045863Y-65097868D01*
X85941408Y-64941542D01*
X85941405Y-64941538D01*
X85808461Y-64808594D01*
X85808457Y-64808591D01*
X85652131Y-64704136D01*
X85652118Y-64704129D01*
X85478421Y-64632182D01*
X85478409Y-64632179D01*
X85294013Y-64595500D01*
X85294010Y-64595500D01*
X85105990Y-64595500D01*
X85105987Y-64595500D01*
X84921590Y-64632179D01*
X84921578Y-64632182D01*
X84747881Y-64704129D01*
X84747868Y-64704136D01*
X84591542Y-64808591D01*
X84591538Y-64808594D01*
X84458594Y-64941538D01*
X84458591Y-64941542D01*
X84354136Y-65097868D01*
X84354129Y-65097881D01*
X84282182Y-65271578D01*
X84282179Y-65271590D01*
X84245500Y-65455985D01*
X84245500Y-65644014D01*
X84282179Y-65828409D01*
X84282181Y-65828417D01*
X84354515Y-66003047D01*
X84358022Y-66035675D01*
X84362692Y-66068147D01*
X84361738Y-66070234D01*
X84361984Y-66072517D01*
X84347295Y-66101860D01*
X84333667Y-66131703D01*
X84331736Y-66132943D01*
X84330709Y-66134996D01*
X84302493Y-66151736D01*
X84274889Y-66169477D01*
X84271859Y-66169912D01*
X84270620Y-66170648D01*
X84239954Y-66174500D01*
X84010452Y-66174500D01*
X83943413Y-66154815D01*
X83922771Y-66138181D01*
X74087819Y-56303229D01*
X74054334Y-56241906D01*
X74051500Y-56215548D01*
X74051500Y-54039361D01*
X74071185Y-53972322D01*
X74087820Y-53951679D01*
X74125461Y-53914038D01*
X74125464Y-53914035D01*
X74224013Y-53766547D01*
X74291894Y-53602666D01*
X74326500Y-53428691D01*
X74326500Y-53251309D01*
X74326500Y-53251306D01*
X74326499Y-53251304D01*
X74295944Y-53097691D01*
X74302171Y-53028100D01*
X74345034Y-52972922D01*
X74410924Y-52949678D01*
X74417561Y-52949500D01*
X75246639Y-52949500D01*
X75313678Y-52969185D01*
X75334321Y-52985820D01*
X75371961Y-53023461D01*
X75371965Y-53023464D01*
X75519446Y-53122009D01*
X75519459Y-53122016D01*
X75636512Y-53170500D01*
X75683334Y-53189894D01*
X75683336Y-53189894D01*
X75683341Y-53189896D01*
X75857304Y-53224499D01*
X75857307Y-53224500D01*
X75857309Y-53224500D01*
X76034693Y-53224500D01*
X76034694Y-53224499D01*
X76092682Y-53212964D01*
X76208658Y-53189896D01*
X76208661Y-53189894D01*
X76208666Y-53189894D01*
X76372547Y-53122013D01*
X76520035Y-53023464D01*
X76645464Y-52898035D01*
X76744013Y-52750547D01*
X76811894Y-52586666D01*
X76846500Y-52412691D01*
X76846500Y-52235309D01*
X76846500Y-52235306D01*
X76846499Y-52235304D01*
X76811896Y-52061341D01*
X76811893Y-52061332D01*
X76744016Y-51897459D01*
X76744009Y-51897446D01*
X76645464Y-51749965D01*
X76645461Y-51749961D01*
X76520038Y-51624538D01*
X76520034Y-51624535D01*
X76372553Y-51525990D01*
X76372540Y-51525983D01*
X76208667Y-51458106D01*
X76208658Y-51458103D01*
X76034694Y-51423500D01*
X76034691Y-51423500D01*
X75857309Y-51423500D01*
X75857306Y-51423500D01*
X75683341Y-51458103D01*
X75683332Y-51458106D01*
X75519459Y-51525983D01*
X75519446Y-51525990D01*
X75371965Y-51624535D01*
X75371961Y-51624538D01*
X75334321Y-51662180D01*
X75272999Y-51695666D01*
X75246639Y-51698500D01*
X72199361Y-51698500D01*
X72132322Y-51678815D01*
X72111679Y-51662180D01*
X72074038Y-51624538D01*
X72074034Y-51624535D01*
X71926553Y-51525990D01*
X71926540Y-51525983D01*
X71762667Y-51458106D01*
X71762658Y-51458103D01*
X71588694Y-51423500D01*
X71588691Y-51423500D01*
X71411309Y-51423500D01*
X71411306Y-51423500D01*
X71237341Y-51458103D01*
X71237332Y-51458106D01*
X71073459Y-51525983D01*
X71073446Y-51525990D01*
X70925965Y-51624535D01*
X70925961Y-51624538D01*
X70800538Y-51749961D01*
X70800535Y-51749965D01*
X70701990Y-51897446D01*
X70701983Y-51897459D01*
X70634106Y-52061332D01*
X70634103Y-52061341D01*
X70599500Y-52235304D01*
X40750500Y-52235304D01*
X40750500Y-40550000D01*
X62061500Y-40550000D01*
X62061500Y-49279000D01*
X62061501Y-49279009D01*
X62073052Y-49386450D01*
X62073054Y-49386462D01*
X62084260Y-49437972D01*
X62118383Y-49540497D01*
X62118386Y-49540503D01*
X62196171Y-49661537D01*
X62196179Y-49661548D01*
X62241923Y-49714340D01*
X62241926Y-49714343D01*
X62241930Y-49714347D01*
X62350664Y-49808567D01*
X62481541Y-49868338D01*
X62548580Y-49888023D01*
X62548584Y-49888024D01*
X62691000Y-49908500D01*
X115350288Y-49908500D01*
X115417327Y-49928185D01*
X115427447Y-49935430D01*
X121733353Y-54947862D01*
X121773584Y-55004986D01*
X121776545Y-55074793D01*
X121771161Y-55091390D01*
X114756516Y-72449660D01*
X114713148Y-72504441D01*
X114647047Y-72527079D01*
X114641462Y-72527201D01*
X68540908Y-72494876D01*
X68128440Y-72494587D01*
X68128439Y-72494587D01*
X68128436Y-72494587D01*
X68020813Y-72506101D01*
X68020788Y-72506105D01*
X67969202Y-72517309D01*
X67969199Y-72517310D01*
X67866499Y-72551472D01*
X67866492Y-72551476D01*
X67745462Y-72629257D01*
X67745451Y-72629266D01*
X67692659Y-72675010D01*
X67598433Y-72783751D01*
X67598430Y-72783755D01*
X67538664Y-72914621D01*
X67518976Y-72981669D01*
X67498500Y-73124088D01*
X67498500Y-76470000D01*
X67478815Y-76537039D01*
X67426011Y-76582794D01*
X67374500Y-76594000D01*
X66000000Y-76594000D01*
X66000000Y-77666768D01*
X65856247Y-77644000D01*
X65643753Y-77644000D01*
X65500000Y-77666768D01*
X65500000Y-76594000D01*
X63802155Y-76594000D01*
X63742627Y-76600401D01*
X63742620Y-76600403D01*
X63607913Y-76650645D01*
X63607906Y-76650649D01*
X63492812Y-76736809D01*
X63492809Y-76736812D01*
X63406649Y-76851906D01*
X63406645Y-76851913D01*
X63356403Y-76986620D01*
X63356401Y-76986627D01*
X63350000Y-77046155D01*
X63350000Y-78744000D01*
X64422769Y-78744000D01*
X64400000Y-78887753D01*
X64400000Y-79100247D01*
X64422769Y-79244000D01*
X63350000Y-79244000D01*
X63350000Y-80941844D01*
X63356401Y-81001372D01*
X63356403Y-81001379D01*
X63406645Y-81136086D01*
X63406649Y-81136093D01*
X63492809Y-81251187D01*
X63492812Y-81251190D01*
X63607906Y-81337350D01*
X63607913Y-81337354D01*
X63742620Y-81387596D01*
X63742627Y-81387598D01*
X63802155Y-81393999D01*
X63802172Y-81394000D01*
X65500000Y-81394000D01*
X65500000Y-80321231D01*
X65643753Y-80344000D01*
X65856247Y-80344000D01*
X66000000Y-80321231D01*
X66000000Y-81394000D01*
X67389408Y-81394000D01*
X67414882Y-81401480D01*
X67441159Y-81405315D01*
X67447889Y-81411172D01*
X67456447Y-81413685D01*
X67473832Y-81433748D01*
X67493865Y-81451182D01*
X67498351Y-81462045D01*
X67502202Y-81466489D01*
X67508459Y-81483318D01*
X67509663Y-81487450D01*
X67523997Y-81553341D01*
X67536447Y-81580604D01*
X67539283Y-81589124D01*
X67539287Y-81589138D01*
X67555383Y-81637496D01*
X67555385Y-81637500D01*
X67574926Y-81667907D01*
X67581526Y-81679505D01*
X67582504Y-81681462D01*
X67583764Y-81684221D01*
X67584297Y-81685051D01*
X67584307Y-81685070D01*
X67620524Y-81741423D01*
X67621307Y-81742684D01*
X67621542Y-81743009D01*
X67621550Y-81743018D01*
X67622109Y-81743663D01*
X67632719Y-81757836D01*
X67633167Y-81758534D01*
X67633172Y-81758541D01*
X67639382Y-81765707D01*
X67639384Y-81765710D01*
X67647322Y-81774872D01*
X67649685Y-81777599D01*
X67649690Y-81777604D01*
X67678930Y-81811349D01*
X67678933Y-81811351D01*
X67678936Y-81811355D01*
X67679578Y-81811911D01*
X67692091Y-81824423D01*
X67711636Y-81846977D01*
X67715775Y-81851753D01*
X67746182Y-81871293D01*
X67760339Y-81881890D01*
X67787663Y-81905566D01*
X67818922Y-81919841D01*
X67820557Y-81920588D01*
X67832392Y-81926784D01*
X67834251Y-81927888D01*
X67836816Y-81929537D01*
X67845052Y-81933298D01*
X67876322Y-81947578D01*
X67876322Y-81947579D01*
X67900191Y-81958479D01*
X67900381Y-81958567D01*
X67900394Y-81958572D01*
X67901198Y-81958808D01*
X67917806Y-81965002D01*
X67918536Y-81965335D01*
X67918540Y-81965337D01*
X67943891Y-81972781D01*
X67943891Y-81972780D01*
X67976869Y-81982463D01*
X67976869Y-81982464D01*
X67984713Y-81984767D01*
X67985539Y-81985017D01*
X67985580Y-81985023D01*
X67985584Y-81985024D01*
X67986448Y-81985148D01*
X68003735Y-81988907D01*
X68038446Y-81999097D01*
X68074577Y-81999094D01*
X68092216Y-82000355D01*
X68128000Y-82005500D01*
X68128003Y-82005500D01*
X69648571Y-82005500D01*
X69750975Y-81995019D01*
X69800175Y-81984841D01*
X69898345Y-81953827D01*
X70020946Y-81878523D01*
X70074672Y-81833854D01*
X70171087Y-81727065D01*
X70233515Y-81597433D01*
X70247106Y-81554413D01*
X70286071Y-81496418D01*
X70350205Y-81468695D01*
X70379229Y-81468547D01*
X70548352Y-81487601D01*
X70609569Y-81494499D01*
X70609572Y-81494500D01*
X70609575Y-81494500D01*
X70890428Y-81494500D01*
X70890428Y-81494499D01*
X71122219Y-81468383D01*
X71191041Y-81480437D01*
X71242421Y-81527786D01*
X71255080Y-81556667D01*
X71264614Y-81589138D01*
X71278816Y-81637503D01*
X71278818Y-81637507D01*
X71356600Y-81758537D01*
X71356608Y-81758548D01*
X71402352Y-81811340D01*
X71402355Y-81811343D01*
X71402359Y-81811347D01*
X71511093Y-81905567D01*
X71511096Y-81905568D01*
X71511097Y-81905569D01*
X71627671Y-81958808D01*
X71641970Y-81965338D01*
X71709009Y-81985023D01*
X71709013Y-81985024D01*
X71851429Y-82005500D01*
X71851432Y-82005500D01*
X73679990Y-82005500D01*
X73680000Y-82005500D01*
X73787456Y-81993947D01*
X73838967Y-81982741D01*
X73873197Y-81971347D01*
X73941497Y-81948616D01*
X73941501Y-81948613D01*
X73941504Y-81948613D01*
X74062543Y-81870825D01*
X74115347Y-81825070D01*
X74209567Y-81716336D01*
X74269338Y-81585459D01*
X74289023Y-81518420D01*
X74289024Y-81518416D01*
X74309500Y-81376000D01*
X74309500Y-75629500D01*
X74329185Y-75562461D01*
X74381989Y-75516706D01*
X74433500Y-75505500D01*
X96170500Y-75505500D01*
X96237539Y-75525185D01*
X96283294Y-75577989D01*
X96294500Y-75629500D01*
X96294500Y-76470000D01*
X96274815Y-76537039D01*
X96222011Y-76582794D01*
X96170500Y-76594000D01*
X94750000Y-76594000D01*
X94750000Y-77666768D01*
X94606247Y-77644000D01*
X94393753Y-77644000D01*
X94250000Y-77666768D01*
X94250000Y-76594000D01*
X92552155Y-76594000D01*
X92492627Y-76600401D01*
X92492620Y-76600403D01*
X92357913Y-76650645D01*
X92357906Y-76650649D01*
X92242812Y-76736809D01*
X92242809Y-76736812D01*
X92156649Y-76851906D01*
X92156645Y-76851913D01*
X92106403Y-76986620D01*
X92106401Y-76986627D01*
X92100000Y-77046155D01*
X92100000Y-78744000D01*
X93172769Y-78744000D01*
X93150000Y-78887753D01*
X93150000Y-79100247D01*
X93172769Y-79244000D01*
X92100000Y-79244000D01*
X92100000Y-80941844D01*
X92106401Y-81001372D01*
X92106403Y-81001379D01*
X92156645Y-81136086D01*
X92156649Y-81136093D01*
X92242809Y-81251187D01*
X92242812Y-81251190D01*
X92357906Y-81337350D01*
X92357913Y-81337354D01*
X92492620Y-81387596D01*
X92492627Y-81387598D01*
X92552155Y-81393999D01*
X92552172Y-81394000D01*
X94250000Y-81394000D01*
X94250000Y-80321231D01*
X94393753Y-80344000D01*
X94606247Y-80344000D01*
X94750000Y-80321231D01*
X94750000Y-81394000D01*
X96170500Y-81394000D01*
X96237539Y-81413685D01*
X96283294Y-81466489D01*
X96294500Y-81518000D01*
X96294500Y-81876000D01*
X96294501Y-81876009D01*
X96306052Y-81983450D01*
X96306054Y-81983462D01*
X96317260Y-82034972D01*
X96351383Y-82137497D01*
X96351386Y-82137503D01*
X96429171Y-82258537D01*
X96429179Y-82258548D01*
X96474923Y-82311340D01*
X96474926Y-82311343D01*
X96474930Y-82311347D01*
X96583664Y-82405567D01*
X96583667Y-82405568D01*
X96583668Y-82405569D01*
X96677925Y-82448616D01*
X96714541Y-82465338D01*
X96781580Y-82485023D01*
X96781584Y-82485024D01*
X96924000Y-82505500D01*
X96924003Y-82505500D01*
X102375990Y-82505500D01*
X102376000Y-82505500D01*
X102483456Y-82493947D01*
X102534967Y-82482741D01*
X102569197Y-82471347D01*
X102637497Y-82448616D01*
X102637501Y-82448613D01*
X102637504Y-82448613D01*
X102758543Y-82370825D01*
X102811347Y-82325070D01*
X102905567Y-82216336D01*
X102965338Y-82085459D01*
X102985023Y-82018420D01*
X102985024Y-82018416D01*
X103005500Y-81876000D01*
X103005500Y-75629500D01*
X103025185Y-75562461D01*
X103077989Y-75516706D01*
X103129500Y-75505500D01*
X116414861Y-75505500D01*
X116430283Y-75505264D01*
X116430313Y-75505263D01*
X116430318Y-75505263D01*
X116432984Y-75505181D01*
X116437955Y-75505029D01*
X116453404Y-75504317D01*
X116453407Y-75504316D01*
X116453414Y-75504316D01*
X116594307Y-75475149D01*
X116660014Y-75451392D01*
X116786981Y-75383712D01*
X116889739Y-75283003D01*
X116932171Y-75227494D01*
X117002392Y-75101916D01*
X117762860Y-73124088D01*
X122440988Y-60957185D01*
X123330378Y-58644053D01*
X123372810Y-58588545D01*
X123438517Y-58564788D01*
X123506637Y-58580327D01*
X123546957Y-58617575D01*
X123547053Y-58617497D01*
X123547619Y-58618187D01*
X123549220Y-58619666D01*
X123550915Y-58622203D01*
X123550919Y-58622208D01*
X123697792Y-58769081D01*
X123697796Y-58769084D01*
X123870507Y-58884487D01*
X123870508Y-58884487D01*
X123870509Y-58884488D01*
X123870511Y-58884489D01*
X124062409Y-58963975D01*
X124062414Y-58963977D01*
X124266136Y-59004500D01*
X124266139Y-59004501D01*
X124266141Y-59004501D01*
X124473861Y-59004501D01*
X124553372Y-58988685D01*
X124622964Y-58994912D01*
X124678141Y-59037775D01*
X124701386Y-59103664D01*
X124701561Y-59109432D01*
X124701816Y-59145856D01*
X124701816Y-59145857D01*
X124711511Y-59240898D01*
X124720609Y-59286653D01*
X124748013Y-59378179D01*
X124820539Y-59502430D01*
X124820544Y-59502438D01*
X124863995Y-59557153D01*
X124931388Y-59620803D01*
X124966610Y-59681145D01*
X124963618Y-59750951D01*
X124928106Y-59804091D01*
X124900752Y-59828131D01*
X124807297Y-59937523D01*
X124807296Y-59937524D01*
X124748447Y-60068811D01*
X124729231Y-60135991D01*
X124729229Y-60136002D01*
X124709753Y-60278542D01*
X124709753Y-60278548D01*
X124715649Y-61119808D01*
X124715649Y-61119814D01*
X124727568Y-61225445D01*
X124727569Y-61225450D01*
X124727570Y-61225456D01*
X124738773Y-61276098D01*
X124752941Y-61318417D01*
X124772521Y-61376904D01*
X124774312Y-61380638D01*
X124774824Y-61383783D01*
X124774967Y-61384209D01*
X124774897Y-61384232D01*
X124776274Y-61392680D01*
X124782539Y-61403151D01*
X124781789Y-61426521D01*
X124785550Y-61449598D01*
X124780634Y-61462512D01*
X124780299Y-61472985D01*
X124764616Y-61504603D01*
X124744310Y-61534078D01*
X124743755Y-61534869D01*
X124743690Y-61534977D01*
X124679755Y-61663881D01*
X124174799Y-63199791D01*
X119925990Y-76123252D01*
X119907065Y-76201184D01*
X119907063Y-76201196D01*
X119900863Y-76239900D01*
X119900860Y-76239923D01*
X119894500Y-76319842D01*
X119894500Y-76319860D01*
X119894500Y-81776000D01*
X119894501Y-81776009D01*
X119906052Y-81883450D01*
X119906054Y-81883462D01*
X119917260Y-81934972D01*
X119951383Y-82037497D01*
X119951386Y-82037503D01*
X120029171Y-82158537D01*
X120029179Y-82158548D01*
X120074923Y-82211340D01*
X120074926Y-82211343D01*
X120074930Y-82211347D01*
X120183664Y-82305567D01*
X120183667Y-82305568D01*
X120183668Y-82305569D01*
X120271102Y-82345500D01*
X120314541Y-82365338D01*
X120381580Y-82385023D01*
X120381584Y-82385024D01*
X120524000Y-82405500D01*
X120524003Y-82405500D01*
X125370490Y-82405500D01*
X125370500Y-82405500D01*
X125477956Y-82393947D01*
X125529467Y-82382741D01*
X125632004Y-82348613D01*
X125677198Y-82319567D01*
X125744236Y-82299882D01*
X125795751Y-82311088D01*
X125877921Y-82348614D01*
X125914541Y-82365338D01*
X125981580Y-82385023D01*
X125981584Y-82385024D01*
X126124000Y-82405500D01*
X126124003Y-82405500D01*
X131089268Y-82405500D01*
X131089275Y-82405500D01*
X131168666Y-82399227D01*
X131207131Y-82393110D01*
X131284546Y-82374447D01*
X131413585Y-82310804D01*
X131471211Y-82271295D01*
X131471213Y-82271293D01*
X131471220Y-82271286D01*
X131471774Y-82270826D01*
X131473062Y-82269590D01*
X131577094Y-82173873D01*
X131651239Y-82050569D01*
X131678357Y-81986176D01*
X131714761Y-81846977D01*
X131714762Y-81846967D01*
X131714764Y-81846958D01*
X133249113Y-68325500D01*
X133301486Y-67863966D01*
X133303902Y-67835524D01*
X133304693Y-67821543D01*
X133305500Y-67792989D01*
X133305500Y-61929500D01*
X133325185Y-61862461D01*
X133377989Y-61816706D01*
X133429500Y-61805500D01*
X133675990Y-61805500D01*
X133676000Y-61805500D01*
X133783456Y-61793947D01*
X133834967Y-61782741D01*
X133869197Y-61771347D01*
X133937497Y-61748616D01*
X133937501Y-61748613D01*
X133937504Y-61748613D01*
X134058543Y-61670825D01*
X134111347Y-61625070D01*
X134205567Y-61516336D01*
X134265338Y-61385459D01*
X134285023Y-61318420D01*
X134285024Y-61318416D01*
X134305500Y-61176000D01*
X134305500Y-39624000D01*
X134293947Y-39516544D01*
X134282741Y-39465033D01*
X134282637Y-39464722D01*
X134248616Y-39362502D01*
X134248613Y-39362496D01*
X134197950Y-39283664D01*
X134170825Y-39241457D01*
X134170820Y-39241451D01*
X134125076Y-39188659D01*
X134125072Y-39188656D01*
X134125070Y-39188653D01*
X134016336Y-39094433D01*
X134016333Y-39094431D01*
X134016331Y-39094430D01*
X133885465Y-39034664D01*
X133885460Y-39034662D01*
X133885459Y-39034662D01*
X133818420Y-39014977D01*
X133818422Y-39014977D01*
X133818417Y-39014976D01*
X133756347Y-39006052D01*
X133676000Y-38994500D01*
X126324000Y-38994500D01*
X126323991Y-38994500D01*
X126323990Y-38994501D01*
X126216549Y-39006052D01*
X126216537Y-39006054D01*
X126165027Y-39017260D01*
X126062502Y-39051383D01*
X126062496Y-39051386D01*
X125941462Y-39129171D01*
X125941451Y-39129179D01*
X125888659Y-39174923D01*
X125794433Y-39283664D01*
X125794430Y-39283668D01*
X125734664Y-39414534D01*
X125733211Y-39418431D01*
X125691336Y-39474362D01*
X125625871Y-39498776D01*
X125599385Y-39497829D01*
X125576231Y-39494500D01*
X124613889Y-39494500D01*
X124511485Y-39504980D01*
X124462278Y-39515160D01*
X124364118Y-39546172D01*
X124364115Y-39546173D01*
X124338439Y-39561944D01*
X124241515Y-39621476D01*
X124187788Y-39666145D01*
X124091372Y-39772935D01*
X124028944Y-39902567D01*
X124016754Y-39941151D01*
X123977787Y-39999145D01*
X123913652Y-40026867D01*
X123884632Y-40027014D01*
X123640431Y-39999500D01*
X123640425Y-39999500D01*
X123359575Y-39999500D01*
X123359568Y-39999500D01*
X123114013Y-40027167D01*
X123045191Y-40015112D01*
X122993812Y-39967763D01*
X122981153Y-39938882D01*
X122979148Y-39932053D01*
X122958724Y-39862496D01*
X122880936Y-39741457D01*
X122880931Y-39741451D01*
X122835187Y-39688659D01*
X122835183Y-39688656D01*
X122835181Y-39688653D01*
X122726447Y-39594433D01*
X122726444Y-39594431D01*
X122726442Y-39594430D01*
X122595576Y-39534664D01*
X122595571Y-39534662D01*
X122595570Y-39534662D01*
X122533844Y-39516537D01*
X122528528Y-39514976D01*
X122459002Y-39504980D01*
X122386111Y-39494500D01*
X120624000Y-39494500D01*
X120623991Y-39494500D01*
X120623990Y-39494501D01*
X120516549Y-39506052D01*
X120516537Y-39506054D01*
X120465027Y-39517260D01*
X120362502Y-39551383D01*
X120362496Y-39551386D01*
X120241462Y-39629171D01*
X120241451Y-39629179D01*
X120188659Y-39674923D01*
X120094433Y-39783664D01*
X120094430Y-39783668D01*
X120034664Y-39914534D01*
X120014976Y-39981582D01*
X120012250Y-40000545D01*
X119994500Y-40124000D01*
X119994500Y-47376000D01*
X119994501Y-47376009D01*
X120006052Y-47483450D01*
X120006054Y-47483462D01*
X120017260Y-47534972D01*
X120051383Y-47637497D01*
X120051386Y-47637503D01*
X120129171Y-47758537D01*
X120129179Y-47758548D01*
X120174923Y-47811340D01*
X120174926Y-47811343D01*
X120174930Y-47811347D01*
X120283664Y-47905567D01*
X120414541Y-47965338D01*
X120481580Y-47985023D01*
X120481584Y-47985024D01*
X120624000Y-48005500D01*
X127670500Y-48005500D01*
X127737539Y-48025185D01*
X127783294Y-48077989D01*
X127794500Y-48129500D01*
X127794500Y-53170500D01*
X127774815Y-53237539D01*
X127722011Y-53283294D01*
X127670500Y-53294500D01*
X124229308Y-53294500D01*
X124162269Y-53274815D01*
X124149552Y-53265447D01*
X124132721Y-53251309D01*
X116859720Y-47141988D01*
X116834392Y-47122055D01*
X116834377Y-47122043D01*
X116821688Y-47112695D01*
X116795170Y-47094435D01*
X116795169Y-47094434D01*
X116795167Y-47094433D01*
X116712729Y-47056783D01*
X116664293Y-47034663D01*
X116597248Y-47014976D01*
X116549775Y-47008150D01*
X116454831Y-46994500D01*
X116454829Y-46994500D01*
X97570500Y-46994500D01*
X97503461Y-46974815D01*
X97457706Y-46922011D01*
X97446500Y-46870500D01*
X97446500Y-45450000D01*
X97466185Y-45382961D01*
X97518989Y-45337206D01*
X97570500Y-45326000D01*
X99191000Y-45326000D01*
X99191000Y-44253231D01*
X99334753Y-44276000D01*
X99547247Y-44276000D01*
X99691000Y-44253231D01*
X99691000Y-45326000D01*
X101388828Y-45326000D01*
X101388844Y-45325999D01*
X101448372Y-45319598D01*
X101448379Y-45319596D01*
X101583086Y-45269354D01*
X101583093Y-45269350D01*
X101698187Y-45183190D01*
X101698190Y-45183187D01*
X101784350Y-45068093D01*
X101784354Y-45068086D01*
X101834596Y-44933379D01*
X101834598Y-44933372D01*
X101840999Y-44873844D01*
X101841000Y-44873827D01*
X101841000Y-43176000D01*
X100768231Y-43176000D01*
X100791000Y-43032247D01*
X100791000Y-42819753D01*
X100768231Y-42676000D01*
X101841000Y-42676000D01*
X101841000Y-40978172D01*
X101840999Y-40978155D01*
X101834598Y-40918627D01*
X101834596Y-40918620D01*
X101784354Y-40783913D01*
X101784350Y-40783906D01*
X101698190Y-40668812D01*
X101698187Y-40668809D01*
X101583093Y-40582649D01*
X101583086Y-40582645D01*
X101448379Y-40532403D01*
X101448372Y-40532401D01*
X101388844Y-40526000D01*
X99691000Y-40526000D01*
X99691000Y-41598768D01*
X99547247Y-41576000D01*
X99334753Y-41576000D01*
X99191000Y-41598768D01*
X99191000Y-40526000D01*
X97553027Y-40526000D01*
X97485988Y-40506315D01*
X97440233Y-40453511D01*
X97431861Y-40428359D01*
X97431162Y-40425145D01*
X97423741Y-40391033D01*
X97415037Y-40364882D01*
X97389616Y-40288502D01*
X97389613Y-40288496D01*
X97317783Y-40176728D01*
X97311825Y-40167457D01*
X97303892Y-40158302D01*
X97266076Y-40114659D01*
X97266072Y-40114656D01*
X97266070Y-40114653D01*
X97157336Y-40020433D01*
X97157333Y-40020431D01*
X97157331Y-40020430D01*
X97026465Y-39960664D01*
X97026460Y-39960662D01*
X97026459Y-39960662D01*
X96968135Y-39943536D01*
X96959417Y-39940976D01*
X96889891Y-39930980D01*
X96817000Y-39920500D01*
X95554889Y-39920500D01*
X95452485Y-39930980D01*
X95403278Y-39941160D01*
X95314554Y-39969191D01*
X95305115Y-39972173D01*
X95254148Y-40003478D01*
X95182515Y-40047476D01*
X95128788Y-40092145D01*
X95032372Y-40198935D01*
X94969944Y-40328567D01*
X94957754Y-40367151D01*
X94918787Y-40425145D01*
X94854652Y-40452867D01*
X94825632Y-40453014D01*
X94581431Y-40425500D01*
X94581425Y-40425500D01*
X94300575Y-40425500D01*
X94300568Y-40425500D01*
X94055013Y-40453167D01*
X93986191Y-40441112D01*
X93934812Y-40393763D01*
X93922153Y-40364882D01*
X93911490Y-40328567D01*
X93899724Y-40288496D01*
X93821936Y-40167457D01*
X93814003Y-40158302D01*
X93776187Y-40114659D01*
X93776183Y-40114656D01*
X93776181Y-40114653D01*
X93667447Y-40020433D01*
X93667444Y-40020431D01*
X93667442Y-40020430D01*
X93536576Y-39960664D01*
X93536571Y-39960662D01*
X93536570Y-39960662D01*
X93478246Y-39943536D01*
X93469528Y-39940976D01*
X93400002Y-39930980D01*
X93327111Y-39920500D01*
X90920000Y-39920500D01*
X90919991Y-39920500D01*
X90919990Y-39920501D01*
X90812549Y-39932052D01*
X90812537Y-39932054D01*
X90761027Y-39943260D01*
X90658502Y-39977383D01*
X90658496Y-39977386D01*
X90537462Y-40055171D01*
X90537451Y-40055179D01*
X90484659Y-40100923D01*
X90390433Y-40209664D01*
X90390430Y-40209668D01*
X90330664Y-40340534D01*
X90310976Y-40407582D01*
X90302076Y-40469484D01*
X90291626Y-40542172D01*
X90290500Y-40550001D01*
X90290500Y-46870500D01*
X90270815Y-46937539D01*
X90218011Y-46983294D01*
X90166500Y-46994500D01*
X69521717Y-46994500D01*
X69454678Y-46974815D01*
X69408923Y-46922011D01*
X69397727Y-46872043D01*
X69380055Y-45451543D01*
X69398904Y-45384263D01*
X69451134Y-45337855D01*
X69504045Y-45326000D01*
X70917000Y-45326000D01*
X70917000Y-44253231D01*
X71060753Y-44276000D01*
X71273247Y-44276000D01*
X71417000Y-44253231D01*
X71417000Y-45326000D01*
X73114828Y-45326000D01*
X73114844Y-45325999D01*
X73174372Y-45319598D01*
X73174379Y-45319596D01*
X73309086Y-45269354D01*
X73309093Y-45269350D01*
X73424187Y-45183190D01*
X73424190Y-45183187D01*
X73510350Y-45068093D01*
X73510354Y-45068086D01*
X73560596Y-44933379D01*
X73560598Y-44933372D01*
X73566999Y-44873844D01*
X73567000Y-44873827D01*
X73567000Y-43176000D01*
X72494231Y-43176000D01*
X72517000Y-43032247D01*
X72517000Y-42819753D01*
X72494231Y-42676000D01*
X73567000Y-42676000D01*
X73567000Y-40978172D01*
X73566999Y-40978155D01*
X73560598Y-40918627D01*
X73560596Y-40918620D01*
X73510354Y-40783913D01*
X73510350Y-40783906D01*
X73424190Y-40668812D01*
X73424187Y-40668809D01*
X73309093Y-40582649D01*
X73309086Y-40582645D01*
X73174379Y-40532403D01*
X73174372Y-40532401D01*
X73114844Y-40526000D01*
X71417000Y-40526000D01*
X71417000Y-41598768D01*
X71273247Y-41576000D01*
X71060753Y-41576000D01*
X70917000Y-41598768D01*
X70917000Y-40526000D01*
X69427032Y-40526000D01*
X69401921Y-40518626D01*
X69376002Y-40515013D01*
X69368932Y-40508939D01*
X69359993Y-40506315D01*
X69342859Y-40486541D01*
X69323003Y-40469484D01*
X69318139Y-40458013D01*
X69314238Y-40453511D01*
X69308205Y-40437442D01*
X69307084Y-40433684D01*
X69291282Y-40365153D01*
X69279591Y-40340374D01*
X69266355Y-40301016D01*
X69262146Y-40288497D01*
X69240082Y-40254166D01*
X69233408Y-40242420D01*
X69232811Y-40241223D01*
X69229889Y-40235028D01*
X69226323Y-40229628D01*
X69207664Y-40201372D01*
X69207661Y-40201369D01*
X69206358Y-40199396D01*
X69206359Y-40199396D01*
X69191387Y-40176724D01*
X69191379Y-40176715D01*
X69190344Y-40175368D01*
X69186090Y-40170152D01*
X69184359Y-40167458D01*
X69176436Y-40158315D01*
X69176426Y-40158302D01*
X69138604Y-40114653D01*
X69134430Y-40111036D01*
X69122938Y-40099686D01*
X69095826Y-40069172D01*
X69069134Y-40052481D01*
X69053678Y-40041059D01*
X69029884Y-40020442D01*
X68992742Y-40003478D01*
X68980801Y-39997218D01*
X68979635Y-39996523D01*
X68973830Y-39992894D01*
X68972714Y-39992401D01*
X68972699Y-39992392D01*
X68926923Y-39972172D01*
X68909901Y-39964653D01*
X68909893Y-39964651D01*
X68908224Y-39964051D01*
X68901898Y-39961988D01*
X68899006Y-39960667D01*
X68887376Y-39957251D01*
X68887233Y-39957205D01*
X68840669Y-39943536D01*
X68840657Y-39943532D01*
X68833102Y-39941313D01*
X68833087Y-39941310D01*
X68831910Y-39940965D01*
X68825198Y-39940000D01*
X68823802Y-39939768D01*
X68823252Y-39939502D01*
X68810676Y-39936848D01*
X68771415Y-39925848D01*
X68771413Y-39925848D01*
X68769229Y-39925874D01*
X68739900Y-39926236D01*
X68720733Y-39924984D01*
X68689536Y-39920500D01*
X68689533Y-39920500D01*
X67280889Y-39920500D01*
X67178485Y-39930980D01*
X67129278Y-39941160D01*
X67040554Y-39969191D01*
X67031115Y-39972173D01*
X66980148Y-40003478D01*
X66908515Y-40047476D01*
X66854788Y-40092145D01*
X66758372Y-40198935D01*
X66695944Y-40328567D01*
X66683754Y-40367151D01*
X66644787Y-40425145D01*
X66580652Y-40452867D01*
X66551632Y-40453014D01*
X66307431Y-40425500D01*
X66307425Y-40425500D01*
X66026575Y-40425500D01*
X66026568Y-40425500D01*
X65781013Y-40453167D01*
X65712191Y-40441112D01*
X65660812Y-40393763D01*
X65648153Y-40364882D01*
X65637490Y-40328567D01*
X65625724Y-40288496D01*
X65547936Y-40167457D01*
X65540003Y-40158302D01*
X65502187Y-40114659D01*
X65502183Y-40114656D01*
X65502181Y-40114653D01*
X65393447Y-40020433D01*
X65393444Y-40020431D01*
X65393442Y-40020430D01*
X65262576Y-39960664D01*
X65262571Y-39960662D01*
X65262570Y-39960662D01*
X65204246Y-39943536D01*
X65195528Y-39940976D01*
X65126002Y-39930980D01*
X65053111Y-39920500D01*
X62691000Y-39920500D01*
X62690991Y-39920500D01*
X62690990Y-39920501D01*
X62583549Y-39932052D01*
X62583537Y-39932054D01*
X62532027Y-39943260D01*
X62429502Y-39977383D01*
X62429496Y-39977386D01*
X62308462Y-40055171D01*
X62308451Y-40055179D01*
X62255659Y-40100923D01*
X62161433Y-40209664D01*
X62161430Y-40209668D01*
X62101664Y-40340534D01*
X62081976Y-40407582D01*
X62073076Y-40469484D01*
X62061500Y-40550000D01*
X40750500Y-40550000D01*
X40750500Y-38103051D01*
X40750649Y-38096966D01*
X40756149Y-37985010D01*
X42695500Y-37985010D01*
X42695500Y-38214989D01*
X42695501Y-38215005D01*
X42725518Y-38443009D01*
X42725519Y-38443014D01*
X42725520Y-38443020D01*
X42725521Y-38443022D01*
X42785046Y-38665175D01*
X42785049Y-38665185D01*
X42873057Y-38877654D01*
X42873061Y-38877664D01*
X42988055Y-39076839D01*
X43128064Y-39259303D01*
X43128070Y-39259310D01*
X43290689Y-39421929D01*
X43290696Y-39421935D01*
X43473160Y-39561944D01*
X43672335Y-39676938D01*
X43672336Y-39676938D01*
X43672339Y-39676940D01*
X43884824Y-39764954D01*
X44106980Y-39824480D01*
X44335004Y-39854500D01*
X44335011Y-39854500D01*
X44564989Y-39854500D01*
X44564996Y-39854500D01*
X44793020Y-39824480D01*
X45015176Y-39764954D01*
X45227661Y-39676940D01*
X45426840Y-39561944D01*
X45609305Y-39421934D01*
X45771934Y-39259305D01*
X45911944Y-39076840D01*
X46026940Y-38877661D01*
X46114954Y-38665176D01*
X46174480Y-38443020D01*
X46204500Y-38214996D01*
X46204500Y-37985010D01*
X138695500Y-37985010D01*
X138695500Y-38214989D01*
X138695501Y-38215005D01*
X138725518Y-38443009D01*
X138725519Y-38443014D01*
X138725520Y-38443020D01*
X138725521Y-38443022D01*
X138785046Y-38665175D01*
X138785049Y-38665185D01*
X138873057Y-38877654D01*
X138873061Y-38877664D01*
X138988055Y-39076839D01*
X139128064Y-39259303D01*
X139128070Y-39259310D01*
X139290689Y-39421929D01*
X139290696Y-39421935D01*
X139473160Y-39561944D01*
X139672335Y-39676938D01*
X139672336Y-39676938D01*
X139672339Y-39676940D01*
X139884824Y-39764954D01*
X140106980Y-39824480D01*
X140335004Y-39854500D01*
X140335011Y-39854500D01*
X140564989Y-39854500D01*
X140564996Y-39854500D01*
X140793020Y-39824480D01*
X141015176Y-39764954D01*
X141227661Y-39676940D01*
X141426840Y-39561944D01*
X141609305Y-39421934D01*
X141771934Y-39259305D01*
X141911944Y-39076840D01*
X142026940Y-38877661D01*
X142114954Y-38665176D01*
X142174480Y-38443020D01*
X142204500Y-38214996D01*
X142204500Y-37985004D01*
X142174480Y-37756980D01*
X142114954Y-37534824D01*
X142026940Y-37322339D01*
X141911944Y-37123160D01*
X141771934Y-36940695D01*
X141771929Y-36940689D01*
X141609310Y-36778070D01*
X141609303Y-36778064D01*
X141426839Y-36638055D01*
X141227664Y-36523061D01*
X141227654Y-36523057D01*
X141015185Y-36435049D01*
X141015178Y-36435047D01*
X141015176Y-36435046D01*
X140793020Y-36375520D01*
X140793014Y-36375519D01*
X140793009Y-36375518D01*
X140565005Y-36345501D01*
X140565002Y-36345500D01*
X140564996Y-36345500D01*
X140335004Y-36345500D01*
X140334998Y-36345500D01*
X140334994Y-36345501D01*
X140106990Y-36375518D01*
X140106983Y-36375519D01*
X140106980Y-36375520D01*
X139884824Y-36435046D01*
X139884814Y-36435049D01*
X139672345Y-36523057D01*
X139672335Y-36523061D01*
X139473160Y-36638055D01*
X139290696Y-36778064D01*
X139290689Y-36778070D01*
X139128070Y-36940689D01*
X139128064Y-36940696D01*
X138988055Y-37123160D01*
X138873061Y-37322335D01*
X138873057Y-37322345D01*
X138785049Y-37534814D01*
X138785046Y-37534824D01*
X138729141Y-37743468D01*
X138725521Y-37756977D01*
X138725518Y-37756990D01*
X138695501Y-37984994D01*
X138695500Y-37985010D01*
X46204500Y-37985010D01*
X46204500Y-37985004D01*
X46174480Y-37756980D01*
X46114954Y-37534824D01*
X46026940Y-37322339D01*
X45911944Y-37123160D01*
X45771934Y-36940695D01*
X45771929Y-36940689D01*
X45609310Y-36778070D01*
X45609303Y-36778064D01*
X45426839Y-36638055D01*
X45227664Y-36523061D01*
X45227654Y-36523057D01*
X45015185Y-36435049D01*
X45015178Y-36435047D01*
X45015176Y-36435046D01*
X44793020Y-36375520D01*
X44793014Y-36375519D01*
X44793009Y-36375518D01*
X44565005Y-36345501D01*
X44565002Y-36345500D01*
X44564996Y-36345500D01*
X44335004Y-36345500D01*
X44334998Y-36345500D01*
X44334994Y-36345501D01*
X44106990Y-36375518D01*
X44106983Y-36375519D01*
X44106980Y-36375520D01*
X43884824Y-36435046D01*
X43884814Y-36435049D01*
X43672345Y-36523057D01*
X43672335Y-36523061D01*
X43473160Y-36638055D01*
X43290696Y-36778064D01*
X43290689Y-36778070D01*
X43128070Y-36940689D01*
X43128064Y-36940696D01*
X42988055Y-37123160D01*
X42873061Y-37322335D01*
X42873057Y-37322345D01*
X42785049Y-37534814D01*
X42785046Y-37534824D01*
X42729141Y-37743468D01*
X42725521Y-37756977D01*
X42725518Y-37756990D01*
X42695501Y-37984994D01*
X42695500Y-37985010D01*
X40756149Y-37985010D01*
X40756648Y-37974860D01*
X40756648Y-37974859D01*
X40767351Y-37756980D01*
X40768015Y-37743465D01*
X40769208Y-37731359D01*
X40820691Y-37384287D01*
X40823061Y-37372367D01*
X40908322Y-37031986D01*
X40911852Y-37020353D01*
X40940355Y-36940695D01*
X41030055Y-36689999D01*
X41034710Y-36678762D01*
X41069835Y-36604495D01*
X41184735Y-36361557D01*
X41190454Y-36350857D01*
X41370851Y-36049884D01*
X41377594Y-36039791D01*
X41586630Y-35757939D01*
X41594333Y-35748554D01*
X41829983Y-35488553D01*
X41838553Y-35479983D01*
X42098554Y-35244333D01*
X42107939Y-35236630D01*
X42389791Y-35027594D01*
X42399884Y-35020851D01*
X42700857Y-34840454D01*
X42711557Y-34834735D01*
X43028762Y-34684710D01*
X43039999Y-34680055D01*
X43370361Y-34561849D01*
X43381986Y-34558322D01*
X43722367Y-34473061D01*
X43734278Y-34470692D01*
X44081359Y-34419207D01*
X44093465Y-34418015D01*
X44446967Y-34400648D01*
X44453051Y-34400500D01*
X44497595Y-34400500D01*
X140402405Y-34400500D01*
X140446949Y-34400500D01*
X140453032Y-34400648D01*
G37*
G04 #@! TD.AperFunction*
G04 #@! TA.AperFunction,Conductor*
G36*
X133743039Y-39519685D02*
G01*
X133788794Y-39572489D01*
X133800000Y-39624000D01*
X133800000Y-61176000D01*
X133780315Y-61243039D01*
X133727511Y-61288794D01*
X133676000Y-61300000D01*
X130124000Y-61300000D01*
X130056961Y-61280315D01*
X130011206Y-61227511D01*
X130000000Y-61176000D01*
X130000000Y-60519687D01*
X130019685Y-60452648D01*
X130072489Y-60406893D01*
X130133731Y-60396069D01*
X130149162Y-60397283D01*
X130708871Y-59837575D01*
X130724755Y-59896854D01*
X130791898Y-60013148D01*
X130886853Y-60108103D01*
X131003147Y-60175246D01*
X131062424Y-60191129D01*
X130502714Y-60750838D01*
X130502715Y-60750839D01*
X130539612Y-60777646D01*
X130716327Y-60867689D01*
X130716330Y-60867690D01*
X130904947Y-60928974D01*
X131100837Y-60960001D01*
X131299163Y-60960001D01*
X131495052Y-60928974D01*
X131683669Y-60867690D01*
X131683672Y-60867689D01*
X131860382Y-60777649D01*
X131897283Y-60750838D01*
X131897284Y-60750837D01*
X131337575Y-60191128D01*
X131396853Y-60175246D01*
X131513147Y-60108103D01*
X131608102Y-60013148D01*
X131675245Y-59896854D01*
X131691128Y-59837576D01*
X132250836Y-60397285D01*
X132250837Y-60397284D01*
X132277648Y-60360383D01*
X132367688Y-60183673D01*
X132367689Y-60183670D01*
X132428973Y-59995053D01*
X132460000Y-59799164D01*
X132460000Y-59600837D01*
X132428973Y-59404948D01*
X132367689Y-59216331D01*
X132367688Y-59216328D01*
X132277645Y-59039613D01*
X132250838Y-59002716D01*
X132250837Y-59002715D01*
X131691127Y-59562424D01*
X131675245Y-59503148D01*
X131608102Y-59386854D01*
X131513147Y-59291899D01*
X131396853Y-59224756D01*
X131337574Y-59208872D01*
X131897283Y-58649162D01*
X131860380Y-58622351D01*
X131683672Y-58532312D01*
X131683669Y-58532311D01*
X131495052Y-58471027D01*
X131299163Y-58440001D01*
X131100837Y-58440001D01*
X130904947Y-58471027D01*
X130716330Y-58532311D01*
X130716322Y-58532314D01*
X130539615Y-58622353D01*
X130502715Y-58649161D01*
X130502715Y-58649162D01*
X131062425Y-59208872D01*
X131003147Y-59224756D01*
X130886853Y-59291899D01*
X130791898Y-59386854D01*
X130724755Y-59503148D01*
X130708871Y-59562426D01*
X130149161Y-59002716D01*
X130133730Y-59003931D01*
X130120118Y-59001071D01*
X130106353Y-59003051D01*
X130086601Y-58994030D01*
X130065352Y-58989567D01*
X130055447Y-58979803D01*
X130042797Y-58974026D01*
X130031057Y-58955759D01*
X130015595Y-58940516D01*
X130011768Y-58925744D01*
X130005023Y-58915248D01*
X130000000Y-58880313D01*
X130000000Y-57503544D01*
X130019685Y-57436505D01*
X130072489Y-57390750D01*
X130141647Y-57380806D01*
X130189332Y-57400559D01*
X130189886Y-57399547D01*
X130197671Y-57403798D01*
X130332517Y-57454092D01*
X130332516Y-57454092D01*
X130339444Y-57454836D01*
X130392127Y-57460501D01*
X132007872Y-57460500D01*
X132067483Y-57454092D01*
X132202331Y-57403797D01*
X132317546Y-57317547D01*
X132403796Y-57202332D01*
X132454091Y-57067484D01*
X132460500Y-57007874D01*
X132460499Y-55392129D01*
X132454091Y-55332518D01*
X132419041Y-55238545D01*
X132403797Y-55197672D01*
X132403793Y-55197665D01*
X132317547Y-55082456D01*
X132317544Y-55082453D01*
X132202335Y-54996207D01*
X132202328Y-54996203D01*
X132067482Y-54945909D01*
X132067483Y-54945909D01*
X132007883Y-54939502D01*
X132007881Y-54939501D01*
X132007873Y-54939501D01*
X132007864Y-54939501D01*
X130392129Y-54939501D01*
X130392123Y-54939502D01*
X130332516Y-54945909D01*
X130197671Y-54996203D01*
X130189886Y-55000455D01*
X130189165Y-54999136D01*
X130132841Y-55020141D01*
X130064569Y-55005287D01*
X130015165Y-54955880D01*
X130000000Y-54896457D01*
X130000000Y-45300000D01*
X126324000Y-45300000D01*
X126256961Y-45280315D01*
X126211206Y-45227511D01*
X126200000Y-45176000D01*
X126200000Y-44963049D01*
X126219685Y-44896010D01*
X126272489Y-44850255D01*
X126341647Y-44840311D01*
X126367334Y-44846867D01*
X126492623Y-44893597D01*
X126492627Y-44893598D01*
X126552155Y-44899999D01*
X126552172Y-44900000D01*
X128250000Y-44900000D01*
X128250000Y-43827231D01*
X128393753Y-43850000D01*
X128606247Y-43850000D01*
X128750000Y-43827231D01*
X128750000Y-44900000D01*
X130447828Y-44900000D01*
X130447844Y-44899999D01*
X130507372Y-44893598D01*
X130507379Y-44893596D01*
X130642086Y-44843354D01*
X130642093Y-44843350D01*
X130757187Y-44757190D01*
X130757190Y-44757187D01*
X130843350Y-44642093D01*
X130843354Y-44642086D01*
X130893596Y-44507379D01*
X130893598Y-44507372D01*
X130899999Y-44447844D01*
X130900000Y-44447827D01*
X130900000Y-42750000D01*
X129827231Y-42750000D01*
X129850000Y-42606247D01*
X129850000Y-42393753D01*
X129827231Y-42250000D01*
X130900000Y-42250000D01*
X130900000Y-40552172D01*
X130899999Y-40552155D01*
X130893598Y-40492627D01*
X130893596Y-40492620D01*
X130843354Y-40357913D01*
X130843350Y-40357906D01*
X130757190Y-40242812D01*
X130757187Y-40242809D01*
X130642093Y-40156649D01*
X130642086Y-40156645D01*
X130507379Y-40106403D01*
X130507372Y-40106401D01*
X130447844Y-40100000D01*
X128750000Y-40100000D01*
X128750000Y-41172768D01*
X128606247Y-41150000D01*
X128393753Y-41150000D01*
X128250000Y-41172768D01*
X128250000Y-40100000D01*
X126552155Y-40100000D01*
X126492627Y-40106401D01*
X126492619Y-40106403D01*
X126367333Y-40153132D01*
X126297641Y-40158116D01*
X126236318Y-40124631D01*
X126202834Y-40063307D01*
X126200000Y-40036950D01*
X126200000Y-39624000D01*
X126219685Y-39556961D01*
X126272489Y-39511206D01*
X126324000Y-39500000D01*
X133676000Y-39500000D01*
X133743039Y-39519685D01*
G37*
G04 #@! TD.AperFunction*
G04 #@! TA.AperFunction,Conductor*
G36*
X65120150Y-40445685D02*
G01*
X65165905Y-40498489D01*
X65175849Y-40567647D01*
X65146824Y-40631203D01*
X65106913Y-40661720D01*
X64955799Y-40734492D01*
X64718043Y-40883884D01*
X64584741Y-40990187D01*
X65405282Y-41810728D01*
X65287534Y-41896278D01*
X65137278Y-42046534D01*
X65051728Y-42164282D01*
X64231187Y-41343741D01*
X64124884Y-41477043D01*
X63975492Y-41714799D01*
X63853662Y-41967782D01*
X63760922Y-42232819D01*
X63760921Y-42232821D01*
X63698439Y-42506575D01*
X63698437Y-42506587D01*
X63667000Y-42785598D01*
X63667000Y-43066401D01*
X63698437Y-43345412D01*
X63698439Y-43345424D01*
X63760921Y-43619178D01*
X63760922Y-43619180D01*
X63853662Y-43884217D01*
X63975492Y-44137200D01*
X64124884Y-44374956D01*
X64231187Y-44508257D01*
X65051728Y-43687716D01*
X65137278Y-43805466D01*
X65287534Y-43955722D01*
X65405281Y-44041270D01*
X64584741Y-44861810D01*
X64584741Y-44861811D01*
X64718043Y-44968115D01*
X64955799Y-45117507D01*
X65208782Y-45239337D01*
X65473819Y-45332077D01*
X65473821Y-45332078D01*
X65747575Y-45394560D01*
X65747587Y-45394562D01*
X66026598Y-45425999D01*
X66026600Y-45426000D01*
X66307400Y-45426000D01*
X66307401Y-45425999D01*
X66586412Y-45394562D01*
X66586424Y-45394560D01*
X66860178Y-45332078D01*
X66860180Y-45332077D01*
X67125217Y-45239337D01*
X67378200Y-45117507D01*
X67615956Y-44968116D01*
X67749257Y-44861810D01*
X66928717Y-44041271D01*
X67046466Y-43955722D01*
X67196722Y-43805466D01*
X67282270Y-43687717D01*
X68102810Y-44508257D01*
X68209116Y-44374956D01*
X68358507Y-44137200D01*
X68480337Y-43884217D01*
X68525458Y-43755268D01*
X68566179Y-43698492D01*
X68631132Y-43672744D01*
X68699694Y-43686200D01*
X68750097Y-43734587D01*
X68766500Y-43796222D01*
X68766500Y-44873870D01*
X68766501Y-44873876D01*
X68772908Y-44933483D01*
X68823202Y-45068328D01*
X68823206Y-45068335D01*
X68846315Y-45099205D01*
X68870732Y-45164669D01*
X68871038Y-45171973D01*
X68899999Y-47499999D01*
X68900000Y-47500000D01*
X90796000Y-47500000D01*
X90796000Y-40550000D01*
X90815685Y-40482961D01*
X90868489Y-40437206D01*
X90920000Y-40426000D01*
X93327111Y-40426000D01*
X93394150Y-40445685D01*
X93439905Y-40498489D01*
X93449849Y-40567647D01*
X93420824Y-40631203D01*
X93380913Y-40661720D01*
X93229799Y-40734492D01*
X92992043Y-40883884D01*
X92858741Y-40990187D01*
X93679282Y-41810728D01*
X93561534Y-41896278D01*
X93411278Y-42046534D01*
X93325728Y-42164282D01*
X92505187Y-41343741D01*
X92398884Y-41477043D01*
X92249492Y-41714799D01*
X92127662Y-41967782D01*
X92034922Y-42232819D01*
X92034921Y-42232821D01*
X91972439Y-42506575D01*
X91972437Y-42506587D01*
X91941000Y-42785598D01*
X91941000Y-43066401D01*
X91972437Y-43345412D01*
X91972439Y-43345424D01*
X92034921Y-43619178D01*
X92034922Y-43619180D01*
X92127662Y-43884217D01*
X92249492Y-44137200D01*
X92398884Y-44374956D01*
X92505187Y-44508257D01*
X93325728Y-43687716D01*
X93411278Y-43805466D01*
X93561534Y-43955722D01*
X93679281Y-44041270D01*
X92858741Y-44861810D01*
X92858741Y-44861811D01*
X92992043Y-44968115D01*
X93229799Y-45117507D01*
X93482782Y-45239337D01*
X93747819Y-45332077D01*
X93747821Y-45332078D01*
X94021575Y-45394560D01*
X94021587Y-45394562D01*
X94300598Y-45425999D01*
X94300600Y-45426000D01*
X94581400Y-45426000D01*
X94581401Y-45425999D01*
X94860412Y-45394562D01*
X94860424Y-45394560D01*
X95134178Y-45332078D01*
X95134180Y-45332077D01*
X95399217Y-45239337D01*
X95652200Y-45117507D01*
X95889956Y-44968116D01*
X96023257Y-44861810D01*
X95202717Y-44041271D01*
X95320466Y-43955722D01*
X95470722Y-43805466D01*
X95556270Y-43687717D01*
X96376810Y-44508257D01*
X96483116Y-44374956D01*
X96632509Y-44137197D01*
X96705280Y-43986087D01*
X96752102Y-43934227D01*
X96819529Y-43915914D01*
X96886153Y-43936962D01*
X96930822Y-43990688D01*
X96941000Y-44039888D01*
X96941000Y-47500000D01*
X116454831Y-47500000D01*
X116521870Y-47519685D01*
X116534586Y-47529052D01*
X124000000Y-53800000D01*
X127670500Y-53800000D01*
X127737539Y-53819685D01*
X127783294Y-53872489D01*
X127794500Y-53924000D01*
X127794500Y-55379879D01*
X127774815Y-55446918D01*
X127722011Y-55492673D01*
X127660773Y-55503497D01*
X127650837Y-55502715D01*
X127091127Y-56062424D01*
X127075245Y-56003148D01*
X127008102Y-55886854D01*
X126913147Y-55791899D01*
X126796853Y-55724756D01*
X126737574Y-55708872D01*
X127297283Y-55149162D01*
X127260380Y-55122351D01*
X127083672Y-55032312D01*
X127083669Y-55032311D01*
X126895052Y-54971027D01*
X126699163Y-54940001D01*
X126500837Y-54940001D01*
X126304947Y-54971027D01*
X126116330Y-55032311D01*
X126116322Y-55032314D01*
X125939615Y-55122353D01*
X125902715Y-55149161D01*
X125902715Y-55149162D01*
X126462425Y-55708872D01*
X126403147Y-55724756D01*
X126286853Y-55791899D01*
X126191898Y-55886854D01*
X126124755Y-56003148D01*
X126108871Y-56062426D01*
X125549161Y-55502716D01*
X125549160Y-55502716D01*
X125522352Y-55539616D01*
X125432313Y-55716323D01*
X125432310Y-55716331D01*
X125371026Y-55904948D01*
X125340000Y-56100837D01*
X125340000Y-56299164D01*
X125371026Y-56495053D01*
X125432310Y-56683670D01*
X125432311Y-56683673D01*
X125522350Y-56860381D01*
X125549161Y-56897284D01*
X126108871Y-56337575D01*
X126124755Y-56396854D01*
X126191898Y-56513148D01*
X126286853Y-56608103D01*
X126403147Y-56675246D01*
X126462424Y-56691129D01*
X125902714Y-57250838D01*
X125902715Y-57250839D01*
X125939612Y-57277646D01*
X126101267Y-57360015D01*
X126152063Y-57407990D01*
X126168858Y-57475811D01*
X126146320Y-57541946D01*
X126091605Y-57585397D01*
X126044972Y-57594500D01*
X125517073Y-57594500D01*
X125456765Y-57598003D01*
X125456726Y-57597331D01*
X125390751Y-57584001D01*
X125340618Y-57535334D01*
X125334002Y-57521767D01*
X125304486Y-57450508D01*
X125189083Y-57277797D01*
X125189080Y-57277793D01*
X125042207Y-57130920D01*
X125042203Y-57130917D01*
X124869490Y-57015513D01*
X124869488Y-57015512D01*
X124677590Y-56936026D01*
X124677578Y-56936023D01*
X124473862Y-56895501D01*
X124473859Y-56895501D01*
X124266141Y-56895501D01*
X124266138Y-56895501D01*
X124062421Y-56936023D01*
X124062409Y-56936026D01*
X123870511Y-57015512D01*
X123870509Y-57015513D01*
X123697796Y-57130917D01*
X123697792Y-57130920D01*
X123550919Y-57277793D01*
X123550916Y-57277797D01*
X123435512Y-57450510D01*
X123435511Y-57450512D01*
X123356025Y-57642410D01*
X123356022Y-57642422D01*
X123315500Y-57846137D01*
X123315500Y-57876000D01*
X123295815Y-57943039D01*
X123243011Y-57988794D01*
X123191500Y-58000000D01*
X123036437Y-58000000D01*
X123702000Y-56269000D01*
X123702000Y-54491000D01*
X122559000Y-54491000D01*
X122416037Y-54844772D01*
X122416036Y-54844771D01*
X122416037Y-54844771D01*
X121126424Y-53819685D01*
X115570000Y-49403000D01*
X62691000Y-49403000D01*
X62623961Y-49383315D01*
X62578206Y-49330511D01*
X62567000Y-49279000D01*
X62567000Y-40550000D01*
X62586685Y-40482961D01*
X62639489Y-40437206D01*
X62691000Y-40426000D01*
X65053111Y-40426000D01*
X65120150Y-40445685D01*
G37*
G04 #@! TD.AperFunction*
G04 #@! TA.AperFunction,Conductor*
G36*
X127650836Y-56897284D02*
G01*
X127660771Y-56896503D01*
X127729148Y-56910867D01*
X127778905Y-56959918D01*
X127794500Y-57020121D01*
X127794500Y-57470500D01*
X127774815Y-57537539D01*
X127722011Y-57583294D01*
X127670500Y-57594500D01*
X127155028Y-57594500D01*
X127087989Y-57574815D01*
X127042234Y-57522011D01*
X127032290Y-57452853D01*
X127061315Y-57389297D01*
X127098733Y-57360015D01*
X127260383Y-57277649D01*
X127297283Y-57250838D01*
X127297284Y-57250837D01*
X126737575Y-56691128D01*
X126796853Y-56675246D01*
X126913147Y-56608103D01*
X127008102Y-56513148D01*
X127075245Y-56396854D01*
X127091128Y-56337576D01*
X127650836Y-56897284D01*
G37*
G04 #@! TD.AperFunction*
G04 #@! TA.AperFunction,Conductor*
G36*
X68697474Y-40428331D02*
G01*
X68705652Y-40427052D01*
X68730505Y-40438030D01*
X68756572Y-40445685D01*
X68761992Y-40451940D01*
X68769564Y-40455285D01*
X68784536Y-40477957D01*
X68802327Y-40498489D01*
X68804500Y-40508188D01*
X68808066Y-40513588D01*
X68813523Y-40548458D01*
X68816378Y-40778026D01*
X68808570Y-40822900D01*
X68772909Y-40918514D01*
X68772908Y-40918516D01*
X68766501Y-40978116D01*
X68766500Y-40978135D01*
X68766500Y-42055776D01*
X68746815Y-42122815D01*
X68694011Y-42168570D01*
X68624853Y-42178514D01*
X68561297Y-42149489D01*
X68525458Y-42096730D01*
X68480337Y-41967782D01*
X68358507Y-41714799D01*
X68209115Y-41477043D01*
X68102810Y-41343741D01*
X67282270Y-42164281D01*
X67196722Y-42046534D01*
X67046466Y-41896278D01*
X66928716Y-41810728D01*
X67749257Y-40990187D01*
X67615956Y-40883884D01*
X67378200Y-40734492D01*
X67227087Y-40661720D01*
X67175228Y-40614898D01*
X67156915Y-40547471D01*
X67177963Y-40480847D01*
X67231689Y-40436178D01*
X67280889Y-40426000D01*
X68689533Y-40426000D01*
X68697474Y-40428331D01*
G37*
G04 #@! TD.AperFunction*
G04 #@! TA.AperFunction,Conductor*
G36*
X96884039Y-40445685D02*
G01*
X96929794Y-40498489D01*
X96941000Y-40550000D01*
X96941000Y-41812111D01*
X96921315Y-41879150D01*
X96868511Y-41924905D01*
X96799353Y-41934849D01*
X96735797Y-41905824D01*
X96705280Y-41865913D01*
X96632507Y-41714799D01*
X96483115Y-41477043D01*
X96376810Y-41343741D01*
X95556270Y-42164281D01*
X95470722Y-42046534D01*
X95320466Y-41896278D01*
X95202716Y-41810728D01*
X96023257Y-40990187D01*
X95889956Y-40883884D01*
X95652200Y-40734492D01*
X95501087Y-40661720D01*
X95449228Y-40614898D01*
X95430915Y-40547471D01*
X95451963Y-40480847D01*
X95505689Y-40436178D01*
X95554889Y-40426000D01*
X96817000Y-40426000D01*
X96884039Y-40445685D01*
G37*
G04 #@! TD.AperFunction*
G04 #@! TA.AperFunction,Conductor*
G36*
X129796010Y-61711205D02*
G01*
X129914541Y-61765338D01*
X129981580Y-61785023D01*
X129981584Y-61785024D01*
X130124000Y-61805500D01*
X130124003Y-61805500D01*
X130644976Y-61805500D01*
X130712015Y-61825185D01*
X130757770Y-61877989D01*
X130767714Y-61947147D01*
X130738689Y-62010703D01*
X130701272Y-62039984D01*
X130539615Y-62122353D01*
X130502715Y-62149161D01*
X130502715Y-62149162D01*
X131062425Y-62708872D01*
X131003147Y-62724756D01*
X130886853Y-62791899D01*
X130791898Y-62886854D01*
X130724755Y-63003148D01*
X130708871Y-63062426D01*
X130149161Y-62502716D01*
X130149160Y-62502716D01*
X130122352Y-62539616D01*
X130032313Y-62716323D01*
X130032310Y-62716331D01*
X129971026Y-62904948D01*
X129940000Y-63100837D01*
X129940000Y-63299164D01*
X129971026Y-63495053D01*
X130032310Y-63683670D01*
X130032311Y-63683673D01*
X130122350Y-63860381D01*
X130149161Y-63897284D01*
X130708871Y-63337575D01*
X130724755Y-63396854D01*
X130791898Y-63513148D01*
X130886853Y-63608103D01*
X131003147Y-63675246D01*
X131062424Y-63691129D01*
X130502714Y-64250838D01*
X130502715Y-64250839D01*
X130539612Y-64277646D01*
X130716327Y-64367689D01*
X130716330Y-64367690D01*
X130904947Y-64428974D01*
X131100837Y-64460001D01*
X131299163Y-64460001D01*
X131495052Y-64428974D01*
X131683669Y-64367690D01*
X131683672Y-64367689D01*
X131860382Y-64277649D01*
X131897283Y-64250838D01*
X131897284Y-64250837D01*
X131337575Y-63691128D01*
X131396853Y-63675246D01*
X131513147Y-63608103D01*
X131608102Y-63513148D01*
X131675245Y-63396854D01*
X131691128Y-63337576D01*
X132250836Y-63897285D01*
X132250837Y-63897284D01*
X132277648Y-63860383D01*
X132367688Y-63683673D01*
X132367689Y-63683670D01*
X132428973Y-63495053D01*
X132460000Y-63299164D01*
X132460000Y-63100837D01*
X132428973Y-62904948D01*
X132367689Y-62716331D01*
X132367688Y-62716328D01*
X132277645Y-62539613D01*
X132250838Y-62502716D01*
X132250837Y-62502715D01*
X131691127Y-63062424D01*
X131675245Y-63003148D01*
X131608102Y-62886854D01*
X131513147Y-62791899D01*
X131396853Y-62724756D01*
X131337574Y-62708872D01*
X131897283Y-62149162D01*
X131860380Y-62122351D01*
X131698729Y-62039985D01*
X131647933Y-61992010D01*
X131631138Y-61924189D01*
X131653676Y-61858054D01*
X131708391Y-61814603D01*
X131755024Y-61805500D01*
X132676000Y-61805500D01*
X132743039Y-61825185D01*
X132788794Y-61877989D01*
X132800000Y-61929500D01*
X132800000Y-67792989D01*
X132799209Y-67806970D01*
X131212484Y-81789981D01*
X131185366Y-81854374D01*
X131127740Y-81893883D01*
X131089275Y-81900000D01*
X126124000Y-81900000D01*
X126056961Y-81880315D01*
X126011206Y-81827511D01*
X126000000Y-81776000D01*
X126000000Y-81305391D01*
X126019685Y-81238352D01*
X126072489Y-81192597D01*
X126141647Y-81182653D01*
X126205203Y-81211678D01*
X126223267Y-81231081D01*
X126242811Y-81257189D01*
X126242812Y-81257190D01*
X126357906Y-81343350D01*
X126357913Y-81343354D01*
X126492620Y-81393596D01*
X126492627Y-81393598D01*
X126552155Y-81399999D01*
X126552172Y-81400000D01*
X128250000Y-81400000D01*
X128250000Y-80327231D01*
X128393753Y-80350000D01*
X128606247Y-80350000D01*
X128750000Y-80327231D01*
X128750000Y-81400000D01*
X130447828Y-81400000D01*
X130447844Y-81399999D01*
X130507372Y-81393598D01*
X130507379Y-81393596D01*
X130642086Y-81343354D01*
X130642093Y-81343350D01*
X130757187Y-81257190D01*
X130757190Y-81257187D01*
X130843350Y-81142093D01*
X130843354Y-81142086D01*
X130893596Y-81007379D01*
X130893598Y-81007372D01*
X130899999Y-80947844D01*
X130900000Y-80947827D01*
X130900000Y-79250000D01*
X129827231Y-79250000D01*
X129850000Y-79106247D01*
X129850000Y-78893753D01*
X129827231Y-78750000D01*
X130900000Y-78750000D01*
X130900000Y-77052172D01*
X130899999Y-77052155D01*
X130893598Y-76992627D01*
X130893596Y-76992620D01*
X130843354Y-76857913D01*
X130843350Y-76857906D01*
X130757190Y-76742812D01*
X130757187Y-76742809D01*
X130642093Y-76656649D01*
X130642086Y-76656645D01*
X130507379Y-76606403D01*
X130507372Y-76606401D01*
X130447844Y-76600000D01*
X128750000Y-76600000D01*
X128750000Y-77672768D01*
X128606247Y-77650000D01*
X128393753Y-77650000D01*
X128250000Y-77672768D01*
X128250000Y-76600000D01*
X126552155Y-76600000D01*
X126492627Y-76606401D01*
X126492620Y-76606403D01*
X126357913Y-76656645D01*
X126357906Y-76656649D01*
X126242812Y-76742809D01*
X126242809Y-76742812D01*
X126223266Y-76768919D01*
X126167332Y-76810790D01*
X126097641Y-76815774D01*
X126036318Y-76782288D01*
X126002834Y-76720965D01*
X126000000Y-76694608D01*
X126000000Y-76313726D01*
X126003002Y-76286606D01*
X128173961Y-66600791D01*
X129939500Y-66600791D01*
X129939500Y-66799210D01*
X129970536Y-66995163D01*
X129970537Y-66995169D01*
X130017140Y-67138597D01*
X130031850Y-67183869D01*
X130093021Y-67303923D01*
X130121923Y-67360647D01*
X130238544Y-67521162D01*
X130378839Y-67661457D01*
X130539354Y-67778078D01*
X130652800Y-67835881D01*
X130716131Y-67868150D01*
X130716133Y-67868150D01*
X130716136Y-67868152D01*
X130904832Y-67929464D01*
X131002814Y-67944982D01*
X131100791Y-67960501D01*
X131100796Y-67960501D01*
X131299209Y-67960501D01*
X131388278Y-67946393D01*
X131495168Y-67929464D01*
X131683864Y-67868152D01*
X131860646Y-67778078D01*
X132021161Y-67661457D01*
X132161456Y-67521162D01*
X132278077Y-67360647D01*
X132368151Y-67183865D01*
X132429463Y-66995169D01*
X132446392Y-66888279D01*
X132460500Y-66799210D01*
X132460500Y-66600791D01*
X132443570Y-66493907D01*
X132429463Y-66404833D01*
X132368151Y-66216137D01*
X132368149Y-66216134D01*
X132368149Y-66216132D01*
X132335880Y-66152801D01*
X132278077Y-66039355D01*
X132161456Y-65878840D01*
X132021161Y-65738545D01*
X131860646Y-65621924D01*
X131803922Y-65593022D01*
X131683868Y-65531851D01*
X131638596Y-65517141D01*
X131495168Y-65470538D01*
X131495162Y-65470537D01*
X131299209Y-65439501D01*
X131299204Y-65439501D01*
X131100796Y-65439501D01*
X131100791Y-65439501D01*
X130904837Y-65470537D01*
X130904835Y-65470537D01*
X130904832Y-65470538D01*
X130810484Y-65501194D01*
X130716131Y-65531851D01*
X130539352Y-65621925D01*
X130539349Y-65621927D01*
X130453255Y-65684478D01*
X130378839Y-65738545D01*
X130378837Y-65738547D01*
X130378836Y-65738547D01*
X130238546Y-65878837D01*
X130238546Y-65878838D01*
X130238544Y-65878840D01*
X130184477Y-65953256D01*
X130121926Y-66039350D01*
X130121924Y-66039353D01*
X130031850Y-66216132D01*
X130001193Y-66310485D01*
X129970537Y-66404833D01*
X129970536Y-66404836D01*
X129970536Y-66404838D01*
X129939500Y-66600791D01*
X128173961Y-66600791D01*
X128181130Y-66568805D01*
X128299801Y-66039350D01*
X128600000Y-64700000D01*
X128600000Y-61824000D01*
X128619685Y-61756961D01*
X128672489Y-61711206D01*
X128724000Y-61700000D01*
X129744499Y-61700000D01*
X129796010Y-61711205D01*
G37*
G04 #@! TD.AperFunction*
G04 #@! TA.AperFunction,Conductor*
G36*
X125295410Y-61737750D02*
G01*
X125345134Y-61744900D01*
X126217990Y-61744900D01*
X126285029Y-61764585D01*
X126330784Y-61817389D01*
X126340728Y-61886547D01*
X126311703Y-61950103D01*
X126256308Y-61986831D01*
X126116330Y-62032311D01*
X126116322Y-62032314D01*
X125939615Y-62122353D01*
X125902715Y-62149161D01*
X125902715Y-62149162D01*
X126462425Y-62708872D01*
X126403147Y-62724756D01*
X126286853Y-62791899D01*
X126191898Y-62886854D01*
X126124755Y-63003148D01*
X126108871Y-63062426D01*
X125549161Y-62502716D01*
X125549160Y-62502716D01*
X125522352Y-62539616D01*
X125432313Y-62716323D01*
X125432310Y-62716331D01*
X125371026Y-62904948D01*
X125340000Y-63100837D01*
X125340000Y-63299164D01*
X125371026Y-63495053D01*
X125432310Y-63683670D01*
X125432311Y-63683673D01*
X125522350Y-63860381D01*
X125549161Y-63897284D01*
X126108871Y-63337575D01*
X126124755Y-63396854D01*
X126191898Y-63513148D01*
X126286853Y-63608103D01*
X126403147Y-63675246D01*
X126462424Y-63691129D01*
X125902714Y-64250838D01*
X125902715Y-64250839D01*
X125939612Y-64277646D01*
X126116327Y-64367689D01*
X126116330Y-64367690D01*
X126304947Y-64428974D01*
X126500837Y-64460001D01*
X126699163Y-64460001D01*
X126895052Y-64428974D01*
X127083669Y-64367690D01*
X127083672Y-64367689D01*
X127260382Y-64277649D01*
X127297283Y-64250838D01*
X127297284Y-64250837D01*
X126737575Y-63691128D01*
X126796853Y-63675246D01*
X126913147Y-63608103D01*
X127008102Y-63513148D01*
X127075245Y-63396854D01*
X127091128Y-63337576D01*
X127650836Y-63897285D01*
X127650837Y-63897284D01*
X127677648Y-63860383D01*
X127767688Y-63683673D01*
X127767689Y-63683670D01*
X127828973Y-63495053D01*
X127848027Y-63374757D01*
X127877956Y-63311622D01*
X127937268Y-63274691D01*
X128007130Y-63275689D01*
X128065363Y-63314299D01*
X128093477Y-63378262D01*
X128094500Y-63394155D01*
X128094500Y-64516242D01*
X128092210Y-64539965D01*
X127921673Y-65414889D01*
X127920961Y-65418286D01*
X127817330Y-65880640D01*
X127783460Y-65941751D01*
X127721927Y-65974850D01*
X127652268Y-65969427D01*
X127596599Y-65927204D01*
X127596014Y-65926405D01*
X127561458Y-65878843D01*
X127561453Y-65878837D01*
X127421163Y-65738547D01*
X127421161Y-65738545D01*
X127260646Y-65621924D01*
X127203922Y-65593022D01*
X127083868Y-65531851D01*
X127038596Y-65517141D01*
X126895168Y-65470538D01*
X126895162Y-65470537D01*
X126699209Y-65439501D01*
X126699204Y-65439501D01*
X126500796Y-65439501D01*
X126500791Y-65439501D01*
X126304837Y-65470537D01*
X126304835Y-65470537D01*
X126304832Y-65470538D01*
X126210484Y-65501194D01*
X126116131Y-65531851D01*
X125939352Y-65621925D01*
X125939349Y-65621927D01*
X125853255Y-65684478D01*
X125778839Y-65738545D01*
X125778837Y-65738547D01*
X125778836Y-65738547D01*
X125638546Y-65878837D01*
X125638546Y-65878838D01*
X125638544Y-65878840D01*
X125590475Y-65945001D01*
X125521926Y-66039350D01*
X125521924Y-66039353D01*
X125431850Y-66216132D01*
X125403205Y-66304294D01*
X125370537Y-66404833D01*
X125370536Y-66404836D01*
X125370536Y-66404838D01*
X125339500Y-66600791D01*
X125339500Y-66799210D01*
X125369689Y-66989817D01*
X125370537Y-66995169D01*
X125417140Y-67138597D01*
X125431850Y-67183869D01*
X125493021Y-67303923D01*
X125521923Y-67360647D01*
X125638544Y-67521162D01*
X125778839Y-67661457D01*
X125939354Y-67778078D01*
X126052099Y-67835524D01*
X126116131Y-67868150D01*
X126116133Y-67868150D01*
X126116136Y-67868152D01*
X126304832Y-67929464D01*
X126402814Y-67944982D01*
X126500791Y-67960501D01*
X126500796Y-67960501D01*
X126699209Y-67960501D01*
X126788278Y-67946393D01*
X126895168Y-67929464D01*
X127083864Y-67868152D01*
X127174014Y-67822218D01*
X127242681Y-67809322D01*
X127307422Y-67835598D01*
X127347680Y-67892704D01*
X127351306Y-67959823D01*
X125509739Y-76176048D01*
X125500576Y-76230955D01*
X125500569Y-76231001D01*
X125497570Y-76258094D01*
X125494500Y-76313730D01*
X125494500Y-76694610D01*
X125497396Y-76748633D01*
X125497400Y-76748687D01*
X125500229Y-76774997D01*
X125500231Y-76775015D01*
X125508884Y-76828409D01*
X125508885Y-76828414D01*
X125559160Y-76963210D01*
X125559162Y-76963214D01*
X125592651Y-77024547D01*
X125678869Y-77139723D01*
X125678870Y-77139723D01*
X125678871Y-77139725D01*
X125750313Y-77193208D01*
X125753048Y-77196861D01*
X125757203Y-77198759D01*
X125773793Y-77224573D01*
X125792182Y-77249139D01*
X125793197Y-77254768D01*
X125794977Y-77257537D01*
X125800000Y-77292472D01*
X125800000Y-77531049D01*
X125780315Y-77598088D01*
X125727511Y-77643843D01*
X125658353Y-77653787D01*
X125594797Y-77624762D01*
X125571007Y-77597022D01*
X125542117Y-77551045D01*
X125435810Y-77417741D01*
X124615270Y-78238281D01*
X124529722Y-78120534D01*
X124379466Y-77970278D01*
X124261716Y-77884728D01*
X125082257Y-77064187D01*
X124948956Y-76957884D01*
X124711200Y-76808492D01*
X124458217Y-76686662D01*
X124193180Y-76593922D01*
X124193178Y-76593921D01*
X123919424Y-76531439D01*
X123919412Y-76531437D01*
X123640401Y-76500000D01*
X123359598Y-76500000D01*
X123080587Y-76531437D01*
X123080575Y-76531439D01*
X122806821Y-76593921D01*
X122806819Y-76593922D01*
X122541782Y-76686662D01*
X122288799Y-76808492D01*
X122051043Y-76957884D01*
X121917741Y-77064187D01*
X122738282Y-77884728D01*
X122620534Y-77970278D01*
X122470278Y-78120534D01*
X122384728Y-78238282D01*
X121564187Y-77417741D01*
X121457884Y-77551043D01*
X121308492Y-77788799D01*
X121186662Y-78041782D01*
X121093922Y-78306819D01*
X121093921Y-78306821D01*
X121031439Y-78580575D01*
X121031437Y-78580587D01*
X121000000Y-78859598D01*
X121000000Y-79140401D01*
X121031437Y-79419412D01*
X121031439Y-79419424D01*
X121093921Y-79693178D01*
X121093922Y-79693180D01*
X121186662Y-79958217D01*
X121308492Y-80211200D01*
X121457884Y-80448956D01*
X121564187Y-80582257D01*
X122384728Y-79761716D01*
X122470278Y-79879466D01*
X122620534Y-80029722D01*
X122738281Y-80115270D01*
X121917741Y-80935810D01*
X121917741Y-80935811D01*
X122051043Y-81042115D01*
X122288799Y-81191507D01*
X122541782Y-81313337D01*
X122806819Y-81406077D01*
X122806821Y-81406078D01*
X123080575Y-81468560D01*
X123080587Y-81468562D01*
X123359598Y-81499999D01*
X123359600Y-81500000D01*
X123640400Y-81500000D01*
X123640401Y-81499999D01*
X123919412Y-81468562D01*
X123919424Y-81468560D01*
X124193178Y-81406078D01*
X124193180Y-81406077D01*
X124458217Y-81313337D01*
X124711200Y-81191507D01*
X124948956Y-81042116D01*
X125082257Y-80935810D01*
X124261717Y-80115271D01*
X124379466Y-80029722D01*
X124529722Y-79879466D01*
X124615270Y-79761717D01*
X125435810Y-80582257D01*
X125542115Y-80448956D01*
X125571006Y-80402978D01*
X125571499Y-80402541D01*
X125571685Y-80401911D01*
X125597562Y-80379488D01*
X125623340Y-80356687D01*
X125623992Y-80356586D01*
X125624489Y-80356156D01*
X125658424Y-80351276D01*
X125692394Y-80346038D01*
X125692996Y-80346305D01*
X125693647Y-80346212D01*
X125724851Y-80360462D01*
X125756242Y-80374413D01*
X125756603Y-80374963D01*
X125757203Y-80375237D01*
X125775780Y-80404143D01*
X125794614Y-80432803D01*
X125794739Y-80433645D01*
X125794977Y-80434015D01*
X125800000Y-80468950D01*
X125800000Y-80705233D01*
X125780315Y-80772272D01*
X125744865Y-80807721D01*
X125745006Y-80807909D01*
X125743704Y-80808883D01*
X125743041Y-80809547D01*
X125741466Y-80810559D01*
X125741451Y-80810570D01*
X125688659Y-80856314D01*
X125594433Y-80965055D01*
X125594430Y-80965059D01*
X125534664Y-81095925D01*
X125514976Y-81162973D01*
X125494500Y-81305392D01*
X125494500Y-81776000D01*
X125474815Y-81843039D01*
X125422011Y-81888794D01*
X125370500Y-81900000D01*
X120524000Y-81900000D01*
X120456961Y-81880315D01*
X120411206Y-81827511D01*
X120400000Y-81776000D01*
X120400000Y-76319860D01*
X120406203Y-76281132D01*
X120413777Y-76258094D01*
X125159969Y-61821758D01*
X125199606Y-61764223D01*
X125264058Y-61737249D01*
X125295410Y-61737750D01*
G37*
G04 #@! TD.AperFunction*
G04 #@! TA.AperFunction,Conductor*
G36*
X128037539Y-61764585D02*
G01*
X128083294Y-61817389D01*
X128094500Y-61868900D01*
X128094500Y-63005846D01*
X128074815Y-63072885D01*
X128022011Y-63118640D01*
X127952853Y-63128584D01*
X127889297Y-63099559D01*
X127851523Y-63040781D01*
X127848027Y-63025244D01*
X127828973Y-62904948D01*
X127767689Y-62716331D01*
X127767688Y-62716328D01*
X127677645Y-62539613D01*
X127650838Y-62502716D01*
X127650837Y-62502715D01*
X127091127Y-63062424D01*
X127075245Y-63003148D01*
X127008102Y-62886854D01*
X126913147Y-62791899D01*
X126796853Y-62724756D01*
X126737574Y-62708872D01*
X127297283Y-62149162D01*
X127260380Y-62122351D01*
X127083672Y-62032312D01*
X127083669Y-62032311D01*
X126943692Y-61986831D01*
X126886017Y-61947394D01*
X126858818Y-61883035D01*
X126870732Y-61814189D01*
X126917976Y-61762713D01*
X126982010Y-61744900D01*
X127970500Y-61744900D01*
X128037539Y-61764585D01*
G37*
G04 #@! TD.AperFunction*
M02*
